<svg xmlns="http://www.w3.org/2000/svg" shape-rendering="crispEdges" viewBox="0 -0.5 38 38"><path stroke="#f8f6f7" stroke-width="1.01" d="M17 0h2m-3 1h2m-3 1h2m-7 6h1m-1 9h1m-1 1h1m-1 1h1"/><path stroke="#c7defc" stroke-width="1.01" d="M19 0h1m-2 1h1m-2 1h1m-3 1h2m-5 2h2m-3 1h1m1 0h1m-4 1h1m1 0h1m-2 1h1m-2 1h1m-1 7h1m-1 4h1"/><path stroke="#b7c7de" stroke-width="1.01" d="M20 0h2m-3 1h4m-5 1h2m1 0h1m1 0h1M12 4h2m2 0h1m6 0h1m1 0h1M11 5h1m7 0h2m4 0h2M10 6h1m4 0h1m7 0h1m3 0h1M13 7h1m1 0h2m5 0h1m4 0h1M12 8h1m3 0h1m-6 1h3m4 0h4m-12 1h1m1 0h2m4 0h3m-10 1h2m-3 1h2m-2 2h1m-1 1h1m-1 6h1m-1 1h1"/><path stroke="#b6c7de" stroke-width="1.01" d="M20 2h1m1 1h1m0 2h1m-2 1h1M13 8h1m3 1h1m-8 2h1"/><path stroke="#b7c6de" stroke-width="1.01" d="M22 2h1m-12 8h1"/><path stroke="#97aec8" stroke-width="1.01" d="M14 3h1m-1 1h1m-1 1h1m8 2h1m1 0h2M15 8h1m6 0h1m3 0h2M16 9h1m10 0h1m-11 1h1m0 1h1"/><path stroke="#6789fc" stroke-width="1.01" d="M17 3h1m3 0h1m-5 5h1m3 0h1"/><path stroke="#2151f5" stroke-width="1.01" d="M18 3h3m-3 1h4m-4 1h1m-2 1h2m-2 1h1m1 0h2m-3 1h3"/><path stroke="#e7e0e0" stroke-width="1.01" d="M23 3h1m-9 1h1m6 0h1m-7 1h1m4 0h1m-3 1h1"/><path stroke="#92a6cd" stroke-width="1.01" d="M24 3h1M11 17h1m-1 1h1m-1 1h2m13 0h1m-15 1h2m12 0h1m-16 1h1m1 0h1m-1 1h1"/><path stroke="#2151f4" stroke-width="1.01" d="M17 4h1m0 3h1"/><path stroke="#7a8ab9" stroke-width="1.01" d="M24 4h1m-1 1h1M14 6h1m-1 1h1m9 0h1M14 8h1m8 0h3M14 9h2m6 0h1m1 0h3m-13 1h1m6 0h1m2 0h4m-15 1h1m6 0h1m4 0h3m-9 1h1m6 0h2m-1 1h1m-17 1h1m15 0h1m-17 2h1m15 0h1m-1 1h1m-1 1h1m-15 1h1m13 0h1m-13 2h1m10 0h1m-13 1h4m-7 1h8m1 0h1"/><path stroke="#a0b8d3" stroke-width="1.01" d="M15 5h1m6 0h1m-7 1h1m4 0h1"/><path stroke="#2051f5" stroke-width="1.01" d="M17 5h1m3 2h1"/><path stroke="#f8f7f7" stroke-width="1.01" d="M12 6h1"/><path stroke="#e6e0e0" stroke-width="1.01" d="M20 6h1"/><path stroke="#7a8bb9" stroke-width="1.01" d="M24 6h1m-2 3h1m-5 2h1"/><path stroke="#96aec8" stroke-width="1.01" d="M25 6h1"/><path stroke="#b7c7df" stroke-width="1.01" d="M26 6h1m-17 7h1"/><path stroke="#f8f6f6" stroke-width="1.01" d="M11 7h1"/><path stroke="rgba(0,4,18,0.2235294117647059)" stroke-width="1.01" d="M15 10h2m6 0h1m-10 1h2m5 0h1m2 0h1m-12 1h2m5 0h1m-9 1h2m5 0h1m-8 1h2m-2 1h1m-1 1h1m-1 1h1m0 1h1m0 1h1m0 1h1m0 1h1"/><path stroke="rgba(1,4,18,0.2235294117647059)" stroke-width="1.01" d="M22 10h1"/><path stroke="#7a8ab8" stroke-width="1.01" d="M12 12h1m14 3h1"/><path stroke="#93a6cd" stroke-width="1.01" d="M11 13h1m0 8h1m-2 1h1"/><path stroke="#5f74ab" stroke-width="1.01" d="M26 13h1m0 8h1m-10 1h2m5 0h3m-7 1h1m1 0h1m1 0h2m-14 1h4m1 0h2m2 0h1"/><path stroke="#7b8ab9" stroke-width="1.01" d="M11 15h1m0 3h1m1 2h1m12 0h1"/><path stroke="#92a6cc" stroke-width="1.01" d="M11 20h1m2 1h1"/><path stroke="#92a7cd" stroke-width="1.01" d="M12 22h1"/><path stroke="#7a8bb8" stroke-width="1.01" d="M19 23h1"/><path stroke="#5f75ab" stroke-width="1.01" d="M22 23h1m0 1h1"/><path stroke="#5f74aa" stroke-width="1.01" d="M24 23h1m-8 1h1m2 0h1"/><path stroke="#5f75aa" stroke-width="1.01" d="M21 24h1"/><path stroke="#5e75ab" stroke-width="1.01" d="M24 24h1"/></svg>