<svg xmlns="http://www.w3.org/2000/svg" shape-rendering="crispEdges" viewBox="0 -0.5 38 38"><path stroke="#ef8393" stroke-width="1.01" d="M16 3h1m-4 1h1m1 0h1m-4 1h6m1 0h2M11 6h13M11 7h3m2 0h7m2 0h1M12 8h2m1 0h5m1 0h2m1 0h2M13 9h1m1 0h1m1 0h1m3 0h1m1 0h1"/><path stroke="#ff9da7" stroke-width="1.01" d="M17 3h1"/><path stroke="#ef8293" stroke-width="1.01" d="M14 4h1m-1 3h1m9 0h1m-5 1h1"/><path stroke="#e66185" stroke-width="1.01" d="M16 4h1m-7 3h1M9 8h3M9 9h4m1 0h1m1 0h1m1 0h1m1 0h1m1 0h1m1 0h1m1 0h1M9 10h3m1 0h7m1 0h6"/><path stroke="#e76185" stroke-width="1.01" d="M17 4h1m-6 6h1"/><path stroke="#ee8393" stroke-width="1.01" d="M18 4h1m-1 1h1m-4 2h1m7 0h1M14 8h1"/><path stroke="#ff9da6" stroke-width="1.01" d="M19 4h3m-1 1h3"/><path stroke="#ff9ca6" stroke-width="1.01" d="M24 6h1"/><path stroke="#ef8392" stroke-width="1.01" d="M23 8h1m-5 1h1m5 0h1"/><path stroke="#e66085" stroke-width="1.01" d="M20 10h1"/></svg>