<?xml version="1.0" encoding="UTF-8"?>
<svg width="24" height="27.01" shape-rendering="crispEdges" version="1.1" viewBox="0 -.5 24 27.01" xmlns="http://www.w3.org/2000/svg">
 <g stroke-width="1.01">
  <path d="m6 5e-3h2m-3 1h2m1 0h1m9 0h2m-15 1h1m2 0h1m8 0h3m-16 1h1m4 0h1m5 0h4m-15 1h1m12 0h1m-14 1h1m-2 1h1m-3 16h1m3 0h1m14 0h1m-20 1h6m1 0h1m9 0h2m1 0h1m-19 1h9m1 0h1m1 0h6m-14 1h5m1 0h1m1 0h2m1 0h1" stroke="#efaf37"/>
  <path d="m7 1.005h1m-2 1h2m-1 1h2m10 0h1m-1 1h1m-10 1h1m2 0h1m4 0h2m-14 1h1m3 0h1m2 0h1m3 0h1m-12 1h1m10 0h1m-9 2h1m0 1h3m-11 14h1m18 0h2m-19 1h2m14 0h1m-14 1h3m1 0h6" stroke="#bf810b"/>
  <path d="m9 2.005h1m-5 1h1m14 20h1m-4 2h1" stroke="#efaf36"/>
  <path d="m6 3.005h1m12 22h1m-2 1h1" stroke="#bf810a"/>
  <path d="m5 4.005h1m15 18h1m-8 2h1m-3 1h1" stroke="#efae37"/>
  <path d="m6 4.005h1m-1 1h1m-6 13h1m-2 1h1" stroke="#efc45b"/>
  <path d="m7 4.005h10m-12 1h1m5 0h2m-2 1h2m-11 1h1m7 0h2m1 0h1m-12 1h1m-1 1h1m-2 1h2m-2 1h2m-2 1h2m-2 1h2m-3 1h2m-2 1h1m-1 1h2m-2 1h2m-2 1h1m1 0h1m19 0h1m-22 1h2m20 0h1m-24 1h4m17 0h2m-23 1h1m1 0h3m16 0h3m-22 1h3m17 0h2" stroke="#efc45a"/>
  <path d="m18 4.005h1" stroke="#be810b"/>
  <path d="m7 5.005h1m6 0h1m-8 1h1m6 0h1m-8 1h1m6 0h1" stroke="#fff"/>
  <path d="m8 5.005h1m6 0h2" stroke="#606060"/>
  <path d="m9 5.005h1" stroke="#606061"/>
  <path d="m17 5.005h1m-6 2h1m10 13h1m-23 1h1" stroke="#eec45a"/>
  <path d="m4 6.005h2m12 0h1m-16 1h1m1 0h1m12 0h3m-18 1h5m1 0h2m3 0h4m1 0h2m-18 1h6m1 0h2m1 0h7m-17 1h3m12 0h4m-19 1h2m14 0h3m-19 1h1m17 0h1m-19 1h1m16 0h3m-21 1h1m17 0h3m-21 1h2m16 0h3m-21 1h2m16 0h2m-20 1h2m16 0h3m-20 1h1m17 0h1m-19 1h2m15 0h2m-18 1h1" stroke="#fcfcc4"/>
  <path d="m8 6.005h2m5 0h2m-9 1h2m5 0h2m-6 1h3m-2 1h1" stroke="#22100f"/>
  <path d="m19 6.005h1m-12 2h1" stroke="#fcfdc5"/>
  <path d="m4 7.005h1m13 1h1m1 1h1m-18 5h1m16 4h1" stroke="#fdfcc4"/>
  <path d="m6 10.005h1m1 0h2m3 0h1m1 0h2m-12 1h1m-2 1h1m14 1h1m-15 7h1m14 0h1m-16 1h1m13 0h2m-15 1h1m12 0h1" stroke="#e1dcb4"/>
  <path d="m7 10.005h1" stroke="#e0dcb4"/>
  <path d="m14 10.005h1m2 0h1m1 2h1" stroke="#e1dcb5"/>
  <path d="m20 12.005h1" stroke="#fcfdc4"/>
  <path d="m1 15.005h1m20 4h1" stroke="#efc55a"/>
  <path d="m22 16.005h1" stroke="#fcfcc5"/>
  <path d="m7 23.005h1m14 0h1m-11 1h1m1 1h1" stroke="#eeaf37"/>
  <path d="m3 25.005h1m2 0h1m10 1h1" stroke="#bf800b"/>
  <path d="m10 26.005h1" stroke="#bf800a"/>
 </g>
</svg>
