<svg xmlns="http://www.w3.org/2000/svg" shape-rendering="crispEdges" viewBox="0 -0.5 38 38"><path stroke="#fffa3a" stroke-width="1.01" d="M14 2h1m1 0h1m-5 1h3m-4 1h3m-4 1h2m-2 1h1"/><path stroke="#fffa3b" stroke-width="1.01" d="M15 2h1"/><path stroke="#0084ff" stroke-width="1.01" d="M17 2h2m-2 1h3m-6 1h6m1 0h1m-9 1h7m1 0h1m-8 1h1m1 0h1m1 0h5m-9 1h2m1 0h6"/><path stroke="#ef8f9d" stroke-width="1.01" d="M19 2h3m1 0h1m-3 1h4m-3 1h1m1 0h2m-4 1h2m-1 1h4m-4 1h4"/><path stroke="#ee8f9d" stroke-width="1.01" d="M22 2h1m1 3h1"/><path stroke="#0084fe" stroke-width="1.01" d="M15 3h1"/><path stroke="#0184ff" stroke-width="1.01" d="M16 3h1m3 2h1m-8 1h1m1 0h1m-3 1h1m2 0h1"/><path stroke="#0085ff" stroke-width="1.01" d="M20 3h1m-1 1h1m-4 2h1"/><path stroke="#ef8f9c" stroke-width="1.01" d="M23 4h1m1 1h1"/><path stroke="#ffe700" stroke-width="1.01" d="M12 5h1m-2 1h2m-3 1h3"/><path stroke="#008574" stroke-width="1.01" d="M10 8h10m1 0h4m1 0h3M11 9h13m1 0h1m1 0h4"/><path stroke="#008575" stroke-width="1.01" d="M20 8h1"/><path stroke="#018574" stroke-width="1.01" d="M25 8h1"/><path stroke="#008474" stroke-width="1.01" d="M24 9h1m1 0h1"/><path stroke="#00b982" stroke-width="1.01" d="M12 10h19"/></svg>