<svg xmlns="http://www.w3.org/2000/svg" shape-rendering="crispEdges" viewBox="0 -0.5 38 38"><path stroke="#ff9da7" stroke-width="1.01" d="M14 2h1m-4 3h1"/><path stroke="#ff9da6" stroke-width="1.01" d="M15 2h4m1 0h4M12 3h5m-6 1h3m-4 1h1m-1 1h1"/><path stroke="#ff9ca6" stroke-width="1.01" d="M19 2h1"/><path stroke="#fe9da6" stroke-width="1.01" d="M11 3h1"/><path stroke="#ef8393" stroke-width="1.01" d="M17 3h8M14 4h9m1 0h2M12 5h1m2 0h5m2 0h1m1 0h3M11 6h4m1 0h11M10 7h2m1 0h4m1 0h6m2 0h1m-15 3h1m1 0h7m3 0h2m1 0h4"/><path stroke="#ef8293" stroke-width="1.01" d="M25 3h1m-3 1h1m0 3h1m-2 3h1"/><path stroke="#ee8393" stroke-width="1.01" d="M13 5h2m5 0h2m1 0h1m-9 1h1m1 1h1m4 3h1m3 0h1"/><path stroke="#ef8392" stroke-width="1.01" d="M12 7h1m0 3h1m7 0h1"/><path stroke="#ee8392" stroke-width="1.01" d="M25 7h1"/><path stroke="#e66185" stroke-width="1.01" d="M10 8h10m1 0h8M11 9h6m1 0h9m1 0h3"/><path stroke="#e66085" stroke-width="1.01" d="M20 8h1"/><path stroke="#e76185" stroke-width="1.01" d="M17 9h1m9 0h1"/></svg>