<svg xmlns="http://www.w3.org/2000/svg" shape-rendering="crispEdges" viewBox="0 -0.5 38 38"><path stroke="#fff" stroke-width="1.01" d="M14 1h4m1 0h3M12 2h7m1 0h5M11 3h4m1 0h10M10 4h11m1 0h5M9 5h2m1 0h9m1 0h6M9 6h6m1 0h6m2 0h4M10 7h3m1 0h2m1 0h3m1 0h1m1 0h5M11 8h3m3 0h2m3 0h5m-2 1h1m1 0h1m-2 1h1"/><path stroke="#fffffe" stroke-width="1.01" d="M18 1h1m2 4h1m-7 1h1"/><path stroke="#feffff" stroke-width="1.01" d="M22 1h1m-8 2h1m-3 4h1m6 0h1"/><path stroke="#fffeff" stroke-width="1.01" d="M19 2h1m1 2h1M11 5h1m10 1h1m4 2h1m-2 1h1"/><path stroke="#e1d7ba" stroke-width="1.01" d="M23 6h1m-2 1h1m-9 1h2m3 0h3M12 9h2m3 0h2m3 0h3m-15 1h1m14 0h1m-16 1h1m15 0h1"/><path stroke="#f5f0d3" stroke-width="1.01" d="M9 7h1m18 0h1M9 8h2M9 9h3m16 0h1m-2 1h2m-2 1h1"/><path stroke="#e0d7ba" stroke-width="1.01" d="M16 7h1m-1 1h1m-1 1h1"/><path stroke="#f5f1d3" stroke-width="1.01" d="M28 8h1"/><path stroke="#c1ae9a" stroke-width="1.01" d="M19 9h1m-8 1h1m4 0h1"/><path stroke="#e1d6ba" stroke-width="1.01" d="M11 10h1"/><path stroke="#e1d7bb" stroke-width="1.01" d="M27 12h1"/></svg>