<?xml version="1.0" encoding="UTF-8"?>
<svg width="21" height="9.01" shape-rendering="crispEdges" version="1.1" viewBox="0 -.5 21 9.01" xmlns="http://www.w3.org/2000/svg">
 <g stroke-width="1.01">
  <path d="m4 5e-3h3m2 0h5m-13 1h1m1 0h4m-6 1h3m-4 1h2m-2 1h1" stroke="#003ef2"/>
  <path d="m7 5e-3h1" stroke="#003ff2"/>
  <path d="m8 5e-3h1" stroke="#003ef3"/>
  <path d="m2 1.005h1" stroke="#013ef2"/>
  <path d="m7 1.005h3m1 0h5m-12 1h8m1 0h3m-14 1h2m1 0h2m1 0h5m1 0h1m1 0h1m-16 1h16m-17 1h3m1 0h11m1 0h1m-14 3h16" stroke="#1823e1"/>
  <path d="m10 1.005h1m1 1h1m-9 1h1m2 0h1m7 0h1m-13 2h1" stroke="#1822e1"/>
  <path d="m13 3.005h1m5 5h2" stroke="#1923e1"/>
  <path d="m15 5.005h1" stroke="#1823e0"/>
  <path d="m0 6.005h1m1 0h6m1 0h10m-18 1h3m1 0h7m1 0h2m1 0h1m1 0h3" stroke="#0b15c9"/>
  <path d="m1 6.005h1m13 1h1m1 0h1" stroke="#0b15c8"/>
  <path d="m8 6.005h1" stroke="#0b14c9"/>
  <path d="m4 7.005h1m7 0h1" stroke="#0a15c9"/>
 </g>
</svg>
