<svg xmlns="http://www.w3.org/2000/svg" shape-rendering="crispEdges" viewBox="0 -0.5 38 38"><path stroke="#003ef2" stroke-width="1.01" d="M14 2h3m2 0h5M11 3h1m1 0h4m-6 1h3m-4 1h2m-2 1h1"/><path stroke="#003ff2" stroke-width="1.01" d="M17 2h1"/><path stroke="#003ef3" stroke-width="1.01" d="M18 2h1"/><path stroke="#013ef2" stroke-width="1.01" d="M12 3h1"/><path stroke="#1823e1" stroke-width="1.01" d="M17 3h3m1 0h5M14 4h8m1 0h3M12 5h2m1 0h2m1 0h5m1 0h1m1 0h1M11 6h16M10 7h3m1 0h11m1 0h1m-14 3h16"/><path stroke="#1822e1" stroke-width="1.01" d="M20 3h1m1 1h1m-9 1h1m2 0h1m7 0h1M13 7h1"/><path stroke="#1923e1" stroke-width="1.01" d="M23 5h1m5 5h2"/><path stroke="#1823e0" stroke-width="1.01" d="M25 7h1"/><path stroke="#0b15c9" stroke-width="1.01" d="M10 8h1m1 0h6m1 0h10M11 9h3m1 0h7m1 0h2m1 0h1m1 0h3"/><path stroke="#0b15c8" stroke-width="1.01" d="M11 8h1m13 1h1m1 0h1"/><path stroke="#0b14c9" stroke-width="1.01" d="M18 8h1"/><path stroke="#0a15c9" stroke-width="1.01" d="M14 9h1m7 0h1"/></svg>