<svg xmlns="http://www.w3.org/2000/svg" shape-rendering="crispEdges" viewBox="0 -0.5 38 38"><path stroke="#fff" stroke-width="1.01" d="M14 2h3M9 3h4m6 0h3M6 4h3m15 0h2M6 6h1M6 7h1m-2 5h1m-1 1h1m-1 1h1m-2 3h1m-1 1h1"/><path stroke="#f2e9dd" stroke-width="1.01" d="M17 2h1"/><path stroke="#f3e9dd" stroke-width="1.01" d="M13 3h1m3 1h1m3 0h1M10 5h1M9 18h1"/><path stroke="#e2d7ba" stroke-width="1.01" d="M14 3h1m3 0h1m-9 1h1m4 0h1m7 0h1m0 1h1M7 6h1m6 0h3m1 0h2m2 0h3M11 7h2m1 0h1m-4 1h1m-6 2h1m2 0h1m-1 1h1m-2 3h2m-2 1h1m-4 1h1m-2 3h1m0 1h1"/><path stroke="#f3e9dc" stroke-width="1.01" d="M15 3h3M9 4h1m1 0h4m1 0h1m1 0h1m1 0h1m1 0h1M6 5h1m1 0h2m3 0h2m2 0h3m1 0h1m1 0h1m1 0h2M8 6h4m1 0h1m13 0h1M7 7h1m1 0h2m16 0h1M7 8h2m1 0h1M6 9h4m-2 1h1m-1 1h1m-3 1h2m-2 1h4m-4 1h2m-3 1h3m-1 1h1m-2 1h1m-2 1h4m-2 1h1m-2 1h2"/><path stroke="#fffeff" stroke-width="1.01" d="M22 3h1"/><path stroke="#ccb291" stroke-width="1.01" d="M19 4h1m-9 1h1m4 0h1m3 0h1m-9 1h1m4 0h1m3 0h1m3 0h1M8 7h1m8 0h2m2 0h1m3 0h2M9 8h1m4 0h1m2 0h1m3 0h1m3 0h1M10 9h2m2 0h3m1 0h1m1 0h2m1 0h2m2 0h1m-17 1h3m13 0h2M7 11h1m4 0h1m15 0h1M8 12h2m2 0h1m15 0h1m-19 1h2m15 0h3m-19 1h1m17 0h1m-19 2h1m16 0h3M7 17h4m16 0h1m-18 1h1m19 0h1M9 19h2m16 0h1m2 0h1M8 20h1m18 0h3M6 21h3"/><path stroke="#fffffe" stroke-width="1.01" d="M26 4h1M5 10h1m-2 6h1"/><path stroke="#f3e8dc" stroke-width="1.01" d="M7 5h1m4 0h1m14 3h1M5 17h1m-1 2h1"/><path stroke="#f2e9dc" stroke-width="1.01" d="M15 5h1m10 1h1M6 19h1"/><path stroke="#f3e8dd" stroke-width="1.01" d="M22 5h1M7 10h1m-2 1h1"/><path stroke="#e2d7bb" stroke-width="1.01" d="M20 6h1M8 16h1"/><path stroke="#ccb391" stroke-width="1.01" d="M13 7h1m4 1h1m3 0h1m3 0h1m-8 1h1m-9 6h1m17 0h1m-3 3h1m2 2h1"/><path stroke="#8a7677" stroke-width="1.01" d="M15 7h2m2 0h2m2 0h2M12 8h2m1 0h2m2 0h2m2 0h2M12 9h2m11 0h2m-1 1h1m-17 1h2m14 0h1m-17 1h2m15 0h1m0 2h1m-19 1h1m16 0h2M9 16h2m17 1h2m-2 1h2m-2 1h2M9 20h2m-2 1h2"/><path stroke="#cdb291" stroke-width="1.01" d="M22 7h1m4 9h1m2 1h1"/><path stroke="#feffff" stroke-width="1.01" d="M6 8h1m-2 3h1"/><path stroke="#e2d6ba" stroke-width="1.01" d="M10 10h1m-1 4h1"/><path stroke="#8b7676" stroke-width="1.01" d="M27 11h1"/><path stroke="#8b7677" stroke-width="1.01" d="M27 14h1"/><path stroke="#8a7777" stroke-width="1.01" d="M9 15h1"/><path stroke="#e3d7ba" stroke-width="1.01" d="M6 16h1m1 3h1"/></svg>