<?xml version="1.0" encoding="UTF-8"?>
<svg width="18" height="8.01" shape-rendering="crispEdges" version="1.1" viewBox="0 -.5 18 8.01" xmlns="http://www.w3.org/2000/svg">
 <g stroke-width="1.01">
  <path d="m7 5e-3h1m-4 1h3m-4 1h6m1 0h2m-10 1h5m1 0h7m-13 1h5m2 0h3m1 0h2m1 0h1m-14 1h13m-12 1h1m1 0h1m1 0h1m1 0h1m1 0h1m1 0h1" stroke="#28d940"/>
  <path d="m8 5e-3h1m6 3h1" stroke="#6bf43d"/>
  <path d="m7 1.005h2m-8 3h1m-1 1h2m-3 1h4m1 0h1m1 0h1m1 0h1m1 0h1m3 0h1m1 0h1m-18 1h3m2 0h5m2 0h2m1 0h3" stroke="#1eba64"/>
  <path d="m9 1.005h1" stroke="#28d840"/>
  <path d="m10 1.005h1" stroke="#6af53c"/>
  <path d="m11 1.005h2m-1 1h3" stroke="#6bf53d"/>
  <path d="m9 2.005h1" stroke="#29d840"/>
  <path d="m7 3.005h1m0 1h1m3 0h1m2 0h1" stroke="#29d940"/>
  <path d="m7 4.005h1m8 1h1m-1 1h1" stroke="#28d941"/>
  <path d="m0 5.005h1m2 2h1m10 0h1" stroke="#1fba64"/>
  <path d="m13 6.005h1m-10 1h1m5 0h2" stroke="#1ebb64"/>
 </g>
</svg>
