<svg xmlns="http://www.w3.org/2000/svg" shape-rendering="crispEdges" viewBox="0 -0.5 38 38"><path stroke="#6bf53d" stroke-width="1.01" d="M14 2h2m1 0h7M11 3h6m-6 1h1m1 0h1m-4 1h2m-2 1h1"/><path stroke="#6af53d" stroke-width="1.01" d="M16 2h1"/><path stroke="#28d940" stroke-width="1.01" d="M17 3h2m1 0h2m1 0h2M14 4h6m1 0h2m1 0h2M12 5h11m2 0h1M11 6h6m1 0h5m1 0h3M10 7h2m1 0h7m1 0h4m-12 3h3m2 0h3m2 0h4m1 0h3"/><path stroke="#28d840" stroke-width="1.01" d="M19 3h1m0 1h1m2 1h2m1 0h1M17 6h1m8 1h1m-5 3h1"/><path stroke="#29d940" stroke-width="1.01" d="M22 3h1m2 0h1M12 7h1m12 0h1m-5 3h1"/><path stroke="#6bf53c" stroke-width="1.01" d="M12 4h1"/><path stroke="#28d941" stroke-width="1.01" d="M23 4h1m-1 2h1m-8 4h1m10 0h1"/><path stroke="#29d840" stroke-width="1.01" d="M20 7h1"/><path stroke="#1eba64" stroke-width="1.01" d="M10 8h7m1 0h1m1 0h1m1 0h7M11 9h6m1 0h1m1 0h3m1 0h3m1 0h3"/><path stroke="#1eba65" stroke-width="1.01" d="M17 8h1m1 1h1"/><path stroke="#1fba64" stroke-width="1.01" d="M19 8h1m1 0h1"/><path stroke="#1ebb64" stroke-width="1.01" d="M17 9h1m5 0h1"/><path stroke="#1ebb65" stroke-width="1.01" d="M27 9h1"/><path stroke="#29d941" stroke-width="1.01" d="M17 10h1"/></svg>