<svg xmlns="http://www.w3.org/2000/svg" shape-rendering="crispEdges" viewBox="0 -0.5 38 38"><path stroke="#fefcf4" stroke-width="1.01" d="M21 3h1"/><path stroke="#fffcf4" stroke-width="1.01" d="M10 4h1m3 0h1m5 0h1m5 0h1M13 5h1"/><path stroke="#fef6de" stroke-width="1.01" d="M21 4h1"/><path stroke="#f9e350" stroke-width="1.01" d="M22 4h1m-9 1h2m7 0h1m2 0h1M13 6h1m1 0h1m4 0h1m2 0h1M11 7h3m1 0h3m1 0h2m2 0h3M10 8h1m1 0h14M10 9h1"/><path stroke="#fff6de" stroke-width="1.01" d="M10 5h1m9 0h1m-9 1h1m5 0h2"/><path stroke="#f3c701" stroke-width="1.01" d="M11 5h1m5 4h1"/><path stroke="#f3c700" stroke-width="1.01" d="M17 5h1m7 0h1M11 6h1m5 0h1m7 0h1m0 2h1M11 9h3m1 0h2m1 0h2m1 0h1m1 0h1m1 0h2"/><path stroke="#fff6df" stroke-width="1.01" d="M19 5h1"/><path stroke="#ff0748" stroke-width="1.01" d="M21 5h1m0 1h1"/><path stroke="#fe7484" stroke-width="1.01" d="M22 5h1"/><path stroke="#00ef31" stroke-width="1.01" d="M10 6h1"/><path stroke="#2960ff" stroke-width="1.01" d="M14 6h1"/><path stroke="#f8e350" stroke-width="1.01" d="M16 6h1m7 0h1m-7 1h1m-8 1h1"/><path stroke="#d80037" stroke-width="1.01" d="M21 6h1m-1 1h1"/><path stroke="#ef26e6" stroke-width="1.01" d="M26 6h1"/><path stroke="#00d257" stroke-width="1.01" d="M10 7h1"/><path stroke="#1348e4" stroke-width="1.01" d="M14 7h1"/><path stroke="#d80137" stroke-width="1.01" d="M22 7h1"/><path stroke="#bc1de6" stroke-width="1.01" d="M26 7h1"/><path stroke="#f2c701" stroke-width="1.01" d="M14 9h1"/><path stroke="#f2c700" stroke-width="1.01" d="M20 9h1m1 0h1"/><path stroke="#f3c600" stroke-width="1.01" d="M24 9h1"/></svg>