<svg xmlns="http://www.w3.org/2000/svg" shape-rendering="crispEdges" viewBox="0 -0.5 38 38"><path stroke-width="1.01" stroke="#ebebeb" d="M17 1h2m-3 1h2"/><path stroke-width="1.01" stroke="#dcdcdc" d="M18 2h1m-3 1h1"/><path stroke-width="1.01" stroke="#dddddc" d="M19 2h1"/><path stroke-width="1.01" stroke="#003eff" d="M17 3h1m-1 1h2m-1 1h1m-3 1h4m-5 1h1m2 0h2m-4 1h1"/><path stroke-width="1.01" stroke="#5982ff" d="M18 3h1m-2 4h1m-3 1h1"/><path stroke-width="1.01" stroke="#ccc" d="M19 3h1m-5 6h5"/><path stroke-width="1.01" stroke="#5882ff" d="M16 5h1"/><path stroke-width="1.01" stroke="#013eff" d="M17 5h1"/><path stroke-width="1.01" stroke="#003efe" d="M19 5h1m-4 2h1"/><path stroke-width="1.01" stroke="#002bde" d="M20 7h1m-3 1h3"/><path stroke-width="1.01" stroke="#003fff" d="M17 8h1"/><path stroke-width="1.01" stroke="#cdcccc" d="M20 9h1"/></svg>