<svg xmlns="http://www.w3.org/2000/svg" shape-rendering="crispEdges" viewBox="0 -0.5 38 38"><path stroke="#2b2b30" stroke-width="1.01" d="M11 3h3m1 0h1m2 0h1m1 0h3m-8 1h2m1 0h6M14 5h9m1 0h1M15 6h2m1 0h3m1 0h3M14 7h3m2 0h6M15 9h1m1 0h5m2 0h3m1 0h1"/><path stroke="#2b2a30" stroke-width="1.01" d="M14 3h1m4 0h1"/><path stroke="#2a2b30" stroke-width="1.01" d="M16 3h1m6 2h1M14 6h1m6 0h1m-4 1h1"/><path stroke="#2b2b31" stroke-width="1.01" d="M17 3h1m-4 1h1m2 0h1m6 0h1m-8 2h1m-2 3h1m5 0h2m3 0h1"/><path stroke="#38393d" stroke-width="1.01" d="M23 3h1m1 1h1"/><path stroke="#38383d" stroke-width="1.01" d="M24 3h2m-1 2h1m-1 2h1"/><path stroke="#25252b" stroke-width="1.01" d="M11 4h3m-3 1h3m-2 1h2m-3 1h3M8 9h2m2 0h3m-7 1h3m1 0h2m1 0h6m1 0h7"/><path stroke="#25242b" stroke-width="1.01" d="M11 6h1m2 4h1m6 0h1"/><path stroke="#38383c" stroke-width="1.01" d="M25 6h1"/><path stroke="#2a2b31" stroke-width="1.01" d="M17 7h1"/><path stroke="#de002f" stroke-width="1.01" d="M11 8h13"/><path stroke="#de012f" stroke-width="1.01" d="M24 8h1"/><path stroke="#e8254e" stroke-width="1.01" d="M25 8h1"/><path stroke="#24252b" stroke-width="1.01" d="M10 9h1m0 1h1"/><path stroke="#24252a" stroke-width="1.01" d="M11 9h1"/></svg>