<svg xmlns="http://www.w3.org/2000/svg" shape-rendering="crispEdges" viewBox="0 -0.5 38 38"><path stroke="#a9693b" stroke-width="1.01" d="M13 2h4m-5 1h1m5 0h2m-8 1h2m6 0h1m7 0h1M7 5h1m5 0h3m12 0h1M7 6h1m4 0h6m6 0h1m2 0h2M8 7h2m2 0h13m1 0h2M7 8h1m1 0h2m3 0h3m1 0h6"/><path stroke="#955d34" stroke-width="1.01" d="M17 2h3m0 1h2m-1 1h2m4 1h1M8 6h1m2 1h1m13 0h1m2 0h2M11 8h3m10 0h4M8 9h19m-14 1h6m1 0h5"/><path stroke="#955c34" stroke-width="1.01" d="M20 2h1m-2 8h1"/><path stroke="#c48456" stroke-width="1.01" d="M21 2h2m-9 1h3m6 0h1M14 4h6m3 0h1m5 0h1M6 5h1m9 0h5m1 0h1m6 0h1M6 6h1m13 0h2"/><path stroke="#c58456" stroke-width="1.01" d="M13 3h1m7 2h1"/><path stroke="#a9683b" stroke-width="1.01" d="M17 3h1m5 2h1m-6 1h1m4 0h1"/><path stroke="#c58457" stroke-width="1.01" d="M22 3h1"/><path stroke="#664832" stroke-width="1.01" d="M24 4h1M11 5h1m13 0h1M11 6h1m13 0h1"/><path stroke="#7e5536" stroke-width="1.01" d="M10 5h1"/><path stroke="#a9693a" stroke-width="1.01" d="M12 5h1m11 0h1M7 7h1m9 1h1"/><path stroke="#7e5537" stroke-width="1.01" d="M26 5h1M9 6h2m-1 1h1"/><path stroke="#c48457" stroke-width="1.01" d="M19 6h1"/><path stroke="#a8693b" stroke-width="1.01" d="M22 6h1m6 0h1M6 7h1m1 1h1"/><path stroke="#7f5537" stroke-width="1.01" d="M26 6h1"/><path stroke="#955d35" stroke-width="1.01" d="M28 8h1"/></svg>