<svg xmlns="http://www.w3.org/2000/svg" shape-rendering="crispEdges" viewBox="0 -0.5 38 38"><path stroke="#28d940" stroke-width="1.01" d="M16 3h1m-4 1h3m-4 1h6m1 0h2M11 6h5m1 0h7M11 7h5m2 0h3m1 0h2m1 0h1M12 8h13M13 9h1m1 0h1m1 0h1m1 0h1m1 0h1m1 0h1"/><path stroke="#6bf43d" stroke-width="1.01" d="M17 3h1m6 3h1"/><path stroke="#1eba64" stroke-width="1.01" d="M16 4h2m-8 3h1m-1 1h2M9 9h4m1 0h1m1 0h1m1 0h1m1 0h1m3 0h1m1 0h1M9 10h3m2 0h5m2 0h2m1 0h3"/><path stroke="#28d840" stroke-width="1.01" d="M18 4h1"/><path stroke="#6af53c" stroke-width="1.01" d="M19 4h1"/><path stroke="#6bf53d" stroke-width="1.01" d="M20 4h2m-1 1h3"/><path stroke="#29d840" stroke-width="1.01" d="M18 5h1"/><path stroke="#29d940" stroke-width="1.01" d="M16 6h1m0 1h1m3 0h1m2 0h1"/><path stroke="#28d941" stroke-width="1.01" d="M16 7h1m8 1h1m-1 1h1"/><path stroke="#1fba64" stroke-width="1.01" d="M9 8h1m2 2h1m10 0h1"/><path stroke="#1ebb64" stroke-width="1.01" d="M22 9h1m-10 1h1m5 0h2"/></svg>