<?xml version="1.0" encoding="UTF-8"?>
<svg width="21" height="8.01" shape-rendering="crispEdges" version="1.1" viewBox="0 -.5 21 8.01" xmlns="http://www.w3.org/2000/svg">
 <g stroke-width="1.01">
  <path d="m3 5e-3h3m1 0h1m2 0h1m1 0h3m-8 1h2m1 0h6m-10 1h9m1 0h1m-10 1h2m1 0h3m1 0h3m-11 1h3m2 0h6m-10 2h1m1 0h5m2 0h3m1 0h1" stroke="#2b2b30"/>
  <path d="m6 5e-3h1m4 0h1" stroke="#2b2a30"/>
  <path d="m8 5e-3h1m6 2h1m-10 1h1m6 0h1m-4 1h1" stroke="#2a2b30"/>
  <path d="m9 5e-3h1m-4 1h1m2 0h1m6 0h1m-8 2h1m-2 3h1m5 0h2m3 0h1" stroke="#2b2b31"/>
  <path d="m15 5e-3h1m1 1h1" stroke="#38393d"/>
  <path d="m16 5e-3h2m-1 2h1m-1 2h1" stroke="#38383d"/>
  <path d="m3 1.005h3m-3 1h3m-2 1h2m-3 1h3m-6 2h2m2 0h3m-7 1h3m1 0h2m1 0h6m1 0h7" stroke="#25252b"/>
  <path d="m3 3.005h1m2 4h1m6 0h1" stroke="#25242b"/>
  <path d="m17 3.005h1" stroke="#38383c"/>
  <path d="m9 4.005h1" stroke="#2a2b31"/>
  <path d="m3 5.005h13" stroke="#de002f"/>
  <path d="m16 5.005h1" stroke="#de012f"/>
  <path d="m17 5.005h1" stroke="#e8254e"/>
  <path d="m2 6.005h1m0 1h1" stroke="#24252b"/>
  <path d="m3 6.005h1" stroke="#24252a"/>
 </g>
</svg>
