<svg xmlns="http://www.w3.org/2000/svg" shape-rendering="crispEdges" viewBox="0 -0.5 38 38"><path stroke="#349dff" stroke-width="1.01" d="M16 3h1m-4 1h2m3 0h1m-7 1h4m1 0h4M11 6h13M11 7h4m1 0h4m1 0h5M12 8h6m2 0h1m1 0h4M13 9h1m1 0h1m3 0h1m1 0h1m1 0h1"/><path stroke="#36ccfe" stroke-width="1.01" d="M17 3h1"/><path stroke="#349dfe" stroke-width="1.01" d="M15 4h1m0 1h1m4 3h1m-5 1h1"/><path stroke="#2782ff" stroke-width="1.01" d="M16 4h2m-8 3h1M9 8h3M9 9h4m1 0h1m1 0h1m1 0h1m3 0h1m1 0h1m1 0h1m-17 1h4m1 0h5m1 0h4m1 0h1"/><path stroke="#36ccff" stroke-width="1.01" d="M19 4h3m-1 1h3m0 1h1"/><path stroke="#359dff" stroke-width="1.01" d="M15 7h1m3 1h1"/><path stroke="#349cff" stroke-width="1.01" d="M20 7h1m4 2h1"/><path stroke="#349cfe" stroke-width="1.01" d="M18 8h1"/><path stroke="#2682ff" stroke-width="1.01" d="M20 9h1m4 1h1"/><path stroke="#2783ff" stroke-width="1.01" d="M9 10h1m4 0h1"/><path stroke="#2782fe" stroke-width="1.01" d="M20 10h1"/></svg>