<svg width="80" height="80" viewBox="0 0 80 80" fill="none" xmlns="http://www.w3.org/2000/svg">
<path d="M80 0H0V80H80V0Z" fill="#110019"/>
<path fill-rule="evenodd" clip-rule="evenodd" d="M32.5 2.5V5H35V2.5H32.5ZM5 5V7.5H7.5V5H5ZM55 5V7.5H57.5V5H55ZM72.5 7.5V10H75V7.5H72.5ZM17.5 10V12.5H12.5V15H17.5V17.5H20V15H25V12.5H20V10H17.5ZM47.5 10V12.5H50V10H47.5ZM65 15V20H62.5V22.5H65V27.5H67.5V22.5H70V20H67.5V15H65ZM35 20V22.5H37.5V20H35ZM12.5 27.5V30H10V32.5H12.5V35H15V32.5H17.5V30H15V27.5H12.5ZM42.5 27.5V30H45V27.5H42.5ZM72.5 32.5V35H70V37.5H72.5V40H75V37.5H77.5V35H75V32.5H72.5ZM57.5 40V42.5H60V40H57.5ZM10 42.5V45H12.5V42.5H10ZM17.5 47.5V50H20V47.5H17.5ZM70 52.5V55H72.5V52.5H70ZM20 62.5V65H22.5V62.5H20ZM60 67.5V70H62.5V67.5H60ZM2.5 72.5V75H5V72.5H2.5ZM67.5 72.5V75H70V72.5H67.5Z" fill="#CDFADD"/>
</svg>
