<svg width="94" height="68" viewBox="0 0 94 68" fill="none" xmlns="http://www.w3.org/2000/svg">
<path fill-rule="evenodd" clip-rule="evenodd" d="M0 0V13.6H6.71429V20.4H20.1429V13.6H13.4286V6.8H6.71429V0H0ZM20.1429 20.4V27.2H26.8571V20.4H20.1429ZM26.8571 27.2V34H33.5714V40.8H26.8571V61.2H33.5714V68H60.4286V61.2H67.1429V40.8H60.4286V34H67.1429V27.2H53.7143V34H40.2857V27.2H26.8571ZM67.1429 27.2H73.8571V20.4H67.1429V27.2ZM73.8571 20.4H87.2857V13.6H94V0H87.2857V6.8H80.5714V13.6H73.8571V20.4Z" fill="#FFD800"/>
<path fill-rule="evenodd" clip-rule="evenodd" d="M40.2857 40.8V61.2H47V54.4H53.7143V40.8H40.2857Z" fill="#FFE97F"/>
</svg>
