<svg width="90" height="32" viewBox="0 0 90 32" fill="none" xmlns="http://www.w3.org/2000/svg">
<path fill-rule="evenodd" clip-rule="evenodd" d="M5.84722e-07 0V5.33333V21.3333H5.29412V32H84.7059V21.3333H90V5.33333V0H84.7059V5.33333H79.4118V16H74.1177V5.33333H68.8235V0H63.5294V5.33333H58.2353V16H52.9412V5.33333H47.6471V0H42.3529V5.33333H37.0588V16H31.7647V5.33333H26.4706V0H21.1765V5.33333H15.8824V16H10.5882V5.33333H5.29412V0H5.84722e-07Z" fill="#FFD800"/>
<path fill-rule="evenodd" clip-rule="evenodd" d="M10.5882 21.3333V26.6667H15.8824V21.3333H10.5882ZM31.7647 21.3333V26.6667H37.0588V21.3333H31.7647ZM52.9412 21.3333V26.6667H58.2353V21.3333H52.9412ZM74.1177 21.3333V26.6667H79.4118V21.3333H74.1177Z" fill="#0026FF"/>
<path fill-rule="evenodd" clip-rule="evenodd" d="M5.29412 16L5.29412 21.3333H10.5882L10.5882 16H5.29412ZM21.1765 16V21.3333H26.4706V16H21.1765ZM42.3529 16V21.3333H47.6471V16H42.3529ZM63.5294 16V21.3333H68.8235V16H63.5294ZM79.4118 16V21.3333H84.7059V16H79.4118Z" fill="#007F46"/>
<path fill-rule="evenodd" clip-rule="evenodd" d="M5.84722e-07 5.33333L0 10.6667H5.29412L5.29412 5.33333H5.84722e-07ZM21.1765 5.33333V10.6667H26.4706V5.33333H21.1765ZM42.3529 5.33333V10.6667H47.6471V5.33333H42.3529ZM63.5294 5.33333L63.5294 10.6667H68.8235V5.33333H63.5294ZM84.7059 5.33333V10.6667H90V5.33333H84.7059Z" fill="#FF0000"/>
</svg>
