<svg xmlns="http://www.w3.org/2000/svg" viewBox="0 -0.5 38 38" shape-rendering="crispEdges">
<metadata>Made with Pixels to Svg https://codepen.io/shshaw/pen/XbxvNj</metadata>
<path stroke-width="1.01" stroke="#faf6ef" d="M24 20h11M29 21h1M33 21h2M33 22h2M25 23h1M34 23h1M24 24h3M33 24h2M25 25h3M31 25h4M24 26h4M30 26h3M34 26h1M24 27h7M32 27h2" />
<path stroke-width="1.01" stroke="#f3e9e1" d="M25 21h1M24 23h1" />
<path stroke-width="1.01" stroke="#faf7ef" d="M26 21h1M28 26h1M33 26h1" />
<path stroke-width="1.01" stroke="#e6001a" d="M27 21h2M30 21h2M26 22h1M29 22h2M26 23h3M29 26h1" />
<path stroke-width="1.01" stroke="#faf6ee" d="M32 21h1M33 23h1M24 25h1M34 27h1" />
<path stroke-width="1.01" stroke="#f3e8e1" d="M25 22h1" />
<path stroke-width="1.01" stroke="#ff3d3d" d="M27 22h1" />
<path stroke-width="1.01" stroke="#e7001a" d="M28 22h1" />
<path stroke-width="1.01" stroke="#e6001b" d="M31 22h1M29 23h1M27 24h1" />
<path stroke-width="1.01" stroke="#d40017" d="M32 22h1M30 23h3M28 24h4M28 25h1M30 25h1" />
<path stroke-width="1.01" stroke="#fbf6ef" d="M32 24h1M31 27h1" />
<path stroke-width="1.01" stroke="#d40117" d="M29 25h1" />
</svg>