<svg xmlns="http://www.w3.org/2000/svg" viewBox="0 -0.5 38 38" shape-rendering="crispEdges">
<metadata>Made with Pixels to Svg https://codepen.io/shshaw/pen/XbxvNj</metadata>
<path stroke-width="1.01" stroke="rgba(188,173,158,0.13333333333333333)" d="M31 0h2M34 0h3M30 1h7M30 2h4M35 2h1M31 3h1M33 3h2M28 4h1M31 4h4M36 4h1M28 5h1M31 5h1M33 5h1M35 5h1" />
<path stroke-width="1.01" stroke="rgba(189,173,158,0.13333333333333333)" d="M33 0h1" />
<path stroke-width="1.01" stroke="rgba(189,173,159,0.13333333333333333)" d="M34 2h1M36 5h1" />
<path stroke-width="1.01" stroke="rgba(189,172,158,0.13333333333333333)" d="M32 3h1" />
<path stroke-width="1.01" stroke="rgba(188,172,158,0.13333333333333333)" d="M32 5h1" />
<path stroke-width="1.01" stroke="rgba(191,175,154,0.18823529411764706)" d="M28 6h1M31 6h1M33 6h1M29 7h1M31 7h2M34 7h1M32 8h4M30 9h1M35 9h1M34 11h2" />
<path stroke-width="1.01" stroke="rgba(190,175,155,0.18823529411764706)" d="M32 6h1" />
<path stroke-width="1.01" stroke="rgba(190,175,154,0.18823529411764706)" d="M33 7h1M33 11h1" />
<path stroke-width="1.01" stroke="rgba(191,174,154,0.18823529411764706)" d="M34 9h1M35 10h1" />
<path stroke-width="1.01" stroke="rgba(190,174,154,0.18823529411764706)" d="M34 10h1" />
<path stroke-width="1.01" stroke="rgba(189,174,155,0.25882352941176473)" d="M32 12h3M32 13h2M32 14h2M36 14h1" />
<path stroke-width="1.01" stroke="rgba(188,174,154,0.3568627450980392)" d="M32 15h3M33 16h2M33 17h1" />
<path stroke-width="1.01" stroke="#5d6e5d" d="M31 18h1M29 19h2M27 20h4M25 21h4" />
<path stroke-width="1.01" stroke="#ffc82d" d="M32 18h1" />
<path stroke-width="1.01" stroke="#ff8600" d="M33 18h1M32 19h1" />
<path stroke-width="1.01" stroke="#8d4734" d="M31 19h1M33 19h1M31 20h1M33 20h1" />
<path stroke-width="1.01" stroke="#c42f07" d="M32 20h1" />
<path stroke-width="1.01" stroke="#555d5a" d="M29 21h3M25 22h4" />
<path stroke-width="1.01" stroke="#8d4735" d="M32 21h1" />
<path stroke-width="1.01" stroke="#555d5b" d="M29 22h1" />
</svg>