<svg xmlns="http://www.w3.org/2000/svg" shape-rendering="crispEdges" viewBox="0 -0.5 38 38"><path stroke="#a8b8ce" stroke-width="1.01" d="M32 20h1m-2 1h1m-2 1h1m5 0h1m-8 1h1m5 0h3m-4 1h3m-1 1h1m-4 2h2m-5 1h1m2 0h1m-4 2h1m-1 1h1"/><path stroke="#c7defc" stroke-width="1.01" d="M33 20h3m-4 1h1m2 0h2m-6 1h1m3 0h1m1 0h1m-8 1h1m2 0h2m-6 1h1m3 0h1m-5 1h1m-1 1h2m-2 1h2m-2 1h1"/><path stroke="#f8f7f6" stroke-width="1.01" d="M33 21h1"/><path stroke="#f8f6f7" stroke-width="1.01" d="M34 21h1m-3 1h2m-4 2h1m-1 1h1"/><path stroke="#a9b8ce" stroke-width="1.01" d="M29 22h1"/><path stroke="#c7dffc" stroke-width="1.01" d="M34 22h1"/><path stroke="#4972ff" stroke-width="1.01" d="M31 23h2m-2 7h1"/><path stroke="#2b59f7" stroke-width="1.01" d="M31 24h2"/><path stroke="#92a6cd" stroke-width="1.01" d="M37 24h1m-1 1h1m-1 1h1m-1 1h1m-9 2h1m1 2h1m0 1h2"/><path stroke="#2151f5" stroke-width="1.01" d="M31 25h2m-2 1h2m-2 1h1m-1 1h2m-1 1h1m-1 1h1"/><path stroke="#1835e8" stroke-width="1.01" d="M33 25h2m-2 1h1m1 0h2m-2 1h2m-1 1h1m-4 1h4m-4 1h3"/><path stroke="#1935e8" stroke-width="1.01" d="M35 25h1"/><path stroke="#1834e8" stroke-width="1.01" d="M34 26h1"/><path stroke="#2150f5" stroke-width="1.01" d="M32 27h1"/><path stroke="#7a8ab9" stroke-width="1.01" d="M34 28h1m2 0h1m-1 1h1m-9 1h1m6 0h2m-3 1h3m-7 1h1m2 0h3m-6 1h5m-5 1h5m-4 1h3m-2 1h1"/><path stroke="#1835e9" stroke-width="1.01" d="M35 28h1"/><path stroke="#a8b8cf" stroke-width="1.01" d="M30 29h1"/><path stroke="#2151f4" stroke-width="1.01" d="M31 29h1"/><path stroke="#93a7cd" stroke-width="1.01" d="M32 31h1"/><path stroke="#92a6cc" stroke-width="1.01" d="M33 31h1"/><path stroke="#93a6cd" stroke-width="1.01" d="M34 31h1"/><path stroke="#7a8bb9" stroke-width="1.01" d="M30 32h1"/></svg>