<?xml version="1.0" encoding="UTF-8"?>
<svg width="6" height="14.01" shape-rendering="crispEdges" version="1.1" viewBox="0 -.5 6 14.01" xmlns="http://www.w3.org/2000/svg">
 <g stroke-width="1.01">
  <path d="m1 5e-3h1" stroke="#010000"/>
  <path d="m2 5e-3h1m-3 1h1m2 1h1m-1 1h1m-1 1h1m-1 1h1" stroke="#000"/>
  <path d="m3 1.005h1" stroke="#000100"/>
  <path d="m2 5.005h1m-2 1h1" stroke="#ff9da6"/>
  <path d="m4 5.005h1m-1 2h2m-2 1h2m-2 1h2m-1 1h1m-2 1h1m-2 1h2m-2 1h2" stroke="#e66185"/>
  <path d="m2 6.005h2m1 0h1m-5 1h3m-3 1h2m-1 1h2m-3 1h2m-1 1h2m-2 1h1m-1 1h1" stroke="#ef8393"/>
  <path d="m4 6.005h1" stroke="#ef8293"/>
  <path d="m3 8.005h1m-1 2h1" stroke="#ee8393"/>
  <path d="m1 9.005h1m-1 2h1" stroke="#ef8392"/>
  <path d="m4 10.005h1" stroke="#e66184"/>
  <path d="m5 11.005h1" stroke="#e76185"/>
 </g>
</svg>
