<?xml version="1.0" encoding="UTF-8"?>
<svg width="12" height="14.01" shape-rendering="crispEdges" version="1.1" viewBox="0 -.5 12 14.01" xmlns="http://www.w3.org/2000/svg">
 <g stroke-width="1.01">
  <path d="m8 5e-3h2m-4 2h1m3 0h1m-6 1h1m4 0h2m-8 1h1m4 0h3m-9 1h1m5 0h3m-1 1h1m-11 1h1m8 0h2m-12 1h1m5 0h2m-8 1h1m5 0h1m-6 1h5m1 0h2m-6 1h6m-4 1h1m5 0h1m-7 1h1m4 0h2" stroke="#5f361e"/>
  <path d="m10 5e-3h1m0 2h1m-10 9h1m0 1h1" stroke="#512f1a"/>
  <path d="m4 1.005h3m-4 1h1m-2 1h1m-1 1h1m-1 1h1" stroke="#241519"/>
  <path d="m7 1.005h1m-6 5h1" stroke="#fdb944"/>
  <path d="m8 1.005h1m-7 6h1" stroke="#bf7514"/>
  <path d="m9 1.005h1m-3 1h2m-3 1h2m-3 1h2m-3 1h2m-2 1h1m-2 1h1m-3 1h2m-2 1h1" stroke="#875436"/>
  <path d="m10 1.005h1m-7 8h1" stroke="#5f371e"/>
  <path d="m11 1.005h1m-12 9h1m0 1h1" stroke="#43251f"/>
  <path d="m4 2.005h1m-2 1h1" stroke="rgba(0,0,0,0.4196078431372549)"/>
  <path d="m9 2.005h1m-7 6h1" stroke="#6b3e23"/>
  <path d="m8 3.005h1m-2 1h1m-2 1h1m-2 1h1m-2 1h2m-2 1h1m-3 1h2" stroke="#6b3e22"/>
  <path d="m9 3.005h1m-2 2h1m1 1h1m-2 4h1m-4 3h1" stroke="#41251a"/>
  <path d="m8 4.005h1m-2 1h1m-2 1h1m1 0h2m-4 1h3m-1 1h1m-1 1h3m-1 1h2m-3 1h1m1 0h1m-6 1h5m-3 1h2" stroke="#331e17"/>
  <path d="m3 6.005h1" stroke="#875536"/>
  <path d="m7 6.005h1m1 2h1m0 3h1" stroke="#331e16"/>
  <path d="m9 7.005h1" stroke="#331f17"/>
  <path d="m5 8.005h1m0 2h1" stroke="#5f361f"/>
  <path d="m10 8.005h1m0 1h1m-5 4h1" stroke="#38201b"/>
  <path d="m11 8.005h1m-5 1h1" stroke="#40251a"/>
  <path d="m5 9.005h1" stroke="#5e361e"/>
  <path d="m2 12.005h1" stroke="#341d19"/>
  <path d="m4 12.005h1" stroke="#5e371e"/>
  <path d="m3 13.005h1" stroke="#26161a"/>
  <path d="m4 13.005h1" stroke="#43241f"/>
 </g>
</svg>
