<?xml version="1.0" encoding="UTF-8"?>
<svg width="6" height="14.01" shape-rendering="crispEdges" version="1.1" viewBox="0 -.5 6 14.01" xmlns="http://www.w3.org/2000/svg">
 <g stroke-width="1.01">
  <path d="m1 5e-3h2m0 2h1m-1 1h1m-1 1h1" stroke="#000"/>
  <path d="m0 1.005h1m2 0h1" stroke="#010000"/>
  <path d="m2 5.005h1m-2 1h1" stroke="#003ef2"/>
  <path d="m3 5.005h1" stroke="#000100"/>
  <path d="m4 5.005h1m-1 2h2m-2 1h2m-2 1h2m-2 1h2m-2 1h2m-3 1h2m-2 1h2" stroke="#0b15c9"/>
  <path d="m2 6.005h4m-5 1h1m-1 1h3m-3 1h3m-2 1h2m-3 1h3m-2 1h1m-1 1h1" stroke="#1823e1"/>
  <path d="m2 7.005h1" stroke="#1822e1"/>
  <path d="m3 7.005h1m-3 3h1" stroke="#1923e1"/>
 </g>
</svg>
