<svg xmlns="http://www.w3.org/2000/svg" shape-rendering="crispEdges" viewBox="0 -0.5 38 38"><path stroke="#241519" stroke-width="1.01" d="M34 25h3m-4 1h1m-2 1h1m-1 1h1m-1 1h1"/><path stroke="#fdb944" stroke-width="1.01" d="M37 25h1m-6 5h1"/><path stroke="rgba(0,0,0,0.4196078431372549)" stroke-width="1.01" d="M34 26h1m-2 1h1"/><path stroke="#253eb4" stroke-width="1.01" d="M36 26h1m0 9h1"/><path stroke="#637df2" stroke-width="1.01" d="M37 26h1m-2 1h2m-3 1h1m-2 1h1"/><path stroke="#253fb4" stroke-width="1.01" d="M35 27h1m-2 1h1m-2 1h1m3 0h1m-2 1h2m-7 1h1m4 0h2m-3 1h3m-8 1h1m3 0h1m1 0h1m-5 1h1m1 0h4m-5 1h4m-3 1h4m-3 1h3"/><path stroke="#4b62cf" stroke-width="1.01" d="M36 28h1"/><path stroke="#2841c1" stroke-width="1.01" d="M37 28h1m-3 2h1m-2 1h2m-3 1h2m-3 1h2"/><path stroke="#4b63ce" stroke-width="1.01" d="M35 29h1m-3 1h2m-2 1h1m-3 1h2m-2 1h1"/><path stroke="#2941c1" stroke-width="1.01" d="M36 29h1"/><path stroke="#bf7514" stroke-width="1.01" d="M32 31h1"/><path stroke="#243fb4" stroke-width="1.01" d="M30 32h1m4 1h1m1 0h1"/><path stroke="#262c98" stroke-width="1.01" d="M30 34h1m0 1h1m2 2h1"/><path stroke="#2239a4" stroke-width="1.01" d="M31 34h1"/><path stroke="#253fb5" stroke-width="1.01" d="M33 34h1"/><path stroke="#2238a4" stroke-width="1.01" d="M32 35h1m0 1h1"/><path stroke="#212587" stroke-width="1.01" d="M32 36h1m0 1h1"/></svg>