<svg xmlns="http://www.w3.org/2000/svg" shape-rendering="crispEdges" viewBox="0 -0.5 38 38"><path stroke="#2d2941" stroke-width="1.01" d="M12 25h1m-2 1h2m-2 1h2m-2 1h2m-2 1h2m-2 1h2m-2 1h2m-2 1h2m-1 1h1m-2 1h2m-2 1h2m-1 1h1m-2 1h2"/><path stroke="#2f2f3f" stroke-width="1.01" d="M13 25h8m1 0h2m-11 1h3m1 0h2m2 0h1m1 0h1m1 0h1m-11 1h3m2 0h6m-13 1h4m2 0h1m1 0h2m1 0h2m-12 1h2m5 0h3m-11 1h3m6 0h4m-13 1h4m1 0h1m5 0h2m-13 1h3m1 0h1m6 0h2m-13 1h7m1 0h1m2 0h2m-13 1h3m4 0h1m4 0h1m-13 1h4m7 0h2m-13 1h5m6 0h2m-13 1h2m1 0h8m1 0h1"/><path stroke="#2f2e3f" stroke-width="1.01" d="M21 25h1m2 1h1m-11 1h1m5 1h1m2 0h1m-3 2h1m-6 2h1m3 1h1m-5 1h1m-2 3h1"/><path stroke="#454055" stroke-width="1.01" d="M24 25h1"/><path stroke="#454155" stroke-width="1.01" d="M25 25h1"/><path stroke="#2f2f3e" stroke-width="1.01" d="M16 26h1m-4 1h1m11 2h1m-9 2h1m0 1h1"/><path stroke="#dedede" stroke-width="1.01" d="M19 26h1m-2 1h1m-2 1h1m-2 1h3m1 0h1m-5 1h4m-1 1h5m-5 1h5m-2 1h2m-7 1h1m4 0h2m-6 1h2m1 0h3m-5 1h1m1 0h2"/><path stroke="#9fa9ad" stroke-width="1.01" d="M20 26h1"/><path stroke="#2e2f3e" stroke-width="1.01" d="M22 26h1"/><path stroke="#9fa8ad" stroke-width="1.01" d="M19 27h1m-2 1h1m-1 6h1m2 0h1m1 2h1"/><path stroke="#2e2f3f" stroke-width="1.01" d="M13 29h1m10 0h1m-6 5h1m4 0h1m-1 3h1"/><path stroke="#dfdede" stroke-width="1.01" d="M19 29h1m0 7h1"/><path stroke="#dedfde" stroke-width="1.01" d="M20 30h1m-1 5h1"/><path stroke="#2d2841" stroke-width="1.01" d="M11 33h1"/><path stroke="#9ea8ad" stroke-width="1.01" d="M17 35h1m0 1h1"/><path stroke="#2d2940" stroke-width="1.01" d="M11 36h1"/></svg>