<?xml version="1.0" encoding="UTF-8"?>
<svg width="15" height="13.01" shape-rendering="crispEdges" version="1.1" viewBox="0 -.5 15 13.01" xmlns="http://www.w3.org/2000/svg">
 <g stroke-width="1.01">
  <path d="m1 5e-3h1m-2 1h2m-2 1h2m-2 1h2m-2 1h2m-2 1h2m-2 1h2m-2 1h2m-1 1h1m-2 1h2m-2 1h2m-1 1h1m-2 1h2" stroke="#2d2941"/>
  <path d="m2 5e-3h8m1 0h2m-11 1h3m1 0h2m2 0h1m1 0h1m1 0h1m-11 1h3m2 0h6m-13 1h4m2 0h1m1 0h2m1 0h2m-12 1h2m5 0h3m-11 1h3m6 0h4m-13 1h4m1 0h1m5 0h2m-13 1h3m1 0h1m6 0h2m-13 1h7m1 0h1m2 0h2m-13 1h3m4 0h1m4 0h1m-13 1h4m7 0h2m-13 1h5m6 0h2m-13 1h2m1 0h8m1 0h1" stroke="#2f2f3f"/>
  <path d="m10 5e-3h1m2 1h1m-11 1h1m5 1h1m2 0h1m-3 2h1m-6 2h1m3 1h1m-5 1h1m-2 3h1" stroke="#2f2e3f"/>
  <path d="m13 5e-3h1" stroke="#454055"/>
  <path d="m14 5e-3h1" stroke="#454155"/>
  <path d="m5 1.005h1m-4 1h1m11 2h1m-9 2h1m0 1h1" stroke="#2f2f3e"/>
  <path d="m8 1.005h1m-2 1h1m-2 1h1m-2 1h3m1 0h1m-5 1h4m-1 1h5m-5 1h5m-2 1h2m-7 1h1m4 0h2m-6 1h2m1 0h3m-5 1h1m1 0h2" stroke="#dedede"/>
  <path d="m9 1.005h1" stroke="#9fa9ad"/>
  <path d="m11 1.005h1" stroke="#2e2f3e"/>
  <path d="m8 2.005h1m-2 1h1m-1 6h1m2 0h1m1 2h1" stroke="#9fa8ad"/>
  <path d="m2 4.005h1m10 0h1m-6 5h1m4 0h1m-1 3h1" stroke="#2e2f3f"/>
  <path d="m8 4.005h1m0 7h1" stroke="#dfdede"/>
  <path d="m9 5.005h1m-1 5h1" stroke="#dedfde"/>
  <path d="m0 8.005h1" stroke="#2d2841"/>
  <path d="m6 10.005h1m0 1h1" stroke="#9ea8ad"/>
  <path d="m0 11.005h1" stroke="#2d2940"/>
 </g>
</svg>
