<?xml version="1.0" encoding="UTF-8"?>
<svg width="15" height="13.01" shape-rendering="crispEdges" version="1.1" viewBox="0 -.5 15 13.01" xmlns="http://www.w3.org/2000/svg">
 <g stroke-width="1.01">
  <path d="m1 5e-3h1m3 1h1m1 0h1m5 0h1m-14 2h1m1 1h1m11 1h1m-5 1h1" stroke="#7024ee"/>
  <path d="m2 5e-3h11m-11 1h2m2 0h1m1 0h2m1 0h2m-13 1h3m1 0h5m1 0h1m1 0h1m1 0h1m-14 1h6m1 0h3m2 0h1m-11 1h7m1 0h4m-13 1h12m-12 1h3m1 0h2m1 0h1m2 0h3m-12 1h11" stroke="#7124ee"/>
  <path d="m13 5e-3h1" stroke="#7e3aeb"/>
  <path d="m0 1.005h1m13 0h1m-12 1h1m5 0h1m1 0h1m1 0h1m-7 1h1m3 0h1m-2 1h1m0 2h1" stroke="#7125ee"/>
  <path d="m1 1.005h1m2 0h1m5 0h1m1 2h1m1 0h1m-10 3h1m2 0h1m5 1h1" stroke="#7124ef"/>
  <path d="m0 4.005h2m-2 1h2m-1 1h1m-2 1h1m1 0h1m-3 1h5m3 0h1m3 0h2" stroke="#6514dd"/>
  <path d="m0 6.005h1" stroke="#6514dc"/>
  <path d="m1 7.005h1" stroke="#6414dd"/>
  <path d="m5 8.005h2m3 0h2m-6 1h2m1 0h2" stroke="#ffdce5"/>
  <path d="m7 8.005h1m1 0h1m-5 1h1m2 0h1m2 0h1" stroke="#ffbcd5"/>
  <path d="m14 8.005h1" stroke="#6515dd"/>
  <path d="m0 9.005h1" stroke="#ca57a8"/>
  <path d="m1 9.005h1" stroke="#ff5ac2"/>
  <path d="m2 9.005h3" stroke="#ff5bc2"/>
  <path d="m12 9.005h1m1 0h1" stroke="#f56ac1"/>
  <path d="m13 9.005h1" stroke="#f56ac0"/>
  <path d="m0 10.005h1" stroke="#d27e58"/>
  <path d="m1 10.005h1" stroke="#d2695c"/>
  <path d="m2 10.005h1" stroke="#fe8163"/>
  <path d="m3 10.005h3m1 0h2m1 0h5" stroke="#ff8163"/>
  <path d="m6 10.005h1m2 0h1" stroke="#ff8162"/>
  <path d="m0 11.005h1" stroke="#d2b030"/>
  <path d="m1 11.005h1m6 0h1" stroke="#d28749"/>
  <path d="m2 11.005h1m1 0h1m1 0h1m2 0h4" stroke="#ffa64b"/>
  <path d="m3 11.005h1m10 0h1" stroke="#ffa74b"/>
  <path d="m5 11.005h1" stroke="#fea64b"/>
  <path d="m7 11.005h1" stroke="#fea64a"/>
  <path d="m13 11.005h1" stroke="#ffa64a"/>
  <path d="m0 12.005h2m6 0h1" stroke="#d2b130"/>
  <path d="m2 12.005h5m2 0h1m1 0h4" stroke="#ffda30"/>
  <path d="m7 12.005h1" stroke="#feda31"/>
  <path d="m10 12.005h1" stroke="#ffdb30"/>
 </g>
</svg>
