<?xml version="1.0" encoding="UTF-8"?>
<svg width="15" height="13.01" shape-rendering="crispEdges" version="1.1" viewBox="0 -.5 15 13.01" xmlns="http://www.w3.org/2000/svg">
 <g stroke-width="1.01">
  <path d="m1 5e-3h1m2 0h1m1 0h2m1 0h4m-12 1h1m1 0h1m2 0h3m1 0h3m1 0h1m-15 1h1m2 0h1m1 0h4m1 0h2m2 0h1m-15 1h1m5 0h4m-4 1h3m-7 3h5m1 0h1m1 0h2m1 0h1m-11 1h12m-12 1h3m1 0h8" stroke="#7124ee"/>
  <path d="m2 5e-3h1m10 1h1m-12 1h1m-2 4h1m5 0h2m5 0h1m-15 1h1m0 3h1m12 0h1" stroke="#fff"/>
  <path d="m3 5e-3h1m0 2h1m0 1h1m1 4h1" stroke="#7124ef"/>
  <path d="m5 5e-3h1m2 0h1m0 2h1m-6 1h1m9 4h1" stroke="#7024ee"/>
  <path d="m13 5e-3h1m-12 1h1m-3 9h1" stroke="#feffff"/>
  <path d="m0 1.005h1m8 0h1m-9 1h1m4 7h1" stroke="#7125ee"/>
  <path d="m4 1.005h2m-5 2h1m-1 1h1m-1 1h1" stroke="#7e3aeb"/>
  <path d="m12 2.005h1m-3 1h2m-12 1h1m8 0h1m4 0h1m-15 1h1m6 0h2m5 0h1m-15 1h1m0 1h1m-1 1h2m-3 1h3m-1 2h2m9 0h1m-10 1h1m6 0h3" stroke="#6514dd"/>
  <path d="m13 2.005h1" stroke="#fffeff"/>
  <path d="m2 3.005h2m8 0h2m-12 1h2m1 0h1m4 0h4m-12 1h3m1 0h1m2 0h5m-12 5h3m1 0h4m1 0h3m-9 1h1m2 0h4m-5 1h3" stroke="#eaeaea"/>
  <path d="m14 3.005h1m-1 8h1" stroke="#6414dd"/>
  <path d="m4 4.005h1m0 1h1m0 6h1" stroke="#eaeaeb"/>
  <path d="m2 6.005h5m2 0h1m2 0h1m-8 6h2m3 0h1" stroke="#d5d5d5"/>
  <path d="m10 6.005h2" stroke="#d5d5d4"/>
  <path d="m13 6.005h1" stroke="#d4d5d5"/>
  <path d="m9 7.005h1" stroke="#7024ef"/>
  <path d="m12 7.005h1" stroke="#7025ee"/>
  <path d="m0 8.005h1" stroke="#6514dc"/>
  <path d="m5 10.005h1m4 0h1" stroke="#eaebea"/>
  <path d="m0 11.005h2m-2 1h1m2 0h1m10 0h1" stroke="#5519ae"/>
  <path d="m4 11.005h1" stroke="#d5d4d5"/>
  <path d="m7 11.005h1m4 0h1" stroke="#ebeaea"/>
  <path d="m1 12.005h1" stroke="#5419ae"/>
  <path d="m2 12.005h1" stroke="#5519af"/>
 </g>
</svg>
