<?xml version="1.0" encoding="UTF-8"?>
<svg width="15" height="13.01" shape-rendering="crispEdges" version="1.1" viewBox="0 -.5 15 13.01" xmlns="http://www.w3.org/2000/svg">
 <g stroke-width="1.01">
  <path d="m1 5e-3h1m-2 1h2m-2 1h2m-2 1h2m-2 1h1m0 1h1m-2 1h2m-2 1h2m-1 1h1m-2 1h2m-2 1h2m-2 1h2m-2 1h2" stroke="#f0bab8"/>
  <path d="m2 5e-3h4m1 0h5m-9 1h12m-13 1h13m-13 1h3m4 0h1m4 0h1m-13 1h2m10 0h1m-13 1h2m10 0h1m-13 1h2m10 0h1m-13 1h3m8 0h2m-13 1h4m6 0h3m-13 1h1m1 0h3m5 0h3m-13 1h5m3 0h5m-13 1h4m1 0h3m1 0h4m-13 1h5m1 0h1m1 0h2m1 0h2" stroke="#ffdfe5"/>
  <path d="m6 5e-3h1m-5 1h1m0 8h1m2 2h1m3 0h1m-4 1h1m1 0h1" stroke="#ffdee5"/>
  <path d="m12 5e-3h1m-2 9h1m-5 1h1m4 2h1" stroke="#fedfe5"/>
  <path d="m13 5e-3h2" stroke="#fff"/>
  <path d="m5 3.005h1m1 0h1m2 0h2m-8 1h4m1 0h1m2 0h1m-9 1h2m1 0h1m1 0h2m1 0h1m-9 1h5m2 0h1m-7 1h6m-5 1h4" stroke="#bd5054"/>
  <path d="m6 3.005h1" stroke="#bd5154"/>
  <path d="m8 3.005h1" stroke="#ffdfe4"/>
  <path d="m12 3.005h1m-2 1h1m-1 1h1" stroke="#bc5054"/>
  <path d="m13 3.005h1" stroke="#fedfe4"/>
  <path d="m1 4.005h1" stroke="#f0bab9"/>
  <path d="m8 4.005h1m4 2h1m-5 3h1" stroke="#b84d50"/>
  <path d="m10 4.005h1m-5 1h1m2 1h2" stroke="#bd5055"/>
  <path d="m13 4.005h1m-3 3h1m-2 2h1" stroke="#b94d51"/>
  <path d="m0 5.005h1m-1 3h1" stroke="#f1bab8"/>
  <path d="m8 5.005h1m4 0h1m-2 2h1m-3 1h2m-5 1h2m-1 1h2" stroke="#b84d51"/>
  <path d="m12 6.005h1" stroke="#b94c51"/>
 </g>
</svg>
