<?xml version="1.0" encoding="UTF-8"?>
<svg width="15" height="13.01" shape-rendering="crispEdges" version="1.1" viewBox="0 -.5 15 13.01" xmlns="http://www.w3.org/2000/svg">
 <g stroke-width="1.01">
  <path d="m1 5e-3h1m1 0h5m1 0h4m-13 1h2m1 0h1m2 0h7m1 0h1m-15 1h2m1 0h5m1 0h3m-12 1h1m4 0h5m-4 1h3m-7 3h1m1 0h6m1 0h4m-11 1h3m1 0h7m-12 1h3m1 0h2m1 0h2m1 0h2" stroke="#7124ee"/>
  <path d="m2 5e-3h1m10 0h1m-1 1h1m-12 1h1m-2 4h1m5 0h2m5 0h1m-15 4h2" stroke="#2b2b2b"/>
  <path d="m8 5e-3h1m-1 2h1m-5 1h1m-2 4h1m2 2h1m2 0h1m2 0h1" stroke="#7124ef"/>
  <path d="m2 1.005h1m10 1h1m-14 5h1" stroke="#2b2b2a"/>
  <path d="m4 1.005h2m-5 2h1m-1 2h1" stroke="#7e3aeb"/>
  <path d="m12 2.005h1m-3 1h2m2 0h1m-15 1h1m8 0h1m4 0h1m-8 1h2m5 0h1m-15 1h1m0 1h1m-2 1h3m-3 1h3m0 2h1m9 0h2m-11 1h1m7 0h2" stroke="#6514dd"/>
  <path d="m14 2.005h1" stroke="#7125ee"/>
  <path d="m2 3.005h2m8 0h2m-12 1h4m4 0h4m-12 1h3m1 0h1m2 0h5m-12 5h12m-8 1h7m-6 1h3" stroke="#3b3b3b"/>
  <path d="m1 4.005h1" stroke="#7f3aeb"/>
  <path d="m0 5.005h1m1 6h1" stroke="#6514dc"/>
  <path d="m5 5.005h1m-1 6h1" stroke="#3b3b3a"/>
  <path d="m2 6.005h5m2 0h1m1 0h2m-9 5h1m0 1h2m3 0h1" stroke="#343434"/>
  <path d="m10 6.005h1" stroke="#353434"/>
  <path d="m13 6.005h1" stroke="#343534"/>
  <path d="m10 7.005h1" stroke="#7025ee"/>
  <path d="m3 8.005h1" stroke="#7024ee"/>
  <path d="m7 8.005h1" stroke="#7125ef"/>
  <path d="m14 10.005h1" stroke="#2a2b2b"/>
  <path d="m0 11.005h1" stroke="#5519af"/>
  <path d="m1 11.005h1m-2 1h2m1 0h1" stroke="#5519ae"/>
  <path d="m2 12.005h1" stroke="#5419ae"/>
  <path d="m11 12.005h1" stroke="#6515dd"/>
  <path d="m14 12.005h1" stroke="#5518ae"/>
 </g>
</svg>
