<svg xmlns="http://www.w3.org/2000/svg" shape-rendering="crispEdges" viewBox="0 -0.5 38 38"><path stroke="#2d2941" stroke-width="1.01" d="M12 25h1m-2 1h2m-2 1h2m-2 1h2m-2 1h2m-2 1h2m-2 1h2m-2 1h1m-1 1h2m-2 1h1m-1 1h2m-2 1h2m-2 1h2"/><path stroke="#2f2f3f" stroke-width="1.01" d="M13 25h11m-11 1h6m2 0h2m1 0h2m-13 1h2m2 0h1m4 0h2m1 0h1m-13 1h2m1 0h1m6 0h3m-13 1h1m1 0h2m6 0h3m-13 1h3m8 0h1m-12 1h3m8 0h2m-13 1h1m2 0h1m6 0h3m-13 1h2m2 0h1m4 0h2m1 0h1m-13 1h3m8 0h1m-12 1h3m9 0h1m-13 1h4m6 0h3m-12 1h2m1 0h1m4 0h4"/><path stroke="#454154" stroke-width="1.01" d="M24 25h1"/><path stroke="#454155" stroke-width="1.01" d="M25 25h1"/><path stroke="#d0d0d0" stroke-width="1.01" d="M19 26h1m-2 1h1m-1 1h2m-3 1h2m-3 1h1"/><path stroke="#c9c9c9" stroke-width="1.01" d="M20 26h1m-1 1h2m-2 1h3m-3 1h3m-1 1h2"/><path stroke="#2e2f3f" stroke-width="1.01" d="M23 26h1m-9 1h1m9 3h1m-1 4h1"/><path stroke="#2f2e3f" stroke-width="1.01" d="M16 27h1m-2 5h1m0 1h1m7 2h1m-12 2h1m2 0h1"/><path stroke="#d1d1d0" stroke-width="1.01" d="M19 27h1"/><path stroke="#2f2f3e" stroke-width="1.01" d="M24 27h1m-10 1h1m-2 1h1m-1 3h1"/><path stroke="#d1d0d0" stroke-width="1.01" d="M17 28h1"/><path stroke="#d0d1d0" stroke-width="1.01" d="M19 29h1"/><path stroke="#d0d0d1" stroke-width="1.01" d="M17 30h1"/><path stroke="#b2b2b2" stroke-width="1.01" d="M18 30h2m-4 1h1m1 0h1m-2 1h3m-2 1h1m-3 1h1m2 0h1m-3 1h2m-2 1h3m-2 1h2"/><path stroke="#939393" stroke-width="1.01" d="M20 30h2m-2 1h4m-4 1h3m-3 1h2m-2 1h1m1 0h2m-3 1h2m-3 1h3m-3 1h2"/><path stroke="#b2b2b3" stroke-width="1.01" d="M17 31h1m1 2h1"/><path stroke="#b3b2b2" stroke-width="1.01" d="M19 31h1m-3 3h1"/><path stroke="#2c2941" stroke-width="1.01" d="M12 32h1"/><path stroke="#909090" stroke-width="1.01" d="M15 33h1"/><path stroke="#777" stroke-width="1.01" d="M24 33h1"/><path stroke="#2d2841" stroke-width="1.01" d="M12 34h1"/><path stroke="#0d0d0d" stroke-width="1.01" d="M18 34h1m1 1h1"/><path stroke="#0d0d0c" stroke-width="1.01" d="M21 34h1"/><path stroke="#656565" stroke-width="1.01" d="M16 35h1"/><path stroke="#0d0c0d" stroke-width="1.01" d="M19 35h1"/><path stroke="#515151" stroke-width="1.01" d="M23 35h1"/></svg>