<svg xmlns="http://www.w3.org/2000/svg" shape-rendering="crispEdges" viewBox="0 -0.5 38 38"><path stroke="#e66c8d" stroke-width="1.01" d="M12 25h1m-2 1h1m-1 1h2m-2 1h1m-1 1h1m-1 1h1m-1 1h1m-1 1h1m0 1h1m-2 1h2m-1 1h1m-2 1h2m-2 1h2"/><path stroke="#ef8f9d" stroke-width="1.01" d="M13 25h9m1 0h1m-11 1h13m-13 1h11m1 0h1m-13 1h1m1 0h1m3 0h1m2 0h2m1 0h1m-13 1h1m1 0h1m1 0h1m1 0h1m1 0h1m3 0h1m-11 1h1m1 0h1m1 0h1m1 0h1m1 0h1m1 0h1m-13 1h1m1 0h1m1 0h1m1 0h1m1 0h1m1 0h1m-11 1h1m1 0h1m3 0h1m2 0h2m-11 1h5m1 0h2m1 0h4m-13 1h6m1 0h6m-13 1h4m1 0h2m1 0h4m-12 1h9m1 0h3m-12 1h2m1 0h3m1 0h5"/><path stroke="#ef8e9d" stroke-width="1.01" d="M22 25h1m1 2h1m-6 7h1m-3 1h1m2 0h1m4 0h1m-13 2h1m6 0h1"/><path stroke="#ffaab2" stroke-width="1.01" d="M24 25h2"/><path stroke="#e66d8d" stroke-width="1.01" d="M12 26h1"/><path stroke="#53101e" stroke-width="1.01" d="M12 28h1m3 0h2m2 0h2m-10 1h1m1 0h1m1 0h1m1 0h1m1 0h1m3 0h1m-13 1h1m1 0h1m1 0h1m1 0h1m3 0h1m1 0h1m-13 1h1m1 0h1m1 0h1m1 0h1m1 0h1m1 0h1m1 0h1m-13 1h1m3 0h3m1 0h2m2 0h2"/><path stroke="#53111e" stroke-width="1.01" d="M14 28h1m3 0h1"/><path stroke="#53101f" stroke-width="1.01" d="M24 28h1m-3 1h1"/><path stroke="#ef8f9c" stroke-width="1.01" d="M23 29h1m1 2h1m-5 2h1m0 3h1"/><path stroke="#52101e" stroke-width="1.01" d="M13 30h1m6 0h1m-7 2h1"/><path stroke="#e66c8c" stroke-width="1.01" d="M11 33h1m-1 2h1"/><path stroke="#ee8f9d" stroke-width="1.01" d="M18 33h1m-3 4h1"/></svg>