<?xml version="1.0" encoding="UTF-8"?>
<svg width="15" height="13.01" shape-rendering="crispEdges" version="1.1" viewBox="0 -.5 15 13.01" xmlns="http://www.w3.org/2000/svg">
 <g stroke-width="1.01">
  <path d="m1 5e-3h1m1 0h1m1 0h2m1 0h5m-13 1h2m1 0h1m2 0h5m1 0h1m1 0h1m-15 1h2m2 0h1m1 0h3m1 0h2m2 0h1m-15 1h1m4 0h3m1 0h1m-3 1h2m-7 3h5m1 0h3m1 0h3m-12 1h4m2 0h1m1 0h1m1 0h2m-12 1h3m2 0h7" stroke="#7124ee"/>
  <path d="m2 5e-3h1m10 0h1m-12 1h1m10 0h1m-1 1h1m-13 4h1m5 0h1m6 0h1m-15 1h1m-1 3h2m12 0h1" stroke="#e06a34"/>
  <path d="m4 5e-3h1m-2 2h1m1 0h1m3 0h1m-2 1h1m-3 1h1m0 3h1m-2 2h1" stroke="#7125ee"/>
  <path d="m7 5e-3h1m3 1h1m-8 2h1m6 4h1m-4 1h1m1 0h1m1 0h1" stroke="#7124ef"/>
  <path d="m4 1.005h2m-5 2h1m-1 1h1m-1 1h1" stroke="#7e3aeb"/>
  <path d="m2 2.005h1m5 4h1" stroke="#e06b34"/>
  <path d="m12 2.005h1m-2 1h1m2 0h1m-15 1h1m8 0h1m-10 1h1m6 0h2m-9 1h1m0 1h1m-1 1h1m-2 1h3m-1 2h2m9 0h2m-11 1h1m6 0h3" stroke="#6514dd"/>
  <path d="m2 3.005h2m8 0h2m-12 1h1m1 0h2m4 0h4m-12 1h4m4 0h4m-12 5h7m1 0h4m-9 1h2m1 0h1m1 0h3m-6 1h3" stroke="#ffa100"/>
  <path d="m10 3.005h1m3 2h1m-13 3h1" stroke="#6414dd"/>
  <path d="m3 4.005h1m5 1h1m-3 6h1m1 0h1" stroke="#ffa000"/>
  <path d="m14 4.005h1" stroke="#6515dd"/>
  <path d="m6 5.005h1" stroke="#fea100"/>
  <path d="m2 6.005h5m3 0h4m-10 5h1m0 1h2m3 0h1" stroke="#e09109"/>
  <path d="m9 6.005h1" stroke="#e19009"/>
  <path d="m0 8.005h1" stroke="#6514dc"/>
  <path d="m7 8.005h1m-1 1h1" stroke="#7024ee"/>
  <path d="m9 10.005h1" stroke="#ffa101"/>
  <path d="m0 11.005h2m-2 1h4m10 0h1" stroke="#5519ae"/>
 </g>
</svg>
