<?xml version="1.0" encoding="UTF-8"?>
<svg width="15" height="13.01" shape-rendering="crispEdges" version="1.1" viewBox="0 -.5 15 13.01" xmlns="http://www.w3.org/2000/svg">
 <g stroke-width="1.01">
  <path d="m1 5e-3h1m-2 1h2m-2 1h2m-2 1h2m-2 1h2m-2 1h2m-2 1h2m-2 1h1m-1 1h2m-2 1h1m-1 1h2m-2 1h2m-2 1h2" stroke="#2d2941"/>
  <path d="m2 5e-3h11m-11 1h6m2 0h2m1 0h2m-13 1h2m2 0h1m4 0h2m1 0h1m-13 1h2m1 0h1m6 0h3m-13 1h1m1 0h2m6 0h3m-13 1h3m8 0h1m-12 1h3m8 0h2m-13 1h1m2 0h1m6 0h3m-13 1h2m2 0h1m4 0h2m1 0h1m-13 1h3m8 0h1m-12 1h3m9 0h1m-13 1h4m6 0h3m-12 1h2m1 0h1m4 0h4" stroke="#2f2f3f"/>
  <path d="m13 5e-3h1" stroke="#454154"/>
  <path d="m14 5e-3h1" stroke="#454155"/>
  <path d="m8 1.005h1m-2 1h1m-1 1h2m-3 1h2m-3 1h1" stroke="#d0d0d0"/>
  <path d="m9 1.005h1m-1 1h2m-2 1h3m-3 1h3m-1 1h2" stroke="#c9c9c9"/>
  <path d="m12 1.005h1m-9 1h1m9 3h1m-1 4h1" stroke="#2e2f3f"/>
  <path d="m5 2.005h1m-2 5h1m0 1h1m7 2h1m-12 2h1m2 0h1" stroke="#2f2e3f"/>
  <path d="m8 2.005h1" stroke="#d1d1d0"/>
  <path d="m13 2.005h1m-10 1h1m-2 1h1m-1 3h1" stroke="#2f2f3e"/>
  <path d="m6 3.005h1" stroke="#d1d0d0"/>
  <path d="m8 4.005h1" stroke="#d0d1d0"/>
  <path d="m6 5.005h1" stroke="#d0d0d1"/>
  <path d="m7 5.005h2m-4 1h1m1 0h1m-2 1h3m-2 1h1m-3 1h1m2 0h1m-3 1h2m-2 1h3m-2 1h2" stroke="#b2b2b2"/>
  <path d="m9 5.005h2m-2 1h4m-4 1h3m-3 1h2m-2 1h1m1 0h2m-3 1h2m-3 1h3m-3 1h2" stroke="#939393"/>
  <path d="m6 6.005h1m1 2h1" stroke="#b2b2b3"/>
  <path d="m8 6.005h1m-3 3h1" stroke="#b3b2b2"/>
  <path d="m1 7.005h1" stroke="#2c2941"/>
  <path d="m4 8.005h1" stroke="#909090"/>
  <path d="m13 8.005h1" stroke="#777"/>
  <path d="m1 9.005h1" stroke="#2d2841"/>
  <path d="m7 9.005h1m1 1h1" stroke="#0d0d0d"/>
  <path d="m10 9.005h1" stroke="#0d0d0c"/>
  <path d="m5 10.005h1" stroke="#656565"/>
  <path d="m8 10.005h1" stroke="#0d0c0d"/>
  <path d="m12 10.005h1" stroke="#515151"/>
 </g>
</svg>
