<svg xmlns="http://www.w3.org/2000/svg" shape-rendering="crispEdges" viewBox="0 -0.5 38 38"><path stroke="#1b83ff" stroke-width="1.01" d="M12 25h1m-2 1h2m-2 2h1m-1 1h1m-1 2h1m-1 1h2m-2 1h2m-1 1h1m-2 1h2m-2 1h2m-2 1h2"/><path stroke="#48daff" stroke-width="1.01" d="M13 25h2m10 0h1"/><path stroke="#009df7" stroke-width="1.01" d="M15 25h9m-11 1h1m10 0h2m-1 6h1m-13 1h1m10 0h2m-13 1h2m8 0h3m-13 1h1m1 0h1m6 0h1m1 0h2m-13 1h5m2 0h3m2 0h1m-13 1h1m1 0h11"/><path stroke="#48dbff" stroke-width="1.01" d="M24 25h1"/><path stroke="gray" stroke-width="1.01" d="M14 26h1m2 0h1m2 0h1m2 0h1m-12 1h1m12 0h1m-14 4h1m3 4h1m4 0h1m-4 1h2"/><path stroke="#a8a8a8" stroke-width="1.01" d="M15 26h1m-3 1h2m-3 1h1m0 1h1m11 1h1m-3 2h1m-3 1h2m-5 1h5m-6 1h4"/><path stroke="#a8a8a9" stroke-width="1.01" d="M16 26h1"/><path stroke="#bfbfbf" stroke-width="1.01" d="M18 26h1m-2 2h1m-2 1h1m6 0h1m1 0h1m-13 1h1m7 0h1m-9 1h1m7 0h1"/><path stroke="#d1d1d1" stroke-width="1.01" d="M19 26h1m1 0h2m-6 1h3m-4 5h2m1 0h1m-4 1h2m-3 1h2"/><path stroke="#1b82ff" stroke-width="1.01" d="M11 27h1"/><path stroke="silver" stroke-width="1.01" d="M15 27h2m-5 2h1m-1 1h1m10 1h2m-5 1h1m1 0h1m-5 1h1m1 0h1m-4 1h1"/><path stroke="#ddd" stroke-width="1.01" d="M20 27h1m1 0h3m-10 4h2m-4 1h3"/><path stroke="#dddddc" stroke-width="1.01" d="M21 27h1"/><path stroke="#a9a8a8" stroke-width="1.01" d="M13 28h1m10 4h1"/><path stroke="#0c3356" stroke-width="1.01" d="M14 28h2m3 0h2m1 0h2m-10 1h1m7 0h1m-9 1h1m-1 1h1"/><path stroke="#002547" stroke-width="1.01" d="M16 28h1m7 0h1m-5 1h1m3 0h1m-10 1h1m7 0h1m-5 1h2"/><path stroke="#0c3257" stroke-width="1.01" d="M18 28h1"/><path stroke="#d0d0d0" stroke-width="1.01" d="M21 28h1m-5 1h1m3 0h1m-5 1h1m1 0h1m-3 1h1m-4 2h1"/><path stroke="#d1d0d0" stroke-width="1.01" d="M25 28h1"/><path stroke="#bebfbf" stroke-width="1.01" d="M15 29h1"/><path stroke="#0c3256" stroke-width="1.01" d="M18 29h1m-1 1h1m3 1h1"/><path stroke="#d1d0d1" stroke-width="1.01" d="M19 29h1m-2 3h1"/><path stroke="#1a83ff" stroke-width="1.01" d="M11 30h1"/><path stroke="#dddcdd" stroke-width="1.01" d="M16 30h1"/><path stroke="#012547" stroke-width="1.01" d="M20 30h1"/><path stroke="#0c3357" stroke-width="1.01" d="M22 30h1m-5 1h1"/><path stroke="#002447" stroke-width="1.01" d="M24 30h1"/><path stroke="#009cf7" stroke-width="1.01" d="M25 31h1m-3 4h1m-1 1h1"/><path stroke="#c0c1c0" stroke-width="1.01" d="M21 32h1m-3 1h1"/><path stroke="#d0d1d1" stroke-width="1.01" d="M15 33h1"/><path stroke="#818080" stroke-width="1.01" d="M23 33h1"/><path stroke="#1b83fe" stroke-width="1.01" d="M11 34h1"/><path stroke="#019df7" stroke-width="1.01" d="M14 35h1m9 1h1m-11 1h1"/></svg>