<?xml version="1.0" encoding="UTF-8"?>
<svg width="15" height="13.01" shape-rendering="crispEdges" version="1.1" viewBox="0 -.5 15 13.01" xmlns="http://www.w3.org/2000/svg">
 <g stroke-width="1.01">
  <path d="m1 5e-3h1m-2 1h1m-1 1h2m-2 1h1m-1 1h1m-1 1h1m-1 1h1m-1 1h1m0 1h1m-2 1h2m-1 1h1m-2 1h2m-2 1h2" stroke="#e66c8d"/>
  <path d="m2 5e-3h9m1 0h1m-11 1h13m-13 1h11m1 0h1m-13 1h1m1 0h1m3 0h1m2 0h2m1 0h1m-13 1h1m1 0h1m1 0h1m1 0h1m1 0h1m3 0h1m-11 1h1m1 0h1m1 0h1m1 0h1m1 0h1m1 0h1m-13 1h1m1 0h1m1 0h1m1 0h1m1 0h1m1 0h1m-11 1h1m1 0h1m3 0h1m2 0h2m-11 1h5m1 0h2m1 0h4m-13 1h6m1 0h6m-13 1h4m1 0h2m1 0h4m-12 1h9m1 0h3m-12 1h2m1 0h3m1 0h5" stroke="#ef8f9d"/>
  <path d="m11 5e-3h1m1 2h1m-6 7h1m-3 1h1m2 0h1m4 0h1m-13 2h1m6 0h1" stroke="#ef8e9d"/>
  <path d="m13 5e-3h2" stroke="#ffaab2"/>
  <path d="m1 1.005h1" stroke="#e66d8d"/>
  <path d="m1 3.005h1m3 0h2m2 0h2m-10 1h1m1 0h1m1 0h1m1 0h1m1 0h1m3 0h1m-13 1h1m1 0h1m1 0h1m1 0h1m3 0h1m1 0h1m-13 1h1m1 0h1m1 0h1m1 0h1m1 0h1m1 0h1m1 0h1m-13 1h1m3 0h3m1 0h2m2 0h2" stroke="#53101e"/>
  <path d="m3 3.005h1m3 0h1" stroke="#53111e"/>
  <path d="m13 3.005h1m-3 1h1" stroke="#53101f"/>
  <path d="m12 4.005h1m1 2h1m-5 2h1m0 3h1" stroke="#ef8f9c"/>
  <path d="m2 5.005h1m6 0h1m-7 2h1" stroke="#52101e"/>
  <path d="m0 8.005h1m-1 2h1" stroke="#e66c8c"/>
  <path d="m7 8.005h1m-3 4h1" stroke="#ee8f9d"/>
 </g>
</svg>
