<?xml version="1.0" encoding="UTF-8"?>
<svg width="15" height="13.01" shape-rendering="crispEdges" version="1.1" viewBox="0 -.5 15 13.01" xmlns="http://www.w3.org/2000/svg">
 <g stroke-width="1.01">
  <path d="m1 5e-3h1m-2 1h2m-1 1h1m-2 1h2m-2 1h2m-2 1h2m-2 1h2m-1 1h1m-2 1h2m-2 1h1m-1 1h2m-2 1h1m-1 1h2" stroke="#006aff"/>
  <path d="m2 5e-3h5m2 0h4m-11 1h4m1 0h4m2 0h2m-13 1h3m1 0h9m-11 1h1m1 0h1m1 0h2m3 0h2m-12 1h1m1 0h1m5 0h4m-10 1h1m1 0h1m1 0h1m2 0h1m1 0h1m-12 1h1m1 0h1m3 0h1m2 0h3m-10 1h1m1 0h3m1 0h2m1 0h1m-11 1h2m3 0h1m1 0h2m1 0h1m-13 1h5m1 0h4m1 0h2m-13 1h6m2 0h2m2 0h1m-13 1h6m1 0h2m1 0h3m-13 1h1m1 0h11" stroke="#0084ff"/>
  <path d="m7 5e-3h2m3 1h1m-8 1h1m3 2h1m-7 1h1m8 4h1m-5 1h1m-1 1h1" stroke="#0184ff"/>
  <path d="m13 5e-3h2" stroke="#2093ff"/>
  <path d="m6 1.005h1m0 2h1m3 3h1m-9 1h1m9 3h1m-3 1h1" stroke="#0084fe"/>
  <path d="m11 1.005h1m-7 2h1m1 6h1m1 1h1m-7 2h1" stroke="#0085ff"/>
  <path d="m0 2.005h1m-1 5h1m0 4h1" stroke="#006bff"/>
  <path d="m2 3.005h2m6 0h3m-11 1h1m4 0h2m1 0h1m-9 1h1m1 0h1m1 0h1m1 0h1m1 0h2m1 0h1m-12 1h1m1 0h1m1 0h2m2 0h1m-9 1h1m1 0h1m1 0h1m3 0h1m-9 1h2m2 0h3m1 0h1m2 0h1" stroke="#000b74"/>
  <path d="m4 4.005h1" stroke="#010a74"/>
  <path d="m6 4.005h1m1 2h1m4 1h1" stroke="#010b74"/>
  <path d="m1 9.005h1" stroke="#016aff"/>
  <path d="m12 10.005h1" stroke="#0184fe"/>
 </g>
</svg>
