<svg xmlns="http://www.w3.org/2000/svg" shape-rendering="crispEdges" viewBox="0 -0.5 38 38"><path stroke="#abaaaa" stroke-width="1.01" d="M12 25h1m12 7h1"/><path stroke="#aaabaa" stroke-width="1.01" d="M13 25h1m6 2h1"/><path stroke="#aaa" stroke-width="1.01" d="M14 25h1m9 0h2m-1 1h1m-12 1h1m2 0h1m5 0h1m1 0h1m-1 1h1m-1 1h1m-12 1h1m8 0h1m1 1h1m-12 2h1m8 0h1m1 0h1m-1 1h1m-1 1h1m-12 1h1m8 0h1m1 0h1m-1 1h1"/><path stroke="#858585" stroke-width="1.01" d="M15 25h8m-10 1h2m1 0h1m1 0h3m1 0h3m-12 1h1m1 0h2m1 0h2m1 0h2m1 0h1m-12 1h1m1 0h2m4 0h1m2 0h1m-12 1h3m6 0h3m-12 1h1m10 0h1m-12 1h1m10 0h1m-11 1h1m8 0h1m0 1h1m-12 1h1m10 0h1m-12 1h3m6 0h3m-10 1h2m1 0h1m3 0h1m1 0h1m-12 1h1m1 0h1m1 0h6m1 0h1"/><path stroke="#858584" stroke-width="1.01" d="M23 25h1m-9 1h1m2 2h1m3 0h1m-7 9h1"/><path stroke="#767676" stroke-width="1.01" d="M11 26h2m-2 1h2m-2 1h2m1 0h1m5 0h1m2 0h1m-13 1h2m-2 1h2m-2 1h1m2 0h1m8 0h1m-13 1h2m-2 1h2m-2 1h1m11 0h1m-13 1h2m-2 1h2m-2 1h2m1 0h1"/><path stroke="#848585" stroke-width="1.01" d="M17 26h1m3 0h1m-9 10h1"/><path stroke="#777676" stroke-width="1.01" d="M17 28h1m-4 6h1"/><path stroke="#858485" stroke-width="1.01" d="M19 28h1m-7 4h1m10 0h1m-12 1h1m6 3h1"/><path stroke="#839fa7" stroke-width="1.01" d="M16 29h1m1 0h4m0 1h1m-8 1h1m6 0h1m-1 1h1m-8 1h1m6 0h1m-7 2h4m1 0h1"/><path stroke="#829fa7" stroke-width="1.01" d="M17 29h1"/><path stroke="#839ea7" stroke-width="1.01" d="M15 30h1"/><path stroke="#76e8ee" stroke-width="1.01" d="M16 30h6m-6 1h1m-1 2h1m-1 1h1m2 2h1"/><path stroke="#aaaaab" stroke-width="1.01" d="M25 30h1"/><path stroke="#767776" stroke-width="1.01" d="M12 31h1m10 6h1"/><path stroke="#7bffe4" stroke-width="1.01" d="M17 31h2m-2 1h1m2 0h1m-3 1h4m-5 1h4m-4 2h1"/><path stroke="#7bffe5" stroke-width="1.01" d="M19 31h1m1 0h1"/><path stroke="#daffc1" stroke-width="1.01" d="M20 31h1m-3 1h2m-3 1h1"/><path stroke="#839fa6" stroke-width="1.01" d="M15 32h1m6 2h1m-3 1h1"/><path stroke="#b1eea6" stroke-width="1.01" d="M16 32h1"/><path stroke="#dafec1" stroke-width="1.01" d="M21 32h1"/><path stroke="#767677" stroke-width="1.01" d="M12 34h1"/><path stroke="#829ea7" stroke-width="1.01" d="M15 34h1"/><path stroke="#7bfee4" stroke-width="1.01" d="M21 34h1"/><path stroke="#ee8576" stroke-width="1.01" d="M21 36h1"/></svg>