<?xml version="1.0" encoding="UTF-8"?>
<svg width="15" height="13.01" shape-rendering="crispEdges" version="1.1" viewBox="0 -.5 15 13.01" xmlns="http://www.w3.org/2000/svg">
 <g stroke-width="1.01">
  <path d="m1 5e-3h10m1 0h1m-12 1h14m-15 1h5m1 0h3m1 0h5m-14 1h1m1 0h1m2 0h9m-13 1h6m1 0h6m-13 1h1m1 0h9m1 0h1m-13 1h2m1 0h4m1 0h2m1 0h2m-12 1h3m1 0h8" stroke="#7124ee"/>
  <path d="m11 5e-3h1m1 5h1m-10 1h1m7 0h1" stroke="#7024ee"/>
  <path d="m13 5e-3h1" stroke="#7e3aeb"/>
  <path d="m0 1.005h1" stroke="#7024ef"/>
  <path d="m5 2.005h1m3 0h1m-6 1h2m2 1h1m-6 1h1m2 2h1" stroke="#7124ef"/>
  <path d="m0 3.005h1m8 3h1" stroke="#7125ee"/>
  <path d="m2 3.005h1" stroke="#7025ee"/>
  <path d="m0 4.005h2m-2 1h2m-2 1h1m-1 1h3m-3 1h3m5 0h1m3 0h3" stroke="#6514dd"/>
  <path d="m1 6.005h1" stroke="#6414dd"/>
  <path d="m3 8.005h1" stroke="#6515dd"/>
  <path d="m4 8.005h1" stroke="#6514dc"/>
  <path d="m5 8.005h2m2 0h3m-7 1h7" stroke="#3dcaf5"/>
  <path d="m7 8.005h1" stroke="#3dcbf5"/>
  <path d="m0 9.005h1" stroke="#1e89ba"/>
  <path d="m1 9.005h4m7 0h3m-13 1h5m1 0h3m1 0h3m-13 1h1m1 0h2m1 0h1m1 0h6m-12 1h4m2 0h3m1 0h2" stroke="#289bd9"/>
  <path d="m0 10.005h2m-2 1h2m6 0h1m-9 1h2" stroke="#1e88ba"/>
  <path d="m7 10.005h1m4 2h1" stroke="#299bd9"/>
  <path d="m11 10.005h1m-6 1h1m-5 1h1" stroke="#289bd8"/>
  <path d="m3 11.005h1m3 1h1" stroke="#289ad9"/>
  <path d="m8 12.005h1" stroke="#1f88bb"/>
 </g>
</svg>
