<svg xmlns="http://www.w3.org/2000/svg" shape-rendering="crispEdges" viewBox="0 -0.5 38 38"><path stroke="#1eba64" stroke-width="1.01" d="M12 25h1m-2 1h1m-1 1h2m-2 1h2m-1 1h1m-2 1h2m-2 1h2m-2 1h2m-2 1h1m-1 1h2m-2 1h1m-1 1h2m-2 1h1"/><path stroke="#5ee439" stroke-width="1.01" d="M13 25h1m2 0h3m1 0h4m-11 1h13m-13 1h13m-11 1h6m3 0h1m-11 1h1m1 0h1m5 0h4m-12 1h1m1 0h1m1 0h1m1 0h1m2 0h1m1 0h1m-12 1h1m1 0h1m3 0h1m1 0h2m1 0h1m-10 1h1m1 0h3m1 0h2m1 0h1m-11 1h2m3 0h1m1 0h2m1 0h1m-13 1h12m-12 1h5m1 0h7m-13 1h13m-13 1h13"/><path stroke="#5ee438" stroke-width="1.01" d="M14 25h2m4 4h1"/><path stroke="#5ee539" stroke-width="1.01" d="M19 25h1m-6 7h1m10 2h1m-8 1h1"/><path stroke="#83fe58" stroke-width="1.01" d="M24 25h1"/><path stroke="#83ff59" stroke-width="1.01" d="M25 25h1"/><path stroke="#1eba65" stroke-width="1.01" d="M12 26h1"/><path stroke="#003a2a" stroke-width="1.01" d="M13 28h1m8 0h2m-11 1h1m3 0h2m2 0h1m-7 1h1m1 0h1m1 0h1m1 0h2m1 0h1m-10 1h1m1 0h1m3 0h1m-9 1h1m1 0h1m1 0h1m3 0h1m2 0h1m-12 1h2m2 0h3m1 0h1m2 0h1"/><path stroke="#013a2a" stroke-width="1.01" d="M14 28h1m6 0h1m-7 1h1m3 0h1"/><path stroke="#5fe439" stroke-width="1.01" d="M25 28h1m-2 3h1"/><path stroke="#1fba64" stroke-width="1.01" d="M11 29h1m0 4h1m-1 4h1"/><path stroke="#003a2b" stroke-width="1.01" d="M13 30h1m-1 1h1m5 0h1"/><path stroke="#003b2a" stroke-width="1.01" d="M18 31h1"/><path stroke="#1ebb64" stroke-width="1.01" d="M12 35h1"/></svg>