<?xml version="1.0" encoding="UTF-8"?>
<svg width="15" height="13.01" shape-rendering="crispEdges" version="1.1" viewBox="0 -.5 15 13.01" xmlns="http://www.w3.org/2000/svg">
 <g stroke-width="1.01">
  <path d="m1 5e-3h1m-1 1h1m-2 1h2m-2 1h1m-1 2h1m-1 1h1m-1 1h1m-1 1h2m-1 1h1m-2 1h2m-2 1h2m-2 1h2" stroke="#042172"/>
  <path d="m2 5e-3h1m1 0h1m1 0h1m1 0h2m1 0h1m-10 1h3m1 0h9m-13 1h1m1 0h7m1 0h3m-13 1h1m1 0h1m3 0h1m3 0h1m1 0h1m-13 1h1m3 0h1m1 0h1m1 0h1m1 0h1m1 0h1m-11 1h1m1 0h1m1 0h1m1 0h1m-9 1h1m1 0h1m1 0h1m3 0h1m3 0h1m-13 1h1m8 0h2m-11 1h1m1 0h11m-12 1h5m1 0h3m1 0h2m-13 1h1m1 0h4m1 0h6m-13 1h13m-13 1h2m1 0h7m1 0h2" stroke="#09307f"/>
  <path d="m3 5e-3h1m3 0h1m2 0h1m-6 1h1m-3 1h1m7 0h1m-8 2h1m7 2h1m-10 2h1m8 4h1" stroke="#09317f"/>
  <path d="m5 5e-3h1m6 0h1m-2 3h1m-4 3h1m-1 1h1m-7 2h1m9 0h1m-10 1h1m4 0h1m-5 2h1" stroke="#09307e"/>
  <path d="m13 5e-3h2" stroke="#093a7e"/>
  <path d="m0 1.005h1m-1 3h1m-1 5h1" stroke="#042072"/>
  <path d="m1 3.005h1m1 0h1m1 0h2m2 0h2m2 0h1m-13 1h1m1 0h1m1 0h1m1 0h1m1 0h1m1 0h1m-10 1h2m1 0h1m1 0h1m1 0h1m1 0h1m-11 1h1m1 0h1m1 0h1m5 0h1m1 0h1m-13 1h1m3 0h3m1 0h2m2 0h2" stroke="#e9f7ff"/>
  <path d="m7 3.005h1m5 1h1" stroke="#e9f7fe"/>
  <path d="m1 5.005h1m7 1h1" stroke="#e9f6ff"/>
  <path d="m12 5.005h1m1 0h1m-11 2h1m3 2h1" stroke="#08307f"/>
  <path d="m13 5.005h1m-7 1h1m-5 1h1" stroke="#e8f7ff"/>
 </g>
</svg>
