<svg xmlns="http://www.w3.org/2000/svg" shape-rendering="crispEdges" viewBox="0 -0.5 38 38"><path stroke="#042172" stroke-width="1.01" d="M12 25h1m-1 1h1m-2 1h2m-2 1h1m-1 2h1m-1 1h1m-1 1h1m-1 1h2m-1 1h1m-2 1h2m-2 1h2m-2 1h2"/><path stroke="#09307f" stroke-width="1.01" d="M13 25h1m1 0h1m1 0h1m1 0h2m1 0h1m-10 1h3m1 0h9m-13 1h1m1 0h7m1 0h3m-13 1h1m1 0h1m3 0h1m3 0h1m1 0h1m-13 1h1m3 0h1m1 0h1m1 0h1m1 0h1m1 0h1m-11 1h1m1 0h1m1 0h1m1 0h1m-9 1h1m1 0h1m1 0h1m3 0h1m3 0h1m-13 1h1m8 0h2m-11 1h1m1 0h11m-12 1h5m1 0h3m1 0h2m-13 1h1m1 0h4m1 0h6m-13 1h13m-13 1h2m1 0h7m1 0h2"/><path stroke="#09317f" stroke-width="1.01" d="M14 25h1m3 0h1m2 0h1m-6 1h1m-3 1h1m7 0h1m-8 2h1m7 2h1m-10 2h1m8 4h1"/><path stroke="#09307e" stroke-width="1.01" d="M16 25h1m6 0h1m-2 3h1m-4 3h1m-1 1h1m-7 2h1m9 0h1m-10 1h1m4 0h1m-5 2h1"/><path stroke="#093a7e" stroke-width="1.01" d="M24 25h2"/><path stroke="#042072" stroke-width="1.01" d="M11 26h1m-1 3h1m-1 5h1"/><path stroke="#e9f7ff" stroke-width="1.01" d="M12 28h1m1 0h1m1 0h2m2 0h2m2 0h1m-13 1h1m1 0h1m1 0h1m1 0h1m1 0h1m1 0h1m-10 1h2m1 0h1m1 0h1m1 0h1m1 0h1m-11 1h1m1 0h1m1 0h1m5 0h1m1 0h1m-13 1h1m3 0h3m1 0h2m2 0h2"/><path stroke="#e9f7fe" stroke-width="1.01" d="M18 28h1m5 1h1"/><path stroke="#e9f6ff" stroke-width="1.01" d="M12 30h1m7 1h1"/><path stroke="#08307f" stroke-width="1.01" d="M23 30h1m1 0h1m-11 2h1m3 2h1"/><path stroke="#e8f7ff" stroke-width="1.01" d="M24 30h1m-7 1h1m-5 1h1"/></svg>