<svg xmlns="http://www.w3.org/2000/svg" shape-rendering="crispEdges" viewBox="0 -0.5 38 38"><path stroke="#9facf6" stroke-width="1.01" d="M12 25h1m-2 1h2m-2 1h1m-1 1h2m-2 1h2m-2 1h1m-1 1h2m-2 1h2m-2 1h2m-2 1h2m-2 1h2m-2 1h2m-2 1h2"/><path stroke="#d3d8ff" stroke-width="1.01" d="M13 25h7m1 0h2m1 0h2m-11 1h3m1 0h1m1 0h4"/><path stroke="#8d9af5" stroke-width="1.01" d="M20 25h1m-1 9h1m-1 3h1"/><path stroke="#d3d8fe" stroke-width="1.01" d="M23 25h1m-6 1h1"/><path stroke="#bac1f9" stroke-width="1.01" d="M13 26h1m6 0h1m4 0h1m-13 1h2m1 0h4m1 0h4m-11 1h6m2 0h4m-12 1h4m1 0h1m2 0h1m1 0h2m-13 1h7m2 0h2m1 0h1m-13 1h7m2 0h1m1 0h2m-13 1h7m2 0h4m-11 1h1m1 0h1m1 0h1m2 0h1m1 0h2m-13 1h4m1 0h2m2 0h4m-13 1h4m2 0h1m2 0h4m-13 1h6m6 0h1m-13 1h3m1 0h3m3 0h3"/><path stroke="#bac0f9" stroke-width="1.01" d="M14 26h1m10 1h1m-12 6h1m3 0h1m-2 2h1m-2 2h1m5 0h1"/><path stroke="#9facf7" stroke-width="1.01" d="M12 27h1m-1 3h1"/><path stroke="#bbc1f9" stroke-width="1.01" d="M15 27h1m2 2h1m4 0h1m0 1h1m-2 1h1m-11 2h1m2 0h1m1 2h1m3 1h1"/><path stroke="#ccd2fb" stroke-width="1.01" d="M20 27h1m-1 2h2m-2 1h1m0 1h1m-2 1h2m-1 1h1m-1 1h1m-2 1h2m-2 1h1m0 1h1"/><path stroke="#bac1f8" stroke-width="1.01" d="M13 28h1m9 5h1m-7 1h1m1 2h1m3 0h2"/><path stroke="#8d9af4" stroke-width="1.01" d="M20 28h1"/><path stroke="#ccd2fa" stroke-width="1.01" d="M21 28h1m-1 2h1m-2 3h1"/><path stroke="#bbc0f9" stroke-width="1.01" d="M13 29h1"/><path stroke="#8c9af5" stroke-width="1.01" d="M20 31h1"/><path stroke="#ccd3fa" stroke-width="1.01" d="M21 36h1"/></svg>