<?xml version="1.0" encoding="UTF-8"?>
<svg width="15" height="13.01" shape-rendering="crispEdges" version="1.1" viewBox="0 -.5 15 13.01" xmlns="http://www.w3.org/2000/svg">
 <g stroke-width="1.01">
  <path d="m1 5e-3h1m-2 1h2m-1 1h1m-2 1h3m5 0h1m-9 1h3m5 0h1m-9 1h4m4 0h1m5 0h1m-15 1h4m4 0h1m1 0h1m1 0h2m-14 1h5m3 0h1m3 0h1m-13 1h2m1 0h3m1 0h2m-8 1h5m2 0h1m-9 1h7m1 0h1m1 0h1m-11 1h5m3 0h1m2 0h1m-12 1h1m1 0h10" stroke="#e00018"/>
  <path d="m2 5e-3h2m9 0h2m-10 2h1m4 0h2m1 0h2m-10 1h2m7 0h1m-8 4h1m2 0h2m-5 2h1m2 0h1" stroke="#ff364c"/>
  <path d="m4 5e-3h1m1 0h7m-11 1h2m4 0h1m5 0h1m-13 1h1m5 0h1m-6 1h1m6 0h2m1 0h1m-11 1h1m2 0h1m7 0h1m-10 1h2m3 0h2m1 0h1m0 1h1m-10 1h1m3 0h1m4 0h1m-5 1h3m1 0h1m-9 1h1m2 0h1m1 0h2m1 0h1m-4 1h4m-9 1h2m1 0h1m2 0h3m-3 1h3" stroke="#ff0420"/>
  <path d="m5 5e-3h1m7 4h1m-1 3h1m-4 4h1" stroke="#ff0520"/>
  <path d="m4 1.005h3m3 0h1m1 0h1m-6 1h1m4 0h1m-6 1h1m4 0h1" stroke="#fff"/>
  <path d="m7 1.005h1m1 1h1" stroke="#fffeff"/>
  <path d="m9 1.005h1m-6 1h1" stroke="#fffffe"/>
  <path d="m11 1.005h1" stroke="#feffff"/>
  <path d="m13 1.005h1m-9 3h1" stroke="#fe0420"/>
  <path d="m0 2.005h1m1 6h1m2 3h1m-5 1h1" stroke="#e10018"/>
  <path d="m3 2.005h1m2 5h1" stroke="#ff364d"/>
  <path d="m6 2.005h1" stroke="#fe364c"/>
  <path d="m4 3.005h1m4 0h1m-6 1h1m5 0h3m-6 1h1" stroke="#efefef"/>
  <path d="m7 4.005h1m1 0h1m-1 1h1" stroke="#eeefef"/>
  <path d="m4 5.005h1m-1 1h4" stroke="#d0d5e0"/>
  <path d="m12 5.005h1m0 3h1m-1 1h1" stroke="#ff0421"/>
  <path d="m9 6.005h1" stroke="#d0d5e1"/>
  <path d="m11 6.005h1m-12 3h1m8 1h1" stroke="#e00019"/>
  <path d="m6 8.005h1m0 2h1" stroke="#e00118"/>
  <path d="m9 8.005h1" stroke="#e10118"/>
 </g>
</svg>
