<svg xmlns="http://www.w3.org/2000/svg" shape-rendering="crispEdges" viewBox="0 -0.5 38 38"><path stroke="#c8c8c8" stroke-width="1.01" d="M12 25h1m-2 1h2m-2 1h2m-2 1h2m-1 1h1m-1 1h1m-2 1h2m-2 1h2m-2 1h2m-2 1h2m-1 1h1m-2 1h2m-2 1h2"/><path stroke="#e4e7dc" stroke-width="1.01" d="M13 25h1m1 0h1m2 6h1m6 0h1m-8 2h1m-3 2h1"/><path stroke="#e5e7dc" stroke-width="1.01" d="M14 25h1m1 0h8m-11 1h6m3 0h4m-13 1h1m1 0h3m2 0h3m1 0h2m-13 1h4m2 0h7m-13 1h3m5 0h4m-12 1h1m1 0h1m5 0h5m-12 1h4m6 0h1m-12 1h1m1 0h4m5 0h2m-13 1h1m1 0h3m1 0h3m2 0h2m-12 1h3m3 0h1m3 0h2m-13 1h3m8 0h2m-13 1h5m6 0h2m-13 1h2m1 0h1m1 0h8"/><path stroke="#fff" stroke-width="1.01" d="M24 25h2"/><path stroke="#150e05" stroke-width="1.01" d="M19 26h1m-2 1h1m-2 1h1m-2 1h1m1 0h3m-5 1h1m1 0h3m-2 1h5m-5 1h3m1 0h1m-2 1h2m-7 1h1m5 0h1m-6 1h2m1 0h3m-5 1h4"/><path stroke="#3d3d3d" stroke-width="1.01" d="M20 26h1m-2 1h1m-2 1h1m2 6h1m-5 1h1m0 1h1m4 0h1"/><path stroke="#e5e7dd" stroke-width="1.01" d="M21 26h1m1 1h1m1 2h1m-12 1h1m-2 1h1m0 1h1m-1 1h1m0 4h1m1 0h1"/><path stroke="#e4e6dc" stroke-width="1.01" d="M14 27h1"/><path stroke="#c8c9c8" stroke-width="1.01" d="M11 29h1m-1 6h1"/><path stroke="#150f05" stroke-width="1.01" d="M17 29h1m2 6h1"/><path stroke="#c8c8c9" stroke-width="1.01" d="M11 30h1"/><path stroke="#150e04" stroke-width="1.01" d="M17 30h1"/><path stroke="#140e05" stroke-width="1.01" d="M22 32h1m-1 2h1"/><path stroke="#e5e6dc" stroke-width="1.01" d="M13 34h1m5 0h1"/><path stroke="#3c3d3d" stroke-width="1.01" d="M18 34h1"/></svg>