<svg xmlns="http://www.w3.org/2000/svg" shape-rendering="crispEdges" viewBox="0 -0.5 38 38"><path stroke="#006aff" stroke-width="1.01" d="M12 25h1m-2 1h2m-1 1h1m-2 1h2m-2 1h2m-2 1h2m-2 1h2m-1 1h1m-2 1h2m-2 1h1m-1 1h2m-2 1h1m-1 1h2"/><path stroke="#0084ff" stroke-width="1.01" d="M13 25h5m2 0h4m-11 1h4m1 0h4m2 0h2m-13 1h3m1 0h9m-11 1h1m1 0h1m1 0h2m3 0h2m-12 1h1m1 0h1m5 0h4m-10 1h1m1 0h1m1 0h1m2 0h1m1 0h1m-12 1h1m1 0h1m3 0h1m2 0h3m-10 1h1m1 0h3m1 0h2m1 0h1m-11 1h2m3 0h1m1 0h2m1 0h1m-13 1h5m1 0h4m1 0h2m-13 1h6m2 0h2m2 0h1m-13 1h6m1 0h2m1 0h3m-13 1h1m1 0h11"/><path stroke="#0184ff" stroke-width="1.01" d="M18 25h2m3 1h1m-8 1h1m3 2h1m-7 1h1m8 4h1m-5 1h1m-1 1h1"/><path stroke="#2093ff" stroke-width="1.01" d="M24 25h2"/><path stroke="#0084fe" stroke-width="1.01" d="M17 26h1m0 2h1m3 3h1m-9 1h1m9 3h1m-3 1h1"/><path stroke="#0085ff" stroke-width="1.01" d="M22 26h1m-7 2h1m1 6h1m1 1h1m-7 2h1"/><path stroke="#006bff" stroke-width="1.01" d="M11 27h1m-1 5h1m0 4h1"/><path stroke="#000b74" stroke-width="1.01" d="M13 28h2m6 0h3m-11 1h1m4 0h2m1 0h1m-9 1h1m1 0h1m1 0h1m1 0h1m1 0h2m1 0h1m-12 1h1m1 0h1m1 0h2m2 0h1m-9 1h1m1 0h1m1 0h1m3 0h1m-9 1h2m2 0h3m1 0h1m2 0h1"/><path stroke="#010a74" stroke-width="1.01" d="M15 29h1"/><path stroke="#010b74" stroke-width="1.01" d="M17 29h1m1 2h1m4 1h1"/><path stroke="#016aff" stroke-width="1.01" d="M12 34h1"/><path stroke="#0184fe" stroke-width="1.01" d="M23 35h1"/></svg>