<svg xmlns="http://www.w3.org/2000/svg" shape-rendering="crispEdges" viewBox="0 -0.5 38 38"><path stroke="#f18900" stroke-width="1.01" d="M12 25h1"/><path stroke="#ff9b34" stroke-width="1.01" d="M13 25h5m1 0h2m1 0h2m-11 1h1m10 0h1m-12 7h1m10 0h2m-12 1h1m9 0h2m-11 1h1m7 0h1m1 0h1m-13 1h4m3 0h3m1 0h2m-13 1h2m1 0h3m1 0h5"/><path stroke="#ff9a34" stroke-width="1.01" d="M18 25h1m6 1h1m-1 6h1m-13 2h1m0 1h1m2 1h1"/><path stroke="#ff9b35" stroke-width="1.01" d="M21 25h1m3 6h1m-3 3h1m0 1h1m-6 2h1"/><path stroke="#ffb83f" stroke-width="1.01" d="M24 25h2"/><path stroke="#f08800" stroke-width="1.01" d="M11 26h2m-2 2h1m-1 2h1m-1 1h1m-1 1h1m-1 1h1m-1 1h2m-2 1h2m-2 1h2m-2 1h1"/><path stroke="gray" stroke-width="1.01" d="M14 26h1m5 0h1m2 0h1m1 1h1m-14 4h1m10 2h1m-8 2h1m4 0h1m-4 1h2"/><path stroke="#a8a8a8" stroke-width="1.01" d="M15 26h2m-4 1h1m-2 1h2m-1 1h1m11 1h1m-2 2h1m-4 1h2m-5 1h3m-4 1h4"/><path stroke="#808081" stroke-width="1.01" d="M17 26h1"/><path stroke="#bfbfbf" stroke-width="1.01" d="M18 26h1m-2 2h1m-3 1h2m6 0h1m1 0h1m-13 1h1m7 0h1m-1 1h1"/><path stroke="#d1d1d1" stroke-width="1.01" d="M19 26h1m1 0h2m-5 1h1m-3 5h2m1 0h1m-5 1h3m-3 1h2"/><path stroke="#f08801" stroke-width="1.01" d="M11 27h1"/><path stroke="#818080" stroke-width="1.01" d="M12 27h1"/><path stroke="#a8a8a9" stroke-width="1.01" d="M14 27h1"/><path stroke="silver" stroke-width="1.01" d="M15 27h2m-5 2h1m-1 1h1m10 1h2m-5 1h1m1 0h1m-5 1h3m-4 1h1"/><path stroke="#d0d1d1" stroke-width="1.01" d="M17 27h1"/><path stroke="#d1d1d0" stroke-width="1.01" d="M19 27h1m-2 5h1"/><path stroke="#ddd" stroke-width="1.01" d="M20 27h5m-9 3h1m-2 1h2m-4 1h3"/><path stroke="#0c3356" stroke-width="1.01" d="M14 28h2m3 0h2m-7 1h1m3 0h1m-1 1h1m3 0h1m-9 1h1m3 0h1m3 0h1"/><path stroke="#002547" stroke-width="1.01" d="M16 28h1m7 0h1m-5 1h1m3 0h1m-10 1h1m4 0h1m2 0h2m-6 1h2"/><path stroke="#0d3356" stroke-width="1.01" d="M18 28h1m3 0h1m-9 2h1"/><path stroke="#d1d0d1" stroke-width="1.01" d="M21 28h1"/><path stroke="#0c3357" stroke-width="1.01" d="M23 28h1m-2 1h1"/><path stroke="#d0d0d0" stroke-width="1.01" d="M25 28h1m-7 1h1m1 0h1m-3 1h1m-3 1h1m-4 2h1"/><path stroke="#f18800" stroke-width="1.01" d="M11 29h1m0 3h1m-1 1h1m-1 4h1"/><path stroke="#d0d0d1" stroke-width="1.01" d="M17 29h1m-1 1h1"/><path stroke="#bfbfbe" stroke-width="1.01" d="M13 31h1"/><path stroke="#c0c0c1" stroke-width="1.01" d="M21 32h1"/><path stroke="#a8a9a8" stroke-width="1.01" d="M23 32h1m-3 2h1"/><path stroke="#a9a9a8" stroke-width="1.01" d="M22 34h1"/><path stroke="#fe9b34" stroke-width="1.01" d="M13 35h1m8 0h1m0 1h1m-9 1h1m9 0h1"/></svg>