<svg xmlns="http://www.w3.org/2000/svg" shape-rendering="crispEdges" viewBox="0 -0.5 38 38"><path stroke="#f0bab8" stroke-width="1.01" d="M12 25h1m-2 1h2m-2 1h2m-2 1h2m-2 1h1m0 1h1m-2 1h2m-2 1h2m-1 1h1m-2 1h2m-2 1h2m-2 1h2m-2 1h2"/><path stroke="#ffdfe5" stroke-width="1.01" d="M13 25h4m1 0h5m-9 1h12m-13 1h13m-13 1h3m4 0h1m4 0h1m-13 1h2m10 0h1m-13 1h2m10 0h1m-13 1h2m10 0h1m-13 1h3m8 0h2m-13 1h4m6 0h3m-13 1h1m1 0h3m5 0h3m-13 1h5m3 0h5m-13 1h4m1 0h3m1 0h4m-13 1h5m1 0h1m1 0h2m1 0h2"/><path stroke="#ffdee5" stroke-width="1.01" d="M17 25h1m-5 1h1m0 8h1m2 2h1m3 0h1m-4 1h1m1 0h1"/><path stroke="#fedfe5" stroke-width="1.01" d="M23 25h1m-2 9h1m-5 1h1m4 2h1"/><path stroke="#fff" stroke-width="1.01" d="M24 25h2"/><path stroke="#bd5054" stroke-width="1.01" d="M16 28h1m1 0h1m2 0h2m-8 1h4m1 0h1m2 0h1m-9 1h2m1 0h1m1 0h2m1 0h1m-9 1h5m2 0h1m-7 1h6m-5 1h4"/><path stroke="#bd5154" stroke-width="1.01" d="M17 28h1"/><path stroke="#ffdfe4" stroke-width="1.01" d="M19 28h1"/><path stroke="#bc5054" stroke-width="1.01" d="M23 28h1m-2 1h1m-1 1h1"/><path stroke="#fedfe4" stroke-width="1.01" d="M24 28h1"/><path stroke="#f0bab9" stroke-width="1.01" d="M12 29h1"/><path stroke="#b84d50" stroke-width="1.01" d="M19 29h1m4 2h1m-5 3h1"/><path stroke="#bd5055" stroke-width="1.01" d="M21 29h1m-5 1h1m2 1h2"/><path stroke="#b94d51" stroke-width="1.01" d="M24 29h1m-3 3h1m-2 2h1"/><path stroke="#f1bab8" stroke-width="1.01" d="M11 30h1m-1 3h1"/><path stroke="#b84d51" stroke-width="1.01" d="M19 30h1m4 0h1m-2 2h1m-3 1h2m-5 1h2m-1 1h2"/><path stroke="#b94c51" stroke-width="1.01" d="M23 31h1"/></svg>