<svg xmlns="http://www.w3.org/2000/svg" shape-rendering="crispEdges" viewBox="0 -0.5 38 38"><path stroke="#c8c8c8" stroke-width="1.01" d="M12 25h1m-1 1h1m-1 1h1m-2 1h2m-2 1h2m-2 1h2m-2 1h2m-2 1h2m-2 1h2m-2 1h2m-2 1h2m-2 1h1m-1 1h2"/><path stroke="#ebebeb" stroke-width="1.01" d="M13 25h5m1 0h2m1 0h1m-10 1h3m1 0h2m2 0h5m-12 1h4m4 0h3m-12 1h4m6 0h3m-13 1h4m6 0h3m-13 1h3m8 0h2m-13 1h3m8 0h2m-13 1h1m2 0h1m6 0h1m1 0h1m-13 1h1m3 0h1m4 0h2m1 0h1m-13 1h3m5 0h1m2 0h1m-12 1h3m3 0h2m3 0h2m-13 1h4m6 0h3m-12 1h4m4 0h4"/><path stroke="#eaebeb" stroke-width="1.01" d="M18 25h1m2 0h1m1 0h1m-11 2h1m1 5h1m8 0h1m0 2h1m-13 3h1"/><path stroke="#fff" stroke-width="1.01" d="M24 25h2"/><path stroke="#c9c8c8" stroke-width="1.01" d="M11 26h1"/><path stroke="#ebeaeb" stroke-width="1.01" d="M16 26h1m8 1h1m-12 5h1m3 2h1"/><path stroke="#906ff9" stroke-width="1.01" d="M19 26h1m-1 1h1m-3 1h3m-3 1h3m-4 1h2m2 1h3m-3 1h2m-2 1h2m-2 1h1m1 0h2m-3 1h2m-3 1h3m-2 1h1"/><path stroke="#37f6e7" stroke-width="1.01" d="M20 26h1m-1 1h2m-2 1h1m-1 1h3m-1 1h2"/><path stroke="#c8c9c8" stroke-width="1.01" d="M11 27h1m0 9h1"/><path stroke="#906ef9" stroke-width="1.01" d="M18 27h1"/><path stroke="#36f6e7" stroke-width="1.01" d="M21 28h2"/><path stroke="#3964ee" stroke-width="1.01" d="M18 30h1m-3 1h1"/><path stroke="#3965ee" stroke-width="1.01" d="M19 30h1m-3 1h3m-1 1h1m-1 1h1m-4 1h1m2 0h1m-3 1h2m-1 1h2m-2 1h2"/><path stroke="#906ff8" stroke-width="1.01" d="M20 30h2m-2 7h1"/><path stroke="#916ff9" stroke-width="1.01" d="M23 31h1m-2 1h1"/><path stroke="#3865ee" stroke-width="1.01" d="M17 32h1m-1 4h1"/><path stroke="#3965ef" stroke-width="1.01" d="M18 32h1m-1 1h1m-2 1h1"/><path stroke="#ebebea" stroke-width="1.01" d="M14 33h1m1 0h1"/><path stroke="#7995ed" stroke-width="1.01" d="M15 33h1"/><path stroke="#b19df4" stroke-width="1.01" d="M24 33h1"/><path stroke="#acbced" stroke-width="1.01" d="M16 35h1"/><path stroke="#cbbff0" stroke-width="1.01" d="M23 35h1"/></svg>