<?xml version="1.0" encoding="UTF-8"?>
<svg width="15" height="13.01" shape-rendering="crispEdges" version="1.1" viewBox="0 -.5 15 13.01" xmlns="http://www.w3.org/2000/svg">
 <g stroke-width="1.01">
  <path d="m1 5e-3h1m-2 1h2m-2 1h2m-2 1h2m-1 1h1m-1 1h1m-2 1h2m-2 1h2m-2 1h2m-2 1h2m-1 1h1m-2 1h2m-2 1h2" stroke="#c8c8c8"/>
  <path d="m2 5e-3h1m1 0h1m2 6h1m6 0h1m-8 2h1m-3 2h1" stroke="#e4e7dc"/>
  <path d="m3 5e-3h1m1 0h8m-11 1h6m3 0h4m-13 1h1m1 0h3m2 0h3m1 0h2m-13 1h4m2 0h7m-13 1h3m5 0h4m-12 1h1m1 0h1m5 0h5m-12 1h4m6 0h1m-12 1h1m1 0h4m5 0h2m-13 1h1m1 0h3m1 0h3m2 0h2m-12 1h3m3 0h1m3 0h2m-13 1h3m8 0h2m-13 1h5m6 0h2m-13 1h2m1 0h1m1 0h8" stroke="#e5e7dc"/>
  <path d="m13 5e-3h2" stroke="#fff"/>
  <path d="m8 1.005h1m-2 1h1m-2 1h1m-2 1h1m1 0h3m-5 1h1m1 0h3m-2 1h5m-5 1h3m1 0h1m-2 1h2m-7 1h1m5 0h1m-6 1h2m1 0h3m-5 1h4" stroke="#150e05"/>
  <path d="m9 1.005h1m-2 1h1m-2 1h1m2 6h1m-5 1h1m0 1h1m4 0h1" stroke="#3d3d3d"/>
  <path d="m10 1.005h1m1 1h1m1 2h1m-12 1h1m-2 1h1m0 1h1m-1 1h1m0 4h1m1 0h1" stroke="#e5e7dd"/>
  <path d="m3 2.005h1" stroke="#e4e6dc"/>
  <path d="m0 4.005h1m-1 6h1" stroke="#c8c9c8"/>
  <path d="m6 4.005h1m2 6h1" stroke="#150f05"/>
  <path d="m0 5.005h1" stroke="#c8c8c9"/>
  <path d="m6 5.005h1" stroke="#150e04"/>
  <path d="m11 7.005h1m-1 2h1" stroke="#140e05"/>
  <path d="m2 9.005h1m5 0h1" stroke="#e5e6dc"/>
  <path d="m7 9.005h1" stroke="#3c3d3d"/>
 </g>
</svg>
