<svg xmlns="http://www.w3.org/2000/svg" shape-rendering="crispEdges" viewBox="0 -0.5 38 38"><path stroke="#042172" stroke-width="1.01" d="M12 25h1m-2 1h2m-2 1h1m0 1h1m-2 1h2m-1 1h1m-2 1h2m-2 2h2m-2 1h2m-2 1h2m-2 1h2m-2 1h2"/><path stroke="#09307f" stroke-width="1.01" d="M13 25h4m1 0h5m-10 1h11m1 0h1m-13 1h7m1 0h5m-11 1h3m1 0h1m5 0h1m-12 1h1m1 0h1m3 0h1m2 0h3m-12 1h1m1 0h1m1 0h1m6 0h1m-12 1h1m1 0h1m3 0h1m1 0h4m-12 1h1m1 0h1m2 0h2m1 0h2m1 0h1m-11 1h2m3 0h1m1 0h1m2 0h1m-13 1h9m1 0h2m-12 1h2m1 0h10m-13 1h3m1 0h1m1 0h7m-13 1h13"/><path stroke="#09307e" stroke-width="1.01" d="M17 25h1m6 1h1m-5 1h1m-3 1h1m5 0h1m-5 2h1m-5 6h1m1 0h1"/><path stroke="#08307f" stroke-width="1.01" d="M23 25h1m-1 5h1m-6 2h1m3 2h1m2 0h1"/><path stroke="#093a7e" stroke-width="1.01" d="M24 25h2"/><path stroke="#042173" stroke-width="1.01" d="M12 27h1m-2 3h1"/><path stroke="#042072" stroke-width="1.01" d="M11 28h1m-1 4h2"/><path stroke="#e9f7ff" stroke-width="1.01" d="M13 28h2m6 0h3m-11 1h1m1 0h1m1 0h3m1 0h1m-9 1h1m1 0h1m1 0h1m1 0h1m2 0h1m1 0h1m-12 1h1m1 0h1m1 0h1m1 0h1m1 0h1m-9 1h1m3 0h1m3 0h1m-9 1h2m2 0h1m1 0h1m1 0h1m2 0h1"/><path stroke="#08307e" stroke-width="1.01" d="M20 28h1"/><path stroke="#09317f" stroke-width="1.01" d="M22 29h1m0 4h1m-9 2h1"/><path stroke="#e8f7ff" stroke-width="1.01" d="M21 30h1"/><path stroke="#e9f7fe" stroke-width="1.01" d="M18 31h1m-4 1h1"/><path stroke="#f8fcff" stroke-width="1.01" d="M24 32h1"/><path stroke="#f9fcff" stroke-width="1.01" d="M18 33h1"/></svg>