<?xml version="1.0" encoding="UTF-8"?>
<svg width="15" height="13.01" shape-rendering="crispEdges" version="1.1" viewBox="0 -.5 15 13.01" xmlns="http://www.w3.org/2000/svg">
 <g stroke-width="1.01">
  <path d="m1 5e-3h1" stroke="#f18900"/>
  <path d="m2 5e-3h5m1 0h2m1 0h2m-11 1h1m10 0h1m-12 7h1m10 0h2m-12 1h1m9 0h2m-11 1h1m7 0h1m1 0h1m-13 1h4m3 0h3m1 0h2m-13 1h2m1 0h3m1 0h5" stroke="#ff9b34"/>
  <path d="m7 5e-3h1m6 1h1m-1 6h1m-13 2h1m0 1h1m2 1h1" stroke="#ff9a34"/>
  <path d="m10 5e-3h1m3 6h1m-3 3h1m0 1h1m-6 2h1" stroke="#ff9b35"/>
  <path d="m13 5e-3h2" stroke="#ffb83f"/>
  <path d="m0 1.005h2m-2 2h1m-1 2h1m-1 1h1m-1 1h1m-1 1h1m-1 1h2m-2 1h2m-2 1h2m-2 1h1" stroke="#f08800"/>
  <path d="m3 1.005h1m5 0h1m2 0h1m1 1h1m-14 4h1m10 2h1m-8 2h1m4 0h1m-4 1h2" stroke="#808080"/>
  <path d="m4 1.005h2m-4 1h1m-2 1h2m-1 1h1m11 1h1m-2 2h1m-4 1h2m-5 1h3m-4 1h4" stroke="#a8a8a8"/>
  <path d="m6 1.005h1" stroke="#808081"/>
  <path d="m7 1.005h1m-2 2h1m-3 1h2m6 0h1m1 0h1m-13 1h1m7 0h1m-1 1h1" stroke="#bfbfbf"/>
  <path d="m8 1.005h1m1 0h2m-5 1h1m-3 5h2m1 0h1m-5 1h3m-3 1h2" stroke="#d1d1d1"/>
  <path d="m0 2.005h1" stroke="#f08801"/>
  <path d="m1 2.005h1" stroke="#818080"/>
  <path d="m3 2.005h1" stroke="#a8a8a9"/>
  <path d="m4 2.005h2m-5 2h1m-1 1h1m10 1h2m-5 1h1m1 0h1m-5 1h3m-4 1h1" stroke="#c0c0c0"/>
  <path d="m6 2.005h1" stroke="#d0d1d1"/>
  <path d="m8 2.005h1m-2 5h1" stroke="#d1d1d0"/>
  <path d="m9 2.005h5m-9 3h1m-2 1h2m-4 1h3" stroke="#ddd"/>
  <path d="m3 3.005h2m3 0h2m-7 1h1m3 0h1m-1 1h1m3 0h1m-9 1h1m3 0h1m3 0h1" stroke="#0c3356"/>
  <path d="m5 3.005h1m7 0h1m-5 1h1m3 0h1m-10 1h1m4 0h1m2 0h2m-6 1h2" stroke="#002547"/>
  <path d="m7 3.005h1m3 0h1m-9 2h1" stroke="#0d3356"/>
  <path d="m10 3.005h1" stroke="#d1d0d1"/>
  <path d="m12 3.005h1m-2 1h1" stroke="#0c3357"/>
  <path d="m14 3.005h1m-7 1h1m1 0h1m-3 1h1m-3 1h1m-4 2h1" stroke="#d0d0d0"/>
  <path d="m0 4.005h1m0 3h1m-1 1h1m-1 4h1" stroke="#f18800"/>
  <path d="m6 4.005h1m-1 1h1" stroke="#d0d0d1"/>
  <path d="m2 6.005h1" stroke="#bfbfbe"/>
  <path d="m10 7.005h1" stroke="#c0c0c1"/>
  <path d="m12 7.005h1m-3 2h1" stroke="#a8a9a8"/>
  <path d="m11 9.005h1" stroke="#a9a9a8"/>
  <path d="m2 10.005h1m8 0h1m0 1h1m-9 1h1m9 0h1" stroke="#fe9b34"/>
 </g>
</svg>
