<svg xmlns="http://www.w3.org/2000/svg" shape-rendering="crispEdges" viewBox="0 -0.5 38 38"><path stroke="#e56482" stroke-width="1.01" d="M12 25h1m-2 1h2m-2 1h2m-2 1h2m-2 1h2m-2 1h2m-2 1h2m-2 1h1m-1 1h1m-1 1h1m-1 1h2m-2 1h2m-2 1h2"/><path stroke="#e78290" stroke-width="1.01" d="M13 25h11m-11 1h6m1 0h4m-10 1h1m1 0h2m1 0h7m-11 1h1m1 0h3m5 0h1m-10 1h1m5 0h4m-12 1h1m1 0h1m1 0h1m4 0h1m1 0h1m-12 1h1m1 0h1m3 0h1m1 0h2m1 0h1m-12 1h1m1 0h1m2 0h2m2 0h1m1 0h1m-11 1h2m5 0h1m2 0h1m-13 1h4m1 0h7m-12 1h5m1 0h7m-13 1h9m1 0h2m-12 1h13"/><path stroke="#ffb7be" stroke-width="1.01" d="M24 25h2"/><path stroke="#e68290" stroke-width="1.01" d="M19 26h1m5 0h1m-8 1h1m-3 1h1m7 3h1m-3 1h1m-3 1h1m-4 1h1m7 0h1m-1 2h1"/><path stroke="#e78291" stroke-width="1.01" d="M24 26h1m-10 1h1m8 1h1m-5 2h1m2 3h1m-6 2h1"/><path stroke="#e78390" stroke-width="1.01" d="M13 27h1m6 1h1m-7 1h1m5 0h1m-3 3h1m3 4h1"/><path stroke="#53101e" stroke-width="1.01" d="M13 28h2m6 0h3m-11 1h1m3 0h3m1 0h1m-9 1h1m1 0h1m8 0h1m-12 1h1m4 0h2m1 0h1m-9 1h1m1 0h1m5 0h1m2 0h1m-12 1h2m3 0h2m1 0h1"/><path stroke="#52111e" stroke-width="1.01" d="M15 29h1"/><path stroke="#53101f" stroke-width="1.01" d="M17 30h1m1 0h1m1 0h2"/><path stroke="#53111e" stroke-width="1.01" d="M15 31h1m1 2h1"/><path stroke="#53111f" stroke-width="1.01" d="M17 31h1"/><path stroke="#e56582" stroke-width="1.01" d="M12 32h1"/><path stroke="#52101e" stroke-width="1.01" d="M17 32h1m6 1h1"/><path stroke="#e56483" stroke-width="1.01" d="M12 33h1"/><path stroke="#e46482" stroke-width="1.01" d="M12 34h1"/></svg>