<svg xmlns="http://www.w3.org/2000/svg" shape-rendering="crispEdges" viewBox="0 -0.5 38 38"><path stroke="#1943d6" stroke-width="1.01" d="M12 25h1m-1 5h1"/><path stroke="#2151f5" stroke-width="1.01" d="M13 25h4m2 0h1m1 0h3m-11 1h2m3 0h2m1 0h5m-11 1h1m3 0h1m1 0h1m3 0h1m-13 1h3m1 0h1m1 0h1m1 0h1m3 0h1m-11 1h1m5 0h1m3 0h1m-13 1h12m-11 1h1m4 0h1m2 0h1m-8 1h1m1 0h1m1 0h1m1 0h2m-10 1h1m1 0h1m3 0h2m1 0h1m1 0h1m-10 1h1m1 0h1m1 0h1m2 0h1m2 0h1m-13 1h1m1 0h5m1 0h5m-13 1h5m2 0h6m-13 1h5m1 0h4m1 0h2"/><path stroke="#2150f5" stroke-width="1.01" d="M17 25h2m-4 1h1m9 4h1"/><path stroke="#2151f4" stroke-width="1.01" d="M20 25h1m-5 1h1m6 2h1m-5 1h1m-5 2h1m9 1h1m-1 1h1m-7 3h1m3 1h1"/><path stroke="#2d5bf7" stroke-width="1.01" d="M24 25h2"/><path stroke="#1843d6" stroke-width="1.01" d="M11 26h2m-2 1h1m-1 2h1m-1 1h1m-1 1h1m-1 1h1m-1 1h1m-1 1h1m-1 1h2m-2 1h2m-2 1h2"/><path stroke="#2150f4" stroke-width="1.01" d="M17 26h1m0 11h1"/><path stroke="#2051f5" stroke-width="1.01" d="M20 26h1m2 3h1m-10 6h1m5 0h1m-3 1h1"/><path stroke="#c7d3fa" stroke-width="1.01" d="M12 27h1"/><path stroke="#fefefe" stroke-width="1.01" d="M13 27h2m1 0h3m3 0h2m-8 1h1m3 0h1m1 0h1m1 0h1m-11 1h1m1 0h3m1 0h1m3 0h1m-12 2h1m2 0h2m2 0h1m2 0h2m-12 1h1m2 0h1m1 0h1m1 0h1m2 0h1m-10 1h1m1 0h3m2 0h1m1 0h1m-11 1h2m1 0h1m1 0h1m1 0h2m1 0h2"/><path stroke="#fffefe" stroke-width="1.01" d="M20 27h1m0 4h1"/><path stroke="#4e75f7" stroke-width="1.01" d="M24 27h1"/><path stroke="#1843d7" stroke-width="1.01" d="M11 28h1"/><path stroke="#f2f2f2" stroke-width="1.01" d="M12 28h1m-1 1h1m-1 2h1m-1 1h1m-1 1h1m-1 1h1"/><path stroke="#feffff" stroke-width="1.01" d="M18 28h1"/><path stroke="#fefeff" stroke-width="1.01" d="M13 29h1"/><path stroke="#fefffe" stroke-width="1.01" d="M22 29h1"/><path stroke="#d3ddfc" stroke-width="1.01" d="M18 31h1m-5 1h1"/><path stroke="#2051f4" stroke-width="1.01" d="M25 31h1"/><path stroke="#c9d5fa" stroke-width="1.01" d="M24 32h1"/></svg>