<svg xmlns="http://www.w3.org/2000/svg" shape-rendering="crispEdges" viewBox="0 -0.5 38 38"><path stroke="#ddd" stroke-width="1.01" d="M12 25h1m-2 1h1m-1 1h2m-2 1h2m-2 1h2m-2 1h2m-2 1h2m-2 1h2m-1 1h1m-2 1h2m-2 1h2m-2 1h1m-1 1h2"/><path stroke="#fff" stroke-width="1.01" d="M13 25h7m1 0h5m-11 1h5m2 0h3"/><path stroke="#d3d3d3" stroke-width="1.01" d="M20 25h1m-1 3h1m-1 3h1m-1 3h1m-1 3h1"/><path stroke="#dddddc" stroke-width="1.01" d="M12 26h1"/><path stroke="#ebebeb" stroke-width="1.01" d="M13 26h1m6 0h1m4 0h1m-13 1h3m1 0h2m2 0h5m-13 1h1m1 0h1m1 0h3m2 0h4m-13 1h5m1 0h1m2 0h1m1 0h2m-13 1h7m2 0h3m-12 1h5m1 0h1m2 0h2m1 0h1m-13 1h7m2 0h4m-13 1h1m1 0h2m2 0h1m2 0h4m-13 1h1m2 0h4m2 0h2m1 0h1m-13 1h7m3 0h3m-13 1h3m1 0h1m1 0h1m3 0h3m-13 1h1m1 0h5m2 0h4"/><path stroke="#ebebea" stroke-width="1.01" d="M14 26h1m8 3h1m1 1h1m-12 3h1m2 0h2m5 1h1m-3 1h1"/><path stroke="#fffffe" stroke-width="1.01" d="M21 26h1"/><path stroke="#ebeaeb" stroke-width="1.01" d="M16 27h1m1 9h1m3 0h1"/><path stroke="#ebeaea" stroke-width="1.01" d="M19 27h1"/><path stroke="#f5f5f5" stroke-width="1.01" d="M20 27h1m0 1h1m-1 1h1m-2 1h2m-1 1h1m-2 1h2m-2 1h2m-1 1h1m-1 1h1m-2 1h1m0 1h1"/><path stroke="#eaebeb" stroke-width="1.01" d="M14 28h1m1 0h1m1 1h1m5 2h1m-11 3h1m-1 3h1"/><path stroke="#f5f4f5" stroke-width="1.01" d="M20 29h1"/><path stroke="#eaebea" stroke-width="1.01" d="M18 31h1m-4 3h1m0 2h1"/><path stroke="#dcdddd" stroke-width="1.01" d="M11 33h1"/><path stroke="#f4f5f5" stroke-width="1.01" d="M20 35h1"/><path stroke="#dddcdd" stroke-width="1.01" d="M12 36h1"/><path stroke="#f5f5f4" stroke-width="1.01" d="M21 36h1"/></svg>