<svg xmlns="http://www.w3.org/2000/svg" shape-rendering="crispEdges" viewBox="0 -0.5 38 38"><path stroke="#1eba64" stroke-width="1.01" d="M12 25h1m-1 2h1m-2 1h1m-1 2h1m-1 1h1m-1 1h1m-1 1h2m-2 1h2m-2 2h2m-2 1h2"/><path stroke="#6bf53d" stroke-width="1.01" d="M13 25h11m-11 1h10m1 0h2m-10 1h5m1 0h4m-13 1h1m1 0h1m6 0h2m1 0h1m-13 1h1m1 0h1m3 0h1m1 0h1m1 0h1m1 0h1m-11 1h1m1 0h1m3 0h1m1 0h1m1 0h1m-13 1h1m1 0h1m1 0h1m1 0h1m1 0h1m1 0h1m1 0h1m-13 1h1m1 0h1m3 0h1m2 0h2m-11 1h1m1 0h10m-12 1h3m1 0h6m1 0h2m-13 1h5m2 0h2m1 0h3m-12 1h6m1 0h1m1 0h2m-12 1h1m1 0h11"/><path stroke="#83ff59" stroke-width="1.01" d="M24 25h2"/><path stroke="#1fba64" stroke-width="1.01" d="M11 26h1m-1 9h1"/><path stroke="#1ebb64" stroke-width="1.01" d="M12 26h1m-1 9h1"/><path stroke="#6af53d" stroke-width="1.01" d="M23 26h1m-3 1h1m-3 1h1m-3 1h1m-2 5h1m-4 2h1"/><path stroke="#1eba65" stroke-width="1.01" d="M11 27h1m-1 2h1"/><path stroke="#6bf43d" stroke-width="1.01" d="M13 27h1m5 3h1m3 4h1m-6 1h1m3 0h1m2 1h1m-12 1h1"/><path stroke="#6bf53c" stroke-width="1.01" d="M14 27h2m-2 6h1m4 2h1m0 1h1m1 0h1"/><path stroke="#003f2e" stroke-width="1.01" d="M12 28h1m1 0h1m1 0h3m1 0h2m2 0h1m-13 1h1m1 0h1m1 0h1m1 0h1m1 0h1m1 0h1m1 0h1m-13 1h3m1 0h1m1 0h1m1 0h1m1 0h1m1 0h1m-11 1h1m1 0h1m1 0h1m1 0h1m1 0h1m1 0h1m-13 1h1m1 0h1m1 0h1m1 0h1m2 0h1m2 0h2"/><path stroke="#013f2e" stroke-width="1.01" d="M12 31h1m4 1h1m2 0h1"/><path stroke="#6af43d" stroke-width="1.01" d="M25 33h1"/></svg>