<svg xmlns="http://www.w3.org/2000/svg" shape-rendering="crispEdges" viewBox="0 -0.5 38 38"><path stroke="#0076f5" stroke-width="1.01" d="M12 25h1m-2 1h2m-2 1h2m-2 1h1m-1 1h1m-1 1h1m-1 2h1m-1 1h2m-2 1h2m-2 1h2m-2 1h1m0 1h1"/><path stroke="#008ff5" stroke-width="1.01" d="M13 25h5m1 0h5m-11 1h2m1 0h9m-12 1h10m1 0h1m-12 1h1m1 0h1m3 0h1m2 0h2m1 0h1m-13 1h1m1 0h1m1 0h1m1 0h1m1 0h1m3 0h1m-11 1h1m1 0h1m1 0h1m1 0h1m1 0h1m1 0h1m-13 1h1m1 0h1m1 0h1m1 0h1m1 0h1m1 0h1m1 0h1m-13 1h1m1 0h1m3 0h1m2 0h2m-10 1h1m2 0h9m-13 1h4m1 0h5m2 0h1m-13 1h2m1 0h2m1 0h2m1 0h4m-13 1h4m2 0h7m-13 1h9m1 0h1m1 0h1"/><path stroke="#008ef5" stroke-width="1.01" d="M18 25h1m6 1h1m-10 7h1m0 1h1m6 3h1"/><path stroke="#00aafe" stroke-width="1.01" d="M24 25h1"/><path stroke="#0af" stroke-width="1.01" d="M25 25h1"/><path stroke="#008ff4" stroke-width="1.01" d="M15 26h1m7 3h1m-11 4h1m9 1h1"/><path stroke="#018ff5" stroke-width="1.01" d="M23 27h1m-9 6h1m-1 2h1m2 0h1m2 0h1m-5 1h2m3 1h1"/><path stroke="#018ff4" stroke-width="1.01" d="M25 27h1"/><path stroke="#000b75" stroke-width="1.01" d="M12 28h1m3 2h1"/><path stroke="#000b74" stroke-width="1.01" d="M14 28h1m1 0h3m1 0h2m2 0h1m-13 1h1m1 0h1m1 0h1m1 0h1m1 0h1m1 0h1m-11 1h3m3 0h1m1 0h1m1 0h1m1 0h1m-13 1h1m1 0h1m1 0h1m1 0h1m1 0h1m1 0h1m1 0h1m-13 1h1m3 0h3m2 0h1m2 0h2"/><path stroke="#010a74" stroke-width="1.01" d="M24 29h1"/><path stroke="#0176f5" stroke-width="1.01" d="M11 31h1m-1 6h1"/><path stroke="#000a74" stroke-width="1.01" d="M14 32h1"/><path stroke="#010b74" stroke-width="1.01" d="M20 32h1"/><path stroke="#008ef4" stroke-width="1.01" d="M24 34h1"/><path stroke="#0076f4" stroke-width="1.01" d="M12 36h1"/></svg>