<svg
   shape-rendering="crispEdges"
   viewBox="0 -0.5 8 16.5"
   version="1.1"
   id="svg52"
   sodipodi:docname="accessory_left_drink.svg"
   width="8"
   height="16.5"
   xmlns="http://www.w3.org/2000/svg"
   xmlns:svg="http://www.w3.org/2000/svg">
  <defs
     id="defs56" />
  <sodipodi:namedview
     id="namedview54"
     pagecolor="#505050"
     bordercolor="#eeeeee"
     borderopacity="1"
     inkscape:pageshadow="0"
     inkscape:pageopacity="0"
     inkscape:pagecheckerboard="0"
     showgrid="false"
     inkscape:zoom="17"
     inkscape:cx="16.970588"
     inkscape:cy="0.97058824"
     inkscape:window-width="1920"
     inkscape:window-height="1009"
     inkscape:window-x="-8"
     inkscape:window-y="-8"
     inkscape:window-maximized="1"
     inkscape:current-layer="svg52" />
  <path
     stroke="#ff006b"
     d="M 1,0 H 3 M 0,1 H 1 M 0,2 h 1"
     id="path2" />
  <path
     stroke="#6bf53d"
     d="M 7,0 H 8 M 7,1 h 1"
     id="path4" />
  <path
     stroke="#d00157"
     d="M 1,1 H 2"
     id="path6" />
  <path
     stroke="#7e2e0b"
     d="M 2,2 H 3"
     id="path8" />
  <path
     stroke="rgba(255,254,255,0.6784313725490196)"
     d="M 3,2 H 4 M 2,12 h 1"
     id="path10" />
  <path
     stroke="rgba(254,255,255,0.6784313725490196)"
     d="M 4,2 H 5 M 0,7 h 1"
     id="path12" />
  <path
     stroke="rgba(255,255,255,0.43137254901960786)"
     d="M 5,2 H 6 M 5,3 H 6 M 6,5 H 7 M 7,6 H 8 M 7,7 H 8 M 7,8 H 8 M 7,9 h 1 m -7,2 h 1 m 4,0 h 2 m -5,1 h 3 m -2,1 h 1 m -1,1 h 1 m -1,1 h 1 m -1,1 h 1 m 1,0 h 1"
     id="path14" />
  <path
     stroke="#28d940"
     d="M 6,2 H 7 M 6,3 h 1"
     id="path16" />
  <path
     stroke="rgba(255,255,255,0.6784313725490196)"
     d="M 2,3 H 3 M 1,4 H 2 M 1,5 H 2 M 0,6 H 1 M 0,8 H 1 M 0,9 h 1 m -1,1 h 1 m 2,3 h 1 m -1,1 h 1 m -1,1 h 1 m -3,1 h 2"
     id="path18" />
  <path
     stroke="#fff6db"
     d="M 3,3 H 5 M 2,4 H 3 M 1,7 H 2 M 1,8 h 1"
     id="path20" />
  <path
     stroke="#bc874c"
     d="M 3,4 H 5"
     id="path22" />
  <path
     stroke="#1ebb64"
     d="M 5,4 H 6"
     id="path24" />
  <path
     stroke="rgba(255,255,254,0.43137254901960786)"
     d="M 6,4 H 7"
     id="path26" />
  <path
     stroke="#f3e7c3"
     d="M 2,5 H 4 M 2,6 H 4 M 2,7 H 3 M 4,7 H 6 M 2,8 H 3 M 4,8 H 5 M 1,9 h 1 m 1,0 h 2 m -4,1 h 2 m -1,1 h 1"
     id="path28" />
  <path
     stroke="#c4d88c"
     d="M 4,5 H 5 M 4,6 H 5 M 3,8 H 4 M 2,9 h 1"
     id="path30" />
  <path
     stroke="#e3d2b9"
     d="M 5,5 H 6 M 6,7 H 7 M 6,8 H 7 M 5,9 h 2 m -4,1 h 3 m -3,1 h 3"
     id="path32" />
  <path
     stroke="#f3e7c2"
     d="M 1,6 H 2"
     id="path34" />
  <path
     stroke="#f2e7c3"
     d="M 5,6 H 6"
     id="path36" />
  <path
     stroke="#e2d2b9"
     d="M 6,6 H 7"
     id="path38" />
  <path
     stroke="#c4d88d"
     d="M 3,7 H 4"
     id="path40" />
  <path
     stroke="#e2d3b9"
     d="M 5,8 H 6"
     id="path42" />
  <path
     stroke="#e3d3b9"
     d="M 6,10 H 7"
     id="path44" />
  <path
     stroke="rgba(254,255,255,0.43137254901960786)"
     d="M 7,10 H 8 M 0,11 H 1"
     id="path46" />
  <path
     stroke="rgba(254,254,255,0.43137254901960786)"
     d="M 3,16 H 4"
     id="path48" />
  <path
     stroke="rgba(255,254,255,0.43137254901960786)"
     d="M 5,16 H 6"
     id="path50" />
</svg>
