<svg
   shape-rendering="crispEdges"
   viewBox="0 -0.5 10 17"
   version="1.1"
   id="svg96"
   sodipodi:docname="accessory_left_d_shield.svg"
   width="10"
   height="17"
   xmlns="http://www.w3.org/2000/svg"
   xmlns:svg="http://www.w3.org/2000/svg">
  <defs
     id="defs100" />
  <sodipodi:namedview
     id="namedview98"
     pagecolor="#505050"
     bordercolor="#eeeeee"
     borderopacity="1"
     inkscape:pageshadow="0"
     inkscape:pageopacity="0"
     inkscape:pagecheckerboard="0"
     showgrid="false"
     inkscape:zoom="17"
     inkscape:cx="17.970588"
     inkscape:cy="-1.0294118"
     inkscape:window-width="1920"
     inkscape:window-height="1009"
     inkscape:window-x="-8"
     inkscape:window-y="-8"
     inkscape:window-maximized="1"
     inkscape:current-layer="svg96" />
  <path
     stroke="#959595"
     d="M 3,0 H 4 M 0,2 h 1 m 1,10 h 1 m 0,1 h 1 m 1,0 h 1 m 1,0 h 1 m -2,1 h 1"
     id="path2" />
  <path
     stroke="#a2a2a2"
     d="M 4,0 H 5 M 1,2 h 1"
     id="path4" />
  <path
     stroke="#d0d0d0"
     d="M 5,0 H 6 M 4,1 H 5 M 6,1 H 7 M 3,2 H 4 M 5,2 H 6 M 1,4 H 2 M 1,5 h 1"
     id="path6" />
  <path
     stroke="#cacaca"
     d="M 6,0 H 7 M 2,3 h 1"
     id="path8" />
  <path
     stroke="#959495"
     d="M 2,1 H 3"
     id="path10" />
  <path
     stroke="#bdbdbd"
     d="M 3,1 H 4 M 1,3 h 1"
     id="path12" />
  <path
     stroke="#cfcfcf"
     d="M 5,1 H 6"
     id="path14" />
  <path
     stroke="#b4b4b4"
     d="M 7,1 H 8"
     id="path16" />
  <path
     stroke="#bbbbbb"
     d="M 2,2 H 3"
     id="path18" />
  <path
     stroke="#d0d0d1"
     d="M 4,2 H 5"
     id="path20" />
  <path
     stroke="#cdcccd"
     d="M 6,2 H 7"
     id="path22" />
  <path
     stroke="#b9b9b9"
     d="M 7,2 H 9 M 8,3 H 9 M 7,4 H 9 M 4,5 H 5 M 7,5 H 8 M 4,6 H 5 M 4,7 H 5 M 1,8 h 1"
     id="path24" />
  <path
     stroke="#b1b1b1"
     d="m 9,2 h 1 M 5,4 H 6 M 5,5 H 6 M 5,6 H 6 M 5,7 H 6 M 4,8 h 1 m -4,2 h 1 m -1,1 h 1"
     id="path26" />
  <path
     stroke="#a2a2a3"
     d="M 0,3 H 1"
     id="path28" />
  <path
     stroke="#839aad"
     d="M 3,3 H 5"
     id="path30" />
  <path
     stroke="#8599aa"
     d="M 5,3 H 6 M 3,5 h 1"
     id="path32" />
  <path
     stroke="#b9b9b8"
     d="M 6,3 H 7"
     id="path34" />
  <path
     stroke="#b8b9b9"
     d="m 7,3 h 1 m 1,0 h 1 m -8,7 h 1"
     id="path36" />
  <path
     stroke="#a3a2a2"
     d="M 0,4 H 1"
     id="path38" />
  <path
     stroke="#bcbcbd"
     d="M 2,4 H 3"
     id="path40" />
  <path
     stroke="#8499aa"
     d="M 3,4 H 4"
     id="path42" />
  <path
     stroke="#cdcdcd"
     d="M 4,4 H 5 M 0,6 H 2 M 1,7 h 1"
     id="path44" />
  <path
     stroke="#536f86"
     d="M 6,4 H 7"
     id="path46" />
  <path
     stroke="#9d9d9d"
     d="m 9,4 h 1 M 8,5 h 2 M 7,6 h 3 M 7,7 h 3 M 7,8 H 9 M 6,9 h 3 m -6,1 h 3 m -4,1 h 5 m -4,1 h 1 m 1,0 h 1 m 0,3 h 1"
     id="path48" />
  <path
     stroke="#d1d1d1"
     d="M 0,5 H 1"
     id="path50" />
  <path
     stroke="#bbbaba"
     d="M 2,5 H 3"
     id="path52" />
  <path
     stroke="#536f87"
     d="M 6,5 H 7 M 6,6 h 1"
     id="path54" />
  <path
     stroke="#bababa"
     d="M 2,6 H 3"
     id="path56" />
  <path
     stroke="#4b657d"
     d="M 3,6 H 4 M 3,7 H 4 M 3,8 H 4 M 3,9 h 1"
     id="path58" />
  <path
     stroke="#c7c7c7"
     d="M 0,7 H 1 M 0,8 h 1"
     id="path60" />
  <path
     stroke="#9e9e9e"
     d="M 2,7 H 3 M 0,9 h 1 m 1,0 h 1"
     id="path62" />
  <path
     stroke="#0c3256"
     d="M 6,7 H 7"
     id="path64" />
  <path
     stroke="#9e9e9f"
     d="M 2,8 H 3"
     id="path66" />
  <path
     stroke="#919191"
     d="m 5,8 h 1 m 3,0 h 1 m -2,2 h 1 m -2,1 h 2 m -3,1 h 1 m -4,2 h 1 m 1,0 h 1 m -3,1 h 3"
     id="path68" />
  <path
     stroke="#0c3356"
     d="M 6,8 H 7"
     id="path70" />
  <path
     stroke="#b9b8b9"
     d="M 1,9 H 2"
     id="path72" />
  <path
     stroke="#002547"
     d="M 4,9 H 6"
     id="path74" />
  <path
     stroke="#767676"
     d="m 9,9 h 1 m -2,3 h 1 m -5,4 h 2"
     id="path76" />
  <path
     stroke="#9d9c9d"
     d="M 6,10 H 7"
     id="path78" />
  <path
     stroke="#9c9d9d"
     d="M 7,10 H 8 M 4,12 H 5"
     id="path80" />
  <path
     stroke="#a1a1a1"
     d="M 1,12 H 2"
     id="path82" />
  <path
     stroke="#919190"
     d="M 7,12 H 8"
     id="path84" />
  <path
     stroke="#949595"
     d="M 2,13 H 3"
     id="path86" />
  <path
     stroke="#929292"
     d="m 4,13 h 1 m 1,0 h 1"
     id="path88" />
  <path
     stroke="#7b7a7a"
     d="M 2,14 H 3"
     id="path90" />
  <path
     stroke="#919091"
     d="M 4,14 H 5"
     id="path92" />
  <path
     stroke="#7a7a7a"
     d="M 7,14 H 8"
     id="path94" />
</svg>
