<svg
   shape-rendering="crispEdges"
   viewBox="0 -0.5 7 9"
   version="1.1"
   id="svg18"
   sodipodi:docname="wing_right_pooly.svg"
   width="7"
   height="9"
   xmlns="http://www.w3.org/2000/svg"
   xmlns:svg="http://www.w3.org/2000/svg">
  <defs
     id="defs22" />
  <sodipodi:namedview
     id="namedview20"
     pagecolor="#505050"
     bordercolor="#eeeeee"
     borderopacity="1"
     inkscape:pageshadow="0"
     inkscape:pageopacity="0"
     inkscape:pagecheckerboard="0"
     showgrid="false"
     inkscape:zoom="17"
     inkscape:cx="-7.0294118"
     inkscape:cy="-5.0294118"
     inkscape:window-width="1920"
     inkscape:window-height="1009"
     inkscape:window-x="-8"
     inkscape:window-y="-8"
     inkscape:window-maximized="1"
     inkscape:current-layer="svg18" />
  <path
     stroke="#7124ee"
     d="M 4,0 H 7 M 1,1 H 7 M 1,2 H 4 M 5,2 H 6 M 2,3 H 3 M 1,4 h 2"
     id="path2" />
  <path
     stroke="#6514dd"
     d="M 0,2 H 1 M 0,3 H 1 M 4,3 H 5 M 0,4 H 1 M 3,4 H 4 M 0,5 H 1 M 2,5 H 3 M 1,6 h 1"
     id="path4" />
  <path
     stroke="#7024ee"
     d="M 4,2 H 5"
     id="path6" />
  <path
     stroke="#7124ef"
     d="M 1,3 H 2"
     id="path8" />
  <path
     stroke="#7125ee"
     d="M 3,3 H 4 M 1,5 h 1"
     id="path10" />
  <path
     stroke="#5518ae"
     d="M 3,5 H 4"
     id="path12" />
  <path
     stroke="#6515dd"
     d="M 0,6 H 1"
     id="path14" />
  <path
     stroke="#5519ae"
     d="M 2,6 H 3 M 0,7 H 2 M 0,8 h 1"
     id="path16" />
</svg>
