<?xml version="1.0" encoding="UTF-8"?>
<svg width="6" height="15.01" shape-rendering="crispEdges" version="1.1" viewBox="0 -.5 6 15.01" xmlns="http://www.w3.org/2000/svg">
 <g stroke-width="1.01">
  <path d="m3 5e-3h2m-3 1h1m2 0h1m-4 1h1m-1 1h1m-1 1h1m-1 1h1" stroke="#000"/>
  <path d="m1 5.005h1" stroke="#6bf53d"/>
  <path d="m3 5.005h1m-1 2h2m-2 1h2m-2 1h1m-1 2h2m-3 1h2m-2 1h2m-2 1h1" stroke="#1eba64"/>
  <path d="m0 6.005h1" stroke="#6bf53c"/>
  <path d="m1 6.005h3m-4 1h3m-3 1h3m-3 1h3m-3 1h3m-3 1h3m-2 1h1m-1 1h1m-1 1h1" stroke="#28d940"/>
  <path d="m4 6.005h1" stroke="#28d941"/>
  <path d="m4 9.005h1m-1 1h1" stroke="#1fba64"/>
  <path d="m3 10.005h1" stroke="#1ebb64"/>
  <path d="m3 14.005h1" stroke="#1eba65"/>
 </g>
</svg>
