<?xml version="1.0" encoding="UTF-8" standalone="no"?>
<svg
   shape-rendering="crispEdges"
   viewBox="0 -0.5 9 17.01"
   version="1.1"
   id="svg50"
   sodipodi:docname="accessory_left_coinbase_shield.svg"
   width="9"
   height="17.01"
   inkscape:version="1.1.2 (b8e25be833, 2022-02-05)"
   xmlns:inkscape="http://www.inkscape.org/namespaces/inkscape"
   xmlns:sodipodi="http://sodipodi.sourceforge.net/DTD/sodipodi-0.dtd"
   xmlns="http://www.w3.org/2000/svg"
   xmlns:svg="http://www.w3.org/2000/svg">
  <defs
     id="defs54" />
  <sodipodi:namedview
     id="namedview52"
     pagecolor="#505050"
     bordercolor="#eeeeee"
     borderopacity="1"
     inkscape:pageshadow="0"
     inkscape:pageopacity="0"
     inkscape:pagecheckerboard="0"
     showgrid="false"
     inkscape:zoom="17.526316"
     inkscape:cx="18.971471"
     inkscape:cy="-0.9984985"
     inkscape:window-width="1920"
     inkscape:window-height="1009"
     inkscape:window-x="-8"
     inkscape:window-y="-8"
     inkscape:window-maximized="1"
     inkscape:current-layer="svg50" />
  <path
     stroke="#a8b8ce"
     stroke-width="1.01"
     d="m 2,0.005 h 1 m -2,1 h 1 m -2,1 h 1 m 5,0 h 1 m -2,1 h 3 m -2,1 h 1 m -1,1 h 1 m -4,2 h 2 m -5,1 h 1 m 2,0 h 1 m -4,1 h 1 m -1,1 h 1 m -1,1 h 1"
     id="path2" />
  <path
     stroke="#c7defc"
     stroke-width="1.01"
     d="m 3,0.005 h 1 m -2,1 h 1 m 3,0 h 1 m -6,1 h 1 m 3,0 h 1 m 1,0 h 2 m -9,1 h 1 m 2,0 h 2 m -2,1 h 1 m -4,3 h 1"
     id="path4" />
  <path
     stroke="#f9f6f7"
     stroke-width="1.01"
     d="m 4,0.005 h 1 m -1,1 h 1"
     id="path6" />
  <path
     stroke="#f8f6f7"
     stroke-width="1.01"
     d="m 5,0.005 h 1 m -3,1 h 1 m 1,0 h 1 m -4,1 h 3 m -5,2 h 1 m -1,1 h 1"
     id="path8" />
  <path
     stroke="#4972ff"
     stroke-width="1.01"
     d="M 1,3.005 H 2"
     id="path10" />
  <path
     stroke="#4973ff"
     stroke-width="1.01"
     d="M 2,3.005 H 3"
     id="path12" />
  <path
     stroke="#92a6cd"
     stroke-width="1.01"
     d="m 8,3.005 h 1 m -2,1 h 1 m -1,1 h 1 m -1,1 h 1 m -1,1 h 1 m -6,5 h 1"
     id="path14" />
  <path
     stroke="#2b59f7"
     stroke-width="1.01"
     d="M 1,4.005 H 3"
     id="path16" />
  <path
     stroke="#a8b9ce"
     stroke-width="1.01"
     d="M 4,4.005 H 5"
     id="path18" />
  <path
     stroke="#a8b8cf"
     stroke-width="1.01"
     d="M 5,4.005 H 6"
     id="path20" />
  <path
     stroke="#7a8ab9"
     stroke-width="1.01"
     d="m 8,4.005 h 1 m -1,1 h 1 m -1,1 h 1 m -1,1 h 1 m -5,1 h 1 m 2,1 h 2 m -3,1 h 2 m -3,1 h 3 m -8,1 h 2 m 2,0 h 2 m -5,1 h 1 m 1,0 h 3 m -5,1 h 5 m -4,1 h 3 m -2,1 h 1"
     id="path22" />
  <path
     stroke="#2151f5"
     stroke-width="1.01"
     d="m 1,5.005 h 2 m -2,1 h 2 m -1,1 h 1 m -2,1 h 2 m -2,1 h 2 m -1,1 h 1"
     id="path24" />
  <path
     stroke="#1835e8"
     stroke-width="1.01"
     d="m 3,5.005 h 3 m -3,1 h 4 m -2,1 h 2 m -1,1 h 1 m -4,1 h 4 m -4,1 h 1 m 1,0 h 1"
     id="path26" />
  <path
     stroke="#c6defc"
     stroke-width="1.01"
     d="M 0,6.005 H 1"
     id="path28" />
  <path
     stroke="#2051f5"
     stroke-width="1.01"
     d="M 1,7.005 H 2"
     id="path30" />
  <path
     stroke="#1935e8"
     stroke-width="1.01"
     d="m 5,8.005 h 1 m -2,2 h 1"
     id="path32" />
  <path
     stroke="#7b8ab9"
     stroke-width="1.01"
     d="M 7,8.005 H 8"
     id="path34" />
  <path
     stroke="#7a8bb8"
     stroke-width="1.01"
     d="M 8,8.005 H 9"
     id="path36" />
  <path
     stroke="#6789fc"
     stroke-width="1.01"
     d="M 1,10.005 H 2"
     id="path38" />
  <path
     stroke="#93a6cd"
     stroke-width="1.01"
     d="m 1,11.005 h 1 m 1,1 h 1"
     id="path40" />
  <path
     stroke="#93a6cc"
     stroke-width="1.01"
     d="M 2,11.005 H 3"
     id="path42" />
  <path
     stroke="#92a7cd"
     stroke-width="1.01"
     d="M 3,11.005 H 5"
     id="path44" />
  <path
     stroke="#7a8ab8"
     stroke-width="1.01"
     d="M 6,12.005 H 7"
     id="path46" />
  <path
     stroke="#7a8bb9"
     stroke-width="1.01"
     d="M 2,13.005 H 3"
     id="path48" />
</svg>
