<?xml version="1.0" encoding="UTF-8"?>
<svg width="9" height="22.01" shape-rendering="crispEdges" version="1.1" viewBox="0 -.5 9 22.01" xmlns="http://www.w3.org/2000/svg">
 <g stroke-width="1.01">
  <path d="m6 5e-3h1m-3 3h1m-1 2h1" stroke="#0783fe"/>
  <path d="m7 5e-3h1" stroke="#0064fe"/>
  <path d="m8 5e-3h1m-3 1h1m1 0h1m-3 1h2m-2 1h1m-1 1h1m-2 1h1m-1 1h1m-2 2h1m-1 1h1m-2 3h1m-2 3h1m-1 1h1m-2 3h1m-1 1h1m-1 1h1" stroke="#0065fe"/>
  <path d="m5 1.005h1m-1 1h1m-1 1h1m-2 1h2m-3 2h2m-2 1h2m-2 1h1m-1 1h1m-2 1h2m-2 1h2m-2 1h1m-1 1h1m-2 1h2m-2 1h1m-2 2h2m-2 1h2m-2 1h1m-1 1h1m-1 1h1" stroke="#0783ff"/>
  <path d="m7 1.005h1" stroke="#072fc0"/>
  <path d="m8 2.005h1m-2 1h1m-1 1h1m-2 1h1m-2 2h1m-1 1h1m-1 1h1m-2 1h1m-1 2h1m-2 1h1m-1 1h1m-1 1h1m-1 1h1m-2 1h1m-1 2h1m-1 1h1m-1 1h1" stroke="#0056e8"/>
  <path d="m6 6.005h1" stroke="#0056e9"/>
  <path d="m4 11.005h1" stroke="#0156e8"/>
  <path d="m1 13.005h1" stroke="#0683ff"/>
  <path d="m1 16.005h1" stroke="#0782ff"/>
  <path d="m2 18.005h1" stroke="#0057e8"/>
 </g>
</svg>
