<?xml version="1.0" encoding="UTF-8" standalone="no"?>
<svg
   shape-rendering="crispEdges"
   viewBox="0 -0.5 8 13.01"
   version="1.1"
   id="svg38"
   width="8"
   height="13.01"
   xmlns="http://www.w3.org/2000/svg"
   xmlns:svg="http://www.w3.org/2000/svg">
  <defs
     id="defs42" />
  <path
     stroke="#fdb944"
     stroke-width="1.01"
     d="m 0,0.005 h 1 m 4,5 h 1"
     id="path2" />
  <path
     stroke="#241519"
     stroke-width="1.01"
     d="m 1,0.005 h 3 m 0,1 h 1 m 0,1 h 1 m -1,1 h 1 m -1,1 h 1"
     id="path4" />
  <path
     stroke="#637df2"
     stroke-width="1.01"
     d="m 0,1.005 h 1 m -1,1 h 2 m 0,1 h 1 m 0,1 h 1"
     id="path6" />
  <path
     stroke="#253fb4"
     stroke-width="1.01"
     d="m 1,1.005 h 1 m 0,1 h 1 m -3,2 h 1 m 3,0 h 1 m -5,1 h 2 m -2,1 h 2 m 4,0 h 1 m -7,1 h 3 m 4,0 h 1 m -8,1 h 1 m 1,0 h 2 m 3,0 h 1 m -8,1 h 6 m -6,1 h 5 m -5,1 h 3 m -3,1 h 1 m 1,0 h 1"
     id="path8" />
  <path
     stroke="rgba(0,0,0,0.4196078431372549)"
     stroke-width="1.01"
     d="m 3,1.005 h 1 m 0,1 h 1"
     id="path10" />
  <path
     stroke="#2841c1"
     stroke-width="1.01"
     d="m 0,3.005 h 1 m 0,1 h 1 m 0,1 h 1 m -1,1 h 2 m -1,1 h 2"
     id="path12" />
  <path
     stroke="#4b63ce"
     stroke-width="1.01"
     d="m 1,3.005 h 1 m 0,1 h 1 m 1,2 h 1 m 0,1 h 2 m -1,1 h 1"
     id="path14" />
  <path
     stroke="#253fb5"
     stroke-width="1.01"
     d="M 3,3.005 H 4"
     id="path16" />
  <path
     stroke="#4a63ce"
     stroke-width="1.01"
     d="M 3,5.005 H 5"
     id="path18" />
  <path
     stroke="#bf7514"
     stroke-width="1.01"
     d="M 5,6.005 H 6"
     id="path20" />
  <path
     stroke="#253eb4"
     stroke-width="1.01"
     d="m 1,8.005 h 1 m -1,4 h 1"
     id="path22" />
  <path
     stroke="#2840c1"
     stroke-width="1.01"
     d="M 4,8.005 H 5"
     id="path24" />
  <path
     stroke="#2941c1"
     stroke-width="1.01"
     d="M 5,8.005 H 6"
     id="path26" />
  <path
     stroke="#2238a4"
     stroke-width="1.01"
     d="m 6,9.005 h 1 m -2,1 h 1 m -2,1 h 1"
     id="path28" />
  <path
     stroke="#262d99"
     stroke-width="1.01"
     d="M 7,9.005 H 8"
     id="path30" />
  <path
     stroke="#262c98"
     stroke-width="1.01"
     d="m 6,10.005 h 1 m -4,2 h 1"
     id="path32" />
  <path
     stroke="#243fb4"
     stroke-width="1.01"
     d="M 3,11.005 H 4"
     id="path34" />
  <path
     stroke="#212587"
     stroke-width="1.01"
     d="m 5,11.005 h 1 m -2,1 h 1"
     id="path36" />
</svg>
