<svg
   shape-rendering="crispEdges"
   viewBox="0 -0.5 15 13"
   version="1.1"
   id="svg28"
   sodipodi:docname="body_robot.svg"
   width="15"
   height="13"
   xmlns="http://www.w3.org/2000/svg"
   xmlns:svg="http://www.w3.org/2000/svg">
  <defs
     id="defs32" />
  <sodipodi:namedview
     id="namedview30"
     pagecolor="#505050"
     bordercolor="#eeeeee"
     borderopacity="1"
     inkscape:pageshadow="0"
     inkscape:pageopacity="0"
     inkscape:pagecheckerboard="0"
     showgrid="false"
     inkscape:zoom="17"
     inkscape:cx="7.9705882"
     inkscape:cy="-6.0294118"
     inkscape:window-width="1920"
     inkscape:window-height="1009"
     inkscape:window-x="-8"
     inkscape:window-y="-8"
     inkscape:window-maximized="1"
     inkscape:current-layer="svg28" />
  <path
     stroke="#abaaaa"
     d="m 1,0 h 1 m 11,0 h 1 M 3,11 h 1 m 5,0 h 1"
     id="path2" />
  <path
     stroke="#aaaaaa"
     d="m 2,0 h 2 m 10,0 h 1 M 3,2 h 1 m 2,0 h 1 m 2,0 h 1 m 2,0 h 1 m 1,0 h 1 m -1,1 h 1 m -1,1 h 1 M 3,5 h 1 m 10,0 h 1 m -1,1 h 1 m -1,1 h 1 m -3,1 h 1 m 1,0 h 1 m -1,1 h 1 m -1,1 h 1 m -9,1 h 1 m 5,0 h 1 m 1,0 h 1 m -1,1 h 1"
     id="path4" />
  <path
     stroke="#858585"
     d="m 4,0 h 7 m 1,0 h 1 M 3,1 h 1 m 3,0 h 7 M 4,2 h 2 m 1,0 h 2 m 1,0 h 2 m 1,0 h 1 M 2,3 H 3 M 4,3 H 6 M 7,3 H 8 M 2,4 H 13 M 2,5 h 1 m 1,0 h 8 m 1,0 h 1 M 2,6 h 1 m 1,0 h 5 m 2,0 h 1 m 1,0 h 1 M 2,7 h 2 m 1,0 h 9 M 2,8 h 1 m 2,0 h 7 m 1,0 h 1 M 2,9 h 1 m 1,0 h 2 m 1,0 h 3 m 3,0 h 1 M 2,10 h 1 m 2,0 h 9 M 2,11 h 1 m 1,0 h 2 m 1,0 h 2 m 1,0 h 2 m 1,0 h 1 M 2,12 h 1 m 1,0 h 2 m 1,0 h 1 m 3,0 h 1 m 1,0 h 1"
     id="path6" />
  <path
     stroke="#858485"
     d="m 11,0 h 1 M 2,1 h 1 m 5,2 h 1 m 2,0 h 1 m 1,0 h 1 M 4,8 h 1 m 6,1 h 1"
     id="path8" />
  <path
     stroke="#767676"
     d="M 0,1 H 2 M 0,2 H 1 M 0,3 h 2 m 1,0 h 1 m 2,0 h 1 m 2,0 h 1 m 2,0 h 1 M 0,4 H 2 M 0,5 H 2 M 0,6 h 2 m 1,0 h 1 m 8,0 h 1 M 0,7 H 2 M 0,8 H 2 M 0,9 h 2 m 10,0 h 1 M 0,10 h 2 m -2,1 h 2 m 1,1 h 1 m 2,0 h 1 m 2,0 h 1 m 2,0 h 1"
     id="path10" />
  <path
     stroke="#848585"
     d="M 4,1 H 5 M 2,2 h 1 m 1,5 h 1 m 5,5 h 1"
     id="path12" />
  <path
     stroke="#848485"
     d="M 5,1 H 6"
     id="path14" />
  <path
     stroke="#858584"
     d="m 6,1 h 1 m 3,2 h 1 m 2,1 h 1 M 9,6 h 2 M 6,9 h 1 m 3,0 h 1 m -8,1 h 2 m 3,2 h 1"
     id="path16" />
  <path
     stroke="#aaabaa"
     d="m 14,1 h 1 m -3,4 h 1"
     id="path18" />
  <path
     stroke="#767776"
     d="M 1,2 H 2"
     id="path20" />
  <path
     stroke="#aaaaab"
     d="M 3,8 H 4"
     id="path22" />
  <path
     stroke="#767677"
     d="M 3,9 H 4 M 1,12 H 2"
     id="path24" />
  <path
     stroke="#777676"
     d="M 0,12 H 1"
     id="path26" />
</svg>
