<svg
   shape-rendering="crispEdges"
   viewBox="0 -0.5 15 13"
   version="1.1"
   id="svg26"
   sodipodi:docname="body_pooly.svg"
   width="15"
   height="13"
   xmlns="http://www.w3.org/2000/svg"
   xmlns:svg="http://www.w3.org/2000/svg">
  <defs
     id="defs30" />
  <sodipodi:namedview
     id="namedview28"
     pagecolor="#505050"
     bordercolor="#eeeeee"
     borderopacity="1"
     inkscape:pageshadow="0"
     inkscape:pageopacity="0"
     inkscape:pagecheckerboard="0"
     showgrid="false"
     inkscape:zoom="17"
     inkscape:cx="7.9705882"
     inkscape:cy="-6.0294118"
     inkscape:window-width="1920"
     inkscape:window-height="1009"
     inkscape:window-x="-8"
     inkscape:window-y="-8"
     inkscape:window-maximized="1"
     inkscape:current-layer="svg26" />
  <path
     stroke="#7124ee"
     d="m 1,0 h 3 m 3,0 h 6 M 0,1 h 11 m 1,0 h 2 M 0,2 h 3 m 1,0 h 8 m 1,0 h 2 M 0,3 h 9 m 3,0 h 3 M 3,4 h 2 m 1,0 h 5 m 1,0 h 1 m 1,0 h 1 M 2,5 h 6 m 1,0 h 2 m 1,0 h 3 M 2,6 h 1 m 1,0 h 2 m 1,0 h 7 M 3,7 h 3 m 1,0 h 8 M 3,8 h 1 m 1,0 h 5 m 1,0 h 3 M 3,9 h 6 m 1,0 h 2 m 1,0 h 1 M 3,10 h 4 m 1,0 h 6 m -8,1 h 5"
     id="path2" />
  <path
     stroke="#7125ee"
     d="M 4,0 H 5 M 3,2 h 1 m 6,1 h 2 M 2,4 h 1 m 2,0 h 1 m 8,2 h 1 M 2,7 h 1 m 6,2 h 1"
     id="path4" />
  <path
     stroke="#7124ef"
     d="m 5,0 h 1 m 6,2 h 1 M 9,3 h 1 M 6,7 h 1 m 7,2 h 1 m -4,2 h 1"
     id="path6" />
  <path
     stroke="#7024ee"
     d="m 6,0 h 1 m 4,1 h 1 m 2,0 h 1 m -4,3 h 1 m 1,0 h 1 M 8,5 H 9 M 6,6 H 7 M 4,8 h 1 m 5,0 h 1 m 3,0 h 1 m -8,2 h 1"
     id="path8" />
  <path
     stroke="#7e3aeb"
     d="m 13,0 h 1"
     id="path10" />
  <path
     stroke="#6514dd"
     d="M 0,4 H 2 M 0,5 H 2 M 0,6 H 2 M 1,7 H 2 M 1,8 H 3 M 1,9 h 1 m 0,1 h 1 m 11,0 h 1 M 2,11 h 3 m 8,0 h 2 M 4,12 h 7 m 2,0 h 1"
     id="path12" />
  <path
     stroke="#7025ee"
     d="m 11,5 h 1"
     id="path14" />
  <path
     stroke="#7024ef"
     d="m 3,6 h 1 m 8,3 h 1"
     id="path16" />
  <path
     stroke="#6414dd"
     d="m 0,7 h 1 m 1,2 h 1 m 2,2 h 1 m 6,0 h 1"
     id="path18" />
  <path
     stroke="#6514dc"
     d="M 0,8 H 1 M 0,9 h 1 m 10,3 h 2"
     id="path20" />
  <path
     stroke="#5519ae"
     d="m 0,10 h 2 m -2,2 h 4 m 10,0 h 1"
     id="path22" />
  <path
     stroke="#5519af"
     d="M 0,11 H 2"
     id="path24" />
</svg>
