<svg
   shape-rendering="crispEdges"
   viewBox="0 -0.5 13 16"
   version="1.1"
   id="svg62"
   sodipodi:docname="accessory_right_tornado.svg"
   width="13"
   height="16"
   xmlns="http://www.w3.org/2000/svg"
   xmlns:svg="http://www.w3.org/2000/svg">
  <defs
     id="defs66" />
  <sodipodi:namedview
     id="namedview64"
     pagecolor="#505050"
     bordercolor="#eeeeee"
     borderopacity="1"
     inkscape:pageshadow="0"
     inkscape:pageopacity="0"
     inkscape:pagecheckerboard="0"
     showgrid="false"
     inkscape:zoom="17.526316"
     inkscape:cx="-6.0195195"
     inkscape:cy="-0.028528529"
     inkscape:window-width="1920"
     inkscape:window-height="1009"
     inkscape:window-x="-8"
     inkscape:window-y="-8"
     inkscape:window-maximized="1"
     inkscape:current-layer="svg62" />
  <path
     stroke="#929b9d"
     d="m 4,0 h 1 m 3,10 h 1 m 1,1 h 1"
     id="path2" />
  <path
     stroke="#929b9c"
     d="m 5,0 h 1 m 6,7 h 1 m -6,3 h 1 m 4,0 h 1 m -5,1 h 2 m 1,0 h 1 m -3,1 h 1 m -3,1 h 1 m -2,1 h 2"
     id="path4" />
  <path
     stroke="#707677"
     d="M 6,0 H 7 M 5,1 H 6 M 7,1 H 8 M 6,2 h 1 m 2,5 h 2 M 8,8 h 4 M 9,9 h 1 m 1,0 h 1 m -6,1 h 1 m 0,1 h 1 m -2,2 h 1"
     id="path6" />
  <path
     stroke="#b3d9e9"
     d="m 7,0 h 1 m 1,0 h 1 m 0,1 h 2 M 5,5 h 1 m 1,1 h 1"
     id="path8" />
  <path
     stroke="#b3d9e8"
     d="M 8,0 H 9"
     id="path10" />
  <path
     stroke="#53565c"
     d="M 3,1 H 5 M 5,2 H 6 M 5,3 h 1 m 5,2 h 2 m -3,1 h 3 M 7,9 h 1 m 1,1 h 3 m -6,1 h 1 m -1,1 h 3"
     id="path12" />
  <path
     stroke="#717777"
     d="M 6,1 H 7"
     id="path14" />
  <path
     stroke="#889ea8"
     d="m 8,1 h 1 m 3,2 h 1 m -3,1 h 2 M 9,6 h 1 M 7,7 h 2"
     id="path16" />
  <path
     stroke="#899ea9"
     d="m 9,1 h 1"
     id="path18" />
  <path
     stroke="#b2d9e9"
     d="m 12,1 h 1"
     id="path20" />
  <path
     stroke="#53565d"
     d="M 4,2 H 5 M 8,9 H 9"
     id="path22" />
  <path
     stroke="#889ea9"
     d="M 7,2 H 8 M 8,6 H 9"
     id="path24" />
  <path
     stroke="#5c6569"
     d="m 8,2 h 1 m 2,1 h 1"
     id="path26" />
  <path
     stroke="#64747e"
     d="m 9,2 h 2 M 9,3 h 2"
     id="path28" />
  <path
     stroke="#9cbed1"
     d="m 11,2 h 1 M 8,3 H 9 M 5,6 H 7 M 6,7 h 1"
     id="path30" />
  <path
     stroke="#b3d8e9"
     d="m 12,2 h 1 M 6,5 h 1"
     id="path32" />
  <path
     stroke="rgba(155,190,210,0.5725490196078431)"
     d="M 1,3 H 2 M 1,8 H 2 M 1,9 h 1 m 1,4 h 1"
     id="path34" />
  <path
     stroke="rgba(147,155,155,0.5725490196078431)"
     d="M 2,3 H 3 M 2,9 h 1 m 1,5 h 2"
     id="path36" />
  <path
     stroke="#697487"
     d="m 6,3 h 1 m 2,2 h 2 M 3,6 h 1 m 2,2 h 1 m -2,2 h 1"
     id="path38" />
  <path
     stroke="#7e9cb3"
     d="M 7,3 H 8 M 6,4 h 1 m 1,0 h 2 M 7,5 H 9 M 4,6 H 5 M 4,7 H 6 M 5,8 h 1"
     id="path40" />
  <path
     stroke="rgba(178,217,233,0.5725490196078431)"
     d="M 0,4 H 1"
     id="path42" />
  <path
     stroke="#7e9db3"
     d="M 7,4 H 8"
     id="path44" />
  <path
     stroke="#707676"
     d="m 12,4 h 1 m -2,3 h 1 m -2,2 h 1 m 1,0 h 1"
     id="path46" />
  <path
     stroke="#a5bdc6"
     d="M 4,5 H 5 M 5,9 H 7"
     id="path48" />
  <path
     stroke="rgba(178,217,232,0.5725490196078431)"
     d="M 0,7 H 1 M 0,8 h 1 m 2,4 h 1"
     id="path50" />
  <path
     stroke="#697586"
     d="M 7,8 H 8"
     id="path52" />
  <path
     stroke="#717677"
     d="m 12,8 h 1"
     id="path54" />
  <path
     stroke="rgba(154,190,210,0.5725490196078431)"
     d="M 4,13 H 5"
     id="path56" />
  <path
     stroke="rgba(84,87,93,0.5725490196078431)"
     d="m 10,13 h 1"
     id="path58" />
  <path
     stroke="#52565c"
     d="M 6,15 H 7"
     id="path60" />
</svg>
