<svg
   shape-rendering="crispEdges"
   viewBox="0 -0.5 4 10.5"
   version="1.1"
   id="svg28"
   sodipodi:docname="accessory_right_water_bottle.svg"
   width="4"
   height="10.5"
   xmlns="http://www.w3.org/2000/svg"
   xmlns:svg="http://www.w3.org/2000/svg">
  <defs
     id="defs32" />
  <sodipodi:namedview
     id="namedview30"
     pagecolor="#505050"
     bordercolor="#eeeeee"
     borderopacity="1"
     inkscape:pageshadow="0"
     inkscape:pageopacity="0"
     inkscape:pagecheckerboard="0"
     showgrid="false"
     inkscape:zoom="17.526316"
     inkscape:cx="-12.010511"
     inkscape:cy="0.9984985"
     inkscape:window-width="1920"
     inkscape:window-height="1009"
     inkscape:window-x="-8"
     inkscape:window-y="-8"
     inkscape:window-maximized="1"
     inkscape:current-layer="svg28" />
  <path
     stroke="#eff2f4"
     d="M 1,0 H 3"
     id="path2" />
  <path
     stroke="rgba(211,227,244,0.6392156862745098)"
     d="M 1,1 H 2"
     id="path4" />
  <path
     stroke="rgba(132,135,135,0.40784313725490196)"
     d="M 2,1 H 3 M 2,2 h 1"
     id="path6" />
  <path
     stroke="rgba(210,226,244,0.6392156862745098)"
     d="M 1,2 H 2"
     id="path8" />
  <path
     stroke="rgba(255,255,255,0.6392156862745098)"
     d="M 0,3 H 1"
     id="path10" />
  <path
     stroke="rgba(226,239,243,0.8823529411764706)"
     d="M 1,3 H 2 M 1,4 H 2 M 1,5 H 2 M 1,6 h 1"
     id="path12" />
  <path
     stroke="rgba(210,227,244,0.6392156862745098)"
     d="M 2,3 H 3 M 2,4 h 1"
     id="path14" />
  <path
     stroke="rgba(125,128,130,0.40784313725490196)"
     d="M 3,3 H 4 M 3,4 h 1"
     id="path16" />
  <path
     stroke="rgba(197,219,241,0.6392156862745098)"
     d="M 0,4 H 1"
     id="path18" />
  <path
     stroke="rgba(79,114,189,0.8784313725490196)"
     d="M 0,5 H 1 M 3,5 H 4 M 0,6 H 1 M 3,6 H 4 M 0,7 H 1 M 3,7 H 4 M 3,8 H 4 M 0,9 h 1 m 2,0 h 1 m -4,1 h 4"
     id="path20" />
  <path
     stroke="rgba(108,146,204,0.9019607843137255)"
     d="M 2,5 H 3"
     id="path22" />
  <path
     stroke="rgba(108,147,204,0.9019607843137255)"
     d="M 2,6 H 3 M 1,7 H 3 M 1,8 H 3 M 1,9 h 2"
     id="path24" />
  <path
     stroke="rgba(79,115,189,0.8784313725490196)"
     d="M 0,8 H 1"
     id="path26" />
</svg>
