<svg xmlns="http://www.w3.org/2000/svg" shape-rendering="crispEdges" viewBox="0 -0.5 38 38"><path stroke-width="1.01" stroke="#79d5fb" d="M0 0h1m1 0h1m4 0h1m3 10h1m22 2h1m0 1h1m-17 2h1M4 19h1m8 5h1m1 0h1m2 0h1"/><path stroke-width="1.01" stroke="#79d4fb" d="M1 0h1m1 0h2m1 0h1m1 0h3M7 1h5m-2 1h2m15 3h1m-2 2h1m-1 1h1m-6 1h1m4 0h2m-7 1h1m5 0h8m-15 1h2m10 0h6M1 12h2m1 0h2m14 0h1m4 0h1m9 0h3M5 13h2m12 0h1m4 0h1m2 0h3m7 0h1M6 14h1m12 0h1m4 0h1m5 0h8M6 15h1m11 0h1m4 0h1M6 16h1m10 0h1m4 0h1m-7 1h2m-3 1h2m1 0h3M8 19h8m1 0h3m15 0h2M3 20h1m2 0h12m8 0h5M1 21h2m2 0h2m3 0h2m24 0h1M0 22h2m9 0h4m9 0h1m10 0h1m-25 1h2m8 0h9m-19 1h1m4 0h2m1 0h7m5 0h1m-21 1h1m2 0h3"/><path stroke-width="1.01" stroke="#78d4fb" d="M5 0h1m16 9h1m8 2h1m-12 2h1m13 6h1m-22 2h1m11 0h1m-11 2h1m14 0h1m-17 1h1"/><path stroke-width="1.01" stroke="#8cd8fc" d="M11 0h8m1 0h3m1 0h14M12 1h13m1 0h2m1 0h9M13 2h1m1 0h5m2 0h5m1 0h7m1 0h1M12 3h1m2 0h5m1 0h6m1 0h6M12 4h1m13 0h4M17 6h1m1 0h3m4 0h1M7 7h1m8 0h7m1 0h1M6 8h1m3 0h1m4 0h2m3 0h3m1 0h2M8 9h2m1 0h4m8 0h3M0 10h1m1 0h1m4 0h2m1 0h1m11 0h5M0 11h11m11 0h2m1 0h1m1 0h4M6 12h5m10 0h3m2 0h1m5 0h2M8 13h3m10 0h2m10 0h2m1 0h1M7 14h3m10 0h2M7 15h3m10 0h2M7 16h1m10 0h3M6 17h2m-1 1h2m-2 1h1m8 0h1m14 1h1m1 0h3M3 21h1m22 0h6m1 0h2M2 22h2m21 0h9M0 23h3m31 0h1M1 24h1m33 0h1m0 1h1"/><path stroke-width="1.01" stroke="#8cd8fd" d="M19 0h1m5 1h1m9 1h1M13 3h2m5 0h1m-3 3h1m-9 3h1M1 10h1m7 0h1m14 1h1M7 13h1m10 4h1m-2 1h1m14 3h1m1 1h1m-2 1h1M0 24h1"/><path stroke-width="1.01" stroke="#8dd8fc" d="M23 0h1M14 2h1m6 0h1m5 1h1m-5 5h1M3 10h1m27 2h1m-10 2h1M8 16h1m-1 1h1m-5 4h1"/><path stroke-width="1.01" stroke="#5dcdfa" d="M0 1h2m1 0h1M0 2h10m27 0h1M1 3h3m1 0h7m22 0h3M7 4h1m1 0h3m18 0h5m1 0h1m-9 1h10M28 6h1m1 0h1m1 0h6M27 7h6M18 8h1m-4 1h1m2 0h3m-9 1h2m1 0h3m1 0h2m-10 1h4m1 0h4m-9 1h1m3 0h1M1 13h4m6 0h1m1 0h1m12 0h1M1 14h1m1 0h3m4 0h3m12 0h5M5 15h1m4 0h2m13 0h2m1 0h2m1 0h6M9 16h2m13 0h2m3 0h4m1 0h4M9 17h1m12 0h3m9 0h3m-16 1h2m-3 1h1m-3 1h2m-6 1h3"/><path stroke-width="1.01" stroke="#5ccdfa" d="M2 1h1m5 3h1m10 4h1m-6 2h1m3 0h1m-7 2h1m1 0h1m1 0h1m8 1h1m1 2h1m5 2h1"/><path stroke-width="1.01" stroke="#5dccfa" d="M4 1h3M4 3h1m32 0h1m-7 3h1M17 8h1m-5 4h1m10 3h1"/><path stroke-width="1.01" stroke="#8cd9fd" d="M28 1h1"/><path stroke-width="1.01" stroke="#79d4fa" d="M12 2h1M3 12h1m1 6h1m7 5h2m11 1h1"/><path stroke-width="1.01" stroke="#8cd9fc" d="M20 2h1m6 0h1m-2 9h1m5 9h1"/><path stroke-width="1.01" stroke="#73cfff" d="M0 3h1M0 4h1m1 0h5M0 5h2m1 0h8M0 6h1m1 0h3m1 0h3M0 7h7m26 0h3m1 0h1M0 8h4m1 0h1m21 0h1m1 0h6m1 0h2M0 9h2m26 0h1m1 0h3m1 0h4m-2 1h2m-21 2h3M0 13h1m13 0h3M0 14h1m12 0h6M0 15h5m7 0h2m1 0h3m19 0h1M0 16h1m1 0h4m5 0h2m1 0h3m9 0h2M0 17h1m1 0h4m4 0h4m1 0h1m9 0h7M0 18h5m4 0h6m8 0h12m1 0h2M0 19h2m1 0h1m18 0h1m1 0h9m4 0h1M0 20h3m17 0h2m2 0h2m10 0h1M0 21h1m17 0h1m1 0h5m10 0h1m1 0h1m-22 1h8m-8 1h1m1 0h2"/><path stroke-width="1.01" stroke="#72cfff" d="M1 4h1m3 2h1m30 1h1M4 8h1m13 5h1m-6 3h1m0 1h1M2 19h1m20 1h1m-9 2h1m1 1h1"/><path stroke-width="1.01" stroke="#89dcff" d="M13 4h7m1 0h3m1 0h1M13 5h4m1 0h1m1 0h2m1 0h3M10 6h7m5 0h4M8 7h2m2 0h4m7 0h1m1 0h1M7 8h3m2 0h3M3 9h5m-4 1h1m1 0h1m17 2h1m3 0h3m-8 1h1m6 0h3m-12 3h1m-2 1h2M6 18h1m-2 1h2m-3 1h2"/><path stroke-width="1.01" stroke="#88dcff" d="M20 4h1M11 5h2m4 0h1m9 7h1"/><path stroke-width="1.01" stroke="#89ddff" d="M24 4h1m-6 1h1m2 0h1M10 7h2m11 7h1m-2 1h1"/><path stroke-width="1.01" stroke="#5dcdfb" d="M35 4h1m1 0h1M27 6h1m1 0h1M16 9h2m-3 2h1m-4 2h1M2 14h1m27 1h1m-8 1h1m13 1h1m-17 2h1m-5 2h1"/><path stroke-width="1.01" stroke="#73cffe" d="M2 5h1m26 4h1m3 0h1m-17 4h1m-4 2h1M1 16h1m26 0h1m-7 4h1m14 0h1m-19 1h1"/><path stroke-width="1.01" stroke="#89dcfe" d="M26 5h1M9 6h1m1 2h1m7 9h1"/><path stroke-width="1.01" stroke="#73cefe" d="M1 6h1m26 2h1m6 10h1"/><path stroke-width="1.01" stroke="#73ceff" d="M35 8h1m-1 2h1M0 12h1m0 5h1m30 0h1m-10 2h1m9 0h1"/><path stroke-width="1.01" stroke="#8dd8fd" d="M2 9h1"/><path stroke-width="1.01" stroke="#89ddfe" d="M5 10h1"/><path stroke-width="1.01" stroke="#5dccfb" d="M33 16h1"/><path stroke-width="1.01" stroke="#9ec9df" d="M7 21h1m1 0h1m-5 1h6m25 0h2M4 23h2m3 0h2m24 0h2M2 24h2m6 0h1m16 0h4M0 25h2m15 0h2m1 0h5m1 0h1"/><path stroke-width="1.01" stroke="#9fc9df" d="M8 21h1m-6 2h1m15 2h1m11 0h1"/><path stroke-width="1.01" stroke="#78d5fb" d="M12 21h1"/><path stroke-width="1.01" stroke="#9ec9de" d="M4 22h1m32 1h1"/><path stroke-width="1.01" stroke="#bad0d3" d="M6 23h3m-5 1h6m26 0h2M2 25h5m1 0h3m16 0h1m1 0h2m6 0h1M0 26h12m5 0h15M0 27h6m2 0h4m6 0h8m1 0h5M0 28h1m2 0h1m16 0h11m-10 1h3"/><path stroke-width="1.01" stroke="#72cefe" d="M20 23h1"/><path stroke-width="1.01" stroke="#c3e8ec" d="M31 23h1m-20 1h1m20 0h2m-22 1h1m18 0h2m-22 1h1m2 0h2M7 27h1m4 0h2m3 0h1M4 28h2m12 0h1m12 0h1M0 29h3m15 0h2m4 0h4m-9 1h3m1 0h1"/><path stroke-width="1.01" stroke="#c2e8ec" d="M32 23h1m-1 1h1m-21 1h1m1 1h1"/><path stroke-width="1.01" stroke="#bad0d2" d="M7 25h1m-6 3h1m16 0h1"/><path stroke-width="1.01" stroke="#9ec8df" d="M25 25h1"/><path stroke-width="1.01" stroke="#bad1d3" d="M28 25h1m8 1h1M1 28h1"/><path stroke-width="1.01" stroke="#e5e7dc" d="M34 25h2m-23 1h1m19 0h1m2 0h1m-23 1h1m17 0h2m3 0h1M6 28h2m1 0h6m1 0h2m14 0h1M3 29h4m7 0h4m10 0h3M0 30h3m13 0h1m1 0h1m5 0h4m-10 1h1m1 0h3"/><path stroke-width="1.01" stroke="#c3e9ec" d="M32 26h1M6 27h1"/><path stroke-width="1.01" stroke="#e5e7dd" d="M34 26h1m-20 2h1m7 3h1"/><path stroke-width="1.01" stroke="#e4e7dc" d="M35 26h1"/><path stroke-width="1.01" stroke="#e5e6dc" d="M15 27h1m-8 1h1m8 2h1m1 1h1"/><path stroke-width="1.01" stroke="#c3e8ed" d="M16 27h1m5 3h1"/><path stroke-width="1.01" stroke="#bbd0d3" d="M26 27h1m-7 2h1"/><path stroke-width="1.01" stroke="#f0bdb5" d="M34 27h3m-1 1h2M8 29h1m1 0h1m1 0h2m17 0h7M3 30h4m1 0h1m1 0h1m1 0h2m1 0h1m14 0h5M1 31h6m1 0h10m6 0h1m1 0h3M1 32h1"/><path stroke-width="1.01" stroke="#f0bcb5" d="M33 28h3M7 29h1m-1 1h1m3 0h1m-5 1h1m-6 1h1"/><path stroke-width="1.01" stroke="#f1bdb5" d="M9 29h1m1 0h1m-3 1h1"/><path stroke-width="1.01" stroke="#f0bdb4" d="M14 30h1m13 0h2"/><path stroke-width="1.01" stroke="#efc6b8" d="M35 30h3m-7 1h7M5 32h2m1 0h2m1 0h1m1 0h4m1 0h7m3 0h1m4 0h5m-27 1h6m1 0h1"/><path stroke-width="1.01" stroke="#f2d2c2" d="M0 31h1m28 0h2M0 32h1m3 0h1m20 0h3m1 0h4M0 33h1m1 0h5m1 0h2m10 0h3m1 0h5m1 0h1m2 0h2m1 0h2M0 34h2m1 0h2m1 0h5m1 0h9m1 0h7m1 0h3m1 0h3M0 35h4m1 0h2m1 0h11m1 0h3m1 0h4m1 0h7m1 0h1M0 36h1m1 0h4m1 0h2m3 0h6m1 0h8m2 0h1m1 0h4m1 0h1M0 37h2m1 0h2m2 0h2m1 0h2m1 0h7m1 0h4m1 0h1m3 0h3m1 0h2"/><path stroke-width="1.01" stroke="#f1bcb5" d="M25 31h1"/><path stroke-width="1.01" stroke="#f3d2c2" d="M3 32h1m25 1h1m2 0h1m-12 1h1M7 35h1m11 0h1m-10 1h1m16 0h1M9 37h1m10 0h1m16 0h1"/><path stroke-width="1.01" stroke="#eec6b8" d="M7 32h1m9 1h1"/><path stroke-width="1.01" stroke="#efc6b9" d="M10 32h1"/><path stroke-width="1.01" stroke="#efc7b8" d="M12 32h1m4 0h1"/><path stroke-width="1.01" stroke="#f2d3c2" d="M1 33h1m21 0h1M2 34h1m8 0h1m16 2h1m-4 1h1m1 0h1m1 0h1"/><path stroke-width="1.01" stroke="#f2d2c3" d="M7 33h1m11 0h1m17 1h1M4 35h1m18 0h1m13 1h1M5 37h1"/><path stroke-width="1.01" stroke="#f3dac6" d="M10 33h1m20 0h1M5 34h1m22 1h1m7 0h1M6 36h1m4 0h1m21 1h1"/><path stroke-width="1.01" stroke="#f2d3c3" d="M35 33h1"/><path stroke-width="1.01" stroke="#f2cdc0" d="M29 34h1m3 0h1M9 36h1m20 0h1m4 0h1M2 37h1m3 0h1m5 0h1m15 0h1m7 0h1"/><path stroke-width="1.01" stroke="#f2dac6" d="M1 36h1"/><path stroke-width="1.01" stroke="#f3d3c2" d="M18 36h1"/></svg>