<svg xmlns="http://www.w3.org/2000/svg" shape-rendering="crispEdges" viewBox="0 -0.5 38 38"><path stroke="#d9dde4" stroke-width="1.01" d="M0 0h1m19 0h1M1 2h1m2 0h1m18 1h1M6 5h1m18 0h1m-3 1h1M8 7h1M0 8h1m33 0h1M8 9h1m20 1h1m-16 8h1m11 0h1m7 0h1M0 21h1m15 1h1m1 0h2m3 0h1m-12 1h1m2 0h1m0 1h1m9 0h1M0 25h1m21 0h1m12 0h1m1 0h1m-19 1h1m-7 1h1m13 2h1M8 30h1m20 0h1M5 31h1m15 0h1m8 0h1M0 32h1m29 0h1m1 1h1m-16 1h1m2 1h1m7 0h2m1 0h1m-22 2h1m7 0h1"/><path stroke="#d8dde4" stroke-width="1.01" d="M1 0h15m1 0h1m1 0h1m1 0h1m1 0h9m1 0h5M1 1h21m1 0h3m1 0h2m2 0h2m1 0h2m1 0h1M2 2h2m1 0h4m1 0h25m1 0h2M0 3h11m1 0h2m1 0h6m1 0h1m1 0h4m1 0h9M2 4h7m1 0h13m1 0h13M0 5h4m1 0h1m1 0h15m1 0h2m1 0h12M0 6h3m1 0h11m1 0h5m3 0h5m1 0h8M0 7h4m1 0h3m1 0h8m2 0h1m2 0h3m1 0h8m1 0h3M2 8h4m1 0h18m1 0h8m1 0h3M0 9h4m1 0h3m2 0h5m2 0h7m1 0h1m1 0h5m1 0h2m1 0h2M0 10h11m1 0h13m1 0h3m1 0h8M0 18h14m1 0h3m2 0h2m1 0h3m1 0h7m1 0h3M0 19h5m1 0h5m1 0h21m2 0h3M1 20h15m1 0h1m1 0h8m1 0h1m1 0h5m1 0h2M1 21h18m1 0h8m1 0h9M0 22h1m1 0h4m1 0h2m1 0h6m1 0h1m2 0h3m1 0h6m1 0h1m1 0h5M0 23h12m1 0h2m3 0h3m1 0h1m1 0h14M0 24h1m1 0h4m1 0h1m1 0h1m1 0h3m1 0h1m1 0h9m1 0h4m1 0h6M1 25h1m1 0h2m1 0h12m1 0h3m1 0h2m1 0h9m1 0h1M2 26h3m1 0h3m1 0h6m1 0h2m1 0h13m1 0h3M0 27h13m1 0h1m1 0h12m1 0h6m2 0h1M1 28h9m1 0h27M0 29h8m2 0h5m1 0h3m2 0h6m1 0h7m1 0h2M0 30h8m3 0h10m1 0h4m2 0h1m1 0h7M0 31h5m1 0h15m1 0h8m1 0h7M1 32h4m2 0h23m1 0h7M0 33h13m1 0h2m1 0h1m2 0h12m1 0h4M0 34h10m1 0h5m2 0h2m1 0h1m1 0h15M0 35h2m1 0h2m1 0h7m1 0h1m1 0h4m2 0h6m2 0h1m1 0h1m1 0h3M0 36h5m2 0h2m1 0h12m1 0h5m1 0h9M0 37h10m1 0h7m1 0h8m1 0h2m1 0h7"/><path stroke="#d8dde5" stroke-width="1.01" d="M16 0h1m15 0h1M22 1h1m6 0h1M9 2h1m25 0h1M11 3h1m2 0h1m6 0h1m6 0h1M0 4h1m22 0h1m13 0h1M4 5h1M3 6h1m11 0h1m5 0h2m-5 1h1m1 0h1M1 8h1m23 0h1M4 9h1m11 0h1m7 0h1m1 0h1m5 0h1m2 0h1m-18 9h1m3 0h1M5 19h1m5 0h1m21 0h2m-17 1h1m8 0h1m0 1h1M9 22h1m13 1h1M1 24h1m6 0h1m-7 1h1m15 0h1m6 0h1M5 26h1m3 0h1m6 0h1m18 1h2M8 29h1m6 0h1m3 0h1m15 0h1M9 30h1m16 0h1m10 0h1m-25 3h1m4 0h1m18 0h1m-28 1h1m5 0h1M5 35h1m7 0h1m1 0h1m21 0h1M9 36h1m17 1h1m2 0h1"/><path stroke="#d8dce4" stroke-width="1.01" d="M18 0h1m3 0h1M0 1h1m25 0h1m3 0h1m2 0h1m2 0h1M1 4h1m7 0h1M4 7h1m12 0h1m3 0h1m3 0h1m8 0h1M6 8h1m2 1h1m5 0h1m-5 1h1m13 0h1m-7 8h1M0 20h1m15 0h1m12 0h1m5 0h1m-17 1h1M1 22h1m4 0h1m23 0h1m1 0h1m-17 1h2M6 24h1m7 0h1m16 0h1M5 25h1m-6 1h2m31 0h1m3 0h1m-23 1h1m12 0h1M0 28h1m9 0h1m-2 1h1m10 0h1m-11 1h1m10 0h1m5 0h1M5 32h1m13 1h1m0 1h1m1 0h1M2 35h1m18 0h1m11 0h1M6 36h1m15 0h1m5 0h1"/><path stroke="#d8dce5" stroke-width="1.01" d="M0 2h1m20 21h1m-6 10h1"/><path stroke="#d9dde5" stroke-width="1.01" d="M22 5h1m6 1h1M6 32h1"/><path stroke="#feffff" stroke-width="1.01" d="M0 11h1m4 0h1m4 0h1m1 0h1m4 1h1m0 1h1m7 0h1M6 14h1m28 0h1M0 15h1m4 0h1m12 0h1m8 0h1M0 16h1m2 0h1m-2 1h1m12 0h1"/><path stroke="#fff" stroke-width="1.01" d="M1 11h4m1 0h1m1 0h2m1 0h1m1 0h2m1 0h6m1 0h15M0 12h4m1 0h12m1 0h18m1 0h1M0 13h2m1 0h13m1 0h1m1 0h7m1 0h10M1 14h5m1 0h2m2 0h12m1 0h8m1 0h2m1 0h1M1 15h1m1 0h2m1 0h7m1 0h4m1 0h8m1 0h10M1 16h2m1 0h1m1 0h12m1 0h8m1 0h3m1 0h6M1 17h1m1 0h2m1 0h4m1 0h4m1 0h5m1 0h1m1 0h14"/><path stroke="#fffffe" stroke-width="1.01" d="M7 11h1m7 0h1M2 13h1m-3 1h1m36 0h1M2 15h1m15 1h1m12 0h1m-22 1h1m10 0h1"/><path stroke="#fffefe" stroke-width="1.01" d="M22 11h1m4 5h1"/><path stroke="#fffeff" stroke-width="1.01" d="M4 12h1m31 0h1m-21 1h1m20 0h1M9 14h2m12 0h1m8 0h1M5 16h1m-6 1h1m4 0h1m17 0h1"/><path stroke="#fefeff" stroke-width="1.01" d="M13 15h1"/><path stroke="#d9dce4" stroke-width="1.01" d="M10 24h1M5 36h1"/></svg>