<svg xmlns="http://www.w3.org/2000/svg" shape-rendering="crispEdges" viewBox="0 -0.5 38 38"><path stroke-width="1.01" stroke="#94d6fe" d="M0 0h18m1 0h11m1 0h4m1 0h2M0 1h5m2 0h1m2 0h20m3 0h1m1 0h3M0 2h9m1 0h3m1 0h9m1 0h2m1 0h4m2 0h5M0 3h1m2 0h3m1 0h8m1 0h2m1 0h4m1 0h6m1 0h5m1 0h1M0 4h6m1 0h20m2 0h9M0 5h6m1 0h1m1 0h2m1 0h9m2 0h2m2 0h2m1 0h8M0 6h3m2 0h7m1 0h17m1 0h7M0 7h5m1 0h9m1 0h7m1 0h7m2 0h5M2 8h2m1 0h5m1 0h6m2 0h13m1 0h3m1 0h1M1 9h6m1 0h3m1 0h2m1 0h1m1 0h2m1 0h18M0 10h6m1 0h14m2 0h15M1 11h2m1 0h2m1 0h5m2 0h3m1 0h1m3 0h11m1 0h1m1 0h2M1 12h5m1 0h4m1 0h12m1 0h13M0 13h9m1 0h11m2 0h13m1 0h1M0 14h4m1 0h1m1 0h11m1 0h11m1 0h7M0 15h9m1 0h10m2 0h6m1 0h8M0 16h4m1 0h3m2 0h2m1 0h5m1 0h1m1 0h2m1 0h5m1 0h8M0 17h4m1 0h3m2 0h1m1 0h12m1 0h1m1 0h8m1 0h2M0 18h7m2 0h1m1 0h6m1 0h1m1 0h5m1 0h1m1 0h1m1 0h3m1 0h4M0 19h9m1 0h14m1 0h9M0 20h5m2 0h3m1 0h2m1 0h1m1 0h1m1 0h15M1 21h3m1 0h6m1 0h3m1 0h4m1 0h1m1 0h11M0 22h1m1 0h6m6 0h15m1 0h5M0 23h2m1 0h1m1 0h2m9 0h1m1 0h1m14 0h5M1 24h2m32 0h1m1 0h1M2 25h1m33 0h1m-11 6h1m1 0h3M1 32h3m21 0h3M0 33h2m1 0h2m1 0h4m9 0h1M0 34h1m1 0h3m3 0h1m1 0h8M0 35h3m10 0h4M0 36h2m-2 1h1"/><path stroke-width="1.01" stroke="#94d7fe" d="M18 0h1m11 0h1M6 1h1m1 0h1m22 0h1M9 2h1m3 0h1m9 0h1m2 0h1m5 0h1M15 3h1m2 0h1m11 0h1M6 5h1m5 1h1M5 7h1m25 0h2M1 8h1m16 0h1m3 2h1M3 11h1m15 0h3M4 14h1m13 0h1m1 2h1M4 17h1m4 0h1m-3 1h1m25 0h1M5 20h1m11 3h1M4 24h1m31 0h1m-10 7h1M4 32h1m0 1h1"/><path stroke-width="1.01" stroke="#95d6fe" d="M35 0h1m-6 1h1m1 0h1m3 2h1M11 5h1M4 6h1m25 0h1M15 7h1M0 8h1m3 0h1m5 0h1m0 1h1m2 0h1m-9 1h1m5 1h1m4 0h1m15 0h1m1 0h1m-25 1h1m-3 1h1m12 0h1m13 0h1M9 15h1m18 0h1m8 0h1M8 16h1m3 0h1m5 0h1M8 17h1m15 0h1m-15 1h1m14 0h1m1 0h1m6 1h1m-25 1h1m2 0h1m-3 1h1m3 0h1m13 1h1M2 23h1m1 0h1m-2 2h1m33 0h1M1 34h1"/><path stroke-width="1.01" stroke="#94d6ff" d="M5 1h1m3 0h1m24 0h1m-4 1h1M1 3h2m3 0h1M6 4h1m20 0h2M8 5h1m12 0h1m4 0h1m2 0h1M3 6h1m19 1h1m-7 1h1m14 0h1m3 0h1M0 9h1m6 0h1m8 0h1m2 0h1m1 1h1M0 11h1m5 0h1m6 0h1M0 12h1m5 0h1m17 0h1m-4 1h1M6 14h1m23 0h1m-11 1h2M4 16h1m4 0h1m13 0h1m5 0h1m-19 1h1m23 0h1M8 18h1m8 0h1m1 0h1M9 19h1m14 0h1M6 20h1m8 0h1m1 0h1M0 21h1m3 0h1m15 0h1m1 0h1M1 22h1m11 0h1m5 1h1M3 24h1m-2 9h1m6 1h1"/><path stroke-width="1.01" stroke="#94d7ff" d="M23 3h1m-2 2h1M0 24h1"/><path stroke-width="1.01" stroke="#95d6ff" d="M25 5h1M0 32h1"/><path stroke-width="1.01" stroke="#95d7fe" d="M26 17h1m2 1h1"/><path stroke-width="1.01" stroke="#aedffe" d="M35 19h3m-5 1h3m-2 1h4M8 22h1m2 0h2m-6 1h2m1 0h6m4 0h9m1 0h3M5 24h16m1 0h5m1 0h6M0 25h2m2 0h7m1 0h3m1 0h4m1 0h6m1 0h6M1 26h2m1 0h5m1 0h3m4 0h1m1 0h1m3 0h6m1 0h4m2 0h2M0 27h6m1 0h3m1 0h1m15 0h4m4 0h1M1 28h2m1 0h6m1 0h8m2 0h5m8 0h4M0 29h4m6 0h1m1 0h6m1 0h6m2 0h2m1 0h6m1 0h1M0 30h2m7 0h15m10 0h4M9 31h8m1 0h1m1 0h1m1 0h1m10 0h5M9 32h8m3 0h4m8 0h6m-18 1h1m1 0h11m1 0h4M5 34h3m10 0h5m1 0h11m1 0h2M3 35h2m1 0h1m1 0h5m4 0h11m4 0h2M2 36h12m1 0h1m1 0h8M2 37h2m1 0h1m12 0h4"/><path stroke-width="1.01" stroke="#afdffe" d="M36 20h2m-17 4h1M6 27h1m30 0h1M3 28h1m0 1h2m12 0h1m17 0h1M2 30h1m14 1h1m6 1h1m8 1h1m-18 3h1M4 37h1"/><path stroke-width="1.01" stroke="#aedfff" d="M9 22h1m-1 1h1m17 2h1m-15 1h1m-4 1h1m1 0h1m-2 2h1m-5 6h1m14 2h1"/><path stroke-width="1.01" stroke="#aedefe" d="M10 22h1m18 1h1m-3 1h1m-8 1h1M0 26h1m2 0h1m14 0h1m10 0h1m6 1h1M0 28h1m5 1h1m22 0h1m-9 2h1m1 3h1m11 0h1M5 35h1m8 1h1m2 1h1"/><path stroke-width="1.01" stroke="#8fcdf9" d="M35 22h2m-3 2h1m-20 1h1m18 0h2m-22 1h3m3 0h2m12 0h2m-23 1h14m5 0h3m-25 1h1m8 0h2m6 0h7M7 29h2m16 0h2M3 30h4m1 0h1m15 0h10M1 31h8m14 0h1m1 0h1m5 0h1M5 32h4m9 0h2m8 0h4m-22 1h3m1 0h5m9 2h1m2 0h1m2 0h1m1 0h2m-12 1h7m3 0h2M1 37h1m4 0h4m1 0h5m7 0h7m1 0h1m1 0h1m1 0h1"/><path stroke-width="1.01" stroke="#8ecdf9" d="M37 22h1m-7 5h1m-6 1h1M0 31h1m12 2h1m15 2h2m2 1h3m-20 1h1"/><path stroke-width="1.01" stroke="#aedeff" d="M11 25h1"/><path stroke-width="1.01" stroke="#afdefe" d="M9 26h1m11 7h1"/><path stroke-width="1.01" stroke="#8fccf9" d="M22 26h1M9 29h1m-3 1h1m16 1h1m-8 1h1m7 4h1m4 1h1m1 0h1"/><path stroke-width="1.01" stroke="#8fcdf8" d="M19 31h1m12 0h1m2 4h1m-26 2h1m23 0h1m1 0h1"/><path stroke-width="1.01" stroke="#8eccf9" d="M37 37h1"/></svg>