<svg xmlns="http://www.w3.org/2000/svg" shape-rendering="crispEdges" viewBox="0 -0.5 38 38"><path stroke-width="1.01" stroke="#99e1ff" d="M0 0h1m2 4h1m4 14h1m-3 1h1m-5 1h1m4 2h1"/><path stroke-width="1.01" stroke="#98e0ff" d="M1 0h1m3 1h1M2 2h1m5 5h1m26 24h1M4 37h1m27 0h1"/><path stroke-width="1.01" stroke="#99e0ff" d="M2 0h8m19 0h6M0 1h5m1 0h2m23 0h3M0 2h2m1 0h2m1 0h1m25 0h2M1 3h4m28 0h1M2 4h1m1 0h3m0 1h2m24 0h1M7 6h3m23 0h2M9 7h2m23 0h1m-1 1h2m-4 1h6m-7 1h7m-8 1h2m1 0h1m-7 1h4m-21 4h2m-3 1h3m-5 1h1m1 0h2m-9 1h2m1 0h1m1 0h4M0 20h2m1 0h2m1 0h4m18 0h7M6 21h3m21 0h8M8 22h1m25 0h4M4 29h1m-4 1h3m33 0h1M0 31h3m31 1h1m-1 1h1m-2 1h2m-2 1h3M5 36h4m23 0h6M2 37h2m1 0h1m1 0h1m22 0h2m1 0h2m1 0h2"/><path stroke-width="1.01" stroke="#79d4fb" d="M10 0h2m2 0h2M9 1h2m1 0h1m17 0h1M9 2h1m1 0h1m19 0h1M0 3h1m8 0h2m20 0h1M1 4h1m8 0h1m20 0h3M0 5h4m5 0h2m21 0h1m1 0h1M0 6h7m3 0h1m24 0h1M0 7h2m1 0h5m3 0h3m18 0h2m1 0h2M2 8h8m1 0h1m1 0h4m14 0h1m1 0h1m2 0h1M4 9h3m1 0h1m1 0h1m3 0h4m12 0h1M8 10h3m5 0h4m8 0h2m-20 1h3m21 0h1m1 0h1m-5 1h2m-22 1h1m5 0h2m6 0h1m1 0h2m-19 1h1m2 0h8m4 0h1M9 15h1m3 0h1m1 0h6m1 0h1m3 0h1M7 16h1m4 0h7m3 0h1m3 0h1M6 17h1m5 0h5m5 0h1m3 0h1m-16 1h3m7 0h2m4 0h1M0 19h2m9 0h1m9 0h2m2 0h1m4 0h3m1 0h1m-25 1h1m9 0h2m3 0h2M0 21h4m1 0h1m3 0h2m9 0h1m4 0h5M5 22h1m3 0h2m8 0h2m3 0h1m2 0h7M6 23h1m1 0h2m9 0h1m3 0h2m5 0h3m1 0h2m1 0h1M6 24h1m1 0h2m8 0h1m3 0h2m-7 1h1m3 0h2M8 26h1m7 0h1m3 0h1M5 27h1m1 0h1m9 0h4M7 28h12M6 29h2m2 0h1m1 0h1m1 0h3m9 0h1M0 30h1m5 0h1m6 0h1m11 0h1m10 0h1M4 31h1m6 0h1m1 0h2m9 0h1m3 0h1M1 32h2m11 0h2m6 0h2m1 0h4m1 0h2M0 33h2m9 0h1m3 0h2m1 0h9m4 0h1m-21 1h2m3 0h1m-5 1h1m3 0h1m-4 1h1m0 1h1m2 0h2"/><path stroke-width="1.01" stroke="#79d5fb" d="M12 0h2m-3 1h1m-1 2h1m20 0h1M8 4h1M4 5h1m27 1h1M2 7h1M0 8h1m11 0h1m19 0h1M18 9h1m12 0h1m-1 3h1m1 11h1m2 0h1M6 25h1m4 4h1m-7 1h1m5 0h1M0 32h1m10 0h1m9 0h1m-10 4h1m0 1h1"/><path stroke-width="1.01" stroke="#5dcdfa" d="M16 0h2m1 0h6m1 0h2m7 0h2M13 1h1m1 0h3m1 0h9m1 0h1m5 0h3M12 2h10m1 0h8m3 0h2m1 0h1M13 3h3m1 0h13m4 0h2m1 0h1M11 4h8m10 0h2m3 0h4M11 5h2m1 0h2M0 9h1m2 0h1m-4 1h2m1 0h3m1 0h1m-8 1h10m27 0h1M4 12h3m1 0h2m1 0h1m23 0h3M8 13h3m19 0h7m-7 1h8m-11 1h3m1 0h2m4 0h1m-18 1h2m5 0h4m6 0h1m-21 1h2m1 0h2m15 0h1m-24 1h1m1 0h5m-9 1h4m1 0h4m16 0h1m-26 1h6m1 0h1m-9 1h3m1 0h2M0 22h5m6 0h1m1 0h1m11 0h2M0 23h3m1 0h2m4 0h2m13 0h5M0 24h3m21 0h1m1 0h9m1 0h2m-15 1h6m1 0h1m1 0h5m-15 1h1m1 0h2m1 0h4m6 0h1m-17 1h3m1 0h1m-6 1h4M8 29h2m8 0h5M7 30h4m3 0h6M6 31h5m5 0h1m19 0h2M3 32h3m2 0h3m18 0h1m5 0h3M2 33h9m16 0h1m1 0h2M0 34h11m6 0h7m1 0h7M0 35h3m1 0h1m12 0h8m1 0h1m-8 1h1"/><path stroke-width="1.01" stroke="#5dcdfb" d="M18 0h1m18 0h1M14 1h1m13 0h1m7 1h1M2 9h1m7 3h1m17 2h2m-14 5h1m-5 3h1m10 4h1m2 0h1m-3 1h1m-10 4h1m-9 1h1m-5 3h1m14 1h1"/><path stroke-width="1.01" stroke="#5ccdfa" d="M25 0h1m8 1h1M22 2h1m7 1h1M1 9h1m32 3h1m-24 1h1m25 0h1m-19 3h1m-1 1h1m17 1h1m-27 2h1m6 0h1M3 23h1m6 1h1m18 1h1M5 31h1m0 1h1m28 1h1"/><path stroke-width="1.01" stroke="#99e0fe" d="M28 0h1M5 2h1M5 3h1m0 2h1m25 6h1M4 19h1m0 1h1m30 15h1M6 37h1m28 0h1"/><path stroke-width="1.01" stroke="#7cd6ff" d="M8 1h1M8 2h1M7 3h2M7 4h1m2 4h1m0 1h3m-1 1h1m1 0h1m4 0h1m1 0h4m4 0h1m-18 1h6m1 0h3m1 0h6m-16 1h1m1 0h9m1 0h1m-14 1h5m4 0h4m-14 1h2m8 0h2m1 0h1m-16 1h2m11 0h3M9 16h1m13 0h2M7 17h2m14 0h1m1 0h1M3 18h3m17 0h1m1 0h1m-3 1h2m1 0h4m-8 1h2m-3 1h4m-3 1h1M7 23h1m12 0h2M7 24h1m11 0h3M7 25h1m10 0h3M6 26h2m9 0h1m1 0h1M6 27h1m9 0h1M5 28h1m27 0h5M3 29h1m1 0h1m23 0h8M4 30h1m7 0h1m13 0h2m1 0h2m1 0h3m-23 1h1m12 0h2m3 0h4m-22 1h2m18 0h2m-22 1h3m17 0h1m-20 1h2m17 0h1m-20 1h3m16 0h1m-19 1h3m-2 1h2"/><path stroke-width="1.01" stroke="#5dccfa" d="M18 1h1m-3 2h1m19 0h1M19 4h1m8 0h1M2 10h1m18 5h1m8 0h1m-16 3h1m9 6h1m9 0h1m-5 1h1m5 0h1m-10 8h1m-5 1h1m0 1h1"/><path stroke-width="1.01" stroke="#7cd7ff" d="M7 2h1M6 3h1m7 7h1m4 1h1m-8 4h1m-7 3h1M6 28h1m24 2h1"/><path stroke-width="1.01" stroke="#78d4fb" d="M10 2h1M1 8h1m7 1h1m16 1h1m-15 2h1m7 1h1m6 0h1m-14 2h1M4 21h1m1 1h1m1 5h1m6 0h1m3 1h1m-7 1h1m21 1h1m-7 1h1m4 0h1m-20 3h1m1 2h1"/><path stroke-width="1.01" stroke="#5ccdfb" d="M12 3h1"/><path stroke-width="1.01" stroke="#79d4fa" d="M0 4h1m8 0h1m1 2h1M7 9h1m27 2h1m-9 3h1m5 5h1m2 1h1M8 25h1m12 1h1M4 28h1m12 1h1m9 0h1m-1 2h1m-11 2h1"/><path stroke-width="1.01" stroke="#6cccff" d="M20 4h1m1 0h6M16 5h1m1 0h14m3 0h3M12 6h2m1 0h17m4 0h1M15 7h3m1 0h2m1 0h3m6 0h1m5 0h1M17 8h4m1 0h3m1 0h2m1 0h1m7 0h1M20 9h3m1 0h3m1 0h2M0 12h4m-4 1h3m1 0h4m-7 1h4m1 0h3m1 0h1M1 15h4m1 0h3m24 0h4M1 16h5m25 0h2m1 0h3M0 17h6m21 0h6m1 0h3M0 18h1m27 0h8m-1 1h2m0 1h1m-20 1h2m-6 1h2m1 0h1m-5 1h6M3 24h3m5 0h3m2 0h2M2 25h4m4 0h2m1 0h4M0 26h6m3 0h3m1 0h1m1 0h1m15 0h2m1 0h1m1 0h1M0 27h5m4 0h2m1 0h3m11 0h12M3 28h1m20 0h5m1 0h3M0 29h2m21 0h3m-5 1h3m-7 1h1m1 0h3m1 0h1m-8 1h5m15 1h1m-2 1h1m1 0h1M6 35h1m1 0h4m15 0h1m2 0h2m5 0h1M0 36h1m2 0h2m4 0h3m9 0h6m1 0h3M0 37h2m6 0h3m1 0h1m6 0h5m1 0h5"/><path stroke-width="1.01" stroke="#6ccdfe" d="M21 4h1M0 28h1"/><path stroke-width="1.01" stroke="#7cd6fe" d="M5 5h1m15 5h1m-7 2h1m9 0h1m-2 6h1m1 0h1m0 2h1m7 0h1m-14 3h1m14 6h1m-14 3h1"/><path stroke-width="1.01" stroke="#5cccfb" d="M13 5h1"/><path stroke-width="1.01" stroke="#6dccff" d="M17 5h1m-4 1h1m11 1h2m1 0h1M19 9h1m3 0h1M5 14h1m3 0h1M0 15h1m4 0h1m0 1h1m26 1h1m-16 5h1m-7 3h1m-1 1h1m22 0h1M1 28h1m27 0h1m-6 2h1m11 4h1m-10 2h1"/><path stroke-width="1.01" stroke="#6cccfe" d="M37 6h1M14 7h1m3 0h1m6 0h1m2 0h1m1 0h1m-6 1h1m1 1h1M3 13h1m-4 1h1m-1 2h1m32 0h1m2 2h1m-21 4h1m-3 2h1M1 25h1m7 0h1m1 2h1M2 29h1m19 2h1m14 2h1M5 35h1m22 0h1M2 36h1m17 0h1"/><path stroke-width="1.01" stroke="#6ccdff" d="M21 7h1m-1 1h1m6 0h1M17 21h1m-6 2h1m2 1h1M0 25h1m13 1h1m18 0h1M2 28h1m17 2h1m-3 1h1M7 35h1m21 0h1M1 36h1m9 1h1m12 0h1"/><path stroke-width="1.01" stroke="#6dccfe" d="M30 8h1M1 18h1"/><path stroke-width="1.01" stroke="#5cccfa" d="M6 10h1m0 2h1"/><path stroke-width="1.01" stroke="#7dd6fe" d="M11 10h1"/><path stroke-width="1.01" stroke="#7dd6ff" d="M12 10h1m10 1h1m-11 1h1m7 1h1m2 1h1M8 16h1m16 0h1m-2 1h1M2 18h1m21 2h1m-4 2h1m1 0h1m-6 4h1m9 3h1m-1 1h1M3 31h1m29 2h1m-3 3h1"/><path stroke-width="1.01" stroke="#78d4fa" d="M27 10h1"/><path stroke-width="1.01" stroke="#5dccfb" d="M14 21h1"/></svg>