<svg
   shape-rendering="crispEdges"
   viewBox="0 -0.5 22 19"
   version="1.1"
   id="svg54"
   sodipodi:docname="head_pooly.svg"
   width="22"
   height="19"
   xmlns="http://www.w3.org/2000/svg"
   xmlns:svg="http://www.w3.org/2000/svg">
  <defs
     id="defs58" />
  <sodipodi:namedview
     id="namedview56"
     pagecolor="#505050"
     bordercolor="#eeeeee"
     borderopacity="1"
     inkscape:pageshadow="0"
     inkscape:pageopacity="0"
     inkscape:pagecheckerboard="0"
     showgrid="false"
     inkscape:zoom="17"
     inkscape:cx="13.970588"
     inkscape:cy="12.970588"
     inkscape:window-width="1920"
     inkscape:window-height="1009"
     inkscape:window-x="-8"
     inkscape:window-y="-8"
     inkscape:window-maximized="1"
     inkscape:current-layer="svg54" />
  <path
     stroke="#7124ee"
     d="m 2,0 h 1 m 0,1 h 1 m 0,1 h 5 m 1,0 h 8 M 1,3 h 1 m 5,0 h 3 m 1,0 H 21 M 2,4 H 21 M 5,5 H 6 M 7,5 H 19 M 1,6 h 8 m 5,0 h 2 m 4,0 h 1 M 3,7 h 6 m 5,0 h 2 m 4,0 h 1 M 7,8 h 2 m 4,0 h 2 m 5,0 h 1 M 8,9 h 1 m 4,0 h 3 m -9,1 h 1 m 6,0 h 2 m 4,0 h 1 M 7,11 h 2 m 4,0 h 3 m 4,0 h 1 M 7,12 h 5 m 1,0 h 2 m 1,0 h 3 m 1,0 h 1 M 7,13 h 5 m 7,0 h 1 M 8,14 h 1 m 1,0 h 2 m 7,0 h 2 M 8,15 h 3 m 9,0 h 1 M 8,16 h 7 m 5,0 h 1"
     id="path2" />
  <path
     stroke="#6514dd"
     d="M 3,2 H 4 M 5,3 H 6 M 2,7 h 1 m 3,1 h 1 m 2,3 h 3 m 4,0 h 4 M 7,15 h 1 m 4,0 h 1 m -6,1 h 1 m 0,1 h 2 m 1,0 h 5 m 1,0 h 4"
     id="path4" />
  <path
     stroke="#7024ee"
     d="m 9,2 h 1 m 0,1 h 1 m 8,2 h 1 m -7,2 h 1 m 1,1 h 1 m -4,4 h 1 m -4,2 h 1"
     id="path6" />
  <path
     stroke="#5519ae"
     d="M 4,3 H 5 M 3,5 h 1 m 17,1 h 1 m -1,1 h 1 M 3,8 h 1 m 1,0 h 1 m 15,0 h 1 M 6,9 h 1 m 14,0 h 1 M 6,10 h 1 m 14,0 h 1 m -1,1 h 1 M 6,12 h 1 m 14,0 h 1 M 6,13 h 1 m 14,0 h 1 M 6,14 h 1 m 14,0 h 1 M 9,18 h 8 m 1,0 h 1"
     id="path8" />
  <path
     stroke="#7124ef"
     d="M 6,3 H 7 M 6,5 h 1 m 6,5 h 1 m 5,2 h 1 m 0,1 h 1"
     id="path10" />
  <path
     stroke="#7125ee"
     d="m 0,5 h 1 m 12,1 h 1 M 7,9 h 1 m 12,0 h 1 M 8,10 h 1 m 6,2 h 1 m -9,2 h 1 m 3,1 h 1"
     id="path12" />
  <path
     stroke="#6514dc"
     d="m 4,5 h 1 m 5,12 h 1"
     id="path14" />
  <path
     stroke="#7125ef"
     d="m 20,5 h 1"
     id="path16" />
  <path
     stroke="#c4e5f8"
     d="m 9,6 h 2 m 5,0 h 2"
     id="path18" />
  <path
     stroke="#000048"
     d="m 11,6 h 1"
     id="path20" />
  <path
     stroke="#000049"
     d="m 12,6 h 1 m 5,0 h 2 m -9,1 h 2 m 5,0 h 2 M 9,8 h 4 m 3,0 h 4 M 9,9 h 4 m 3,0 h 4 M 9,10 h 4 m 3,0 h 3"
     id="path22" />
  <path
     stroke="#def0fb"
     d="m 9,7 h 2 m 6,0 h 1"
     id="path24" />
  <path
     stroke="#dff1fb"
     d="m 16,7 h 1"
     id="path26" />
  <path
     stroke="#5519af"
     d="m 4,8 h 1 m 12,10 h 1"
     id="path28" />
  <path
     stroke="#010049"
     d="m 19,10 h 1"
     id="path30" />
  <path
     stroke="#5418ae"
     d="M 6,11 H 7"
     id="path32" />
  <path
     stroke="#6515dd"
     d="m 12,11 h 1 m 3,6 h 1"
     id="path34" />
  <path
     stroke="#ff7f08"
     d="m 12,13 h 2 m 1,0 h 2 m -3,1 h 1 m 3,0 h 1 m -4,1 h 5 m -2,1 h 2"
     id="path36" />
  <path
     stroke="#ff7f09"
     d="m 14,13 h 1"
     id="path38" />
  <path
     stroke="#ff9112"
     d="m 17,13 h 2"
     id="path40" />
  <path
     stroke="#f26d00"
     d="m 12,14 h 1 m 0,1 h 2 m 1,1 h 1"
     id="path42" />
  <path
     stroke="#fe7f08"
     d="m 13,14 h 1 m 2,0 h 1"
     id="path44" />
  <path
     stroke="#a7431c"
     d="m 15,14 h 1 m 1,0 h 1"
     id="path46" />
  <path
     stroke="#f26c00"
     d="m 15,16 h 1"
     id="path48" />
  <path
     stroke="#ff7e08"
     d="m 17,16 h 1"
     id="path50" />
  <path
     stroke="#6414dd"
     d="M 7,17 H 8"
     id="path52" />
</svg>
