<svg
   shape-rendering="crispEdges"
   viewBox="0 -0.5 22 17"
   version="1.1"
   id="svg76"
   sodipodi:docname="head_robo-pooly.svg"
   width="22"
   height="17"
   xmlns="http://www.w3.org/2000/svg"
   xmlns:svg="http://www.w3.org/2000/svg">
  <defs
     id="defs80" />
  <sodipodi:namedview
     id="namedview78"
     pagecolor="#505050"
     bordercolor="#eeeeee"
     borderopacity="1"
     inkscape:pageshadow="0"
     inkscape:pageopacity="0"
     inkscape:pagecheckerboard="0"
     showgrid="false"
     inkscape:zoom="17"
     inkscape:cx="13.970588"
     inkscape:cy="10.970588"
     inkscape:window-width="1920"
     inkscape:window-height="1009"
     inkscape:window-x="-8"
     inkscape:window-y="-8"
     inkscape:window-maximized="1"
     inkscape:current-layer="svg76" />
  <path
     stroke="#858585"
     d="M 2,0 H 3 M 4,0 H 9 M 8,1 h 5 m 1,0 h 7 M 1,2 H 4 M 5,2 H 6 M 7,2 H 8 M 9,2 H 21 M 8,3 h 1 m 1,0 h 3 m 1,0 h 7 M 0,4 h 1 m 1,0 h 5 m 1,0 h 1 m 6,0 h 1 m 4,0 h 1 M 3,5 h 3 m 2,0 h 1 m 5,0 h 2 M 7,6 h 2 m 5,0 h 2 m 4,0 h 1 M 8,7 h 1 m 6,0 h 1 m 4,0 h 1 M 7,8 h 2 m 5,0 h 2 m 4,0 h 1 M 8,9 h 2 m 5,0 h 1 m 4,0 h 1 M 7,10 h 1 m 2,0 h 2 m 1,0 h 3 m 1,0 h 4 M 8,11 h 2 m 1,0 h 1 m 7,0 h 2 M 7,12 h 4 m 8,0 h 1 M 8,13 h 4 m 8,0 h 1 M 8,14 h 7 m 5,0 h 1"
     id="path2" />
  <path
     stroke="#848585"
     d="m 3,0 h 1 m 9,1 h 1 M 6,2 H 7 M 8,2 H 9 M 1,4 h 1 m 5,0 h 1 m 5,0 h 2 m -5,7 h 1 m -4,3 h 1"
     id="path4" />
  <path
     stroke="#aaaaaa"
     d="m 9,0 h 3 m 1,0 h 3 m 1,0 h 1 M 9,4 h 1"
     id="path6" />
  <path
     stroke="#aaaaab"
     d="m 12,0 h 1"
     id="path8" />
  <path
     stroke="#abaaaa"
     d="m 16,0 h 1"
     id="path10" />
  <path
     stroke="#636363"
     d="M 4,1 H 5 M 3,3 h 1 m 17,1 h 1 m -1,1 h 1 M 3,6 h 1 m 1,0 h 1 m 15,0 h 1 m -1,1 h 1 M 6,8 h 1 m 14,0 h 1 M 6,9 h 1 m 6,0 h 1 m 7,0 h 1 M 6,11 h 1 m 14,0 h 1 m -1,1 h 1 M 9,16 h 10"
     id="path12" />
  <path
     stroke="#777676"
     d="m 5,1 h 1 m 1,8 h 1 m 11,0 h 1 m -2,6 h 1"
     id="path14" />
  <path
     stroke="#454545"
     d="m 6,1 h 1 m 10,10 h 2"
     id="path16" />
  <path
     stroke="#767676"
     d="M 7,1 H 8 M 4,3 H 6 M 7,3 H 8 M 1,5 h 2 m 3,1 h 1 m 0,1 h 1 m 8,2 h 3 M 7,11 h 1 m 4,2 h 1 m -6,2 h 8 m 1,0 h 2 m 1,0 h 2"
     id="path18" />
  <path
     stroke="#858485"
     d="m 4,2 h 1 m 9,5 h 1 m -1,2 h 1 m -3,1 h 1 m 3,0 h 1 m -6,2 h 1"
     id="path20" />
  <path
     stroke="#454544"
     d="M 6,3 H 7"
     id="path22" />
  <path
     stroke="#858584"
     d="m 9,3 h 1 m 3,0 h 1 m 6,2 h 1 M 8,10 h 2 m 10,2 h 1"
     id="path24" />
  <path
     stroke="#ae9393"
     d="m 10,4 h 1 m 1,0 h 1 M 9,5 h 1 M 9,8 h 1"
     id="path26" />
  <path
     stroke="#bc8484"
     d="m 11,4 h 1 M 9,6 h 1 M 9,7 h 1"
     id="path28" />
  <path
     stroke="#000100"
     d="m 16,4 h 1"
     id="path30" />
  <path
     stroke="#000000"
     d="m 17,4 h 3 m -4,1 h 3 m -3,1 h 1 m -1,1 h 2 m -2,1 h 1 m -2,4 h 1"
     id="path32" />
  <path
     stroke="#454445"
     d="M 6,5 H 7"
     id="path34" />
  <path
     stroke="#767677"
     d="M 7,5 H 8"
     id="path36" />
  <path
     stroke="#e70019"
     d="m 10,5 h 1 m 1,0 h 1 m -3,3 h 1"
     id="path38" />
  <path
     stroke="#ff0c27"
     d="m 11,5 h 1 m -2,1 h 1 m 1,0 h 1 m -3,1 h 1 m 0,1 h 1"
     id="path40" />
  <path
     stroke="#745353"
     d="m 13,5 h 1 m -1,3 h 1 m -2,1 h 1"
     id="path42" />
  <path
     stroke="#191919"
     d="m 19,5 h 1 m -1,2 h 1 m -3,1 h 3"
     id="path44" />
  <path
     stroke="#636263"
     d="m 4,6 h 1 m 16,4 h 1 M 6,12 h 1"
     id="path46" />
  <path
     stroke="#ffffff"
     d="m 11,6 h 1 m -1,1 h 1"
     id="path48" />
  <path
     stroke="#814747"
     d="m 13,6 h 1 m -1,1 h 1 m -3,2 h 1"
     id="path50" />
  <path
     stroke="#010000"
     d="m 17,6 h 1 m -1,6 h 1"
     id="path52" />
  <path
     stroke="#bebebe"
     d="m 18,6 h 1 m -1,1 h 1"
     id="path54" />
  <path
     stroke="#191819"
     d="m 19,6 h 1"
     id="path56" />
  <path
     stroke="#626363"
     d="M 6,7 H 7 M 6,10 H 7"
     id="path58" />
  <path
     stroke="#ff0d27"
     d="m 12,7 h 1"
     id="path60" />
  <path
     stroke="#e70119"
     d="m 12,8 h 1"
     id="path62" />
  <path
     stroke="#745253"
     d="m 10,9 h 1"
     id="path64" />
  <path
     stroke="#353535"
     d="m 12,11 h 5 m -5,1 h 3 m 3,0 h 1 m -6,1 h 3 m 1,0 h 2 m -4,1 h 2 m 1,0 h 2"
     id="path66" />
  <path
     stroke="#353435"
     d="m 16,12 h 1 m 2,1 h 1"
     id="path68" />
  <path
     stroke="#767776"
     d="M 7,13 H 8"
     id="path70" />
  <path
     stroke="#353534"
     d="m 16,13 h 1 m 0,1 h 1"
     id="path72" />
  <path
     stroke="#767777"
     d="m 15,15 h 1"
     id="path74" />
</svg>
