<?xml version="1.0" encoding="UTF-8"?>
<svg width="27" height="20.01" shape-rendering="crispEdges" version="1.1" viewBox="0 -.5 27 20.01" xmlns="http://www.w3.org/2000/svg">
 <g stroke-width="1.01">
  <path d="m10 5e-3h3m-8 1h4m6 0h3m-16 1h3m15 0h2m-20 2h1m-1 1h1m-2 5h1m-1 1h1m-1 1h1m-2 3h1m-1 1h1" stroke="#fff"/>
  <path d="m13 5e-3h1" stroke="#f2e9dd"/>
  <path d="m9 1.005h1m3 1h1m3 0h1m-12 1h1m-2 13h1" stroke="#f3e9dd"/>
  <path d="m10 1.005h1m3 0h1m-9 1h1m4 0h1m7 0h1m0 1h1m-18 1h1m6 0h3m1 0h2m2 0h3m-14 1h2m1 0h1m-4 1h1m-6 2h1m2 0h1m-1 1h1m-2 3h2m-2 1h1m-4 1h1m-2 3h1m0 1h1" stroke="#e2d7ba"/>
  <path d="m11 1.005h3m-9 1h1m1 0h4m1 0h1m1 0h1m1 0h1m1 0h1m-17 1h1m1 0h2m3 0h2m2 0h3m1 0h1m1 0h1m1 0h2m-19 1h4m1 0h1m13 0h1m-21 1h1m1 0h2m16 0h1m-21 1h2m1 0h1m-5 1h4m-2 1h1m-1 1h1m-3 1h2m-2 1h4m-4 1h2m-3 1h3m-1 1h1m-2 1h1m-2 1h4m-2 1h1m-2 1h2" stroke="#f3e9dc"/>
  <path d="m18 1.005h1" stroke="#fffeff"/>
  <path d="m15 2.005h1m-9 1h1m4 0h1m3 0h1m-9 1h1m4 0h1m3 0h1m3 0h1m-18 1h1m8 0h2m2 0h1m3 0h2m-18 1h1m4 0h1m2 0h1m3 0h1m3 0h1m-16 1h2m2 0h3m1 0h1m1 0h2m1 0h2m2 0h1m-17 1h3m13 0h2m-22 1h1m4 0h1m15 0h1m-21 1h2m2 0h1m15 0h1m-19 1h2m15 0h3m-19 1h1m17 0h1m-19 2h1m16 0h3m-24 1h4m16 0h1m-18 1h1m19 0h1m-22 1h2m16 0h1m2 0h1m-23 1h1m18 0h3m-24 1h3" stroke="#ccb291"/>
  <path d="m22 2.005h1m-22 6h1m-2 6h1" stroke="#fffffe"/>
  <path d="m3 3.005h1m4 0h1m14 3h1m-23 9h1m-1 2h1" stroke="#f3e8dc"/>
  <path d="m11 3.005h1m10 1h1m-21 13h1" stroke="#f2e9dc"/>
  <path d="m18 3.005h1m-16 5h1m-2 1h1" stroke="#f3e8dd"/>
  <path d="m16 4.005h1m-13 10h1" stroke="#e2d7bb"/>
  <path d="m9 5.005h1m4 1h1m3 0h1m3 0h1m-8 1h1m-9 6h1m17 0h1m-3 3h1m2 2h1" stroke="#ccb391"/>
  <path d="m11 5.005h2m2 0h2m2 0h2m-13 1h2m1 0h2m2 0h2m2 0h2m-13 1h2m11 0h2m-1 1h1m-17 1h2m14 0h1m-17 1h2m15 0h1m0 2h1m-19 1h1m16 0h2m-20 1h2m17 1h2m-2 1h2m-2 1h2m-21 1h2m-2 1h2" stroke="#8a7677"/>
  <path d="m18 5.005h1m4 9h1m2 1h1" stroke="#cdb291"/>
  <path d="m2 6.005h1m-2 3h1" stroke="#feffff"/>
  <path d="m6 8.005h1m-1 4h1" stroke="#e2d6ba"/>
  <path d="m23 9.005h1" stroke="#8b7676"/>
  <path d="m23 12.005h1" stroke="#8b7677"/>
  <path d="m5 13.005h1" stroke="#8a7777"/>
  <path d="m2 14.005h1m1 3h1" stroke="#e3d7ba"/>
 </g>
</svg>
