<?xml version="1.0" encoding="UTF-8"?>
<svg width="18" height="18.01" shape-rendering="crispEdges" version="1.1" viewBox="0 -.5 18 18.01" xmlns="http://www.w3.org/2000/svg">
 <g stroke-width="1.01">
  <path d="m0 5e-3h2m-2 1h2" stroke="#41d6ff"/>
  <path d="m3 1.005h4m1 0h5m1 0h2m1 0h1m-18 1h1m2 0h1m-4 1h1m2 0h1m-1 1h1m-4 1h1m2 0h1m6 0h1m-11 1h1m8 0h1m-10 1h1m-1 1h1m-1 2h1m-1 1h1m-1 1h1m-1 1h1m-1 1h1m-1 1h1m1 1h2" stroke="#003ef2"/>
  <path d="m7 1.005h1m8 0h1" stroke="#013ef2"/>
  <path d="m13 1.005h1m-14 8h1" stroke="#003ff2"/>
  <path d="m1 2.005h1m2 0h3m1 0h9m-16 1h2m14 0h1m-17 1h2m-2 1h1m15 0h1m-17 1h1m8 0h2m4 0h1m-11 1h4m1 0h5m-15 2h1m-1 1h1m-1 1h1m-1 1h1m-1 1h1m-1 1h1m-1 1h1m2 1h1m-3 1h3" stroke="#1823e1"/>
  <path d="m7 2.005h1m9 0h1m-14 4h1m-4 10h1" stroke="#1923e1"/>
  <path d="m4 3.005h3m3 0h1m1 0h1m-9 1h1m4 0h3m4 0h1m-10 1h3m5 0h2m-11 1h3m5 0h1" stroke="#c0ebff"/>
  <path d="m7 3.005h3m3 0h4m-12 1h4m3 0h2m1 0h1m-12 1h3m4 0h3m-9 1h1" stroke="#e0faff"/>
  <path d="m11 3.005h1" stroke="#c1ebff"/>
  <path d="m0 4.005h1" stroke="#003ef3"/>
  <path d="m14 4.005h1" stroke="#e1faff"/>
  <path d="m17 4.005h1" stroke="#1923e0"/>
  <path d="m14 5.005h1m0 1h1" stroke="#c0eaff"/>
  <path d="m12 6.005h1" stroke="#e0fbff"/>
  <path d="m13 6.005h1" stroke="#c0eafe"/>
  <path d="m1 7.005h1m3 0h1m-5 1h1" stroke="#1823e0"/>
  <path d="m4 15.005h2" stroke="#32c4ff"/>
  <path d="m5 16.005h1" stroke="#1822e1"/>
 </g>
</svg>
