<?xml version="1.0" encoding="UTF-8"?>
<svg width="18" height="8.01" shape-rendering="crispEdges" version="1.1" viewBox="0 -.5 18 8.01" xmlns="http://www.w3.org/2000/svg">
 <g stroke-width="1.01">
  <path d="m7 5e-3h1m-4 1h1m1 0h1m-4 1h6m1 0h2m-10 1h13m-13 1h3m2 0h7m2 0h1m-14 1h2m1 0h5m1 0h2m1 0h2m-13 1h1m1 0h1m1 0h1m3 0h1m1 0h1" stroke="#ef8393"/>
  <path d="m8 5e-3h1" stroke="#ff9da7"/>
  <path d="m5 1.005h1m-1 3h1m9 0h1m-5 1h1" stroke="#ef8293"/>
  <path d="m7 1.005h1m-7 3h1m-2 1h3m-3 1h4m1 0h1m1 0h1m1 0h1m1 0h1m1 0h1m1 0h1m1 0h1m-18 1h3m1 0h7m1 0h6" stroke="#e66185"/>
  <path d="m8 1.005h1m-6 6h1" stroke="#e76185"/>
  <path d="m9 1.005h1m-1 1h1m-4 2h1m7 0h1m-10 1h1" stroke="#ee8393"/>
  <path d="m10 1.005h3m-1 1h3" stroke="#ff9da6"/>
  <path d="m15 3.005h1" stroke="#ff9ca6"/>
  <path d="m14 5.005h1m-5 1h1m5 0h1" stroke="#ef8392"/>
  <path d="m11 7.005h1" stroke="#e66085"/>
 </g>
</svg>
