<?xml version="1.0" encoding="UTF-8"?>
<svg width="21" height="9.01" shape-rendering="crispEdges" version="1.1" viewBox="0 -.5 21 9.01" xmlns="http://www.w3.org/2000/svg">
 <g stroke-width="1.01">
  <path d="m4 5e-3h1m-4 3h1" stroke="#ff9da7"/>
  <path d="m5 5e-3h4m1 0h4m-12 1h5m-6 1h3m-4 1h1m-1 1h1" stroke="#ff9da6"/>
  <path d="m9 5e-3h1" stroke="#ff9ca6"/>
  <path d="m1 1.005h1" stroke="#fe9da6"/>
  <path d="m7 1.005h8m-11 1h9m1 0h2m-14 1h1m2 0h5m2 0h1m1 0h3m-16 1h4m1 0h11m-17 1h2m1 0h4m1 0h6m2 0h1m-15 3h1m1 0h7m3 0h2m1 0h4" stroke="#ef8393"/>
  <path d="m15 1.005h1m-3 1h1m0 3h1m-2 3h1" stroke="#ef8293"/>
  <path d="m3 3.005h2m5 0h2m1 0h1m-9 1h1m1 1h1m4 3h1m3 0h1" stroke="#ee8393"/>
  <path d="m2 5.005h1m0 3h1m7 0h1" stroke="#ef8392"/>
  <path d="m15 5.005h1" stroke="#ee8392"/>
  <path d="m0 6.005h10m1 0h8m-18 1h6m1 0h9m1 0h3" stroke="#e66185"/>
  <path d="m10 6.005h1" stroke="#e66085"/>
  <path d="m7 7.005h1m9 0h1" stroke="#e76185"/>
 </g>
</svg>
