<?xml version="1.0" encoding="UTF-8"?>
<svg width="17" height="7.01" shape-rendering="crispEdges" version="1.1" viewBox="0 -.5 17 7.01" xmlns="http://www.w3.org/2000/svg">
 <g stroke-width="1.01">
  <path d="m11 5e-3h1" stroke="#fefcf4"/>
  <path d="m0 1.005h1m3 0h1m5 0h1m5 0h1m-14 1h1" stroke="#fffcf4"/>
  <path d="m11 1.005h1" stroke="#fef6de"/>
  <path d="m12 1.005h1m-9 1h2m7 0h1m2 0h1m-14 1h1m1 0h1m4 0h1m2 0h1m-13 1h3m1 0h3m1 0h2m2 0h3m-16 1h1m1 0h14m-16 1h1" stroke="#f9e350"/>
  <path d="m0 2.005h1m9 0h1m-9 1h1m5 0h2" stroke="#fff6de"/>
  <path d="m1 2.005h1m5 4h1" stroke="#f3c701"/>
  <path d="m7 2.005h1m7 0h1m-15 1h1m5 0h1m7 0h1m0 2h1m-16 1h3m1 0h2m1 0h2m1 0h1m1 0h1m1 0h2" stroke="#f3c700"/>
  <path d="m9 2.005h1" stroke="#fff6df"/>
  <path d="m11 2.005h1m0 1h1" stroke="#ff0748"/>
  <path d="m12 2.005h1" stroke="#fe7484"/>
  <path d="m0 3.005h1" stroke="#00ef31"/>
  <path d="m4 3.005h1" stroke="#2960ff"/>
  <path d="m6 3.005h1m7 0h1m-7 1h1m-8 1h1" stroke="#f8e350"/>
  <path d="m11 3.005h1m-1 1h1" stroke="#d80037"/>
  <path d="m16 3.005h1" stroke="#ef26e6"/>
  <path d="m0 4.005h1" stroke="#00d257"/>
  <path d="m4 4.005h1" stroke="#1348e4"/>
  <path d="m12 4.005h1" stroke="#d80137"/>
  <path d="m16 4.005h1" stroke="#bc1de6"/>
  <path d="m4 6.005h1" stroke="#f2c701"/>
  <path d="m10 6.005h1m1 0h1" stroke="#f2c700"/>
  <path d="m14 6.005h1" stroke="#f3c600"/>
 </g>
</svg>
