<?xml version="1.0" encoding="UTF-8"?>
<svg width="21" height="9.01" shape-rendering="crispEdges" version="1.1" viewBox="0 -.5 21 9.01" xmlns="http://www.w3.org/2000/svg">
 <g stroke-width="1.01">
  <path d="m4 5e-3h1m1 0h1m-5 1h3m-4 1h3m-4 1h2m-2 1h1" stroke="#fffa3a"/>
  <path d="m5 5e-3h1" stroke="#fffa3b"/>
  <path d="m7 5e-3h2m-2 1h3m-6 1h6m1 0h1m-9 1h7m1 0h1m-8 1h1m1 0h1m1 0h5m-9 1h2m1 0h6" stroke="#0084ff"/>
  <path d="m9 5e-3h3m1 0h1m-3 1h4m-3 1h1m1 0h2m-4 1h2m-1 1h4m-4 1h4" stroke="#ef8f9d"/>
  <path d="m12 5e-3h1m1 3h1" stroke="#ee8f9d"/>
  <path d="m5 1.005h1" stroke="#0084fe"/>
  <path d="m6 1.005h1m3 2h1m-8 1h1m1 0h1m-3 1h1m2 0h1" stroke="#0184ff"/>
  <path d="m10 1.005h1m-1 1h1m-4 2h1" stroke="#0085ff"/>
  <path d="m13 2.005h1m1 1h1" stroke="#ef8f9c"/>
  <path d="m2 3.005h1m-2 1h2m-3 1h3" stroke="#ffe700"/>
  <path d="m0 6.005h10m1 0h4m1 0h3m-18 1h13m1 0h1m1 0h4" stroke="#008574"/>
  <path d="m10 6.005h1" stroke="#008575"/>
  <path d="m15 6.005h1" stroke="#018574"/>
  <path d="m14 7.005h1m1 0h1" stroke="#008474"/>
  <path d="m2 8.005h19" stroke="#00b982"/>
 </g>
</svg>
