<?xml version="1.0" encoding="UTF-8"?>
<svg width="18" height="8.01" shape-rendering="crispEdges" version="1.1" viewBox="0 -.5 18 8.01" xmlns="http://www.w3.org/2000/svg">
 <g stroke-width="1.01">
  <path d="m7 5e-3h1m-4 1h2m3 0h1m-7 1h4m1 0h4m-10 1h13m-13 1h4m1 0h4m1 0h5m-14 1h6m2 0h1m1 0h4m-13 1h1m1 0h1m3 0h1m1 0h1m1 0h1" stroke="#349dff"/>
  <path d="m8 5e-3h1" stroke="#36ccfe"/>
  <path d="m6 1.005h1m0 1h1m4 3h1m-5 1h1" stroke="#349dfe"/>
  <path d="m7 1.005h2m-8 3h1m-2 1h3m-3 1h4m1 0h1m1 0h1m1 0h1m3 0h1m1 0h1m1 0h1m-17 1h4m1 0h5m1 0h4m1 0h1" stroke="#2782ff"/>
  <path d="m10 1.005h3m-1 1h3m0 1h1" stroke="#36ccff"/>
  <path d="m6 4.005h1m3 1h1" stroke="#359dff"/>
  <path d="m11 4.005h1m4 2h1" stroke="#349cff"/>
  <path d="m9 5.005h1" stroke="#349cfe"/>
  <path d="m11 6.005h1m4 1h1" stroke="#2682ff"/>
  <path d="m0 7.005h1m4 0h1" stroke="#2783ff"/>
  <path d="m11 7.005h1" stroke="#2782fe"/>
 </g>
</svg>
