<?xml version="1.0" encoding="UTF-8" standalone="no"?>
<svg
   shape-rendering="crispEdges"
   viewBox="0 -0.5 18 25.01"
   version="1.1"
   id="svg68"
   width="18"
   height="25.01"
   xmlns="http://www.w3.org/2000/svg"
   xmlns:svg="http://www.w3.org/2000/svg">
  <defs
     id="defs72" />
  <path
     stroke="#f8f6f7"
     stroke-width="1.01"
     d="m 7,0.005 h 2 m -3,1 h 2 m -3,1 h 2 m -7,6 h 1 m -1,9 h 1 m -1,1 h 1 m -1,1 h 1"
     id="path2" />
  <path
     stroke="#c7defc"
     stroke-width="1.01"
     d="m 9,0.005 h 1 m -2,1 h 1 m -2,1 h 1 m -3,1 h 2 m -5,2 h 2 m -3,1 h 1 m 1,0 h 1 m -4,1 h 1 m 1,0 h 1 m -2,1 h 1 m -2,1 h 1 m -1,7 h 1 m -1,4 h 1"
     id="path4" />
  <path
     stroke="#b7c7de"
     stroke-width="1.01"
     d="m 10,0.005 h 2 m -3,1 h 4 m -5,1 h 2 m 1,0 h 1 m 1,0 h 1 m -12,2 h 2 m 2,0 h 1 m 6,0 h 1 m 1,0 h 1 m -15,1 h 1 m 7,0 h 2 m 4,0 h 2 m -17,1 h 1 m 4,0 h 1 m 7,0 h 1 m 3,0 h 1 m -15,1 h 1 m 1,0 h 2 m 5,0 h 1 m 4,0 h 1 m -16,1 h 1 m 3,0 h 1 m -6,1 h 3 m 4,0 h 4 m -12,1 h 1 m 1,0 h 2 m 4,0 h 3 m -10,1 h 2 m -3,1 h 2 m -2,2 h 1 m -1,1 h 1 m -1,6 h 1 m -1,1 h 1"
     id="path6" />
  <path
     stroke="#b6c7de"
     stroke-width="1.01"
     d="m 10,2.005 h 1 m 1,1 h 1 m 0,2 h 1 m -2,1 h 1 m -10,2 h 1 m 3,1 h 1 m -8,2 h 1"
     id="path8" />
  <path
     stroke="#b7c6de"
     stroke-width="1.01"
     d="m 12,2.005 h 1 m -12,8 h 1"
     id="path10" />
  <path
     stroke="#97aec8"
     stroke-width="1.01"
     d="m 4,3.005 h 1 m -1,1 h 1 m -1,1 h 1 m 8,2 h 1 m 1,0 h 2 m -12,1 h 1 m 6,0 h 1 m 3,0 h 2 m -12,1 h 1 m 10,0 h 1 m -11,1 h 1 m 0,1 h 1"
     id="path12" />
  <path
     stroke="#6789fc"
     stroke-width="1.01"
     d="m 7,3.005 h 1 m 3,0 h 1 m -5,5 h 1 m 3,0 h 1"
     id="path14" />
  <path
     stroke="#2151f5"
     stroke-width="1.01"
     d="m 8,3.005 h 3 m -3,1 h 4 m -4,1 h 1 m -2,1 h 2 m -2,1 h 1 m 1,0 h 2 m -3,1 h 3"
     id="path16" />
  <path
     stroke="#e7e0e0"
     stroke-width="1.01"
     d="m 13,3.005 h 1 m -9,1 h 1 m 6,0 h 1 m -7,1 h 1 m 4,0 h 1 m -3,1 h 1"
     id="path18" />
  <path
     stroke="#92a6cd"
     stroke-width="1.01"
     d="m 14,3.005 h 1 m -14,14 h 1 m -1,1 h 1 m -1,1 h 2 m 13,0 h 1 m -15,1 h 2 m 12,0 h 1 m -16,1 h 1 m 1,0 h 1 m -1,1 h 1"
     id="path20" />
  <path
     stroke="#2151f4"
     stroke-width="1.01"
     d="m 7,4.005 h 1 m 0,3 h 1"
     id="path22" />
  <path
     stroke="#7a8ab9"
     stroke-width="1.01"
     d="m 14,4.005 h 1 m -1,1 h 1 m -11,1 h 1 m -1,1 h 1 m 9,0 h 1 m -11,1 h 1 m 8,0 h 3 m -12,1 h 2 m 6,0 h 1 m 1,0 h 3 m -13,1 h 1 m 6,0 h 1 m 2,0 h 4 m -15,1 h 1 m 6,0 h 1 m 4,0 h 3 m -9,1 h 1 m 6,0 h 2 m -1,1 h 1 m -17,1 h 1 m 15,0 h 1 m -17,2 h 1 m 15,0 h 1 m -1,1 h 1 m -1,1 h 1 m -15,1 h 1 m 13,0 h 1 m -13,2 h 1 m 10,0 h 1 m -13,1 h 4 m -7,1 h 8 m 1,0 h 1"
     id="path24" />
  <path
     stroke="#a0b8d3"
     stroke-width="1.01"
     d="m 5,5.005 h 1 m 6,0 h 1 m -7,1 h 1 m 4,0 h 1"
     id="path26" />
  <path
     stroke="#2051f5"
     stroke-width="1.01"
     d="m 7,5.005 h 1 m 3,2 h 1"
     id="path28" />
  <path
     stroke="#f8f7f7"
     stroke-width="1.01"
     d="M 2,6.005 H 3"
     id="path30" />
  <path
     stroke="#e6e0e0"
     stroke-width="1.01"
     d="m 10,6.005 h 1"
     id="path32" />
  <path
     stroke="#7a8bb9"
     stroke-width="1.01"
     d="m 14,6.005 h 1 m -2,3 h 1 m -5,2 h 1"
     id="path34" />
  <path
     stroke="#96aec8"
     stroke-width="1.01"
     d="m 15,6.005 h 1"
     id="path36" />
  <path
     stroke="#b7c7df"
     stroke-width="1.01"
     d="m 16,6.005 h 1 m -17,7 h 1"
     id="path38" />
  <path
     stroke="#f8f6f6"
     stroke-width="1.01"
     d="M 1,7.005 H 2"
     id="path40" />
  <path
     stroke="rgba(0,4,18,0.2235294117647059)"
     stroke-width="1.01"
     d="m 5,10.005 h 2 m 6,0 h 1 m -10,1 h 2 m 5,0 h 1 m 2,0 h 1 m -12,1 h 2 m 5,0 h 1 m -9,1 h 2 m 5,0 h 1 m -8,1 h 2 m -2,1 h 1 m -1,1 h 1 m -1,1 h 1 m 0,1 h 1 m 0,1 h 1 m 0,1 h 1 m 0,1 h 1"
     id="path42" />
  <path
     stroke="rgba(1,4,18,0.2235294117647059)"
     stroke-width="1.01"
     d="m 12,10.005 h 1"
     id="path44" />
  <path
     stroke="#7a8ab8"
     stroke-width="1.01"
     d="m 2,12.005 h 1 m 14,3 h 1"
     id="path46" />
  <path
     stroke="#93a6cd"
     stroke-width="1.01"
     d="m 1,13.005 h 1 m 0,8 h 1 m -2,1 h 1"
     id="path48" />
  <path
     stroke="#5f74ab"
     stroke-width="1.01"
     d="m 16,13.005 h 1 m 0,8 h 1 m -10,1 h 2 m 5,0 h 3 m -7,1 h 1 m 1,0 h 1 m 1,0 h 2 m -14,1 h 4 m 1,0 h 2 m 2,0 h 1"
     id="path50" />
  <path
     stroke="#7b8ab9"
     stroke-width="1.01"
     d="m 1,15.005 h 1 m 0,3 h 1 m 1,2 h 1 m 12,0 h 1"
     id="path52" />
  <path
     stroke="#92a6cc"
     stroke-width="1.01"
     d="m 1,20.005 h 1 m 2,1 h 1"
     id="path54" />
  <path
     stroke="#92a7cd"
     stroke-width="1.01"
     d="M 2,22.005 H 3"
     id="path56" />
  <path
     stroke="#7a8bb8"
     stroke-width="1.01"
     d="m 9,23.005 h 1"
     id="path58" />
  <path
     stroke="#5f75ab"
     stroke-width="1.01"
     d="m 12,23.005 h 1 m 0,1 h 1"
     id="path60" />
  <path
     stroke="#5f74aa"
     stroke-width="1.01"
     d="m 14,23.005 h 1 m -8,1 h 1 m 2,0 h 1"
     id="path62" />
  <path
     stroke="#5f75aa"
     stroke-width="1.01"
     d="m 11,24.005 h 1"
     id="path64" />
  <path
     stroke="#5e75ab"
     stroke-width="1.01"
     d="m 14,24.005 h 1"
     id="path66" />
</svg>
