<?xml version="1.0" encoding="UTF-8"?>
<svg width="18" height="18.01" shape-rendering="crispEdges" version="1.1" viewBox="0 -.5 18 18.01" xmlns="http://www.w3.org/2000/svg">
 <g stroke-width="1.01">
  <path d="m0 5e-3h2m-2 1h2m2 14h1" stroke="#fffc84"/>
  <path d="m3 1.005h2m1 0h4m1 0h3m1 0h1m1 0h1m-18 1h1m2 0h1m-4 1h1m2 0h1m-4 1h1m2 0h1m-4 1h1m2 0h1m6 0h1m-2 1h1m-10 1h1m-1 1h1m-1 1h1m-1 1h1m-1 1h1m-1 2h1m-1 1h1m1 2h2" stroke="#f1e24a"/>
  <path d="m5 1.005h1m10 0h1m-17 11h1" stroke="#f1e24b"/>
  <path d="m10 1.005h1m-11 5h1m-1 9h1" stroke="#f1e34a"/>
  <path d="m14 1.005h1" stroke="#f0e24a"/>
  <path d="m1 2.005h1m3 0h5m1 0h1m1 0h2m1 0h2m-17 1h2m14 0h1m-17 1h2m14 0h1m-17 1h1m15 0h1m-14 1h1m5 0h2m4 0h1m-12 1h1m1 0h3m1 0h5m-15 1h1m-1 1h1m-1 1h1m-1 1h1m-1 1h1m-1 1h1m-1 1h1m-1 1h1m-1 1h1m2 0h2m-4 1h3" stroke="#d8b535"/>
  <path d="m4 2.005h1m5 0h1" stroke="#d8b534"/>
  <path d="m12 2.005h1m2 0h1m-10 5h1" stroke="#d8b435"/>
  <path d="m4 3.005h1m11 2h1" stroke="#c0ebfe"/>
  <path d="m5 3.005h1m4 0h1m1 0h1m-9 1h1m4 0h3m4 0h1m-10 1h3m4 0h2m-10 1h3m4 0h3" stroke="#c0ebff"/>
  <path d="m6 3.005h1" stroke="#c1ebff"/>
  <path d="m7 3.005h3m3 0h4m-12 1h4m3 0h1m1 0h1m-10 1h2m4 0h2m-8 1h1m6 0h1" stroke="#e0faff"/>
  <path d="m11 3.005h1" stroke="#c0eaff"/>
  <path d="m13 4.005h1m-1 1h1" stroke="#e0fafe"/>
  <path d="m15 4.005h1m-12 1h1" stroke="#e1faff"/>
  <path d="m1 6.005h1m-1 1h1" stroke="#d9b535"/>
  <path d="m5 15.005h1" stroke="#fffd84"/>
 </g>
</svg>
