<?xml version="1.0" encoding="UTF-8"?>
<svg width="20" height="12.01" shape-rendering="crispEdges" version="1.1" viewBox="0 -.5 20 12.01" xmlns="http://www.w3.org/2000/svg">
 <g stroke-width="1.01">
  <path d="m5 5e-3h4m1 0h3m-10 1h7m1 0h5m-14 1h4m1 0h10m-16 1h11m1 0h5m-18 1h2m1 0h9m1 0h6m-19 1h6m1 0h6m2 0h4m-18 1h3m1 0h2m1 0h3m1 0h1m1 0h5m-17 1h3m3 0h2m3 0h5m-2 1h1m1 0h1m-2 1h1" stroke="#fff"/>
  <path d="m9 5e-3h1m2 4h1m-7 1h1" stroke="#fffffe"/>
  <path d="m13 5e-3h1m-8 2h1m-3 4h1m6 0h1" stroke="#feffff"/>
  <path d="m10 1.005h1m1 2h1m-11 1h1m10 1h1m4 2h1m-2 1h1" stroke="#fffeff"/>
  <path d="m14 5.005h1m-2 1h1m-9 1h2m3 0h3m-10 1h2m3 0h2m3 0h3m-15 1h1m14 0h1m-16 1h1m15 0h1" stroke="#e1d7ba"/>
  <path d="m0 6.005h1m18 0h1m-20 1h2m-2 1h3m16 0h1m-2 1h2m-2 1h1" stroke="#f5f0d3"/>
  <path d="m7 6.005h1m-1 1h1m-1 1h1" stroke="#e0d7ba"/>
  <path d="m19 7.005h1" stroke="#f5f1d3"/>
  <path d="m10 8.005h1m-8 1h1m4 0h1" stroke="#c1ae9a"/>
  <path d="m2 9.005h1" stroke="#e1d6ba"/>
  <path d="m18 11.005h1" stroke="#e1d7bb"/>
 </g>
</svg>
