<svg
   shape-rendering="crispEdges"
   viewBox="0 -0.5 30 15"
   version="1.1"
   id="svg30"
   sodipodi:docname="body_accessory_flamingo.svg"
   width="30"
   height="15"
   xmlns="http://www.w3.org/2000/svg"
   xmlns:svg="http://www.w3.org/2000/svg">
  <defs
     id="defs34" />
  <sodipodi:namedview
     id="namedview32"
     pagecolor="#505050"
     bordercolor="#eeeeee"
     borderopacity="1"
     inkscape:pageshadow="0"
     inkscape:pageopacity="0"
     inkscape:pagecheckerboard="0"
     showgrid="false"
     inkscape:zoom="17"
     inkscape:cx="13.970588"
     inkscape:cy="-4.0294118"
     inkscape:window-width="1920"
     inkscape:window-height="1009"
     inkscape:window-x="-8"
     inkscape:window-y="-8"
     inkscape:window-maximized="1"
     inkscape:current-layer="svg30" />
  <path
     stroke="#ffb7be"
     d="m 22,0 h 2 m -3,1 h 1 m 5,0 h 1 m -8,1 h 1 m 5,0 h 1 M 1,9 h 2 m -1,1 h 2 m 1,0 h 3"
     id="path2" />
  <path
     stroke="#f685a0"
     d="m 24,0 h 2 m -3,1 h 1 m 1,0 h 1 m -5,1 h 5 m -6,1 h 1 m 1,0 h 1 m -2,1 h 1 m -1,1 h 2 m -1,1 h 1 m 0,1 h 1 m -2,1 h 1 m -3,1 h 2 m 1,0 h 1 M 0,10 h 2 m 6,0 h 1 m 6,0 h 2 m 1,0 h 1 m 3,0 h 1 M 2,11 h 6 m 1,0 h 1 m 1,0 h 7 m 1,0 h 2 M 3,12 h 1 m 1,0 h 1 m 1,0 h 8 m 1,0 h 1"
     id="path4" />
  <path
     stroke="#f785a0"
     d="m 22,1 h 1 m -2,2 h 1 m 1,3 h 1 m -1,2 h 1 m -7,2 h 1 m 1,0 h 1 m 1,0 h 1 M 0,11 h 2 m 8,0 h 1 m 4,1 h 1"
     id="path6" />
  <path
     stroke="#08061c"
     d="m 24,1 h 1"
     id="path8" />
  <path
     stroke="#feb7be"
     d="m 26,1 h 1"
     id="path10" />
  <path
     stroke="#9e505f"
     d="m 27,2 h 2 m -3,1 h 1 m 1,0 h 2 m -3,1 h 3 m -2,1 h 2"
     id="path12" />
  <path
     stroke="#eb5e86"
     d="m 23,3 h 1 m 1,0 h 1 m -4,1 h 1 m 1,2 h 1 m -1,1 h 1 M 2,8 h 1 m 21,0 h 2 M 3,9 h 2 m 19,0 h 2 m -3,1 h 3 m -5,1 h 4 M 1,12 h 2 m 14,0 h 4 m 1,0 h 2 M 3,13 h 1 m 1,0 h 5 m 1,0 h 5 m 1,0 h 5 M 5,14 h 14"
     id="path14" />
  <path
     stroke="#eb5f86"
     d="m 24,3 h 1"
     id="path16" />
  <path
     stroke="#9e515f"
     d="m 27,3 h 1"
     id="path18" />
  <path
     stroke="#f684a0"
     d="m 23,5 h 1 m -2,4 h 1 m -3,1 h 1 m -3,1 h 1"
     id="path20" />
  <path
     stroke="#f685a1"
     d="m 22,7 h 1 M 8,11 h 1 m -5,1 h 1 m 1,0 h 1"
     id="path22" />
  <path
     stroke="#eb5e87"
     d="m 25,7 h 1 M 3,8 h 1 m 0,5 h 1 m 5,0 h 1"
     id="path24" />
  <path
     stroke="#ffb7bf"
     d="M 4,10 H 5"
     id="path26" />
  <path
     stroke="#ea5e86"
     d="m 21,12 h 1 m -6,1 h 1"
     id="path28" />
</svg>
