<svg
   shape-rendering="crispEdges"
   viewBox="0 -0.5 15 13"
   version="1.1"
   id="svg48"
   sodipodi:docname="body_accessory_suit_and_tie_black_and_blue.svg"
   width="15"
   height="13"
   xmlns="http://www.w3.org/2000/svg"
   xmlns:svg="http://www.w3.org/2000/svg">
  <defs
     id="defs52" />
  <sodipodi:namedview
     id="namedview50"
     pagecolor="#505050"
     bordercolor="#eeeeee"
     borderopacity="1"
     inkscape:pageshadow="0"
     inkscape:pageopacity="0"
     inkscape:pagecheckerboard="0"
     showgrid="false"
     inkscape:zoom="17"
     inkscape:cx="7.9705882"
     inkscape:cy="-6.0294118"
     inkscape:window-width="1920"
     inkscape:window-height="1009"
     inkscape:window-x="-8"
     inkscape:window-y="-8"
     inkscape:window-maximized="1"
     inkscape:current-layer="svg48" />
  <path
     stroke="#1a1a23"
     d="M 1,0 H 2 M 0,1 H 2 M 0,2 H 2 M 0,3 H 1 M 0,4 H 2 M 0,5 H 1 M 1,6 H 2 M 0,7 H 2 M 0,8 H 2 M 1,9 h 1 m -2,1 h 2 m -2,1 h 2 m -2,1 h 2"
     id="path2" />
  <path
     stroke="#252534"
     d="M 2,0 H 4 M 2,1 h 2 m 10,0 h 1 M 3,2 h 1 m 9,0 h 2 M 2,3 h 5 m 6,0 h 2 M 2,4 h 6 m 6,0 h 1 M 2,5 h 4 m 6,0 h 3 M 2,6 h 3 m 1,0 h 1 m 6,0 h 1 M 4,7 h 6 m 1,0 h 4 M 3,8 H 15 M 2,9 h 3 m 1,0 h 4 m 1,0 h 2 m 1,0 h 1 M 2,10 h 7 m 2,0 h 3 M 2,11 h 2 m 2,0 h 1 m 1,0 h 1 m 3,0 h 3 M 2,12 h 1 m 1,0 h 6 m 1,0 h 1 m 1,0 h 2"
     id="path4" />
  <path
     stroke="#202ca9"
     d="m 8,0 h 3 m 0,1 h 1"
     id="path6" />
  <path
     stroke="#202ca8"
     d="m 11,0 h 1"
     id="path8" />
  <path
     stroke="#373643"
     d="m 14,0 h 1"
     id="path10" />
  <path
     stroke="#252435"
     d="M 4,1 H 5"
     id="path12" />
  <path
     stroke="#363643"
     d="m 5,1 h 1 m 0,1 h 1 m 0,1 h 1 m 4,1 h 1"
     id="path14" />
  <path
     stroke="#4f5dfa"
     d="M 8,1 H 9"
     id="path16" />
  <path
     stroke="#3745d3"
     d="m 9,1 h 2 M 9,2 h 1 M 8,3 h 2 M 8,4 h 2 M 8,5 h 2 M 9,6 h 1"
     id="path18" />
  <path
     stroke="rgba(24,24,34,0.20784313725490197)"
     d="m 13,1 h 1 M 8,2 h 1 m 2,0 h 1 m 0,1 h 1"
     id="path20" />
  <path
     stroke="#252434"
     d="m 2,2 h 1 m 3,3 h 1 m 5,1 h 1 m -3,3 h 1 m -1,3 h 1"
     id="path22" />
  <path
     stroke="#252535"
     d="M 4,2 H 5 M 7,5 H 8 M 5,6 H 6 M 7,6 H 9 M 3,7 H 4 M 2,8 h 1 m 10,1 h 1 m 0,1 h 1 m -4,1 h 1 m -9,1 h 1 m 8,0 h 1"
     id="path24" />
  <path
     stroke="#242534"
     d="m 5,2 h 1 m 8,4 h 1 M 2,7 h 1 m 2,2 h 1 m -2,2 h 2 m 1,0 h 1"
     id="path26" />
  <path
     stroke="rgba(24,24,35,0.20784313725490197)"
     d="M 7,2 H 8"
     id="path28" />
  <path
     stroke="#212fc5"
     d="m 10,2 h 1 m -1,1 h 2 m -2,1 h 2 m -2,1 h 2 m -2,1 h 2 m -2,1 h 1"
     id="path30" />
  <path
     stroke="rgba(24,25,34,0.20784313725490197)"
     d="m 12,2 h 1"
     id="path32" />
  <path
     stroke="#1a1a22"
     d="M 1,3 H 2"
     id="path34" />
  <path
     stroke="#242434"
     d="m 13,4 h 1"
     id="path36" />
  <path
     stroke="#1a1b23"
     d="M 1,5 H 2 M 0,9 h 1"
     id="path38" />
  <path
     stroke="#1b1a22"
     d="M 0,6 H 1"
     id="path40" />
  <path
     stroke="#ffb83f"
     d="m 9,10 h 2"
     id="path42" />
  <path
     stroke="#d49730"
     d="m 9,11 h 1"
     id="path44" />
  <path
     stroke="#d49630"
     d="m 10,11 h 1"
     id="path46" />
</svg>
