<?xml version="1.0" encoding="UTF-8"?>
<svg width="15" height="13.01" shape-rendering="crispEdges" version="1.1" viewBox="0 -.5 15 13.01" xmlns="http://www.w3.org/2000/svg">
 <g stroke-width="1.01">
  <path d="m1 5e-3h1m-1 1h1m-1 1h1m-2 1h2m-2 1h2m-2 1h2m-2 1h2m-2 1h2m-2 1h2m-2 1h2m-2 1h2m-2 1h1m-1 1h2" stroke="#c8c8c8"/>
  <path d="m2 5e-3h5m1 0h2m1 0h1m-10 1h3m1 0h2m2 0h5m-12 1h4m4 0h3m-12 1h4m6 0h3m-13 1h4m6 0h3m-13 1h3m8 0h2m-13 1h3m8 0h2m-13 1h1m2 0h1m6 0h1m1 0h1m-13 1h1m3 0h1m4 0h2m1 0h1m-13 1h3m5 0h1m2 0h1m-12 1h3m3 0h2m3 0h2m-13 1h4m6 0h3m-12 1h4m4 0h4" stroke="#ebebeb"/>
  <path d="m7 5e-3h1m2 0h1m1 0h1m-11 2h1m1 5h1m8 0h1m0 2h1m-13 3h1" stroke="#eaebeb"/>
  <path d="m13 5e-3h2" stroke="#fff"/>
  <path d="m0 1.005h1" stroke="#c9c8c8"/>
  <path d="m5 1.005h1m8 1h1m-12 5h1m3 2h1" stroke="#ebeaeb"/>
  <path d="m8 1.005h1m-1 1h1m-3 1h3m-3 1h3m-4 1h2m2 1h3m-3 1h2m-2 1h2m-2 1h1m1 0h2m-3 1h2m-3 1h3m-2 1h1" stroke="#906ff9"/>
  <path d="m9 1.005h1m-1 1h2m-2 1h1m-1 1h3m-1 1h2" stroke="#37f6e7"/>
  <path d="m0 2.005h1m0 9h1" stroke="#c8c9c8"/>
  <path d="m7 2.005h1" stroke="#906ef9"/>
  <path d="m10 3.005h2" stroke="#36f6e7"/>
  <path d="m7 5.005h1m-3 1h1" stroke="#3964ee"/>
  <path d="m8 5.005h1m-3 1h3m-1 1h1m-1 1h1m-4 1h1m2 0h1m-3 1h2m-1 1h2m-2 1h2" stroke="#3965ee"/>
  <path d="m9 5.005h2m-2 7h1" stroke="#906ff8"/>
  <path d="m12 6.005h1m-2 1h1" stroke="#916ff9"/>
  <path d="m6 7.005h1m-1 4h1" stroke="#3865ee"/>
  <path d="m7 7.005h1m-1 1h1m-2 1h1" stroke="#3965ef"/>
  <path d="m3 8.005h1m1 0h1" stroke="#ebebea"/>
  <path d="m4 8.005h1" stroke="#7995ed"/>
  <path d="m13 8.005h1" stroke="#b19df4"/>
  <path d="m5 10.005h1" stroke="#acbced"/>
  <path d="m12 10.005h1" stroke="#cbbff0"/>
 </g>
</svg>
