<?xml version="1.0" encoding="UTF-8" standalone="no"?>
<svg
   shape-rendering="crispEdges"
   viewBox="0 -0.5 15 13.01"
   version="1.1"
   id="svg42"
   width="15"
   height="13.01"
   xmlns="http://www.w3.org/2000/svg"
   xmlns:svg="http://www.w3.org/2000/svg">
  <defs
     id="defs46" />
  <path
     stroke="#1943d6"
     stroke-width="1.01"
     d="m 1,0.005 h 1 m -1,5 h 1"
     id="path2" />
  <path
     stroke="#2151f5"
     stroke-width="1.01"
     d="m 2,0.005 h 4 m 2,0 h 1 m 1,0 h 3 m -11,1 h 2 m 3,0 h 2 m 1,0 h 5 m -11,1 h 1 m 3,0 h 1 m 1,0 h 1 m 3,0 h 1 m -13,1 h 3 m 1,0 h 1 m 1,0 h 1 m 1,0 h 1 m 3,0 h 1 m -11,1 h 1 m 5,0 h 1 m 3,0 h 1 m -13,1 h 12 m -11,1 h 1 m 4,0 h 1 m 2,0 h 1 m -8,1 h 1 m 1,0 h 1 m 1,0 h 1 m 1,0 h 2 m -10,1 h 1 m 1,0 h 1 m 3,0 h 2 m 1,0 h 1 m 1,0 h 1 m -10,1 h 1 m 1,0 h 1 m 1,0 h 1 m 2,0 h 1 m 2,0 h 1 m -13,1 h 1 m 1,0 h 5 m 1,0 h 5 m -13,1 h 5 m 2,0 h 6 m -13,1 h 5 m 1,0 h 4 m 1,0 h 2"
     id="path4" />
  <path
     stroke="#2150f5"
     stroke-width="1.01"
     d="m 6,0.005 h 2 m -4,1 h 1 m 9,4 h 1"
     id="path6" />
  <path
     stroke="#2151f4"
     stroke-width="1.01"
     d="m 9,0.005 h 1 m -5,1 h 1 m 6,2 h 1 m -5,1 h 1 m -5,2 h 1 m 9,1 h 1 m -1,1 h 1 m -7,3 h 1 m 3,1 h 1"
     id="path8" />
  <path
     stroke="#2d5bf7"
     stroke-width="1.01"
     d="m 13,0.005 h 2"
     id="path10" />
  <path
     stroke="#1843d6"
     stroke-width="1.01"
     d="m 0,1.005 h 2 m -2,1 h 1 m -1,2 h 1 m -1,1 h 1 m -1,1 h 1 m -1,1 h 1 m -1,1 h 1 m -1,1 h 1 m -1,1 h 2 m -2,1 h 2 m -2,1 h 2"
     id="path12" />
  <path
     stroke="#2150f4"
     stroke-width="1.01"
     d="m 6,1.005 h 1 m 0,11 h 1"
     id="path14" />
  <path
     stroke="#2051f5"
     stroke-width="1.01"
     d="m 9,1.005 h 1 m 2,3 h 1 m -10,6 h 1 m 5,0 h 1 m -3,1 h 1"
     id="path16" />
  <path
     stroke="#c7d3fa"
     stroke-width="1.01"
     d="M 1,2.005 H 2"
     id="path18" />
  <path
     stroke="#fefefe"
     stroke-width="1.01"
     d="m 2,2.005 h 2 m 1,0 h 3 m 3,0 h 2 m -8,1 h 1 m 3,0 h 1 m 1,0 h 1 m 1,0 h 1 m -11,1 h 1 m 1,0 h 3 m 1,0 h 1 m 3,0 h 1 m -12,2 h 1 m 2,0 h 2 m 2,0 h 1 m 2,0 h 2 m -12,1 h 1 m 2,0 h 1 m 1,0 h 1 m 1,0 h 1 m 2,0 h 1 m -10,1 h 1 m 1,0 h 3 m 2,0 h 1 m 1,0 h 1 m -11,1 h 2 m 1,0 h 1 m 1,0 h 1 m 1,0 h 2 m 1,0 h 2"
     id="path20" />
  <path
     stroke="#fffefe"
     stroke-width="1.01"
     d="m 9,2.005 h 1 m 0,4 h 1"
     id="path22" />
  <path
     stroke="#4e75f7"
     stroke-width="1.01"
     d="m 13,2.005 h 1"
     id="path24" />
  <path
     stroke="#1843d7"
     stroke-width="1.01"
     d="M 0,3.005 H 1"
     id="path26" />
  <path
     stroke="#f2f2f2"
     stroke-width="1.01"
     d="m 1,3.005 h 1 m -1,1 h 1 m -1,2 h 1 m -1,1 h 1 m -1,1 h 1 m -1,1 h 1"
     id="path28" />
  <path
     stroke="#feffff"
     stroke-width="1.01"
     d="M 7,3.005 H 8"
     id="path30" />
  <path
     stroke="#fefeff"
     stroke-width="1.01"
     d="M 2,4.005 H 3"
     id="path32" />
  <path
     stroke="#fefffe"
     stroke-width="1.01"
     d="m 11,4.005 h 1"
     id="path34" />
  <path
     stroke="#d3ddfc"
     stroke-width="1.01"
     d="m 7,6.005 h 1 m -5,1 h 1"
     id="path36" />
  <path
     stroke="#2051f4"
     stroke-width="1.01"
     d="m 14,6.005 h 1"
     id="path38" />
  <path
     stroke="#c9d5fa"
     stroke-width="1.01"
     d="m 13,7.005 h 1"
     id="path40" />
</svg>
