<?xml version="1.0" encoding="UTF-8"?>
<svg width="15" height="13.01" shape-rendering="crispEdges" version="1.1" viewBox="0 -.5 15 13.01" xmlns="http://www.w3.org/2000/svg">
 <g stroke-width="1.01">
  <path d="m1 5e-3h1m-2 1h2m-2 1h1m0 1h1m-2 1h2m-1 1h1m-2 1h2m-2 2h2m-2 1h2m-2 1h2m-2 1h2m-2 1h2" stroke="#042172"/>
  <path d="m2 5e-3h4m1 0h5m-10 1h11m1 0h1m-13 1h7m1 0h5m-11 1h3m1 0h1m5 0h1m-12 1h1m1 0h1m3 0h1m2 0h3m-12 1h1m1 0h1m1 0h1m6 0h1m-12 1h1m1 0h1m3 0h1m1 0h4m-12 1h1m1 0h1m2 0h2m1 0h2m1 0h1m-11 1h2m3 0h1m1 0h1m2 0h1m-13 1h9m1 0h2m-12 1h2m1 0h10m-13 1h3m1 0h1m1 0h7m-13 1h13" stroke="#09307f"/>
  <path d="m6 5e-3h1m6 1h1m-5 1h1m-3 1h1m5 0h1m-5 2h1m-5 6h1m1 0h1" stroke="#09307e"/>
  <path d="m12 5e-3h1m-1 5h1m-6 2h1m3 2h1m2 0h1" stroke="#08307f"/>
  <path d="m13 5e-3h2" stroke="#093a7e"/>
  <path d="m1 2.005h1m-2 3h1" stroke="#042173"/>
  <path d="m0 3.005h1m-1 4h2" stroke="#042072"/>
  <path d="m2 3.005h2m6 0h3m-11 1h1m1 0h1m1 0h3m1 0h1m-9 1h1m1 0h1m1 0h1m1 0h1m2 0h1m1 0h1m-12 1h1m1 0h1m1 0h1m1 0h1m1 0h1m-9 1h1m3 0h1m3 0h1m-9 1h2m2 0h1m1 0h1m1 0h1m2 0h1" stroke="#e9f7ff"/>
  <path d="m9 3.005h1" stroke="#08307e"/>
  <path d="m11 4.005h1m0 4h1m-9 2h1" stroke="#09317f"/>
  <path d="m10 5.005h1" stroke="#e8f7ff"/>
  <path d="m7 6.005h1m-4 1h1" stroke="#e9f7fe"/>
  <path d="m13 7.005h1" stroke="#f8fcff"/>
  <path d="m7 8.005h1" stroke="#f9fcff"/>
 </g>
</svg>
