<?xml version="1.0" encoding="UTF-8"?>
<svg width="15" height="13.01" shape-rendering="crispEdges" version="1.1" viewBox="0 -.5 15 13.01" xmlns="http://www.w3.org/2000/svg">
 <g stroke-width="1.01">
  <path d="m1 5e-3h1m12 7h1" stroke="#abaaaa"/>
  <path d="m2 5e-3h1m6 2h1" stroke="#aaabaa"/>
  <path d="m3 5e-3h1m9 0h2m-1 1h1m-12 1h1m2 0h1m5 0h1m1 0h1m-1 1h1m-1 1h1m-12 1h1m8 0h1m1 1h1m-12 2h1m8 0h1m1 0h1m-1 1h1m-1 1h1m-12 1h1m8 0h1m1 0h1m-1 1h1" stroke="#aaa"/>
  <path d="m4 5e-3h8m-10 1h2m1 0h1m1 0h3m1 0h3m-12 1h1m1 0h2m1 0h2m1 0h2m1 0h1m-12 1h1m1 0h2m4 0h1m2 0h1m-12 1h3m6 0h3m-12 1h1m10 0h1m-12 1h1m10 0h1m-11 1h1m8 0h1m0 1h1m-12 1h1m10 0h1m-12 1h3m6 0h3m-10 1h2m1 0h1m3 0h1m1 0h1m-12 1h1m1 0h1m1 0h6m1 0h1" stroke="#858585"/>
  <path d="m12 5e-3h1m-9 1h1m2 2h1m3 0h1m-7 9h1" stroke="#858584"/>
  <path d="m0 1.005h2m-2 1h2m-2 1h2m1 0h1m5 0h1m2 0h1m-13 1h2m-2 1h2m-2 1h1m2 0h1m8 0h1m-13 1h2m-2 1h2m-2 1h1m11 0h1m-13 1h2m-2 1h2m-2 1h2m1 0h1" stroke="#767676"/>
  <path d="m6 1.005h1m3 0h1m-9 10h1" stroke="#848585"/>
  <path d="m6 3.005h1m-4 6h1" stroke="#777676"/>
  <path d="m8 3.005h1m-7 4h1m10 0h1m-12 1h1m6 3h1" stroke="#858485"/>
  <path d="m5 4.005h1m1 0h4m0 1h1m-8 1h1m6 0h1m-1 1h1m-8 1h1m6 0h1m-7 2h4m1 0h1" stroke="#839fa7"/>
  <path d="m6 4.005h1" stroke="#829fa7"/>
  <path d="m4 5.005h1" stroke="#839ea7"/>
  <path d="m5 5.005h6m-6 1h1m-1 2h1m-1 1h1m2 2h1" stroke="#76e8ee"/>
  <path d="m14 5.005h1" stroke="#aaaaab"/>
  <path d="m1 6.005h1m10 6h1" stroke="#767776"/>
  <path d="m6 6.005h2m-2 1h1m2 0h1m-3 1h4m-5 1h4m-4 2h1" stroke="#7bffe4"/>
  <path d="m8 6.005h1m1 0h1" stroke="#7bffe5"/>
  <path d="m9 6.005h1m-3 1h2m-3 1h1" stroke="#daffc1"/>
  <path d="m4 7.005h1m6 2h1m-3 1h1" stroke="#839fa6"/>
  <path d="m5 7.005h1" stroke="#b1eea6"/>
  <path d="m10 7.005h1" stroke="#dafec1"/>
  <path d="m1 9.005h1" stroke="#767677"/>
  <path d="m4 9.005h1" stroke="#829ea7"/>
  <path d="m10 9.005h1" stroke="#7bfee4"/>
  <path d="m10 11.005h1" stroke="#ee8576"/>
 </g>
</svg>
