<?xml version="1.0" encoding="UTF-8"?>
<svg width="15" height="13.01" shape-rendering="crispEdges" version="1.1" viewBox="0 -.5 15 13.01" xmlns="http://www.w3.org/2000/svg">
 <g stroke-width="1.01">
  <path d="m1 5e-3h1m-1 2h1m-2 1h1m-1 2h1m-1 1h1m-1 1h1m-1 1h2m-2 1h2m-2 2h2m-2 1h2" stroke="#1eba64"/>
  <path d="m2 5e-3h11m-11 1h10m1 0h2m-10 1h5m1 0h4m-13 1h1m1 0h1m6 0h2m1 0h1m-13 1h1m1 0h1m3 0h1m1 0h1m1 0h1m1 0h1m-11 1h1m1 0h1m3 0h1m1 0h1m1 0h1m-13 1h1m1 0h1m1 0h1m1 0h1m1 0h1m1 0h1m1 0h1m-13 1h1m1 0h1m3 0h1m2 0h2m-11 1h1m1 0h10m-12 1h3m1 0h6m1 0h2m-13 1h5m2 0h2m1 0h3m-12 1h6m1 0h1m1 0h2m-12 1h1m1 0h11" stroke="#6bf53d"/>
  <path d="m13 5e-3h2" stroke="#83ff59"/>
  <path d="m0 1.005h1m-1 9h1" stroke="#1fba64"/>
  <path d="m1 1.005h1m-1 9h1" stroke="#1ebb64"/>
  <path d="m12 1.005h1m-3 1h1m-3 1h1m-3 1h1m-2 5h1m-4 2h1" stroke="#6af53d"/>
  <path d="m0 2.005h1m-1 2h1" stroke="#1eba65"/>
  <path d="m2 2.005h1m5 3h1m3 4h1m-6 1h1m3 0h1m2 1h1m-12 1h1" stroke="#6bf43d"/>
  <path d="m3 2.005h2m-2 6h1m4 2h1m0 1h1m1 0h1" stroke="#6bf53c"/>
  <path d="m1 3.005h1m1 0h1m1 0h3m1 0h2m2 0h1m-13 1h1m1 0h1m1 0h1m1 0h1m1 0h1m1 0h1m1 0h1m-13 1h3m1 0h1m1 0h1m1 0h1m1 0h1m1 0h1m-11 1h1m1 0h1m1 0h1m1 0h1m1 0h1m1 0h1m-13 1h1m1 0h1m1 0h1m1 0h1m2 0h1m2 0h2" stroke="#003f2e"/>
  <path d="m1 6.005h1m4 1h1m2 0h1" stroke="#013f2e"/>
  <path d="m14 8.005h1" stroke="#6af43d"/>
 </g>
</svg>
