<?xml version="1.0" encoding="UTF-8"?>
<svg width="15" height="13.01" shape-rendering="crispEdges" version="1.1" viewBox="0 -.5 15 13.01" xmlns="http://www.w3.org/2000/svg">
 <g stroke-width="1.01">
  <path d="m1 5e-3h1m-1 1h1m-2 1h1m-1 1h1m-1 1h1m-1 1h1m-1 1h1m-1 1h2m-2 1h2m-2 1h2m-2 1h2m-2 1h2m-1 1h1" stroke="#22222f"/>
  <path d="m2 5e-3h6m1 0h4m-11 1h1m10 0h2m-1 6h1m-13 1h1m10 0h2m-12 1h1m8 0h3m-13 1h3m7 0h1m1 0h1m-13 1h5m2 0h6m-13 1h4m1 0h1m1 0h6" stroke="#2f2f3f"/>
  <path d="m8 5e-3h1m-7 9h1m8 1h1m-6 2h1m1 0h1" stroke="#2f2e3f"/>
  <path d="m13 5e-3h1" stroke="#3d3c3c"/>
  <path d="m14 5e-3h1" stroke="#3c3d3c"/>
  <path d="m0 1.005h1" stroke="#23222f"/>
  <path d="m3 1.005h1m2 0h1m2 0h1m2 0h1m-12 1h1m12 0h1m-14 4h1m10 2h1m-8 2h1m4 0h1m-4 1h2" stroke="#808080"/>
  <path d="m4 1.005h2m-4 1h1m-2 1h2m-1 1h1m11 1h1m-3 2h2m-4 1h2m-5 1h3m-3 1h3" stroke="#a8a8a8"/>
  <path d="m7 1.005h1m-2 2h1m-3 1h2m6 0h1m1 0h1m-13 1h1m7 0h1m-9 1h1m7 0h1" stroke="#bfbfbf"/>
  <path d="m8 1.005h1" stroke="#d1d0d1"/>
  <path d="m10 1.005h2m-6 1h3m-4 5h3m-4 1h3m-3 1h2" stroke="#d1d1d1"/>
  <path d="m3 2.005h1" stroke="#a8a9a9"/>
  <path d="m4 2.005h2m-5 2h1m-1 1h1m7 2h3m-5 1h3m-4 1h1" stroke="#c0c0c0"/>
  <path d="m9 2.005h1" stroke="#dcdddd"/>
  <path d="m10 2.005h1m1 0h2m-9 3h1m-2 1h2m-4 1h3" stroke="#ddd"/>
  <path d="m11 2.005h1" stroke="#dddddc"/>
  <path d="m3 3.005h1m3 0h3m1 0h2m-10 1h1m3 0h1m3 0h1m-9 1h1m3 0h1m3 0h1m-9 1h1m3 0h1m3 0h1" stroke="#0c3356"/>
  <path d="m4 3.005h1" stroke="#0d3356"/>
  <path d="m5 3.005h1m7 0h1m-5 1h1m3 0h1m-10 1h1m7 0h2m-6 1h1" stroke="#002547"/>
  <path d="m10 3.005h1m3 0h1m-9 1h1m1 0h1m1 0h1m-5 1h1m-1 1h1m-4 2h1" stroke="#d0d0d0"/>
  <path d="m8 5.005h1" stroke="#d0d1d0"/>
  <path d="m9 5.005h1m-1 1h1" stroke="#012547"/>
  <path d="m12 6.005h2" stroke="#c1c0c0"/>
  <path d="m14 6.005h1" stroke="#767677"/>
  <path d="m8 7.005h1" stroke="#d1d1d0"/>
  <path d="m10 9.005h1" stroke="#a8a9a8"/>
  <path d="m11 9.005h1" stroke="#a8a8a9"/>
  <path d="m6 10.005h1" stroke="#a9a8a8"/>
  <path d="m13 10.005h1" stroke="#2f2f3e"/>
  <path d="m0 12.005h1" stroke="#22232f"/>
 </g>
</svg>
