<?xml version="1.0" encoding="UTF-8"?>
<svg width="15" height="13.01" shape-rendering="crispEdges" version="1.1" viewBox="0 -.5 15 13.01" xmlns="http://www.w3.org/2000/svg">
 <g stroke-width="1.01">
  <path d="m1 5e-3h1m-2 1h2m-2 1h2m-2 1h2m-2 1h2m-2 1h2m-2 1h2m-2 1h1m-1 1h1m-1 1h1m-1 1h2m-2 1h2m-2 1h2" stroke="#e56482"/>
  <path d="m2 5e-3h11m-11 1h6m1 0h4m-10 1h1m1 0h2m1 0h7m-11 1h1m1 0h3m5 0h1m-10 1h1m5 0h4m-12 1h1m1 0h1m1 0h1m4 0h1m1 0h1m-12 1h1m1 0h1m3 0h1m1 0h2m1 0h1m-12 1h1m1 0h1m2 0h2m2 0h1m1 0h1m-11 1h2m5 0h1m2 0h1m-13 1h4m1 0h7m-12 1h5m1 0h7m-13 1h9m1 0h2m-12 1h13" stroke="#e78290"/>
  <path d="m13 5e-3h2" stroke="#ffb7be"/>
  <path d="m8 1.005h1m5 0h1m-8 1h1m-3 1h1m7 3h1m-3 1h1m-3 1h1m-4 1h1m7 0h1m-1 2h1" stroke="#e68290"/>
  <path d="m13 1.005h1m-10 1h1m8 1h1m-5 2h1m2 3h1m-6 2h1" stroke="#e78291"/>
  <path d="m2 2.005h1m6 1h1m-7 1h1m5 0h1m-3 3h1m3 4h1" stroke="#e78390"/>
  <path d="m2 3.005h2m6 0h3m-11 1h1m3 0h3m1 0h1m-9 1h1m1 0h1m8 0h1m-12 1h1m4 0h2m1 0h1m-9 1h1m1 0h1m5 0h1m2 0h1m-12 1h2m3 0h2m1 0h1" stroke="#53101e"/>
  <path d="m4 4.005h1" stroke="#52111e"/>
  <path d="m6 5.005h1m1 0h1m1 0h2" stroke="#53101f"/>
  <path d="m4 6.005h1m1 2h1" stroke="#53111e"/>
  <path d="m6 6.005h1" stroke="#53111f"/>
  <path d="m1 7.005h1" stroke="#e56582"/>
  <path d="m6 7.005h1m6 1h1" stroke="#52101e"/>
  <path d="m1 8.005h1" stroke="#e56483"/>
  <path d="m1 9.005h1" stroke="#e46482"/>
 </g>
</svg>
