<?xml version="1.0" encoding="UTF-8"?>
<svg width="15" height="13.01" shape-rendering="crispEdges" version="1.1" viewBox="0 -.5 15 13.01" xmlns="http://www.w3.org/2000/svg">
 <g stroke-width="1.01">
  <path d="m1 5e-3h1m1 0h1m1 0h1m1 0h1m1 0h4m-13 1h2m1 0h1m2 0h6m-12 1h2m2 0h8m-8 1h5m-2 1h2m-7 3h13m-12 1h3m1 0h8m-12 1h2m1 0h6m2 0h1" stroke="#7124ee"/>
  <path d="m2 5e-3h1" stroke="#af1a29"/>
  <path d="m4 5e-3h1m4 3h1m-4 1h1m-2 5h1m7 0h1" stroke="#7124ef"/>
  <path d="m6 5e-3h1m7 1h1m-12 1h1m-4 1h1m5 5h1" stroke="#7125ee"/>
  <path d="m8 5e-3h1m3 9h1" stroke="#7024ef"/>
  <path d="m13 5e-3h1m-12 1h1m10 0h1m-1 1h1m-13 4h1m5 0h1m6 0h1m-15 1h1m-1 3h2m12 0h1" stroke="#ae1a29"/>
  <path d="m4 1.005h2m-5 2h1m-1 1h1m-1 1h1" stroke="#7e3aeb"/>
  <path d="m12 1.005h1m1 1h1" stroke="#7024ee"/>
  <path d="m2 2.005h1" stroke="#ae1b29"/>
  <path d="m12 2.005h1m-2 1h1m2 0h1m-15 1h1m8 0h1m4 0h1m-15 1h1m7 0h1m5 0h1m-15 1h1m0 1h1m-1 1h2m-3 1h3m-1 2h2m9 0h1m-10 1h1m6 0h3" stroke="#6514dd"/>
  <path d="m2 3.005h2m8 0h2m-12 1h4m4 0h3m-11 1h5m2 0h1m1 0h3m-12 5h7m1 0h4m-9 1h3m1 0h4m-6 1h1m1 0h1" stroke="#ff0c27"/>
  <path d="m10 3.005h1m3 8h1" stroke="#6414dd"/>
  <path d="m13 4.005h1m-6 7h1" stroke="#fe0c27"/>
  <path d="m7 5.005h1" stroke="#6515dd"/>
  <path d="m10 5.005h1" stroke="#ff0d27"/>
  <path d="m2 6.005h2m1 0h1m3 0h5m-10 5h1m1 1h1m3 0h1" stroke="#d10824"/>
  <path d="m4 6.005h1" stroke="#d00824"/>
  <path d="m6 6.005h1" stroke="#d10924"/>
  <path d="m8 6.005h1" stroke="#af1a28"/>
  <path d="m0 8.005h1" stroke="#6514dc"/>
  <path d="m9 10.005h1" stroke="#ff0d26"/>
  <path d="m0 11.005h1m0 1h1" stroke="#5519af"/>
  <path d="m1 11.005h1m-2 1h1m1 0h2m10 0h1" stroke="#5519ae"/>
  <path d="m5 12.005h1" stroke="#d10825"/>
  <path d="m8 12.005h1" stroke="#ff0c26"/>
 </g>
</svg>
