<?xml version="1.0" encoding="UTF-8"?>
<svg width="8" height="9.01" shape-rendering="crispEdges" version="1.1" viewBox="0 -.5 8 9.01" xmlns="http://www.w3.org/2000/svg">
 <g stroke-width="1.01">
  <path d="m0 5e-3h1m1 1h1m3 2h2" stroke="#7124ef"/>
  <path d="m1 5e-3h3m-4 1h2m1 0h1m2 0h1m-6 1h7m-4 1h1m0 1h1m1 0h1m-2 1h2m-1 1h1" stroke="#7124ee"/>
  <path d="m4 1.005h2m-1 2h1m0 1h1" stroke="#7125ee"/>
  <path d="m3 3.005h1m0 1h1m0 1h1m0 1h1m0 1h1" stroke="#6514dd"/>
  <path d="m4 5.005h1m0 1h1m0 1h1m0 1h1" stroke="#5519ae"/>
 </g>
</svg>
