<svg
   shape-rendering="crispEdges"
   viewBox="0 -0.5 17 7"
   version="1.1"
   id="svg46"
   sodipodi:docname="head_accessory_crown.svg"
   width="17"
   height="7"
   xmlns="http://www.w3.org/2000/svg"
   xmlns:svg="http://www.w3.org/2000/svg">
  <defs
     id="defs50" />
  <sodipodi:namedview
     id="namedview48"
     pagecolor="#505050"
     bordercolor="#eeeeee"
     borderopacity="1"
     inkscape:pageshadow="0"
     inkscape:pageopacity="0"
     inkscape:pagecheckerboard="0"
     showgrid="false"
     inkscape:zoom="17"
     inkscape:cx="8.9705882"
     inkscape:cy="15.970588"
     inkscape:window-width="1920"
     inkscape:window-height="1009"
     inkscape:window-x="-8"
     inkscape:window-y="-8"
     inkscape:window-maximized="1"
     inkscape:current-layer="svg46" />
  <path
     stroke="#ffd767"
     d="m 11,0 h 1 M 0,1 H 1 M 4,1 H 5 M 0,2 h 1 m 2,0 h 1 m 5,0 h 2 M 2,3 h 1 m 6,0 h 1"
     id="path2" />
  <path
     stroke="#fed767"
     d="m 10,1 h 1"
     id="path4" />
  <path
     stroke="#ffd766"
     d="m 11,1 h 1"
     id="path6" />
  <path
     stroke="#fbca42"
     d="m 12,1 h 1 M 4,2 h 1 m 8,0 h 1 m 2,0 h 1 M 5,3 h 2 m 6,0 h 1 M 2,4 h 1 m 2,0 h 3 m 1,0 h 2 m 2,0 h 1 m 1,0 h 1 M 1,5 h 13 m 1,0 h 2 M 0,6 h 1"
     id="path8" />
  <path
     stroke="#b1891c"
     d="m 15,1 h 1 M 1,2 h 1 m 5,0 h 1 m 7,0 h 1 M 1,3 h 1 m 13,0 h 1"
     id="path10" />
  <path
     stroke="#fbcb42"
     d="m 5,2 h 1 m 8,2 h 1 M 0,5 h 1"
     id="path12" />
  <path
     stroke="#ff0748"
     d="m 11,2 h 1 m 0,1 h 1"
     id="path14" />
  <path
     stroke="#ff7484"
     d="m 12,2 h 1"
     id="path16" />
  <path
     stroke="#00ef31"
     d="M 0,3 H 1"
     id="path18" />
  <path
     stroke="#fbca43"
     d="m 3,3 h 1 m 6,0 h 1 M 1,4 h 1 m 6,0 h 1 m 5,1 h 1"
     id="path20" />
  <path
     stroke="#2860ff"
     d="M 4,3 H 5"
     id="path22" />
  <path
     stroke="#b1881c"
     d="M 7,3 H 8"
     id="path24" />
  <path
     stroke="#ffd667"
     d="M 8,3 H 9"
     id="path26" />
  <path
     stroke="#d80037"
     d="m 11,3 h 1 m -1,1 h 2"
     id="path28" />
  <path
     stroke="#faca42"
     d="m 14,3 h 1 M 3,4 h 1"
     id="path30" />
  <path
     stroke="#ef26e6"
     d="m 16,3 h 1"
     id="path32" />
  <path
     stroke="#00d257"
     d="M 0,4 H 1"
     id="path34" />
  <path
     stroke="#1348e4"
     d="M 4,4 H 5"
     id="path36" />
  <path
     stroke="#bc1de6"
     d="m 16,4 h 1"
     id="path38" />
  <path
     stroke="#e7b018"
     d="m 1,6 h 4 m 1,0 h 2 m 2,0 h 1 m 1,0 h 5"
     id="path40" />
  <path
     stroke="#e7b118"
     d="M 5,6 H 6 M 8,6 H 9"
     id="path42" />
  <path
     stroke="#e7b019"
     d="m 9,6 h 1 m 1,0 h 1"
     id="path44" />
</svg>
