<svg
   shape-rendering="crispEdges"
   viewBox="0 -0.5 20 10"
   version="1.1"
   id="svg22"
   sodipodi:docname="head_accessory_eggshell.svg"
   width="20"
   height="10"
   xmlns="http://www.w3.org/2000/svg"
   xmlns:svg="http://www.w3.org/2000/svg">
  <defs
     id="defs26" />
  <sodipodi:namedview
     id="namedview24"
     pagecolor="#505050"
     bordercolor="#eeeeee"
     borderopacity="1"
     inkscape:pageshadow="0"
     inkscape:pageopacity="0"
     inkscape:pagecheckerboard="0"
     showgrid="false"
     inkscape:zoom="17"
     inkscape:cx="9.9705882"
     inkscape:cy="15.970588"
     inkscape:window-width="1920"
     inkscape:window-height="1009"
     inkscape:window-x="-8"
     inkscape:window-y="-8"
     inkscape:window-maximized="1"
     inkscape:current-layer="svg22" />
  <path
     stroke="#ffffff"
     d="m 5,0 h 1 m 1,0 h 9 M 4,1 h 12 m 1,0 h 1 M 2,2 h 12 m 1,0 h 4 M 1,3 h 2 m 3,0 h 3 m 1,0 h 1 m 1,0 h 2 m 1,0 h 5 M 1,4 h 2 m 1,0 h 3 m 1,0 h 3 m 1,0 h 1 m 1,0 h 5 M 2,5 h 3 m 3,0 h 2 m 3,0 h 3 m 1,0 h 2 m -3,1 h 2 m -1,1 h 1"
     id="path2" />
  <path
     stroke="#fffffe"
     d="m 6,0 h 1 m 9,1 h 1 M 3,3 h 2"
     id="path4" />
  <path
     stroke="#feffff"
     d="m 3,1 h 1 m 10,1 h 1 M 5,3 h 1 m 5,0 h 1 m -1,1 h 1"
     id="path6" />
  <path
     stroke="#fffeff"
     d="m 9,3 h 1 M 3,4 h 1 m 12,1 h 1"
     id="path8" />
  <path
     stroke="#e1d6ba"
     d="m 14,3 h 1 m -2,1 h 1 m 0,2 h 1 M 0,8 h 1 m 16,0 h 1"
     id="path10" />
  <path
     stroke="#f5f0d3"
     d="m 0,4 h 1 m 18,0 h 1 M 1,5 h 1 m 17,0 h 1 M 0,6 h 3 m 15,0 h 2 M 0,7 h 1 m 17,0 h 2"
     id="path12" />
  <path
     stroke="#e1d7ba"
     d="M 7,4 H 8 M 5,5 h 3 m 2,0 h 3 M 3,6 h 2 m 2,0 h 3 m 3,0 h 1 m 1,0 h 1 M 1,7 h 2 m 13,0 h 1 M 1,8 H 2 M 0,9 h 1 m 17,0 h 1"
     id="path14" />
  <path
     stroke="#f5f1d3"
     d="M 0,5 H 1"
     id="path16" />
  <path
     stroke="#c1ae9a"
     d="m 10,6 h 1 M 3,7 h 1 m 4,0 h 1"
     id="path18" />
  <path
     stroke="#f4f0d3"
     d="m 18,8 h 1"
     id="path20" />
</svg>
