<svg
   shape-rendering="crispEdges"
   viewBox="0 -0.5 27 22"
   version="1.1"
   id="svg52"
   sodipodi:docname="head_crazy_craw.svg"
   width="27"
   height="22"
   xmlns="http://www.w3.org/2000/svg"
   xmlns:svg="http://www.w3.org/2000/svg">
  <defs
     id="defs56" />
  <sodipodi:namedview
     id="namedview54"
     pagecolor="#505050"
     bordercolor="#eeeeee"
     borderopacity="1"
     inkscape:pageshadow="0"
     inkscape:pageopacity="0"
     inkscape:pagecheckerboard="0"
     showgrid="false"
     inkscape:zoom="17"
     inkscape:cx="14.970588"
     inkscape:cy="15.970588"
     inkscape:window-width="1920"
     inkscape:window-height="1009"
     inkscape:window-x="-8"
     inkscape:window-y="-8"
     inkscape:window-maximized="1"
     inkscape:current-layer="svg52" />
  <path
     stroke="#7124ee"
     d="m 9,0 h 1 M 6,1 h 1 m 1,0 h 2 m 9,0 h 1 M 5,2 h 1 m 2,0 h 2 m 4,0 h 2 M 5,3 h 2 m 1,0 h 3 m 7,0 h 1 M 6,4 h 1 m 3,0 h 3 m 5,0 h 1 M 2,5 h 1 m 3,0 h 4 m 2,0 h 5 m 3,0 h 1 m 2,0 h 1 M 2,6 H 5 M 7,6 H 19 M 3,7 h 4 m 2,0 h 6 m 1,0 h 2 m 1,0 h 2 M 6,8 h 6 m 1,0 h 1 m 1,0 h 7 m 4,0 h 1 M 2,9 h 2 m 4,0 h 2 m 4,0 h 3 m 4,0 h 1 m 3,0 h 1 M 4,10 h 1 m 3,0 h 2 m 4,0 h 1 m 1,0 h 1 m 4,0 h 1 m 1,0 h 2 M 7,11 h 3 m 4,0 h 2 m 5,0 h 1 M 2,12 h 4 m 2,0 h 2 m 4,0 h 3 m 4,0 h 1 M 0,13 h 1 m 4,0 h 2 m 1,0 h 2 m 4,0 h 3 m 4,0 h 1 M 8,14 h 2 m 4,0 h 3 m 4,0 h 1 M 8,15 h 2 m 1,0 h 2 m 1,0 h 7 M 8,16 h 4 m 8,0 h 2 M 8,17 h 1 m 1,0 h 3 m 7,0 h 2 M 9,18 h 3 m 9,0 h 1 M 9,19 h 6 m 6,0 h 1"
     id="path2" />
  <path
     stroke="#7125ee"
     d="m 14,1 h 1 m 8,3 h 1 M 7,9 h 1 m -3,1 h 1 m 9,0 h 1 M 4,11 h 1 m -4,1 h 1 m 11,3 h 1 m -2,1 h 1 m 2,3 h 1"
     id="path4" />
  <path
     stroke="#7124ef"
     d="m 19,2 h 1 m 1,3 h 2 M 3,10 h 1 m 2,0 h 1 m 14,5 h 1 M 9,17 h 1 m 2,1 h 1"
     id="path6" />
  <path
     stroke="#641ecc"
     d="m 15,3 h 1 M 9,4 h 1 m 4,0 h 2 m 1,0 h 1 m -8,1 h 2 m 5,0 h 2 M 6,6 h 1 m 12,0 h 4 M 7,7 h 2 m 12,0 h 1 M 5,8 h 1 m 19,2 h 1 M 5,11 h 2 m 0,1 h 1 m -5,1 h 2 m 5,1 h 1 m 6,0 h 4 M 8,18 h 1 m 4,0 h 1 m -6,1 h 1 m -1,1 h 14"
     id="path8" />
  <path
     stroke="#7024ef"
     d="m 19,3 h 1 m -8,5 h 1"
     id="path10" />
  <path
     stroke="#7024ee"
     d="m 5,4 h 1 m 9,3 h 1 m 2,0 h 1 m -5,1 h 1 m -8,2 h 1 m 8,1 h 1 M 6,12 h 1 m 3,3 h 1"
     id="path12" />
  <path
     stroke="#5519ae"
     d="m 4,8 h 1 m 1,1 h 1 m 15,0 h 1 m -1,1 h 1 m -1,1 h 2 M 7,13 h 1 m -3,1 h 3 m 14,0 h 1 M 7,15 h 1 m 14,0 h 1 M 7,16 h 1 m 14,0 h 1 M 7,17 h 1 m 14,0 h 1 m -13,4 h 4 m 1,0 h 5"
     id="path14" />
  <path
     stroke="#651ecc"
     d="m 4,9 h 1 m 6,5 h 3"
     id="path16" />
  <path
     stroke="#5419ae"
     d="m 5,9 h 1 m 18,2 h 1 m -3,2 h 1 m -9,8 h 1"
     id="path18" />
  <path
     stroke="#c4e5f8"
     d="m 10,9 h 2 m 5,0 h 1"
     id="path20" />
  <path
     stroke="#010149"
     d="m 12,9 h 1"
     id="path22" />
  <path
     stroke="#000049"
     d="m 13,9 h 1 m 5,0 h 2 m -8,1 h 1 m 5,0 h 1 m -10,1 h 3 m 4,0 h 4 m -11,1 h 4 m 3,0 h 4 m -11,1 h 4 m 3,0 h 4"
     id="path24" />
  <path
     stroke="#c5e5f9"
     d="m 18,9 h 1"
     id="path26" />
  <path
     stroke="#def0fb"
     d="m 10,10 h 2 m 5,0 h 2"
     id="path28" />
  <path
     stroke="#000048"
     d="m 12,10 h 1 m 0,1 h 1"
     id="path30" />
  <path
     stroke="#010049"
     d="m 20,10 h 1"
     id="path32" />
  <path
     stroke="#5518ae"
     d="m 22,12 h 1"
     id="path34" />
  <path
     stroke="#7125ef"
     d="M 1,13 H 2"
     id="path36" />
  <path
     stroke="#ff7f08"
     d="m 13,16 h 5 m -4,1 h 2 m 1,0 h 1 m 1,0 h 1 m -4,1 h 2 m 1,0 h 2 m -3,1 h 1 m 1,0 h 1"
     id="path38" />
  <path
     stroke="#ff9112"
     d="m 18,16 h 1"
     id="path40" />
  <path
     stroke="#ff9012"
     d="m 19,16 h 1"
     id="path42" />
  <path
     stroke="#f26d00"
     d="m 13,17 h 1 m 0,1 h 2 m 0,1 h 2"
     id="path44" />
  <path
     stroke="#a7431c"
     d="m 16,17 h 1 m 1,0 h 1"
     id="path46" />
  <path
     stroke="#ff7f09"
     d="m 18,18 h 1"
     id="path48" />
  <path
     stroke="#ff7e08"
     d="m 19,19 h 1"
     id="path50" />
</svg>
