<svg
   shape-rendering="crispEdges"
   viewBox="0 -0.5 22 19"
   version="1.1"
   id="svg66"
   sodipodi:docname="head_wince.svg"
   width="22"
   height="19"
   xmlns="http://www.w3.org/2000/svg"
   xmlns:svg="http://www.w3.org/2000/svg">
  <defs
     id="defs70" />
  <sodipodi:namedview
     id="namedview68"
     pagecolor="#505050"
     bordercolor="#eeeeee"
     borderopacity="1"
     inkscape:pageshadow="0"
     inkscape:pageopacity="0"
     inkscape:pagecheckerboard="0"
     showgrid="false"
     inkscape:zoom="17"
     inkscape:cx="13.970588"
     inkscape:cy="12.970588"
     inkscape:window-width="1920"
     inkscape:window-height="1009"
     inkscape:window-x="-8"
     inkscape:window-y="-8"
     inkscape:window-maximized="1"
     inkscape:current-layer="svg66" />
  <path
     stroke="#7124ee"
     d="m 2,0 h 1 m 0,1 h 1 m 0,1 h 10 m 1,0 h 3 M 1,3 H 2 M 6,3 H 7 M 8,3 H 21 M 2,4 h 3 m 1,0 h 3 m 1,0 h 4 m 1,0 h 1 m 1,0 h 2 m 1,0 h 1 M 0,5 h 1 m 4,0 h 12 m 1,0 h 3 M 1,6 h 2 m 1,0 h 1 m 1,0 h 2 m 5,0 h 2 m 5,0 h 1 M 3,7 h 1 m 1,0 h 4 m 4,0 h 3 m 4,0 h 1 M 8,8 h 1 m 4,0 h 3 m 4,0 h 1 M 7,9 h 2 m 4,0 h 3 m -8,1 h 1 m 5,0 h 2 m 4,0 h 1 M 7,11 h 2 m 4,0 h 1 m 1,0 h 1 m 4,0 h 1 M 7,12 h 1 m 2,0 H 20 M 8,13 h 4 m 7,0 h 2 M 7,14 h 5 m 7,0 h 2 M 8,15 h 4 m 8,0 h 1 M 8,16 h 3 m 1,0 h 3 m 5,0 h 1"
     id="path2" />
  <path
     stroke="#6514dd"
     d="M 3,2 H 4 M 5,3 H 6 M 4,5 H 5 M 2,7 h 1 m 6,4 h 1 m 1,0 h 2 m 3,0 h 1 m 1,0 h 2 M 7,15 h 1 m 4,0 h 1 m -6,2 h 5 m 1,0 h 7"
     id="path4" />
  <path
     stroke="#7124ef"
     d="m 14,2 h 1 m -1,2 h 1 m 1,0 h 1 M 3,6 h 1 m 0,1 h 1 m 9,4 h 1 m -7,1 h 1"
     id="path6" />
  <path
     stroke="#5519ae"
     d="M 4,3 H 5 M 3,5 h 1 m 17,1 h 1 m -1,1 h 1 M 4,8 h 2 m 0,1 h 1 m 14,0 h 1 M 6,10 h 1 m 14,0 h 1 M 6,11 h 1 m 14,0 h 1 m -1,1 h 1 M 6,13 h 1 m 14,0 h 1 M 6,14 h 1 m 14,0 h 1 M 9,18 h 2 m 1,0 h 1 m 1,0 h 3 m 1,0 h 1"
     id="path8" />
  <path
     stroke="#7125ee"
     d="M 7,3 H 8 M 8,6 H 9 M 7,8 h 1 m -1,2 h 1 m 5,0 h 1 m -5,2 h 1"
     id="path10" />
  <path
     stroke="#7125ef"
     d="M 5,4 H 6 M 5,6 h 1"
     id="path12" />
  <path
     stroke="#7024ef"
     d="m 9,4 h 1"
     id="path14" />
  <path
     stroke="#7024ee"
     d="m 19,4 h 1 m -3,1 h 1 m -3,1 h 1 m 4,3 h 1 m -1,3 h 1 M 7,13 h 1 m 3,3 h 1"
     id="path16" />
  <path
     stroke="#441b82"
     d="m 9,6 h 1 m 9,0 h 1 m -4,4 h 1"
     id="path18" />
  <path
     stroke="#451a82"
     d="m 10,6 h 1 m 6,0 h 1"
     id="path20" />
  <path
     stroke="#451b82"
     d="m 11,6 h 2 m 3,0 h 1 m 1,0 h 1 M 9,10 h 4 m 4,0 h 3"
     id="path22" />
  <path
     stroke="#f4defb"
     d="m 9,7 h 1 m 6,0 h 1 M 9,8 h 1 M 9,9 h 1 m 6,0 h 1"
     id="path24" />
  <path
     stroke="#16167a"
     d="m 10,7 h 2 m 5,0 h 1"
     id="path26" />
  <path
     stroke="#000049"
     d="m 12,7 h 1 m -2,1 h 1 m 5,0 h 3 M 10,9 h 3 m 4,0 h 1 m 1,0 h 1"
     id="path28" />
  <path
     stroke="#16167b"
     d="m 18,7 h 1"
     id="path30" />
  <path
     stroke="#000149"
     d="m 19,7 h 1 m -8,1 h 1 m 5,1 h 1"
     id="path32" />
  <path
     stroke="#5518ae"
     d="m 3,8 h 1 m 7,10 h 1"
     id="path34" />
  <path
     stroke="#6515dd"
     d="m 6,8 h 1 m 3,3 h 1"
     id="path36" />
  <path
     stroke="#000048"
     d="m 10,8 h 1"
     id="path38" />
  <path
     stroke="#f5defb"
     d="m 16,8 h 1"
     id="path40" />
  <path
     stroke="#5519af"
     d="m 21,8 h 1 M 6,12 h 1 m 6,6 h 1"
     id="path42" />
  <path
     stroke="#6514dc"
     d="m 17,11 h 1 m 2,6 h 1"
     id="path44" />
  <path
     stroke="#ff7f08"
     d="m 12,13 h 4 m -3,1 h 2 m 1,0 h 1 m 1,0 h 1 m -4,1 h 1 m 3,0 h 1 m -3,1 h 2"
     id="path46" />
  <path
     stroke="#fe7f08"
     d="m 16,13 h 1 m -1,2 h 1"
     id="path48" />
  <path
     stroke="#ff9112"
     d="m 17,13 h 1"
     id="path50" />
  <path
     stroke="#fe9012"
     d="m 18,13 h 1"
     id="path52" />
  <path
     stroke="#f26d00"
     d="m 12,14 h 1 m 0,1 h 2 m 0,1 h 2"
     id="path54" />
  <path
     stroke="#a7431c"
     d="m 15,14 h 1 m 1,0 h 1"
     id="path56" />
  <path
     stroke="#ff7e08"
     d="m 17,15 h 2"
     id="path58" />
  <path
     stroke="#6414dd"
     d="m 7,16 h 1 m 4,1 h 1"
     id="path60" />
  <path
     stroke="#ff7f09"
     d="m 19,16 h 1"
     id="path62" />
  <path
     stroke="#5419ae"
     d="m 17,18 h 1"
     id="path64" />
</svg>
