<svg
   shape-rendering="crispEdges"
   viewBox="0 -0.5 22 19"
   version="1.1"
   id="svg52"
   sodipodi:docname="head_tornado_cooly.svg"
   width="22"
   height="19"
   xmlns="http://www.w3.org/2000/svg"
   xmlns:svg="http://www.w3.org/2000/svg">
  <defs
     id="defs56" />
  <sodipodi:namedview
     id="namedview54"
     pagecolor="#505050"
     bordercolor="#eeeeee"
     borderopacity="1"
     inkscape:pageshadow="0"
     inkscape:pageopacity="0"
     inkscape:pagecheckerboard="0"
     showgrid="false"
     inkscape:zoom="17"
     inkscape:cx="13.970588"
     inkscape:cy="12.970588"
     inkscape:window-width="1920"
     inkscape:window-height="1009"
     inkscape:window-x="-8"
     inkscape:window-y="-8"
     inkscape:window-maximized="1"
     inkscape:current-layer="svg52" />
  <path
     stroke="#7124ee"
     d="m 2,0 h 1 m 1,2 h 4 m 1,0 h 1 m 1,0 h 7 M 1,3 h 1 m 4,0 h 3 m 1,0 h 6 m 1,0 h 3 M 2,4 h 4 m 1,0 h 10 m 1,0 h 3 M 6,5 h 10 m 1,0 h 1 m 1,0 h 2 M 1,6 h 2 m 4,3 h 1 m -1,1 h 1 m 6,0 h 1 m 6,0 h 1 M 7,11 h 2 m 4,0 h 3 m 4,0 h 1 M 8,12 h 6 m 1,0 h 4 m 1,0 h 1 M 7,13 h 5 m 7,0 h 2 M 7,14 h 5 m 7,0 h 2 M 8,15 h 2 m 1,0 h 1 m 8,0 h 1 M 8,16 h 3 m 1,0 h 1 m 1,0 h 1 m 5,0 h 1"
     id="path2" />
  <path
     stroke="#7024ee"
     d="m 3,1 h 1 m 12,2 h 1 m 0,1 h 1 M 0,5 h 1"
     id="path4" />
  <path
     stroke="#641ecc"
     d="M 3,2 H 4 M 5,3 H 6 M 2,7 h 4 m 6,8 h 1 m -6,1 h 1 m -1,1 h 11 m 1,0 h 2"
     id="path6" />
  <path
     stroke="#7125ee"
     d="m 8,2 h 1 m 11,1 h 1 m -2,9 h 1 m -9,4 h 1"
     id="path8" />
  <path
     stroke="#7124ef"
     d="m 10,2 h 1 M 9,3 h 1 M 6,4 h 1 m 9,1 h 1 m 1,0 h 1 M 7,12 h 1 m 6,0 h 1 m -5,3 h 1 m 2,1 h 1"
     id="path10" />
  <path
     stroke="#5519ae"
     d="M 4,3 H 5 M 3,8 h 3 m 0,1 h 1 m -1,1 h 1 m -1,1 h 1 m 14,0 h 1 M 6,12 h 1 m 14,0 h 1 M 6,13 h 1 m 14,0 h 1 M 6,14 h 1 m 14,0 h 1 m -12,4 h 7 m 1,0 h 1"
     id="path12" />
  <path
     stroke="#95ffc0"
     d="M 3,5 H 4 M 3,6 h 8 m 3,0 h 3 m 3,0 h 2 M 6,7 h 1 m 1,0 h 2 m 2,0 h 5 m 2,0 h 3 M 11,8 h 3 m 1,0 h 1 m 2,0 h 3 M 9,9 h 3 m 1,0 h 1 m 3,0 h 1 m 2,0 h 1 M 9,10 h 2 m 1,0 h 1 m 3,0 h 4"
     id="path14" />
  <path
     stroke="#95fec0"
     d="m 4,5 h 2 m 6,4 h 1 m 3,0 h 1 m 2,0 h 1"
     id="path16" />
  <path
     stroke="#aaffd1"
     d="m 11,6 h 2 m 5,0 h 2 M 10,7 h 2 m 5,0 h 2 M 9,8 h 2 m 5,0 h 2 M 8,9 h 1"
     id="path18" />
  <path
     stroke="#95ffc1"
     d="m 13,6 h 1 M 7,7 h 1 m 0,1 h 1 m 2,2 h 1"
     id="path20" />
  <path
     stroke="#94fec0"
     d="m 17,6 h 1"
     id="path22" />
  <path
     stroke="#315074"
     d="m 6,8 h 2 m 6,0 h 1 m 6,0 h 1 m -8,1 h 1 m 6,0 h 1 M 8,10 h 1 m 4,0 h 1 m 1,0 h 1 m 4,0 h 1 M 9,11 h 4 m 3,0 h 4"
     id="path24" />
  <path
     stroke="#aaffd0"
     d="m 15,9 h 1"
     id="path26" />
  <path
     stroke="#94ffc0"
     d="m 18,9 h 1"
     id="path28" />
  <path
     stroke="#ff7f08"
     d="m 12,13 h 5 m -4,1 h 1 m 2,0 h 1 m 1,0 h 1 m -4,1 h 5 m -3,1 h 3"
     id="path30" />
  <path
     stroke="#ff9113"
     d="m 17,13 h 1"
     id="path32" />
  <path
     stroke="#ff9112"
     d="m 18,13 h 1"
     id="path34" />
  <path
     stroke="#f26d00"
     d="m 12,14 h 1 m 0,1 h 2"
     id="path36" />
  <path
     stroke="#ff7f09"
     d="m 14,14 h 1"
     id="path38" />
  <path
     stroke="#a7431c"
     d="m 15,14 h 1 m 1,0 h 1"
     id="path40" />
  <path
     stroke="#651ecc"
     d="M 7,15 H 8"
     id="path42" />
  <path
     stroke="#f26d01"
     d="m 15,16 h 1"
     id="path44" />
  <path
     stroke="#f36d00"
     d="m 16,16 h 1"
     id="path46" />
  <path
     stroke="#641fcc"
     d="m 18,17 h 1"
     id="path48" />
  <path
     stroke="#5519af"
     d="m 9,18 h 1 m 7,0 h 1"
     id="path50" />
</svg>
