<?xml version="1.0" encoding="UTF-8"?>
<svg width="24" height="10.01" shape-rendering="crispEdges" version="1.1" viewBox="0 -.5 24 10.01" xmlns="http://www.w3.org/2000/svg">
 <g stroke-width="1.01">
  <path d="m2 5e-3h3m14 0h3m-21 1h1m18 0h3m-23 1h2m20 0h1m-23 1h2m-2 1h2m-2 1h2m-1 1h1m-1 1h1" stroke="#0783ff"/>
  <path d="m5 5e-3h1m-3 1h1m15 0h1m-18 1h1m17 0h2m-20 1h1m19 0h1m-21 1h1m18 0h2m-21 1h1m18 0h2m-21 1h1m18 0h2m-21 1h1m-2 1h2m-1 1h1" stroke="#0065fe"/>
  <path d="m2 1.005h1" stroke="#0782ff"/>
  <path d="m4 1.005h1m13 0h1m4 2h1m-1 1h1m-1 1h1m-4 1h1m-18 1h1m15 0h4m-4 1h3m-19 1h1" stroke="#0056e8"/>
  <path d="m3 2.005h1" stroke="#0057e8"/>
  <path d="m23 2.005h1m-1 4h1m-21 2h1" stroke="#0156e8"/>
  <path d="m21 3.005h1" stroke="#0165fe"/>
  <path d="m0 6.005h1" stroke="#0783fe"/>
  <path d="m0 7.005h1" stroke="#0683ff"/>
 </g>
</svg>
