<?xml version="1.0" encoding="UTF-8"?>
<svg width="15" height="13.01" shape-rendering="crispEdges" version="1.1" viewBox="0 -.5 15 13.01" xmlns="http://www.w3.org/2000/svg">
 <g stroke-width="1.01">
  <path d="m1 5e-3h1m12 0h1m-15 1h2m3 0h1m-5 1h1m4 0h1m-7 1h2m5 0h1m-8 1h2m10 0h1m-12 1h1m-2 1h2m-2 1h2m-2 1h2m-2 1h2m-2 1h2m-2 1h2m-2 1h2" stroke="#e4d1b6"/>
  <path d="m2 5e-3h1m-1 1h3m9 0h1m-13 1h4m7 0h2m-12 1h4m6 0h2m-13 1h3m2 0h1m5 0h2m-13 1h6m4 0h3m-13 1h1m1 0h3m1 0h1m3 0h3m-13 1h2m1 0h5m1 0h3m-12 1h13m-13 1h1m1 0h2m2 0h7m-13 1h3m1 0h3m2 0h4m-12 1h6m3 0h2m-12 1h3m1 0h7m1 0h1" stroke="#f2e7ce"/>
  <path d="m3 5e-3h1m1 4h1m-3 2h1m-1 3h1m1 1h1" stroke="#f3e7ce"/>
  <path d="m8 5e-3h2m1 0h1m-1 1h1" stroke="#c18a2d"/>
  <path d="m10 5e-3h1" stroke="#c08a2d"/>
  <path d="m8 1.005h1" stroke="#ffc84b"/>
  <path d="m9 1.005h1m-1 1h1" stroke="#feb83f"/>
  <path d="m10 1.005h1m-3 2h2m-2 1h2m-1 1h1m-1 1h1m-1 4h2" stroke="#ffb83f"/>
  <path d="m13 1.005h1m-6 1h1m2 0h2m-1 1h1" stroke="rgba(24,24,34,0.20784313725490197)"/>
  <path d="m0 2.005h1" stroke="#e5d1b6"/>
  <path d="m7 2.005h1" stroke="rgba(24,24,35,0.20784313725490197)"/>
  <path d="m10 2.005h1m-1 1h2m-2 1h2m-2 1h2m-2 2h1m-2 4h2" stroke="#d49730"/>
  <path d="m2 3.005h1m4 6h1m-6 2h1m8 0h1m2 0h1" stroke="#f2e6ce"/>
  <path d="m6 4.005h1m-3 3h1m9 0h1m-9 2h1m-2 3h1m7 0h1" stroke="#f2e7cf"/>
  <path d="m0 5.005h1" stroke="#e4d1b7"/>
  <path d="m8 5.005h1" stroke="#ffb93f"/>
  <path d="m7 6.005h1" stroke="#f3e7cf"/>
  <path d="m10 6.005h1" stroke="#d49631"/>
  <path d="m11 6.005h1" stroke="#d49630"/>
 </g>
</svg>
