<?xml version="1.0" encoding="UTF-8"?>
<svg width="15" height="13.01" shape-rendering="crispEdges" version="1.1" viewBox="0 -.5 15 13.01" xmlns="http://www.w3.org/2000/svg">
 <g stroke-width="1.01">
  <path d="m1 5e-3h1m-2 1h2m-2 2h2m-2 1h2m-2 1h2m-1 1h1m-2 1h2m-2 1h1m0 1h1m-2 1h1m-1 1h2m-2 1h2" stroke="#22222f"/>
  <path d="m2 5e-3h2m-2 1h3m9 0h1m-13 1h2m1 0h1m7 0h2m-13 1h5m6 0h2m-13 1h2m1 0h3m5 0h2m-13 1h1m2 0h3m5 0h2m-13 1h7m3 0h3m-13 1h4m1 0h3m1 0h2m1 0h1m-13 1h2m1 0h10m-13 1h8m1 0h4m-13 1h1m1 0h3m4 0h4m-12 1h1m1 0h1m5 0h2m1 0h1m-13 1h13" stroke="#2f2f3f"/>
  <path d="m8 5e-3h4m-1 1h1" stroke="#202ca9"/>
  <path d="m14 5e-3h1" stroke="#373742"/>
  <path d="m5 1.005h1m0 1h1m0 1h1m4 1h1" stroke="#363643"/>
  <path d="m8 1.005h1" stroke="#4f5dfa"/>
  <path d="m9 1.005h2m-2 1h1m-2 1h2m-2 1h2m-2 1h2m-1 1h1" stroke="#3745d3"/>
  <path d="m13 1.005h1m-6 1h1m2 0h2m-1 1h1" stroke="rgba(24,24,34,0.20784313725490197)"/>
  <path d="m0 2.005h2m-2 4h1m0 4h1" stroke="#23222f"/>
  <path d="m4 2.005h1" stroke="#2e2f3e"/>
  <path d="m7 2.005h1" stroke="rgba(25,24,34,0.20784313725490197)"/>
  <path d="m10 2.005h1m-1 1h2m-2 1h1m-1 1h2m-2 1h2m-2 1h1" stroke="#212fc5"/>
  <path d="m4 4.005h1m7 1h1m-5 5h1m-3 1h2" stroke="#2f2f3e"/>
  <path d="m11 4.005h1" stroke="#212fc4"/>
  <path d="m3 5.005h1m2 2h1m-3 1h1m2 2h1m-4 1h1m3 0h1m4 0h1" stroke="#2e2f3f"/>
  <path d="m4 5.005h1m8 2h1m-11 3h1m-2 1h1" stroke="#2f2e3f"/>
  <path d="m1 8.005h1" stroke="#22232e"/>
  <path d="m0 9.005h1" stroke="#22222e"/>
  <path d="m10 9.005h1" stroke="#2e2e3e"/>
  <path d="m9 10.005h2" stroke="#ffb83f"/>
  <path d="m9 11.005h1" stroke="#d59730"/>
  <path d="m10 11.005h1" stroke="#d49730"/>
 </g>
</svg>
