<?xml version="1.0" encoding="UTF-8"?>
<svg width="15" height="13.01" shape-rendering="crispEdges" version="1.1" viewBox="0 -.5 15 13.01" xmlns="http://www.w3.org/2000/svg">
 <g stroke-width="1.01">
  <path d="m1 5e-3h1" stroke="#23222f"/>
  <path d="m2 5e-3h2m-2 1h1m1 0h2m8 0h1m-13 1h4m7 0h2m-13 1h3m8 0h2m-13 1h3m1 0h1m2 0h2m2 0h2m-13 1h7m2 0h4m-13 1h7m3 0h1m1 0h1m-13 1h9m1 0h3m-13 1h2m1 0h5m3 0h2m-13 1h5m1 0h1m2 0h4m-13 1h4m1 0h2m3 0h3m-12 1h3m1 0h8m-13 1h5m1 0h7" stroke="#2f2f3f"/>
  <path d="m13 5e-3h2" stroke="#40404e"/>
  <path d="m0 1.005h2m-2 1h2m-2 1h2m-2 1h2m-1 1h1m-2 1h2m-1 1h1m-2 1h2m-2 1h2m-2 1h2m-2 1h2m-2 1h2" stroke="#22222f"/>
  <path d="m3 1.005h1m9 0h1m-9 3h1m4 4h1m-9 3h1" stroke="#2f2f3e"/>
  <path d="m6 1.005h1" stroke="rgba(24,25,34,0.20784313725490197)"/>
  <path d="m7 1.005h2m2 0h1m-5 1h1m2 0h1" stroke="#fc4559"/>
  <path d="m9 1.005h2" stroke="rgba(24,24,34,0.20784313725490197)"/>
  <path d="m12 1.005h1" stroke="#fc4558"/>
  <path d="m6 2.005h1m-1 1h1m2 0h2m1 0h1m-6 1h1m3 0h2" stroke="#c52133"/>
  <path d="m8 2.005h2m1 0h2m-6 1h1" stroke="#fb0621"/>
  <path d="m5 3.005h1m5 3h1m1 0h1m-3 1h1m-8 1h1" stroke="#2e2f3f"/>
  <path d="m8 3.005h1" stroke="#fb0721"/>
  <path d="m11 3.005h1" stroke="#fa0621"/>
  <path d="m8 4.005h1" stroke="#c52033"/>
  <path d="m0 5.005h1m-1 2h1" stroke="#22222e"/>
  <path d="m9 5.005h1m0 4h1" stroke="#ffb83f"/>
  <path d="m10 5.005h1" stroke="#feb83f"/>
  <path d="m9 6.005h1m-1 4h1" stroke="#d49730"/>
  <path d="m10 6.005h1" stroke="#d49630"/>
  <path d="m11 8.005h2m-6 1h1m-2 1h1m4 0h1m-5 2h1" stroke="#2f2e3f"/>
  <path d="m9 9.005h1" stroke="#ffb83e"/>
  <path d="m10 10.005h1" stroke="#d59730"/>
  <path d="m6 11.005h1" stroke="#2e2e3f"/>
 </g>
</svg>
