<?xml version="1.0" encoding="UTF-8"?>
<svg width="9" height="12.01" shape-rendering="crispEdges" version="1.1" viewBox="0 -.5 9 12.01" xmlns="http://www.w3.org/2000/svg">
 <g stroke-width="1.01">
  <path d="m1 5e-3h1" stroke="#bd5b03"/>
  <path d="m2 5e-3h1m4 0h1" stroke="#b04b00"/>
  <path d="m3 5e-3h2m1 0h1" stroke="#ffc96d"/>
  <path d="m5 5e-3h1" stroke="#fec96d"/>
  <path d="m8 5e-3h1" stroke="#bd5b02"/>
  <path d="m0 1.005h1" stroke="#a24400"/>
  <path d="m1 1.005h1" stroke="#a24500"/>
  <path d="m2 1.005h1m-1 1h1m4 0h2m-5 3h2" stroke="#873900"/>
  <path d="m3 1.005h1" stroke="#ffb83e"/>
  <path d="m4 1.005h1" stroke="#ffb93f"/>
  <path d="m5 1.005h2m-4 1h4" stroke="#ffb83f"/>
  <path d="m7 1.005h2m-8 1h1" stroke="#843800"/>
  <path d="m0 2.005h1" stroke="#843801"/>
  <path d="m1 3.005h2m4 0h1m-4 1h2" stroke="#6d2200"/>
  <path d="m3 3.005h2" stroke="#f0a424"/>
  <path d="m5 3.005h1" stroke="#f0a728"/>
  <path d="m6 3.005h1" stroke="#f0a629"/>
  <path d="m8 3.005h1" stroke="#6d2300"/>
  <path d="m4 6.005h2" stroke="#964407"/>
  <path d="m4 7.005h2m-2 3h2m-2 1h2" stroke="#6a2100"/>
  <path d="m4 8.005h2m-1 1h1" stroke="#813802"/>
  <path d="m4 9.005h1" stroke="#813902"/>
 </g>
</svg>
