<svg xmlns="http://www.w3.org/2000/svg" shape-rendering="crispEdges" viewBox="0 -0.5 38 38"><path stroke="#000" stroke-width="1.01" d="M28 24h2m0 2h1m-1 1h1m-1 1h1"/><path stroke="#010000" stroke-width="1.01" d="M27 25h1m2 0h1"/><path stroke="#003ef2" stroke-width="1.01" d="M29 29h1m-2 1h1"/><path stroke="#000100" stroke-width="1.01" d="M30 29h1"/><path stroke="#0b15c9" stroke-width="1.01" d="M31 29h1m-1 2h2m-2 1h2m-2 1h2m-2 1h2m-2 1h2m-3 1h2m-2 1h2"/><path stroke="#1823e1" stroke-width="1.01" d="M29 30h4m-5 1h1m-1 1h3m-3 1h3m-2 1h2m-3 1h3m-2 1h1m-1 1h1"/><path stroke="#1822e1" stroke-width="1.01" d="M29 31h1"/><path stroke="#1923e1" stroke-width="1.01" d="M30 31h1m-3 3h1"/></svg>