<svg xmlns="http://www.w3.org/2000/svg" shape-rendering="crispEdges" viewBox="0 -0.5 38 38"><path stroke="#130c05" stroke-width="1.01" d="M28 2h1m-2 1h1m5 0h1m1 0h1M24 7h1m-1 5h1m0 2h1m10 3h1m-5 1h1m-2 1h1m4 0h1"/><path stroke="#120c05" stroke-width="1.01" d="M29 2h1m2 0h3m-7 1h5m1 0h1m1 0h2M27 4h2m7 0h2M26 5h2m9 0h1M25 6h2m-2 1h1m-3 1h2m-2 1h2m-3 1h2m-2 1h2m-1 1h1m-1 1h3m-1 2h2m-1 1h1m10 0h1m-11 1h2m8 0h1m-10 1h4m1 0h1m1 0h2m-9 1h3m1 0h4"/><path stroke="#120d05" stroke-width="1.01" d="M30 2h1m4 0h2M25 8h1m-2 6h1m2 4h1"/><path stroke="#120c04" stroke-width="1.01" d="M31 2h1m-5 14h1m6 2h1"/><path stroke="rgba(19,12,5,0.807843137254902)" stroke-width="1.01" d="M26 4h1m-1 13h1"/><path stroke="#d3d3d3" stroke-width="1.01" d="M29 4h1m-4 4h1m-1 5h1m2 4h1"/><path stroke="#f1f2ec" stroke-width="1.01" d="M30 4h2m1 0h2m-6 1h6m1 0h1m-9 1h5m2 0h1m1 0h1M27 7h3m1 0h1m2 0h2m1 0h1M27 8h1m1 0h2m2 0h5M26 9h4m6 0h1m-12 1h1m1 0h3m5 0h3m-13 1h2m1 0h3m6 0h1m-12 1h5m6 0h1m-11 1h7m3 0h1m-11 1h1m1 0h1m1 0h2m4 0h1m-10 1h2m6 0h2m-9 1h1m5 0h1m-5 1h5"/><path stroke="#f0f2ec" stroke-width="1.01" d="M32 4h1m2 0h1m-1 1h1m1 4h1m-11 2h1m2 6h1"/><path stroke="rgba(19,13,4,0.4823529411764706)" stroke-width="1.01" d="M25 5h1"/><path stroke="#b4b4b4" stroke-width="1.01" d="M28 5h1m-1 11h1"/><path stroke="#707070" stroke-width="1.01" d="M27 6h1m6 0h1M25 9h1m9 0h1m0 2h1m-12 1h1m5 0h1m-5 3h1m2 1h1"/><path stroke="#3c3d3d" stroke-width="1.01" d="M33 6h1"/><path stroke="#f1f2ed" stroke-width="1.01" d="M36 6h1m-6 5h1m-4 3h1m1 0h1"/><path stroke="#3d3d3d" stroke-width="1.01" d="M26 7h1m6 0h1m-2 1h1m1 1h1m-11 1h1m9 0h1m-11 1h1m7 0h1m2 0h1m-4 1h1m3 0h1m-3 1h1m-9 1h1m6 0h1m-3 2h1"/><path stroke="#f0f2ed" stroke-width="1.01" d="M30 7h1"/><path stroke="#150e05" stroke-width="1.01" d="M32 7h1m-2 1h1m-2 1h4m-4 1h3m1 1h1m-2 1h2m0 1h1m-2 1h3m-7 1h6m-4 1h3"/><path stroke="#f1f3ec" stroke-width="1.01" d="M36 7h1m-9 1h1m-3 2h1m9 6h1"/><path stroke="#140e05" stroke-width="1.01" d="M33 10h1m1 2h1"/><path stroke="#150e04" stroke-width="1.01" d="M33 11h1m2 2h1"/><path stroke="rgba(19,12,4,0.4823529411764706)" stroke-width="1.01" d="M25 16h1"/><path stroke="#120d04" stroke-width="1.01" d="M37 18h1"/><path stroke="#826243" stroke-width="1.01" d="M31 20h1m-1 8h1"/><path stroke="#a17549" stroke-width="1.01" d="M31 21h1m-1 1h1m-1 2h1m-1 1h1m-1 1h1m-1 1h1"/><path stroke="#a17449" stroke-width="1.01" d="M31 23h1"/></svg>