<svg xmlns="http://www.w3.org/2000/svg" shape-rendering="crispEdges" viewBox="0 -0.5 38 38"><path stroke="#79fda7" stroke-width="1.01" d="M35 17h2m-4 1h2m-4 1h3m-4 1h1m1 0h1m3 0h2m-8 1h1m2 0h2m2 0h1m-9 1h2m1 0h1m2 0h1m-11 1h1m3 0h2m5 0h1m-12 1h1m3 0h2m5 0h2m-12 1h1m3 0h1m5 0h2m-11 1h3m2 0h2m2 0h2m-10 1h5m2 0h1m-5 1h2m2 0h3m-4 1h3m-3 1h1m-4 1h2"/><path stroke="#3bc396" stroke-width="1.01" d="M34 19h1m2 0h1m-10 3h1m4 0h2m2 0h1m-10 1h1m2 0h1m3 0h1m1 0h1m-7 1h1m3 0h1m-7 1h1m1 0h1m3 0h1m-3 2h2m-5 2h1"/><path stroke="#2da584" stroke-width="1.01" d="M35 19h2m-4 1h1m1 0h1m-2 3h1m-8 1h2m-1 1h1m4 3h2m-3 1h2"/><path stroke="#78fda7" stroke-width="1.01" d="M31 20h1"/><path stroke="#2ca584" stroke-width="1.01" d="M34 20h1"/><path stroke="#79fca7" stroke-width="1.01" d="M29 21h1m6 6h1"/><path stroke="#48df87" stroke-width="1.01" d="M31 21h2m3 0h1m-6 1h1m4 0h1m-3 4h2"/><path stroke="#79fda6" stroke-width="1.01" d="M35 21h1m-10 5h1m4 0h1m5 1h1m-8 1h1m2 2h1"/><path stroke="#26987b" stroke-width="1.01" d="M32 23h2m0 1h1"/><path stroke="#047861" stroke-width="1.01" d="M32 24h2m-2 1h1m1 0h1"/><path stroke="#004d4e" stroke-width="1.01" d="M33 25h1"/><path stroke="#49df87" stroke-width="1.01" d="M30 26h1"/><path stroke="#3bc296" stroke-width="1.01" d="M29 28h1m1 1h1"/></svg>