<svg xmlns="http://www.w3.org/2000/svg" shape-rendering="crispEdges" viewBox="0 -0.5 38 38"><path stroke="#bd5b03" stroke-width="1.01" d="M29 18h1"/><path stroke="#b04b00" stroke-width="1.01" d="M30 18h1m4 0h1"/><path stroke="#ffc96d" stroke-width="1.01" d="M31 18h2m1 0h1"/><path stroke="#fec96d" stroke-width="1.01" d="M33 18h1"/><path stroke="#bd5b02" stroke-width="1.01" d="M36 18h1"/><path stroke="#a24400" stroke-width="1.01" d="M28 19h1"/><path stroke="#a24500" stroke-width="1.01" d="M29 19h1"/><path stroke="#873900" stroke-width="1.01" d="M30 19h1m-1 1h1m4 0h2m-5 3h2"/><path stroke="#ffb83e" stroke-width="1.01" d="M31 19h1"/><path stroke="#ffb93f" stroke-width="1.01" d="M32 19h1"/><path stroke="#ffb83f" stroke-width="1.01" d="M33 19h2m-4 1h4"/><path stroke="#843800" stroke-width="1.01" d="M35 19h2m-8 1h1"/><path stroke="#843801" stroke-width="1.01" d="M28 20h1"/><path stroke="#6d2200" stroke-width="1.01" d="M29 21h2m4 0h1m-4 1h2"/><path stroke="#f0a424" stroke-width="1.01" d="M31 21h2"/><path stroke="#f0a728" stroke-width="1.01" d="M33 21h1"/><path stroke="#f0a629" stroke-width="1.01" d="M34 21h1"/><path stroke="#6d2300" stroke-width="1.01" d="M36 21h1"/><path stroke="#964407" stroke-width="1.01" d="M32 24h2"/><path stroke="#6a2100" stroke-width="1.01" d="M32 25h2m-2 3h2m-2 1h2"/><path stroke="#813802" stroke-width="1.01" d="M32 26h2m-1 1h1"/><path stroke="#813902" stroke-width="1.01" d="M32 27h1"/></svg>