<svg xmlns="http://www.w3.org/2000/svg" shape-rendering="crispEdges" viewBox="0 -0.5 38 38"><path stroke="#ff006b" stroke-width="1.01" d="M30 18h2m-3 2h1"/><path stroke="#1eba64" stroke-width="1.01" d="M36 18h1m-1 1h1m-2 2h1m-2 1h1"/><path stroke="#fe006b" stroke-width="1.01" d="M29 19h1"/><path stroke="#d00056" stroke-width="1.01" d="M30 19h1"/><path stroke="#7e2f0b" stroke-width="1.01" d="M31 20h1"/><path stroke="#1fba64" stroke-width="1.01" d="M35 20h1"/><path stroke="rgba(255,255,255,0.9333333333333333)" stroke-width="1.01" d="M31 21h1m-2 1h1m-1 1h1m-2 1h1m-1 2h1m-1 1h1m-1 1h1m1 2h1m0 2h1m-1 1h1m-3 1h1"/><path stroke="#fff6db" stroke-width="1.01" d="M32 21h2m-3 1h1m-2 4h1"/><path stroke="rgba(255,254,255,0.6431372549019608)" stroke-width="1.01" d="M34 21h1"/><path stroke="#bc874c" stroke-width="1.01" d="M32 22h2"/><path stroke="rgba(255,255,255,0.6431372549019608)" stroke-width="1.01" d="M35 22h1m0 2h1m-1 1h1m-1 1h1m-1 1h1m-1 1h1m-7 1h1m4 0h1m-4 1h3m-2 1h1m-1 1h1m-1 1h1m-2 1h4"/><path stroke="#fcefc7" stroke-width="1.01" d="M31 23h2m-3 1h3m1 0h1m-4 1h1m1 0h1m-3 1h1m1 0h1m-4 1h4m-4 1h1m0 1h1"/><path stroke="#c4e071" stroke-width="1.01" d="M33 23h1"/><path stroke="#ebd1b1" stroke-width="1.01" d="M34 23h1m0 2h1m-2 1h2m-1 1h1m-3 1h3m-4 1h3"/><path stroke="rgba(254,255,255,0.6431372549019608)" stroke-width="1.01" d="M35 23h1"/><path stroke="#c4e170" stroke-width="1.01" d="M33 24h1"/><path stroke="#ebd1b0" stroke-width="1.01" d="M35 24h1"/><path stroke="rgba(255,254,255,0.9333333333333333)" stroke-width="1.01" d="M29 25h1m2 6h1m-2 3h1"/><path stroke="#fff6da" stroke-width="1.01" d="M30 25h1"/><path stroke="#e6e9a4" stroke-width="1.01" d="M32 25h1m-1 1h1"/><path stroke="#fcefc6" stroke-width="1.01" d="M34 25h1"/><path stroke="#ebd0b1" stroke-width="1.01" d="M34 27h1"/><path stroke="#fceec7" stroke-width="1.01" d="M31 28h1"/><path stroke="#ead1b1" stroke-width="1.01" d="M32 28h1"/></svg>