<svg xmlns="http://www.w3.org/2000/svg" shape-rendering="crispEdges" viewBox="0 -0.5 38 38"><path stroke="#969696" stroke-width="1.01" d="M30 20h1m-4 2h1m1 10h1m-1 1h2m1 0h1m0 1h1"/><path stroke="#a6a6a6" stroke-width="1.01" d="M31 20h1m-5 3h1m-1 1h1"/><path stroke="#dfdfdf" stroke-width="1.01" d="M32 20h1m-2 1h1m1 0h1m-4 1h3m-5 2h1m-2 1h2"/><path stroke="#d7d7d7" stroke-width="1.01" d="M33 20h1m-5 3h1"/><path stroke="#979696" stroke-width="1.01" d="M29 21h1"/><path stroke="#c7c7c7" stroke-width="1.01" d="M30 21h1m-3 2h1"/><path stroke="#dededf" stroke-width="1.01" d="M32 21h1"/><path stroke="#bdbcbc" stroke-width="1.01" d="M34 21h1"/><path stroke="#a6a7a6" stroke-width="1.01" d="M28 22h1"/><path stroke="#c5c5c5" stroke-width="1.01" d="M29 22h1"/><path stroke="#dbdbdb" stroke-width="1.01" d="M33 22h1m-3 2h1m-5 2h2m-1 1h1"/><path stroke="#c2c2c3" stroke-width="1.01" d="M34 22h1m0 1h2"/><path stroke="#c2c2c2" stroke-width="1.01" d="M35 22h1m-3 1h2m-1 1h2m-5 1h1m2 0h1m-4 1h1m-1 1h1m-4 1h1m-1 1h1m0 1h1"/><path stroke="#b8b8b8" stroke-width="1.01" d="M36 22h1m-5 2h1m-1 1h1m-1 1h1m-1 1h1m-2 1h1m-4 2h1m-1 1h1"/><path stroke="#809cb3" stroke-width="1.01" d="M30 23h2"/><path stroke="#829bb0" stroke-width="1.01" d="M32 23h1m-3 1h1m-1 1h1"/><path stroke="#c6c6c6" stroke-width="1.01" d="M29 24h1"/><path stroke="#4d6a85" stroke-width="1.01" d="M33 24h1"/><path stroke="#a0a0a0" stroke-width="1.01" d="M36 24h1m-2 1h2m-3 1h3m-3 1h2m-2 1h1m-2 1h3m-6 1h5m-6 1h5m-4 1h1m2 3h1"/><path stroke="#c4c4c4" stroke-width="1.01" d="M29 25h1m-1 1h1"/><path stroke="#4d6a84" stroke-width="1.01" d="M33 25h1m-1 1h1"/><path stroke="#446179" stroke-width="1.01" d="M30 26h1"/><path stroke="#d4d4d5" stroke-width="1.01" d="M27 27h1"/><path stroke="#a1a1a1" stroke-width="1.01" d="M29 27h1m-1 1h1m-3 1h1m1 0h1"/><path stroke="#446079" stroke-width="1.01" d="M30 27h1m-1 1h1"/><path stroke="#022b50" stroke-width="1.01" d="M33 27h1m-1 1h1"/><path stroke="#a1a0a0" stroke-width="1.01" d="M36 27h1"/><path stroke="#d4d4d4" stroke-width="1.01" d="M27 28h1"/><path stroke="#919191" stroke-width="1.01" d="M32 28h1m3 0h1m-2 2h1m-2 1h2m-3 1h2m-5 2h3m-2 1h2"/><path stroke="#a0a0a1" stroke-width="1.01" d="M35 28h1m-4 4h1"/><path stroke="#456079" stroke-width="1.01" d="M30 29h1"/><path stroke="#021c40" stroke-width="1.01" d="M31 29h2"/><path stroke="#727272" stroke-width="1.01" d="M36 29h1m-2 3h1m-5 4h2"/><path stroke="#a5a5a5" stroke-width="1.01" d="M28 32h1"/><path stroke="#a0a1a0" stroke-width="1.01" d="M31 32h1"/><path stroke="#929292" stroke-width="1.01" d="M31 33h1m1 0h1"/><path stroke="#969796" stroke-width="1.01" d="M34 33h1"/><path stroke="#777676" stroke-width="1.01" d="M29 34h1"/><path stroke="#767676" stroke-width="1.01" d="M34 34h1"/><path stroke="#919091" stroke-width="1.01" d="M30 35h1"/></svg>