<svg xmlns="http://www.w3.org/2000/svg" shape-rendering="crispEdges" viewBox="0 -0.5 38 38"><path stroke="#fca4b0" stroke-width="1.01" d="M34 16h1m-2 1h1m-1 1h1m-2 1h2m-1 1h1m-2 1h1m-2 1h2m-2 1h2m-2 1h1m-1 1h1m-2 1h1m-1 1h2m-2 1h1m-2 1h2m-2 1h2m-2 1h1m-1 1h1m-2 1h2m-2 1h2m-2 1h1m-1 1h1m-1 1h1"/><path stroke="#ef8393" stroke-width="1.01" d="M35 16h2m-3 1h1m1 0h1m-3 1h2m-2 1h1m-1 1h1m-2 1h1m-1 1h1m-2 3h1m-2 3h1m-2 3h1m-1 1h1m-2 3h1m-1 1h1m-1 1h1"/><path stroke="#a84660" stroke-width="1.01" d="M35 17h1"/><path stroke="#e0658a" stroke-width="1.01" d="M36 18h1m-2 1h1m-1 1h1m-2 1h1m-1 1h1m-2 1h1m-1 1h1m-1 1h1m-2 1h1m-1 1h1m-2 2h1m-1 2h1m-1 1h1m-2 1h1m-1 1h1m-1 1h1m-1 1h1m-1 1h1"/><path stroke="#fca4b1" stroke-width="1.01" d="M32 20h1m-2 6h1"/><path stroke="#ee8393" stroke-width="1.01" d="M32 24h1"/><path stroke="#e0658b" stroke-width="1.01" d="M32 28h1m-2 2h1"/></svg>