<svg xmlns="http://www.w3.org/2000/svg" shape-rendering="crispEdges" viewBox="0 -0.5 38 38"><path stroke="#0899fe" stroke-width="1.01" d="M34 16h1m-2 1h1m-1 1h1m-2 1h2m-2 1h2m-2 1h1m-2 1h2m-1 1h1m-2 1h1m-1 1h1m-2 1h2m-2 1h2m-2 1h1m-2 1h1m-1 1h2m-2 1h1m-1 1h1m-2 1h1m-1 1h2m-2 1h1m-1 1h1m-1 1h1"/><path stroke="#007bfe" stroke-width="1.01" d="M35 16h1m-2 1h1m1 0h1m-3 1h2m-2 1h1m-2 2h1m-1 1h1m-2 2h1m-1 1h1m-2 3h1m-2 3h1m-1 1h1m-2 3h1m-1 1h1m-1 1h1"/><path stroke="#017bfe" stroke-width="1.01" d="M36 16h1"/><path stroke="#0838cd" stroke-width="1.01" d="M35 17h1"/><path stroke="#0068fe" stroke-width="1.01" d="M36 18h1m-2 1h1m-1 1h1m-3 3h1m-1 2h1m-2 1h1m-1 1h1m-1 1h1m-2 1h1m-1 1h1m-1 1h1m-1 1h1m-2 2h1m-1 2h1m-1 1h1"/><path stroke="#007bff" stroke-width="1.01" d="M34 20h1"/><path stroke="#0168fe" stroke-width="1.01" d="M34 21h1m-5 12h1"/><path stroke="#0069fe" stroke-width="1.01" d="M34 22h1"/><path stroke="#0999fe" stroke-width="1.01" d="M31 23h1m-2 6h1"/><path stroke="#0068ff" stroke-width="1.01" d="M33 24h1m-4 11h1"/><path stroke="#0899ff" stroke-width="1.01" d="M29 33h1"/></svg>