<svg xmlns="http://www.w3.org/2000/svg" shape-rendering="crispEdges" viewBox="0 -0.5 38 38"><path stroke="#fef41c" stroke-width="1.01" d="M33 14h1m-4 3h1m0 3h1"/><path stroke="#fff41c" stroke-width="1.01" d="M32 15h3m-3 1h2m-3 1h1m1 0h1m1 0h2m-7 1h3m1 0h3m-4 1h1m-2 1h1m-3 1h1m3 0h1"/><path stroke="#fed13b" stroke-width="1.01" d="M34 16h1"/><path stroke="#ffd13b" stroke-width="1.01" d="M32 17h1m0 1h1m3 0h1m-8 1h3m1 0h1m1 0h1m-4 1h1m1 0h1m-4 1h1m2 0h2m-6 1h1m3 0h2"/><path stroke="#ffd13a" stroke-width="1.01" d="M34 17h1m0 2h1"/><path stroke="#fff41d" stroke-width="1.01" d="M29 18h1"/><path stroke="#fff51c" stroke-width="1.01" d="M34 20h1m-4 1h1m-2 1h1"/><path stroke="#c634a5" stroke-width="1.01" d="M33 21h1m-1 6h1"/><path stroke="#ff58d8" stroke-width="1.01" d="M33 22h1m-1 1h1m-1 1h1m-1 1h1"/><path stroke="#ff58d9" stroke-width="1.01" d="M33 26h1"/></svg>