<svg xmlns="http://www.w3.org/2000/svg" shape-rendering="crispEdges" viewBox="0 -0.5 38 38"><path stroke="#010000" stroke-width="1.01" d="M28 24h1"/><path stroke="#000" stroke-width="1.01" d="M29 24h1m-3 1h1m2 1h1m-1 1h1m-1 1h1m-1 1h1"/><path stroke="#000100" stroke-width="1.01" d="M30 25h1"/><path stroke="#ff9da6" stroke-width="1.01" d="M29 29h1m-2 1h1"/><path stroke="#e66185" stroke-width="1.01" d="M31 29h1m-1 2h2m-2 1h2m-2 1h2m-1 1h1m-2 1h1m-2 1h2m-2 1h2"/><path stroke="#ef8393" stroke-width="1.01" d="M29 30h2m1 0h1m-5 1h3m-3 1h2m-1 1h2m-3 1h2m-1 1h2m-2 1h1m-1 1h1"/><path stroke="#ef8293" stroke-width="1.01" d="M31 30h1"/><path stroke="#ee8393" stroke-width="1.01" d="M30 32h1m-1 2h1"/><path stroke="#ef8392" stroke-width="1.01" d="M28 33h1m-1 2h1"/><path stroke="#e66184" stroke-width="1.01" d="M31 34h1"/><path stroke="#e76185" stroke-width="1.01" d="M32 35h1"/></svg>