<svg xmlns="http://www.w3.org/2000/svg" shape-rendering="crispEdges" viewBox="0 -0.5 38 38"><path stroke="#f8f34e" stroke-width="1.01" d="M34 16h1m-2 1h1m-1 1h1m-2 1h2m-1 1h1m-2 1h1m-2 1h2m-2 1h2m-2 1h1m-1 1h1m-2 1h1m-1 1h2m-2 1h1m-2 1h2m-2 1h2m-2 1h1m-2 2h2m-2 1h2m-2 1h1m-1 2h1"/><path stroke="#ffe700" stroke-width="1.01" d="M35 16h2m-3 1h1m1 0h1m-3 1h2m-2 1h1m-2 2h1m-2 3h1m-1 1h1m-2 3h1m-2 3h1m-1 1h1m-2 3h1m-1 1h1m-1 1h1"/><path stroke="#a47a00" stroke-width="1.01" d="M35 17h1"/><path stroke="#f0c012" stroke-width="1.01" d="M36 18h1m-2 2h1m-2 1h1m-1 1h1m-2 1h1m-1 1h1m-1 1h1m-2 1h1m-1 2h1m-2 1h1m-1 1h1m-1 1h1m-2 2h1m-1 1h1m-1 1h1m-1 1h1m-1 1h1"/><path stroke="#f0c013" stroke-width="1.01" d="M35 19h1m-4 8h1m-2 5h1"/><path stroke="#f9f34e" stroke-width="1.01" d="M32 20h1m-2 6h1m-3 6h1"/><path stroke="#fee700" stroke-width="1.01" d="M34 20h1m-2 2h1"/><path stroke="#f8f24e" stroke-width="1.01" d="M28 36h1"/></svg>