<svg xmlns="http://www.w3.org/2000/svg" shape-rendering="crispEdges" viewBox="0 -0.5 38 38"><path stroke="#000" stroke-width="1.01" d="M28 24h1m-2 1h1m2 0h1m-1 1h1m-1 3h1"/><path stroke="#010000" stroke-width="1.01" d="M29 24h1m0 3h1"/><path stroke="#000001" stroke-width="1.01" d="M30 28h1"/><path stroke="#6bf43d" stroke-width="1.01" d="M29 29h1"/><path stroke="#1eba64" stroke-width="1.01" d="M31 29h1m-1 2h2m-2 1h2m-2 1h2m-2 1h1m-1 1h2m-3 1h2m-2 1h2"/><path stroke="#6bf53d" stroke-width="1.01" d="M28 30h1"/><path stroke="#28d940" stroke-width="1.01" d="M29 30h2m1 0h1m-5 1h1m1 0h1m-3 1h3m-3 1h2m-2 1h3m-3 1h1m1 0h1m-2 1h1"/><path stroke="#28d840" stroke-width="1.01" d="M31 30h1m-2 3h1m-2 4h1"/><path stroke="#29d940" stroke-width="1.01" d="M29 31h1"/><path stroke="#1ebb64" stroke-width="1.01" d="M32 34h1"/><path stroke="#28d941" stroke-width="1.01" d="M29 35h1"/></svg>