<svg xmlns="http://www.w3.org/2000/svg" shape-rendering="crispEdges" viewBox="0 -0.5 38 38"><path stroke="#83ff58" stroke-width="1.01" d="M34 16h1m-5 12h1m-2 6h1"/><path stroke="#5ee439" stroke-width="1.01" d="M35 16h1m-2 1h1m1 0h1m-3 1h2m-2 1h1m-2 2h1m-1 1h1m-4 9h1m-2 4h1m-1 1h1m-1 1h1"/><path stroke="#5ee438" stroke-width="1.01" d="M36 16h1m-3 4h1m-4 8h1m-2 4h1"/><path stroke="#83ff59" stroke-width="1.01" d="M33 17h1m-1 1h1m-1 1h1m-2 1h2m-3 2h2m-1 1h1m-2 1h1m-1 1h1m-2 1h2m-2 1h2m-3 2h2m-2 1h2m-2 1h1m-2 2h2m-2 1h1m-1 1h1m-1 1h1m-1 1h1"/><path stroke="#178463" stroke-width="1.01" d="M35 17h1"/><path stroke="#1eba64" stroke-width="1.01" d="M36 18h1m-2 1h1m-1 1h1m-2 1h1m-1 1h1m-2 1h1m-1 1h1m-1 1h1m-2 1h1m-1 1h1m-1 1h1m-2 1h1m-1 1h1m-1 2h1m-2 1h1m-1 1h1m-1 1h1m-1 1h1m-1 1h1"/><path stroke="#82ff59" stroke-width="1.01" d="M32 19h1m-4 13h1"/><path stroke="#83fe59" stroke-width="1.01" d="M32 21h1"/><path stroke="#82ff58" stroke-width="1.01" d="M31 23h1"/><path stroke="#5fe439" stroke-width="1.01" d="M32 24h1"/><path stroke="#5fe539" stroke-width="1.01" d="M32 25h1"/><path stroke="#1eba65" stroke-width="1.01" d="M31 31h1"/></svg>