<svg xmlns="http://www.w3.org/2000/svg" shape-rendering="crispEdges" viewBox="0 -0.5 38 38"><path stroke="#5f361e" stroke-width="1.01" d="M34 24h2m-4 2h1m3 0h1m-6 1h1m4 0h2m-8 1h1m4 0h3m-9 1h1m5 0h3m-1 1h1m-11 1h1m8 0h2m-12 1h1m5 0h2m-8 1h1m5 0h1m-6 1h5m1 0h2m-6 1h6m-4 1h1m5 0h1m-7 1h1m4 0h2"/><path stroke="#512f1a" stroke-width="1.01" d="M36 24h1m0 2h1m-10 9h1m0 1h1"/><path stroke="#241519" stroke-width="1.01" d="M30 25h3m-4 1h1m-2 1h1m-1 1h1m-1 1h1"/><path stroke="#fdb944" stroke-width="1.01" d="M33 25h1m-6 5h1"/><path stroke="#bf7514" stroke-width="1.01" d="M34 25h1m-7 6h1"/><path stroke="#875436" stroke-width="1.01" d="M35 25h1m-3 1h2m-3 1h2m-3 1h2m-3 1h2m-2 1h1m-2 1h1m-3 1h2m-2 1h1"/><path stroke="#5f371e" stroke-width="1.01" d="M36 25h1m-7 8h1"/><path stroke="#43251f" stroke-width="1.01" d="M37 25h1m-12 9h1m0 1h1"/><path stroke="rgba(0,0,0,0.4196078431372549)" stroke-width="1.01" d="M30 26h1m-2 1h1"/><path stroke="#6b3e23" stroke-width="1.01" d="M35 26h1m-7 6h1"/><path stroke="#6b3e22" stroke-width="1.01" d="M34 27h1m-2 1h1m-2 1h1m-2 1h1m-2 1h2m-2 1h1m-3 1h2"/><path stroke="#41251a" stroke-width="1.01" d="M35 27h1m-2 2h1m1 1h1m-2 4h1m-4 3h1"/><path stroke="#331e17" stroke-width="1.01" d="M34 28h1m-2 1h1m-2 1h1m1 0h2m-4 1h3m-1 1h1m-1 1h3m-1 1h2m-3 1h1m1 0h1m-6 1h5m-3 1h2"/><path stroke="#875536" stroke-width="1.01" d="M29 30h1"/><path stroke="#331e16" stroke-width="1.01" d="M33 30h1m1 2h1m0 3h1"/><path stroke="#331f17" stroke-width="1.01" d="M35 31h1"/><path stroke="#5f361f" stroke-width="1.01" d="M31 32h1m0 2h1"/><path stroke="#38201b" stroke-width="1.01" d="M36 32h1m0 1h1m-5 4h1"/><path stroke="#40251a" stroke-width="1.01" d="M37 32h1m-5 1h1"/><path stroke="#5e361e" stroke-width="1.01" d="M31 33h1"/><path stroke="#341d19" stroke-width="1.01" d="M28 36h1"/><path stroke="#5e371e" stroke-width="1.01" d="M30 36h1"/><path stroke="#26161a" stroke-width="1.01" d="M29 37h1"/><path stroke="#43241f" stroke-width="1.01" d="M30 37h1"/></svg>