<?xml version="1.0" encoding="UTF-8"?>
<svg width="22" height="19.01" shape-rendering="crispEdges" version="1.1" viewBox="0 -.5 22 19.01" xmlns="http://www.w3.org/2000/svg">
 <g stroke-width="1.01">
  <path d="m2 5e-3h1m0 1h1m0 1h3m1 0h1m2 0h2m1 0h3m-16 1h1m4 0h15m-19 1h4m1 0h4m2 0h5m2 0h1m-21 1h1m4 0h1m1 0h5m1 0h2m1 0h3m1 0h1m-20 1h8m4 0h1m1 0h1m-13 1h6m5 0h2m4 0h1m-14 1h2m4 0h3m4 0h1m-14 1h2m4 0h3m4 0h1m-14 1h1m5 0h3m-9 1h1m5 0h1m1 0h1m4 0h1m-14 1h2m1 0h1m1 0h5m1 0h3m-14 1h1m1 0h1m9 0h2m-14 1h5m8 0h1m-12 1h1m1 0h1m8 0h1m-13 1h1m1 0h2m1 0h2m5 0h1" stroke="#7124ee"/>
  <path d="m3 2.005h1m1 1h1m-2 2h1m-3 2h1m3 1h1m0 7h1m4 0h1m-6 2h11m1 0h1" stroke="#641ecc"/>
  <path d="m7 2.005h1m3 2h1" stroke="#7024ef"/>
  <path d="m9 2.005h1m9 3h1m-7 2h1m-6 3h1m11 0h1m-13 1h1m1 2h1m-3 2h1m1 0h1" stroke="#7125ee"/>
  <path d="m10 2.005h1m-5 2h1m5 0h1m6 0h1m-8 1h1m2 0h1m4 1h1m-12 6h1m7 0h1m-10 1h1m3 3h1" stroke="#7124ef"/>
  <path d="m13 2.005h1m3 0h1m-12 3h1m7 1h1m-1 5h1m-4 1h1m-1 1h1m7 1h1m-11 2h1" stroke="#7024ee"/>
  <path d="m4 3.005h1m-2 2h1m17 1h1m-1 1h1m-18 1h2m15 0h1m-16 1h1m-1 1h1m-1 1h1m14 0h1m-16 2h1m14 0h1m-16 1h1m14 0h1m-12 4h2m1 0h1m2 0h3" stroke="#5519ae"/>
  <path d="m18 4.005h1" stroke="#7125ef"/>
  <path d="m9 6.005h2m5 0h2" stroke="#effff6"/>
  <path d="m11 6.005h2m5 0h2m-8 1h1m6 0h1" stroke="#c9ffe2"/>
  <path d="m9 7.005h2m5 0h1" stroke="#51fa92"/>
  <path d="m11 7.005h1m6 0h1m-8 1h1m6 0h1m-8 1h1m6 0h1" stroke="#0bf168"/>
  <path d="m17 7.005h1" stroke="#50fa92"/>
  <path d="m3 8.005h1m17 2h1m-1 2h1m-13 6h1m2 0h1" stroke="#5519af"/>
  <path d="m9 8.005h1" stroke="#7afac7"/>
  <path d="m10 8.005h1m6 0h1" stroke="#0a5a27"/>
  <path d="m12 8.005h1m6 0h1m-1 1h1" stroke="#aaffd1"/>
  <path d="m16 8.005h1m-8 1h1m6 0h1m-8 1h2m1 0h1m3 0h1m1 0h2" stroke="#7afbc7"/>
  <path d="m10 9.005h1m6 0h1" stroke="#0e9445"/>
  <path d="m12 9.005h1" stroke="#aaffd0"/>
  <path d="m21 9.005h1m-8 9h1" stroke="#5419ae"/>
  <path d="m11 10.005h1m5 0h1" stroke="#7afbc6"/>
  <path d="m9 11.005h2m1 0h1m3 0h2m1 0h1" stroke="#315074"/>
  <path d="m11 11.005h1m6 0h1" stroke="#315075"/>
  <path d="m6 12.005h1m8 6h1" stroke="#5518ae"/>
  <path d="m12 13.005h5m-4 1h2m3 0h1m-4 1h2m1 0h2m-3 1h3" stroke="#ff7f08"/>
  <path d="m17 13.005h2" stroke="#ff9112"/>
  <path d="m12 14.005h1m0 1h2m0 1h2" stroke="#f26d00"/>
  <path d="m15 14.005h1" stroke="#a7431c"/>
  <path d="m16 14.005h1" stroke="#ff7e08"/>
  <path d="m17 14.005h1" stroke="#a7421c"/>
  <path d="m17 15.005h1" stroke="#fe7f08"/>
  <path d="m7 16.005h1m12 1h1" stroke="#651ecc"/>
  <path d="m18 17.005h1" stroke="#641fcc"/>
 </g>
</svg>
