<?xml version="1.0" encoding="UTF-8"?>
<svg width="22" height="19.01" shape-rendering="crispEdges" version="1.1" viewBox="0 -.5 22 19.01" xmlns="http://www.w3.org/2000/svg">
 <g stroke-width="1.01">
  <path d="m2 5e-3h1m1 2h4m1 0h1m1 0h7m-17 1h1m4 0h3m1 0h6m1 0h3m-18 1h4m1 0h10m1 0h3m-15 1h10m1 0h1m1 0h2m-20 1h2m4 3h1m-1 1h1m6 0h1m6 0h1m-15 1h2m4 0h3m4 0h1m-13 1h6m1 0h4m1 0h1m-14 1h5m7 0h2m-14 1h5m7 0h2m-13 1h2m1 0h1m8 0h1m-13 1h3m1 0h1m1 0h1m5 0h1" stroke="#7124ee"/>
  <path d="m3 1.005h1m12 2h1m0 1h1m-18 1h1" stroke="#7024ee"/>
  <path d="m3 2.005h1m1 1h1m-4 4h4m6 8h1m-6 1h1m-1 1h11m1 0h2" stroke="#641ecc"/>
  <path d="m8 2.005h1m11 1h1m-2 9h1m-9 4h1" stroke="#7125ee"/>
  <path d="m10 2.005h1m-2 1h1m-4 1h1m9 1h1m1 0h1m-12 7h1m6 0h1m-5 3h1m2 1h1" stroke="#7124ef"/>
  <path d="m4 3.005h1m-2 5h3m0 1h1m-1 1h1m-1 1h1m14 0h1m-16 1h1m14 0h1m-16 1h1m14 0h1m-16 1h1m14 0h1m-12 4h7m1 0h1" stroke="#5519ae"/>
  <path d="m3 5.005h1m-1 1h8m3 0h3m3 0h2m-16 1h1m1 0h2m2 0h5m2 0h3m-11 1h3m1 0h1m2 0h3m-12 1h3m1 0h1m3 0h1m2 0h1m-12 1h2m1 0h1m3 0h4" stroke="#95ffc0"/>
  <path d="m4 5.005h2m6 4h1m3 0h1m2 0h1" stroke="#95fec0"/>
  <path d="m11 6.005h2m5 0h2m-10 1h2m5 0h2m-10 1h2m5 0h2m-10 1h1" stroke="#aaffd1"/>
  <path d="m13 6.005h1m-7 1h1m0 1h1m2 2h1" stroke="#95ffc1"/>
  <path d="m17 6.005h1" stroke="#94fec0"/>
  <path d="m6 8.005h2m6 0h1m6 0h1m-8 1h1m6 0h1m-14 1h1m4 0h1m1 0h1m4 0h1m-12 1h4m3 0h4" stroke="#315074"/>
  <path d="m15 9.005h1" stroke="#aaffd0"/>
  <path d="m18 9.005h1" stroke="#94ffc0"/>
  <path d="m12 13.005h5m-4 1h1m2 0h1m1 0h1m-4 1h5m-3 1h3" stroke="#ff7f08"/>
  <path d="m17 13.005h1" stroke="#ff9113"/>
  <path d="m18 13.005h1" stroke="#ff9112"/>
  <path d="m12 14.005h1m0 1h2" stroke="#f26d00"/>
  <path d="m14 14.005h1" stroke="#ff7f09"/>
  <path d="m15 14.005h1m1 0h1" stroke="#a7431c"/>
  <path d="m7 15.005h1" stroke="#651ecc"/>
  <path d="m15 16.005h1" stroke="#f26d01"/>
  <path d="m16 16.005h1" stroke="#f36d00"/>
  <path d="m18 17.005h1" stroke="#641fcc"/>
  <path d="m9 18.005h1m7 0h1" stroke="#5519af"/>
 </g>
</svg>
