<?xml version="1.0" encoding="UTF-8"?>
<svg width="22" height="19.01" shape-rendering="crispEdges" version="1.1" viewBox="0 -.5 22 19.01" xmlns="http://www.w3.org/2000/svg">
 <g stroke-width="1.01">
  <path d="m2 5e-3h1m0 1h1m0 1h5m1 0h8m-17 1h1m5 0h3m1 0h10m-19 1h19m-16 1h1m1 0h12m-18 1h8m5 0h2m4 0h1m-18 1h6m5 0h2m4 0h1m-14 1h2m4 0h2m5 0h1m-13 1h1m4 0h3m-9 1h1m6 0h2m4 0h1m-14 1h2m4 0h3m4 0h1m-14 1h5m1 0h2m1 0h3m1 0h1m-14 1h5m7 0h1m-12 1h1m1 0h2m7 0h2m-13 1h3m9 0h1m-13 1h7m5 0h1" stroke="#7124ee"/>
  <path d="m3 2.005h1m1 1h1m-4 4h1m3 1h1m2 3h3m4 0h4m-13 4h1m4 0h1m-6 1h1m0 1h2m1 0h5m1 0h4" stroke="#6514dd"/>
  <path d="m9 2.005h1m0 1h1m8 2h1m-7 2h1m1 1h1m-4 4h1m-4 2h1" stroke="#7024ee"/>
  <path d="m4 3.005h1m-2 2h1m17 1h1m-1 1h1m-19 1h1m1 0h1m15 0h1m-16 1h1m14 0h1m-16 1h1m14 0h1m-1 1h1m-16 1h1m14 0h1m-16 1h1m14 0h1m-16 1h1m14 0h1m-13 4h8m1 0h1" stroke="#5519ae"/>
  <path d="m6 3.005h1m-1 2h1m6 5h1m5 2h1m0 1h1" stroke="#7124ef"/>
  <path d="m0 5.005h1m12 1h1m-7 3h1m12 0h1m-13 1h1m6 2h1m-9 2h1m3 1h1" stroke="#7125ee"/>
  <path d="m4 5.005h1m5 12h1" stroke="#6514dc"/>
  <path d="m20 5.005h1" stroke="#7125ef"/>
  <path d="m9 6.005h2m5 0h2" stroke="#c4e5f8"/>
  <path d="m11 6.005h1" stroke="#000048"/>
  <path d="m12 6.005h1m5 0h2m-9 1h2m5 0h2m-11 1h4m3 0h4m-11 1h4m3 0h4m-11 1h4m3 0h3" stroke="#000049"/>
  <path d="m9 7.005h2m6 0h1" stroke="#def0fb"/>
  <path d="m16 7.005h1" stroke="#dff1fb"/>
  <path d="m4 8.005h1m12 10h1" stroke="#5519af"/>
  <path d="m19 10.005h1" stroke="#010049"/>
  <path d="m6 11.005h1" stroke="#5418ae"/>
  <path d="m12 11.005h1m3 6h1" stroke="#6515dd"/>
  <path d="m12 13.005h2m1 0h2m-3 1h1m3 0h1m-4 1h5m-2 1h2" stroke="#ff7f08"/>
  <path d="m14 13.005h1" stroke="#ff7f09"/>
  <path d="m17 13.005h2" stroke="#ff9112"/>
  <path d="m12 14.005h1m0 1h2m1 1h1" stroke="#f26d00"/>
  <path d="m13 14.005h1m2 0h1" stroke="#fe7f08"/>
  <path d="m15 14.005h1m1 0h1" stroke="#a7431c"/>
  <path d="m15 16.005h1" stroke="#f26c00"/>
  <path d="m17 16.005h1" stroke="#ff7e08"/>
  <path d="m7 17.005h1" stroke="#6414dd"/>
 </g>
</svg>
