<?xml version="1.0" encoding="UTF-8"?>
<svg width="22" height="19.01" shape-rendering="crispEdges" version="1.1" viewBox="0 -.5 22 19.01" xmlns="http://www.w3.org/2000/svg">
 <g stroke-width="1.01">
  <path d="m2 5e-3h1m0 1h1m0 1h8m3 0h3m-17 1h1m4 0h5m1 0h7m1 0h1m-19 1h5m1 0h3m1 0h3m1 0h1m1 0h3m-21 1h1m4 0h1m1 0h1m1 0h8m1 0h3m-20 1h4m1 0h9m1 0h2m1 0h2m-18 1h3m1 0h1m5 0h3m4 0h1m-14 1h2m4 0h3m-9 1h2m4 0h3m4 0h1m-14 1h3m2 0h4m3 0h2m-14 1h9m2 0h3m-14 1h5m1 0h5m1 0h1m-13 1h5m7 0h2m-14 1h3m1 0h1m-3 1h1m10 0h1m-12 1h5m6 0h1" stroke="#7124ee"/>
  <path d="m3 2.005h1m1 1h1m-2 2h1m-3 2h1m6 0h4m3 0h4m-14 1h1m4 0h1m5 0h1m-9 1h1m9 0h1m-10 1h2m5 0h2m-12 5h1m4 0h1m-6 1h1m-1 1h2m2 0h10" stroke="#6514dd"/>
  <path d="m12 2.005h1m-6 2h1m3 0h1m-4 1h1m8 0h1m2 9h1m-13 2h1m5 0h1" stroke="#7124ef"/>
  <path d="m13 2.005h2m-4 1h1m5 1h1m-13 2h1m9 0h1m2 0h1m-13 1h1m13 1h1m-5 2h1m-1 1h1m-5 1h1m7 0h1m-13 3h1" stroke="#7024ee"/>
  <path d="m4 3.005h1m-2 2h1m17 1h1m-1 1h1m-19 1h3m15 0h1m-16 1h1m14 0h1m-16 1h1m14 0h1m-16 1h1m14 0h1m-1 1h1m-16 1h1m-1 1h1m14 0h1m-13 4h10" stroke="#5519ae"/>
  <path d="m19 3.005h1m-5 1h1m-10 1h1m1 2h1m1 7h1m8 0h1m-10 1h2" stroke="#7125ee"/>
  <path d="m9 8.005h1" stroke="#010049"/>
  <path d="m10 8.005h1m-2 9h1" stroke="#6514dc"/>
  <path d="m12 8.005h1m3 0h1m2 0h1m-10 1h2m5 0h2" stroke="#000049"/>
  <path d="m18 8.005h1m-3 1h1m-7 8h1" stroke="#6414dd"/>
  <path d="m12 9.005h1" stroke="#6515dd"/>
  <path d="m17 11.005h1" stroke="#7025ee"/>
  <path d="m6 12.005h1" stroke="#5519af"/>
  <path d="m18 12.005h1" stroke="#7125ef"/>
  <path d="m12 13.005h5m-4 1h2m1 0h1m1 0h1m-4 1h5m-1 1h1" stroke="#ff7f08"/>
  <path d="m17 13.005h1" stroke="#ff9112"/>
  <path d="m18 13.005h1" stroke="#ff9012"/>
  <path d="m21 13.005h1" stroke="#5518ae"/>
  <path d="m12 14.005h1m1 1h1m0 1h2" stroke="#f26d00"/>
  <path d="m15 14.005h1" stroke="#a7431c"/>
  <path d="m17 14.005h1" stroke="#a7421c"/>
  <path d="m13 15.005h1" stroke="#f26c00"/>
  <path d="m17 16.005h1" stroke="#ff7e08"/>
  <path d="m18 16.005h1" stroke="#fe7f08"/>
 </g>
</svg>
