<?xml version="1.0" encoding="UTF-8"?>
<svg width="22" height="19.01" shape-rendering="crispEdges" version="1.1" viewBox="0 -.5 22 19.01" xmlns="http://www.w3.org/2000/svg">
 <g stroke-width="1.01">
  <path d="m2 5e-3h1m0 1h1m0 1h2m3 0h6m1 0h2m-17 1h1m5 0h8m2 0h1m2 0h1m-19 1h3m2 0h4m1 0h9m-21 1h1m4 0h1m1 0h14m-20 1h7m5 0h2m5 0h1m-18 1h3m1 0h1m-1 2h1m5 0h2m-8 1h1m5 0h2m-8 1h1m5 0h2m-8 1h12m-12 1h5m7 0h1m-13 1h5m7 0h2m-12 1h3m8 0h1m-13 1h2m1 0h4m5 0h1" stroke="#7124ee"/>
  <path d="m3 2.005h1m1 1h1m-2 2h1m-3 2h1m4 8h1m4 0h1m-6 1h1m-1 1h2m1 0h10" stroke="#641ecc"/>
  <path d="m6 2.005h1m9 1h1m-12 1h1m0 3h1m12 5h1m-12 3h1" stroke="#7125ee"/>
  <path d="m7 2.005h1m7 0h1m-10 1h1m11 0h2m-14 1h1m-1 1h1m13 7h1m-1 1h1" stroke="#7024ee"/>
  <path d="m8 2.005h1m6 1h1m-5 1h1m-2 12h1" stroke="#7124ef"/>
  <path d="m4 3.005h1m-2 2h1m17 1h1m-1 1h1m-19 1h3m15 0h1m-1 1h1m-16 3h1m-1 1h1m14 0h1m-13 5h10" stroke="#5519ae"/>
  <path d="m8 6.005h1m-1 4h1m0 1h1" stroke="#feffff"/>
  <path d="m9 6.005h4m2 0h5m-8 1h1m2 0h1m-8 1h1m3 0h1m6 0h1m-12 1h1m3 0h1m2 0h5m-5 1h1m-8 1h1m1 0h3m2 0h1" stroke="#fff"/>
  <path d="m8 7.005h1m10 0h1m-5 1h1" stroke="#fffeff"/>
  <path d="m9 7.005h2m5 0h2m-11 1h1m1 0h1m3 0h2m1 0h1m-11 1h1m4 0h1m-6 1h1m2 0h2m6 0h1m1 0h1m-3 1h3" stroke="#f6001b"/>
  <path d="m11 7.005h1m2 0h1m3 0h1m-9 1h2m5 0h2m-10 1h2m5 1h1m-1 1h1" stroke="#ff0c27"/>
  <path d="m13 7.005h1" stroke="#fe0c27"/>
  <path d="m20 7.005h1m-1 1h1m-1 1h1m-1 1h1m-1 1h1" stroke="#622adf"/>
  <path d="m6 8.005h1" stroke="#f6001a"/>
  <path d="m11 10.005h1" stroke="#f7011b"/>
  <path d="m12 10.005h1" stroke="#fffffe"/>
  <path d="m18 10.005h1" stroke="#f7001b"/>
  <path d="m21 10.005h1m-16 1h1m14 0h1m-16 3h1" stroke="#5419ae"/>
  <path d="m21 12.005h1" stroke="#5418ae"/>
  <path d="m12 13.005h5m-4 1h2m1 0h1m1 1h2m-3 1h3" stroke="#ff7f08"/>
  <path d="m17 13.005h2" stroke="#ff9112"/>
  <path d="m12 14.005h1m0 1h2m0 1h2" stroke="#f26d00"/>
  <path d="m15 14.005h1" stroke="#a7431d"/>
  <path d="m17 14.005h1" stroke="#a7431c"/>
  <path d="m18 14.005h1m-4 1h1m1 0h1" stroke="#ff7e08"/>
  <path d="m21 14.005h1" stroke="#5519af"/>
  <path d="m16 15.005h1" stroke="#fe7f08"/>
  <path d="m9 17.005h1" stroke="#641fcc"/>
  <path d="m20 17.005h1" stroke="#651ecc"/>
 </g>
</svg>
