<?xml version="1.0" encoding="UTF-8"?>
<svg width="22" height="19.01" shape-rendering="crispEdges" version="1.1" viewBox="0 -.5 22 19.01" xmlns="http://www.w3.org/2000/svg">
 <g stroke-width="1.01">
  <path d="m2 5e-3h1m0 1h1m0 1h5m1 0h6m-15 1h1m5 0h14m-19 1h6m1 0h1m1 0h10m-15 1h2m1 0h6m1 0h2m1 0h2m-20 1h2m1 0h1m1 0h3m5 0h2m4 0h1m-18 1h2m1 0h1m1 0h1m4 0h3m4 0h1m-14 1h2m4 0h3m-9 1h1m6 0h2m4 0h1m-7 1h2m4 0h1m-14 1h2m4 0h3m4 0h1m-14 1h4m1 0h5m1 0h3m-14 1h5m-5 1h5m7 0h2m-13 1h4m8 0h1m-13 1h7m5 0h1" stroke="#7124ee"/>
  <path d="m3 2.005h1m1 1h1m-2 2h1m-3 2h1m3 1h1m2 3h4m3 0h4m-13 4h1m4 0h1m-6 1h1m-1 1h8m1 0h3m1 0h1" stroke="#641ecc"/>
  <path d="m9 2.005h1m6 0h1m-11 1h1m1 1h1m-1 1h1m6 0h1m2 0h1m-6 1h1m-7 1h1m0 2h1" stroke="#7125ee"/>
  <path d="m17 2.005h1m-8 2h1m-8 2h1m9 3h1m5 4h1" stroke="#7124ef"/>
  <path d="m4 3.005h1m-2 2h1m17 2h1m-19 1h1m1 0h1m15 0h1m-16 1h1m14 0h1m-16 1h1m14 0h1m-16 1h1m14 0h1m-1 1h1m-16 1h1m14 0h1m-16 1h1m14 0h1m-13 4h6m1 0h3" stroke="#5519ae"/>
  <path d="m0 5.005h1m4 0h1m-1 1h1m-1 1h1m14 1h1m-13 2h1m4 0h1m-3 2h1m5 0h1m2 1h1" stroke="#7024ee"/>
  <path d="m9 6.005h2m6 0h1m-9 1h1" stroke="#def0fb"/>
  <path d="m11 6.005h1m6 0h1m-10 2h1m6 0h1" stroke="#c4e5f8"/>
  <path d="m12 6.005h1m6 0h1m-8 1h1m6 0h1m-8 1h1m6 0h1m-11 1h1m2 0h1m3 0h1m2 0h1m-11 1h4m4 0h1m1 0h1" stroke="#cedef6"/>
  <path d="m16 6.005h1" stroke="#dff1fb"/>
  <path d="m21 6.005h1" stroke="#5419ae"/>
  <path d="m10 7.005h2m-2 1h2m6 0h1m-8 1h1m5 0h2" stroke="#000049"/>
  <path d="m16 7.005h1" stroke="#dff0fb"/>
  <path d="m17 7.005h1" stroke="#000048"/>
  <path d="m18 7.005h1m-2 1h1m-8 1h1" stroke="#000149"/>
  <path d="m4 8.005h1m10 10h1" stroke="#5518ae"/>
  <path d="m7 10.005h1" stroke="#7025ee"/>
  <path d="m16 10.005h1" stroke="#cedff6"/>
  <path d="m18 10.005h1" stroke="#cfdef6"/>
  <path d="m6 12.005h1" stroke="#5519af"/>
  <path d="m12 13.005h4m-3 1h1m2 0h1m1 0h1m-4 1h5m-3 1h3" stroke="#ff7f08"/>
  <path d="m16 13.005h1" stroke="#fe7f08"/>
  <path d="m17 13.005h2" stroke="#ff9112"/>
  <path d="m12 14.005h1m1 1h1m1 1h1" stroke="#f26d00"/>
  <path d="m14 14.005h1" stroke="#ff7e08"/>
  <path d="m15 14.005h1" stroke="#a6431c"/>
  <path d="m17 14.005h1" stroke="#a7431c"/>
  <path d="m13 15.005h1m1 1h1" stroke="#f36d00"/>
  <path d="m15 17.005h1" stroke="#651ecc"/>
  <path d="m19 17.005h1" stroke="#641ecd"/>
 </g>
</svg>
