<svg xmlns="http://www.w3.org/2000/svg" shape-rendering="crispEdges" viewBox="0 -0.5 38 38"><path stroke="#7124ee" stroke-width="1.01" d="M15 8h6m1 0h1M11 9h4m1 0h1m1 0h7M7 10h1m1 0h2m1 0h12M9 11h16M9 12h2m7 0h3m4 0h1m-14 1h1m5 0h3m-9 1h2m4 0h2m5 0h1m-8 1h3m-9 1h2m4 0h3m-9 1h2m4 0h2m5 0h1m-14 1h10m1 0h1m1 0h1m-14 1h3m1 0h1m7 0h2"/><path stroke="#7125ef" stroke-width="1.01" d="M21 8h1"/><path stroke="#6514dd" stroke-width="1.01" d="M10 9h1m14 0h1m-15 1h1m-4 1h1m16 0h1M7 12h1m3 0h1m-6 1h1m7 4h2m5 0h4m-8 4h1m0 1h2m5 0h1"/><path stroke="#7024ee" stroke-width="1.01" d="M15 9h1m1 0h1M8 10h1m4 3h1m11 0h1m-11 6h1"/><path stroke="#7125ee" stroke-width="1.01" d="M24 10h2m-13 2h1m11 3h1m-2 3h1"/><path stroke="#5519ae" stroke-width="1.01" d="M8 12h1m17 0h1M7 13h5m14 0h1m-17 1h2m-1 1h1m14 0h1m-16 1h1m14 0h1m-1 1h1m-16 1h1m14 0h1m-1 1h1m-16 1h1m14 0h1"/><path stroke="#7124ef" stroke-width="1.01" d="M12 12h1m-1 3h1m12 1h1m-6 1h1m1 1h1"/><path stroke="#522400" stroke-width="1.01" d="M14 12h3m4 0h3m-7 1h1m3 0h1m2 0h1m-11 1h1m2 0h1m3 0h1m2 0h1m-11 1h1m2 0h1m3 0h1m-8 1h4m3 0h4"/><path stroke="#522401" stroke-width="1.01" d="M17 12h1m-4 1h1m9 2h1"/><path stroke="#532400" stroke-width="1.01" d="M24 12h1"/><path stroke="#1f1106" stroke-width="1.01" d="M15 13h2m5 0h2m-9 1h2m5 0h2m-9 1h2m6 0h1"/><path stroke="#7024ef" stroke-width="1.01" d="M20 14h1"/><path stroke="#5519af" stroke-width="1.01" d="M26 14h1m-16 3h1"/><path stroke="#7025ee" stroke-width="1.01" d="M13 15h1"/><path stroke="#1f1107" stroke-width="1.01" d="M22 15h1"/><path stroke="#6514dc" stroke-width="1.01" d="M16 17h2"/><path stroke="#5419ae" stroke-width="1.01" d="M11 19h1"/><path stroke="#ff7f08" stroke-width="1.01" d="M17 19h5m1 1h1m-4 1h5m-3 1h3"/><path stroke="#ff9112" stroke-width="1.01" d="M22 19h2"/><path stroke="#6037db" stroke-width="1.01" d="M12 20h1m1 0h3m7 0h2m-13 1h4m-1 1h2"/><path stroke="#6136db" stroke-width="1.01" d="M13 20h1"/><path stroke="#f26d00" stroke-width="1.01" d="M17 20h1m0 1h2m0 1h1"/><path stroke="#ff7e08" stroke-width="1.01" d="M18 20h1"/><path stroke="#ff7f09" stroke-width="1.01" d="M19 20h1m1 0h1"/><path stroke="#a7431c" stroke-width="1.01" d="M20 20h1m1 0h1"/><path stroke="#5d24ee" stroke-width="1.01" d="M12 21h1m-1 1h3m1 1h9"/><path stroke="#6414dd" stroke-width="1.01" d="M25 21h1"/><path stroke="#5c24ef" stroke-width="1.01" d="M15 22h1"/><path stroke="#f36d00" stroke-width="1.01" d="M21 22h1"/><path stroke="#3a24b6" stroke-width="1.01" d="M12 23h1"/><path stroke="#3a24b7" stroke-width="1.01" d="M13 23h2m1 1h1m1 0h7"/><path stroke="#3a25b7" stroke-width="1.01" d="M15 23h1m1 1h1"/><path stroke="#5c24ee" stroke-width="1.01" d="M25 23h1"/><path stroke="#1d36aa" stroke-width="1.01" d="M14 24h1"/><path stroke="#1d37ab" stroke-width="1.01" d="M15 24h1"/></svg>