<svg xmlns="http://www.w3.org/2000/svg" viewBox="0 -0.5 38 38" shape-rendering="crispEdges">
<metadata>Made with Pixels to Svg https://codepen.io/shshaw/pen/XbxvNj</metadata>
<path stroke-width="1.01" stroke="#7124ee" d="M7 6h1M8 7h1M9 8h5M15 8h1M17 8h1M20 8h3M6 9h1M11 9h3M15 9h9M25 9h1M7 10h7M15 10h1M17 10h1M19 10h2M22 10h1M24 10h1M5 11h1M10 11h16M6 12h7M18 12h1M20 12h1M25 12h1M8 13h6M18 13h2M12 14h2M18 14h1M20 14h1M25 14h1M12 15h2M19 15h2M25 15h1M12 16h2M18 16h1M20 16h1M25 16h1M12 17h1M18 17h1M20 17h1M25 17h1M12 18h4M17 18h5M23 18h3M12 19h5M24 19h1M12 20h5M24 20h2M13 21h1M15 21h2M14 22h3M19 22h1M25 22h1" />
<path stroke-width="1.01" stroke="#6514dd" d="M8 8h1M10 9h1M7 13h1M14 17h2M17 17h1M21 17h4M12 22h1M12 23h5M18 23h8" />
<path stroke-width="1.01" stroke="#7124ef" d="M14 8h1M19 8h1M24 9h1M16 10h1M25 10h1M19 12h1M18 15h1M19 16h1M25 19h1M18 22h1" />
<path stroke-width="1.01" stroke="#7125ee" d="M16 8h1M14 9h1M14 10h1M18 10h1M21 10h1M13 12h1M25 13h1M13 17h1M19 17h1M16 18h1M22 18h1M14 21h1M25 21h1" />
<path stroke-width="1.01" stroke="#7024ee" d="M18 8h1M23 10h1M20 13h1M19 14h1M13 22h1M17 22h1" />
<path stroke-width="1.01" stroke="#5519ae" d="M9 9h1M8 11h1M8 14h2M26 14h1M11 15h1M11 16h1M26 16h1M11 17h1M26 17h1M11 18h1M26 18h1M26 19h1M11 20h1M26 20h1M14 24h10" />
<path stroke-width="1.01" stroke="#6515dd" d="M9 11h1" />
<path stroke-width="1.01" stroke="#c0dcff" d="M14 12h1M14 13h1M14 15h1M21 15h1M14 16h1M21 16h1" />
<path stroke-width="1.01" stroke="#082dad" d="M15 12h3M22 12h2M15 13h3M23 13h2M22 14h1M15 15h2M23 15h2M15 16h3M22 16h3" />
<path stroke-width="1.01" stroke="#d5f1ff" d="M21 12h1M21 13h1M14 14h1" />
<path stroke-width="1.01" stroke="#082dac" d="M24 12h1M22 13h1M15 14h1M17 15h1" />
<path stroke-width="1.01" stroke="#5419ae" d="M26 12h1" />
<path stroke-width="1.01" stroke="#5519af" d="M26 13h1M10 14h1" />
<path stroke-width="1.01" stroke="#6414dd" d="M11 14h1M16 17h1M17 21h1M17 23h1" />
<path stroke-width="1.01" stroke="#2151f5" d="M16 14h2M23 14h1" />
<path stroke-width="1.01" stroke="#d5f1fe" d="M21 14h1" />
<path stroke-width="1.01" stroke="#2051f5" d="M24 14h1" />
<path stroke-width="1.01" stroke="#082cad" d="M22 15h1" />
<path stroke-width="1.01" stroke="#5518ae" d="M26 15h1M11 19h1" />
<path stroke-width="1.01" stroke="#ff7f08" d="M17 19h3M21 19h1M18 20h2M23 20h1M20 21h5M22 22h3" />
<path stroke-width="1.01" stroke="#fe7f08" d="M20 19h1" />
<path stroke-width="1.01" stroke="#ff9112" d="M22 19h2" />
<path stroke-width="1.01" stroke="#f26d00" d="M17 20h1M18 21h2M20 22h2" />
<path stroke-width="1.01" stroke="#a7431c" d="M20 20h1" />
<path stroke-width="1.01" stroke="#ff7e09" d="M21 20h1" />
<path stroke-width="1.01" stroke="#a7421d" d="M22 20h1" />
<path stroke-width="1.01" stroke="#6514dc" d="M12 21h1" />
</svg>