<?xml version="1.0" encoding="UTF-8"?>
<svg width="22" height="19.01" shape-rendering="crispEdges" version="1.1" viewBox="0 -.5 22 19.01" xmlns="http://www.w3.org/2000/svg">
 <g stroke-width="1.01">
  <path d="m2 5e-3h1m0 1h1m0 1h10m1 0h3m-17 1h1m4 0h1m1 0h13m-19 1h3m1 0h3m1 0h4m1 0h1m1 0h2m1 0h1m-21 1h1m4 0h12m1 0h3m-20 1h2m1 0h1m1 0h2m5 0h2m5 0h1m-18 1h1m1 0h4m4 0h3m4 0h1m-13 1h1m4 0h3m4 0h1m-14 1h2m4 0h3m-8 1h1m5 0h2m4 0h1m-14 1h2m4 0h1m1 0h1m4 0h1m-14 1h1m2 0h10m-12 1h4m7 0h2m-14 1h5m7 0h2m-13 1h4m8 0h1m-13 1h3m1 0h3m5 0h1" stroke="#7124ee"/>
  <path d="m3 2.005h1m1 1h1m-2 2h1m-3 2h1m6 4h1m1 0h2m3 0h1m1 0h2m-13 4h1m4 0h1m-6 2h5m1 0h7" stroke="#6514dd"/>
  <path d="m14 2.005h1m-1 2h1m1 0h1m-14 2h1m0 1h1m9 4h1m-7 1h1" stroke="#7124ef"/>
  <path d="m4 3.005h1m-2 2h1m17 1h1m-1 1h1m-18 1h2m0 1h1m14 0h1m-16 1h1m14 0h1m-16 1h1m14 0h1m-1 1h1m-16 1h1m14 0h1m-16 1h1m14 0h1m-13 4h2m1 0h1m1 0h3m1 0h1" stroke="#5519ae"/>
  <path d="m7 3.005h1m0 3h1m-2 2h1m-1 2h1m5 0h1m-5 2h1" stroke="#7125ee"/>
  <path d="m5 4.005h1m-1 2h1" stroke="#7125ef"/>
  <path d="m9 4.005h1" stroke="#7024ef"/>
  <path d="m19 4.005h1m-3 1h1m-3 1h1m4 3h1m-1 3h1m-14 1h1m3 3h1" stroke="#7024ee"/>
  <path d="m9 6.005h1m9 0h1m-4 4h1" stroke="#441b82"/>
  <path d="m10 6.005h1m6 0h1" stroke="#451a82"/>
  <path d="m11 6.005h2m3 0h1m1 0h1m-10 4h4m4 0h3" stroke="#451b82"/>
  <path d="m9 7.005h1m6 0h1m-8 1h1m-1 1h1m6 0h1" stroke="#f4defb"/>
  <path d="m10 7.005h2m5 0h1" stroke="#16167a"/>
  <path d="m12 7.005h1m-2 1h1m5 0h3m-10 1h3m4 0h1m1 0h1" stroke="#000049"/>
  <path d="m18 7.005h1" stroke="#16167b"/>
  <path d="m19 7.005h1m-8 1h1m5 1h1" stroke="#000149"/>
  <path d="m3 8.005h1m7 10h1" stroke="#5518ae"/>
  <path d="m6 8.005h1m3 3h1" stroke="#6515dd"/>
  <path d="m10 8.005h1" stroke="#000048"/>
  <path d="m16 8.005h1" stroke="#f5defb"/>
  <path d="m21 8.005h1m-16 4h1m6 6h1" stroke="#5519af"/>
  <path d="m17 11.005h1m2 6h1" stroke="#6514dc"/>
  <path d="m12 13.005h4m-3 1h2m1 0h1m1 0h1m-4 1h1m3 0h1m-3 1h2" stroke="#ff7f08"/>
  <path d="m16 13.005h1m-1 2h1" stroke="#fe7f08"/>
  <path d="m17 13.005h1" stroke="#ff9112"/>
  <path d="m18 13.005h1" stroke="#fe9012"/>
  <path d="m12 14.005h1m0 1h2m0 1h2" stroke="#f26d00"/>
  <path d="m15 14.005h1m1 0h1" stroke="#a7431c"/>
  <path d="m17 15.005h2" stroke="#ff7e08"/>
  <path d="m7 16.005h1m4 1h1" stroke="#6414dd"/>
  <path d="m19 16.005h1" stroke="#ff7f09"/>
  <path d="m17 18.005h1" stroke="#5419ae"/>
 </g>
</svg>
