<svg xmlns="http://www.w3.org/2000/svg" shape-rendering="crispEdges" viewBox="0 -0.5 38 38"><path stroke-width="1.01" stroke="#d3c6bc" d="M0 0h8m4 0h11m1 0h3m4 0h1m1 0h1m2 0h2M1 1h6m7 0h2m1 0h3m1 0h1m1 0h1m1 0h1m7 0h5M0 2h7m6 0h12m8 0h5M0 3h2m2 0h2m9 0h5m1 0h2m1 0h1m8 0h5M0 4h1m1 0h3m9 0h6m1 0h3m11 0h2M1 5h4m10 0h9m10 0h4M2 6h3m10 0h2m1 0h1m1 0h3m12 0h1m1 0h1M0 7h4m12 0h7m12 0h3M0 8h4m12 0h5m15 0h2M0 9h2m15 0h5m14 0h2M0 10h3m14 0h4m16 0h1M1 11h1m16 0h1m1 0h1m16 0h1m-20 1h2M0 13h1m17 0h2M0 14h1"/><path stroke-width="1.01" stroke="#dbd0d0" d="M8 0h1m1 0h2m16 0h3M7 1h6m13 0h3m1 0h1M7 2h6m12 0h7M6 3h1m1 0h5m12 0h1m1 0h6M6 4h3m1 0h1m1 0h2m10 0h4m1 0h1m2 0h2M6 5h5m1 0h2m10 0h10M6 6h9m9 0h5m1 0h5M5 7h3m1 0h3m1 0h1m10 0h2m1 0h8M6 8h8m12 0h9M8 9h2m1 0h1m14 0h1m1 0h4m1 0h1m-4 1h1"/><path stroke-width="1.01" stroke="#dbd0d1" d="M9 0h1m19 1h1m2 1h1M7 3h1m5 0h1m14 1h1m2 0h1M11 5h1m2 0h1m14 1h1M8 7h1m17 0h1m5 2h1m-4 1h1"/><path stroke-width="1.01" stroke="#d3c7bc" d="M23 0h1m-4 3h1m2 0h1m-4 1h1M0 5h1M0 6h1m18 0h1M1 12h1"/><path stroke-width="1.01" stroke="#dad0d0" d="M27 0h1M9 4h1m2 3h1m15 3h1"/><path stroke-width="1.01" stroke="#d3c6bd" d="M32 0h1M0 1h1m21 0h1m1 0h1M1 4h1M1 6h1m19 2h1M2 9h1m-3 2h1m18 0h1M0 12h1"/><path stroke-width="1.01" stroke="#d2c6bc" d="M34 0h2M13 1h1m2 0h1m3 0h1m11 0h1M2 3h2m10 0h1M5 4h1m28 0h1m2 0h1M17 6h1m18 0h1"/><path stroke-width="1.01" stroke="#dbd1d1" d="M31 1h1m-2 3h1M14 7h1"/><path stroke-width="1.01" stroke="#dbd1d0" d="M26 3h1M11 4h1M5 5h1M5 6h1m19 2h1M10 9h1m16 0h1m3 1h1"/><path stroke-width="1.01" stroke="#d9d1cc" d="M23 6h1M4 7h1m10 0h1m7 0h1M14 8h2m6 0h3M3 9h1m2 0h1m5 0h5m5 0h2m1 0h1m8 0h2M3 10h6m1 0h3m1 0h2m5 0h7m5 0h4M3 11h3m2 0h10m4 0h2m2 0h9M3 12h3m1 0h4m1 0h1m1 0h4m4 0h11m1 0h3M4 13h6m3 0h2m1 0h1m6 0h6m1 0h6M5 14h9m1 0h1m8 0h11M7 15h1m1 0h5m14 0h5"/><path stroke-width="1.01" stroke="#d9d0cc" d="M4 8h2M5 9h1m18 0h1m-9 1h1m8 1h1M6 12h1m3 1h2m3 0h1m-2 1h1"/><path stroke-width="1.01" stroke="#d9d1cd" d="M35 8h1m-4 2h1M2 11h1m18 0h1m-9 1h1m15 1h1M8 15h1m17 0h2"/><path stroke-width="1.01" stroke="#d8d1cc" d="M4 9h1m2 0h1m1 1h1m3 0h1m-8 1h1m17 0h1m10 0h2m-26 1h1m21 0h1m-22 1h1"/><path stroke-width="1.01" stroke="#d8d0cc" d="M7 11h1"/><path stroke-width="1.01" stroke="#d9ccc7" d="M2 12h1m17 0h2m15 0h1M1 13h3m13 0h1m2 0h1m1 0h1m13 0h2M1 14h4m12 0h4m1 0h1m12 0h3M0 15h2m1 0h4m7 0h1m1 0h2m1 0h4m1 0h2m7 0h5M0 16h8m1 0h8m1 0h9m1 0h10M1 17h2m1 0h5m1 0h2m1 0h7m2 0h1m1 0h10m2 0h2M0 18h4m1 0h1m1 0h4m1 0h1m2 0h4m2 0h15M0 19h2m1 0h2m1 0h5m1 0h5m1 0h7m1 0h1m1 0h3m1 0h2m1 0h3M0 20h3m1 0h2m1 0h5m1 0h5m1 0h13m2 0h4M0 21h5m1 0h13m1 0h1m2 0h1m1 0h1m1 0h2m2 0h7M0 22h5m2 0h1m1 0h5m1 0h23M0 23h2m1 0h1m1 0h3m1 0h1m1 0h5m3 0h2m2 0h9m1 0h2m1 0h2M0 24h2m1 0h5m2 0h18m1 0h2m1 0h4m1 0h1M0 25h4m1 0h13m1 0h6m1 0h12M0 26h3m1 0h11m1 0h15m1 0h6M2 27h2m1 0h11m2 0h2m1 0h2m1 0h1m1 0h3m1 0h2m1 0h2m2 0h1M0 28h1m1 0h18m1 0h8m1 0h1m1 0h2m1 0h3M0 29h34m1 0h3M0 30h7m1 0h2m1 0h11m1 0h15M0 31h1m2 0h6m1 0h11m1 0h14m1 0h1"/><path stroke-width="1.01" stroke="#d9cdc7" d="M21 13h1M2 15h1m20 0h1M9 17h1m2 0h1m-9 1h1m1 0h1m6 0h2m21 0h1M2 19h1m22 0h1m1 0h1M3 20h1m8 0h1m5 0h1m0 1h1m6 0h1m3 0h1M6 22h1m1 0h1m-5 1h1m13 0h1m3 0h1m12 0h1M9 24h1m-7 2h1m-3 1h1m15 0h1m2 0h1m11 0h1m-23 3h1M1 31h1m7 0h1m11 0h1"/><path stroke-width="1.01" stroke="#d8ccc7" d="M16 14h1m4 0h1m-4 1h1m8 1h1M3 17h1m16 0h1m13 0h2m-25 1h1m7 0h1m17 0h1M5 19h1m5 0h1m5 0h1m13 0h1M5 21h1m15 0h1m7 0h1m-16 1h1M2 23h1m5 0h1m12 0h1M8 24h1m22 0h1m-7 1h1m5 1h1M0 27h1m35 0h1M1 28h1m29 0h1m2 0h1M7 30h1m28 1h1"/><path stroke-width="1.01" stroke="#d9ccc6" d="M23 14h1m-9 1h1m-8 1h1m8 0h1M0 17h1m22 0h1m-4 1h1M6 20h1m25 0h1m-11 1h1m1 0h1M5 22h1m10 1h2m14 0h1M2 24h1m25 0h1m7 0h1m-19 1h1m-4 1h1M4 27h1m11 0h1m8 0h1m9 0h1m-16 1h1m8 0h1m4 1h1m-13 1h1M2 31h1"/><path stroke-width="1.01" stroke="#d9cdc6" d="M21 17h1"/><path stroke-width="1.01" stroke="#d8ccc6" d="M34 19h1m-25 4h1m-7 2h1m18 2h1m5 0h1"/><path stroke-width="1.01" stroke="#d8cdc7" d="M33 20h1"/><path stroke-width="1.01" stroke="#895f46" d="M0 32h4m1 0h2m1 0h2m1 0h2m1 0h3m1 0h1m1 0h5m1 0h7m2 0h3M0 33h7m1 0h5m1 0h2m2 0h1m1 0h2m1 0h14M5 36h1m7 0h1m7 0h1m7 0h1m7 0h1m-25 1h1m15 0h1m7 0h1"/><path stroke-width="1.01" stroke="#885f46" d="M4 32h1m14 0h1m5 0h1m7 0h1m-18 1h1"/><path stroke-width="1.01" stroke="#895f47" d="M7 32h1m9 0h1m16 0h1m-22 1h1m-9 4h1"/><path stroke-width="1.01" stroke="#895e46" d="M10 32h1m2 0h1m-7 1h1m9 0h1m1 0h1m2 0h1m14 0h1m-17 4h1"/><path stroke-width="1.01" stroke="#7b533f" d="M0 34h9m1 0h14m1 0h5m1 0h7M5 35h2m6 0h2m7 0h1m6 0h1m7 0h1M0 36h2m1 0h2m1 0h1m1 0h4m2 0h1m1 0h5m1 0h1m1 0h5m1 0h1m1 0h5M0 37h1m2 0h1m4 0h2m1 0h2m1 0h1m1 0h5m4 0h4m1 0h1m1 0h1m1 0h1m1 0h1"/><path stroke-width="1.01" stroke="#7b533e" d="M9 34h1m20 1h1M2 36h1m9 0h1m-3 1h1m11 0h1m1 0h1"/><path stroke-width="1.01" stroke="#7b523f" d="M24 34h1M1 37h2m3 0h1m26 0h1"/><path stroke-width="1.01" stroke="#7a533f" d="M30 34h1m-10 1h1M4 37h1m30 0h1"/><path stroke-width="1.01" stroke="#634636" d="M0 35h2m1 0h2m2 0h2m1 0h3m2 0h6m3 0h4m3 0h6M7 36h1m7 0h1m15 0h1M7 37h1m7 0h1m7 0h1m7 0h1"/><path stroke-width="1.01" stroke="#634637" d="M2 35h1m20 0h1"/><path stroke-width="1.01" stroke="#634736" d="M9 35h1m18 0h1m-6 1h1"/></svg>