<?xml version="1.0" encoding="UTF-8" standalone="no"?>
<svg
   shape-rendering="crispEdges"
   viewBox="0 -0.5 38 38.009998"
   version="1.1"
   id="svg28"
   width="38"
   height="38.009998"
   xmlns="http://www.w3.org/2000/svg"
   xmlns:svg="http://www.w3.org/2000/svg">
  <defs
     id="defs32" />
  <path
     stroke="#d9dde4"
     stroke-width="1.01"
     d="m 0,0.005 h 1 m 19,0 h 1 m -20,2 h 1 m 2,0 h 1 m 18,1 h 1 m -18,2 h 1 m 18,0 h 1 m -3,1 h 1 m -16,1 h 1 m -9,1 h 1 m 33,0 h 1 m -27,1 h 1 m 20,1 h 1 m -16,8 h 1 m 11,0 h 1 m 7,0 h 1 m -35,3 h 1 m 15,1 h 1 m 1,0 h 2 m 3,0 h 1 m -12,1 h 1 m 2,0 h 1 m 0,1 h 1 m 9,0 h 1 m -27,1 h 1 m 21,0 h 1 m 12,0 h 1 m 1,0 h 1 m -19,1 h 1 m -7,1 h 1 m 13,2 h 1 m -20,1 h 1 m 20,0 h 1 m -25,1 h 1 m 15,0 h 1 m 8,0 h 1 m -31,1 h 1 m 29,0 h 1 m 1,1 h 1 m -16,1 h 1 m 2,1 h 1 m 7,0 h 2 m 1,0 h 1 m -22,2 h 1 m 7,0 h 1"
     id="path2" />
  <path
     stroke="#d8dde4"
     stroke-width="1.01"
     d="m 1,0.005 h 15 m 1,0 h 1 m 1,0 h 1 m 1,0 h 1 m 1,0 h 9 m 1,0 h 5 m -37,1 h 21 m 1,0 h 3 m 1,0 h 2 m 2,0 h 2 m 1,0 h 2 m 1,0 h 1 m -36,1 h 2 m 1,0 h 4 m 1,0 h 25 m 1,0 h 2 m -38,1 h 11 m 1,0 h 2 m 1,0 h 6 m 1,0 h 1 m 1,0 h 4 m 1,0 h 9 m -36,1 h 7 m 1,0 h 13 m 1,0 h 13 m -37,1 h 4 m 1,0 h 1 m 1,0 h 15 m 1,0 h 2 m 1,0 h 12 m -38,1 h 3 m 1,0 h 11 m 1,0 h 5 m 3,0 h 5 m 1,0 h 8 m -38,1 h 4 m 1,0 h 3 m 1,0 h 8 m 2,0 h 1 m 2,0 h 3 m 1,0 h 8 m 1,0 h 3 m -36,1 h 4 m 1,0 h 18 m 1,0 h 8 m 1,0 h 3 m -38,1 h 4 m 1,0 h 3 m 2,0 h 5 m 2,0 h 7 m 1,0 h 1 m 1,0 h 5 m 1,0 h 2 m 1,0 h 2 m -38,1 h 11 m 1,0 h 13 m 1,0 h 3 m 1,0 h 8 m -38,8 h 14 m 1,0 h 3 m 2,0 h 2 m 1,0 h 3 m 1,0 h 7 m 1,0 h 3 m -38,1 h 5 m 1,0 h 5 m 1,0 h 21 m 2,0 h 3 m -37,1 h 15 m 1,0 h 1 m 1,0 h 8 m 1,0 h 1 m 1,0 h 5 m 1,0 h 2 m -37,1 h 18 m 1,0 h 8 m 1,0 h 9 m -38,1 h 1 m 1,0 h 4 m 1,0 h 2 m 1,0 h 6 m 1,0 h 1 m 2,0 h 3 m 1,0 h 6 m 1,0 h 1 m 1,0 h 5 m -38,1 h 12 m 1,0 h 2 m 3,0 h 3 m 1,0 h 1 m 1,0 h 14 m -38,1 h 1 m 1,0 h 4 m 1,0 h 1 m 1,0 h 1 m 1,0 h 3 m 1,0 h 1 m 1,0 h 9 m 1,0 h 4 m 1,0 h 6 m -37,1 h 1 m 1,0 h 2 m 1,0 h 12 m 1,0 h 3 m 1,0 h 2 m 1,0 h 9 m 1,0 h 1 m -35,1 h 3 m 1,0 h 3 m 1,0 h 6 m 1,0 h 2 m 1,0 h 13 m 1,0 h 3 m -37,1 h 13 m 1,0 h 1 m 1,0 h 12 m 1,0 h 6 m 2,0 h 1 m -37,1 h 9 m 1,0 h 27 m -38,1 h 8 m 2,0 h 5 m 1,0 h 3 m 2,0 h 6 m 1,0 h 7 m 1,0 h 2 m -38,1 h 8 m 3,0 h 10 m 1,0 h 4 m 2,0 h 1 m 1,0 h 7 m -37,1 h 5 m 1,0 h 15 m 1,0 h 8 m 1,0 h 7 m -37,1 h 4 m 2,0 h 23 m 1,0 h 7 m -38,1 h 13 m 1,0 h 2 m 1,0 h 1 m 2,0 h 12 m 1,0 h 4 m -37,1 h 10 m 1,0 h 5 m 2,0 h 2 m 1,0 h 1 m 1,0 h 15 m -38,1 h 2 m 1,0 h 2 m 1,0 h 7 m 1,0 h 1 m 1,0 h 4 m 2,0 h 6 m 2,0 h 1 m 1,0 h 1 m 1,0 h 3 m -37,1 h 5 m 2,0 h 2 m 1,0 h 12 m 1,0 h 5 m 1,0 h 9 m -38,1 h 10 m 1,0 h 7 m 1,0 h 8 m 1,0 h 2 m 1,0 h 7"
     id="path4" />
  <path
     stroke="#d8dde5"
     stroke-width="1.01"
     d="m 16,0.005 h 1 m 15,0 h 1 m -11,1 h 1 m 6,0 h 1 m -21,1 h 1 m 25,0 h 1 m -25,1 h 1 m 2,0 h 1 m 6,0 h 1 m 6,0 h 1 m -29,1 h 1 m 22,0 h 1 m 13,0 h 1 m -34,1 h 1 m -2,1 h 1 m 11,0 h 1 m 5,0 h 2 m -5,1 h 1 m 1,0 h 1 m -20,1 h 1 m 23,0 h 1 m -22,1 h 1 m 11,0 h 1 m 7,0 h 1 m 1,0 h 1 m 5,0 h 1 m 2,0 h 1 m -18,9 h 1 m 3,0 h 1 m -18,1 h 1 m 5,0 h 1 m 21,0 h 2 m -17,1 h 1 m 8,0 h 1 m 0,1 h 1 m -20,1 h 1 m 13,1 h 1 m -23,1 h 1 m 6,0 h 1 m -7,1 h 1 m 15,0 h 1 m 6,0 h 1 m -21,1 h 1 m 3,0 h 1 m 6,0 h 1 m 18,1 h 2 m -29,2 h 1 m 6,0 h 1 m 3,0 h 1 m 15,0 h 1 m -27,1 h 1 m 16,0 h 1 m 10,0 h 1 m -25,3 h 1 m 4,0 h 1 m 18,0 h 1 m -28,1 h 1 m 5,0 h 1 m -12,1 h 1 m 7,0 h 1 m 1,0 h 1 m 21,0 h 1 m -29,1 h 1 m 17,1 h 1 m 2,0 h 1"
     id="path6" />
  <path
     stroke="#d8dce4"
     stroke-width="1.01"
     d="m 18,0.005 h 1 m 3,0 h 1 m -23,1 h 1 m 25,0 h 1 m 3,0 h 1 m 2,0 h 1 m 2,0 h 1 m -36,3 h 1 m 7,0 h 1 m -6,3 h 1 m 12,0 h 1 m 3,0 h 1 m 3,0 h 1 m 8,0 h 1 m -29,1 h 1 m 2,1 h 1 m 5,0 h 1 m -5,1 h 1 m 13,0 h 1 m -7,8 h 1 m -20,2 h 1 m 15,0 h 1 m 12,0 h 1 m 5,0 h 1 m -17,1 h 1 m -19,1 h 1 m 4,0 h 1 m 23,0 h 1 m 1,0 h 1 m -17,1 h 2 m -12,1 h 1 m 7,0 h 1 m 16,0 h 1 m -27,1 h 1 m -6,1 h 2 m 31,0 h 1 m 3,0 h 1 m -23,1 h 1 m 12,0 h 1 m -29,1 h 1 m 9,0 h 1 m -2,1 h 1 m 10,0 h 1 m -11,1 h 1 m 10,0 h 1 m 5,0 h 1 m -23,2 h 1 m 13,1 h 1 m 0,1 h 1 m 1,0 h 1 m -21,1 h 1 m 18,0 h 1 m 11,0 h 1 m -28,1 h 1 m 15,0 h 1 m 5,0 h 1"
     id="path8" />
  <path
     stroke="#d8dce5"
     stroke-width="1.01"
     d="m 0,2.005 h 1 m 20,21 h 1 m -6,10 h 1"
     id="path10" />
  <path
     stroke="#d9dde5"
     stroke-width="1.01"
     d="m 22,5.005 h 1 m 6,1 h 1 m -24,26 h 1"
     id="path12" />
  <path
     stroke="#feffff"
     stroke-width="1.01"
     d="m 0,11.005 h 1 m 4,0 h 1 m 4,0 h 1 m 1,0 h 1 m 4,1 h 1 m 0,1 h 1 m 7,0 h 1 m -21,1 h 1 m 28,0 h 1 m -36,1 h 1 m 4,0 h 1 m 12,0 h 1 m 8,0 h 1 m -28,1 h 1 m 2,0 h 1 m -2,1 h 1 m 12,0 h 1"
     id="path14" />
  <path
     stroke="#ffffff"
     stroke-width="1.01"
     d="m 1,11.005 h 4 m 1,0 h 1 m 1,0 h 2 m 1,0 h 1 m 1,0 h 2 m 1,0 h 6 m 1,0 h 15 m -38,1 h 4 m 1,0 h 12 m 1,0 h 18 m 1,0 h 1 m -38,1 h 2 m 1,0 h 13 m 1,0 h 1 m 1,0 h 7 m 1,0 h 10 m -36,1 h 5 m 1,0 h 2 m 2,0 h 12 m 1,0 h 8 m 1,0 h 2 m 1,0 h 1 m -36,1 h 1 m 1,0 h 2 m 1,0 h 7 m 1,0 h 4 m 1,0 h 8 m 1,0 h 10 m -37,1 h 2 m 1,0 h 1 m 1,0 h 12 m 1,0 h 8 m 1,0 h 3 m 1,0 h 6 m -37,1 h 1 m 1,0 h 2 m 1,0 h 4 m 1,0 h 4 m 1,0 h 5 m 1,0 h 1 m 1,0 h 14"
     id="path16" />
  <path
     stroke="#fffffe"
     stroke-width="1.01"
     d="m 7,11.005 h 1 m 7,0 h 1 m -14,2 h 1 m -3,1 h 1 m 36,0 h 1 m -36,1 h 1 m 15,1 h 1 m 12,0 h 1 m -22,1 h 1 m 10,0 h 1"
     id="path18" />
  <path
     stroke="#fffefe"
     stroke-width="1.01"
     d="m 22,11.005 h 1 m 4,5 h 1"
     id="path20" />
  <path
     stroke="#fffeff"
     stroke-width="1.01"
     d="m 4,12.005 h 1 m 31,0 h 1 m -21,1 h 1 m 20,0 h 1 m -29,1 h 2 m 12,0 h 1 m 8,0 h 1 m -28,2 h 1 m -6,1 h 1 m 4,0 h 1 m 17,0 h 1"
     id="path22" />
  <path
     stroke="#fefeff"
     stroke-width="1.01"
     d="m 13,15.005 h 1"
     id="path24" />
  <path
     stroke="#d9dce4"
     stroke-width="1.01"
     d="m 10,24.005 h 1 m -6,12 h 1"
     id="path26" />
</svg>
