<svg xmlns="http://www.w3.org/2000/svg" shape-rendering="crispEdges" viewBox="0 -0.5 38 38"><path stroke-width="1.01" stroke="#e8c5b6" d="M0 0h4m1 0h6m1 0h2m1 0h3m1 0h3m1 0h6m1 0h1m1 0h2m2 0h2M0 1h1m2 0h4m4 0h2m1 0h2m1 0h11m1 0h9M0 2h9m1 0h9m1 0h1m2 0h1m4 0h5m1 0h4M0 3h3m1 0h1m1 0h5m1 0h5m1 0h1m1 0h6m1 0h7m1 0h1m1 0h1M0 4h12m1 0h4m1 0h10m2 0h1m1 0h4m1 0h1M3 5h2m1 0h1m1 0h1m1 0h1m1 0h5m3 0h8m1 0h3m1 0h1m1 0h3M0 6h3m1 0h6m1 0h3m2 0h1m1 0h1m1 0h6m1 0h1m1 0h1m1 0h3m1 0h2M0 7h3m2 0h7m1 0h3m1 0h11m1 0h9M0 8h1m1 0h3m1 0h14m3 0h15M2 9h15m1 0h3m1 0h14M1 10h1m1 0h1m1 0h5m1 0h8m1 0h8m1 0h2m1 0h3m1 0h1M0 11h6m1 0h5m1 0h6m1 0h5m1 0h4m2 0h3m1 0h2M1 12h6m1 0h7m1 0h4m1 0h5m1 0h3m1 0h7M0 13h1m1 0h17m1 0h2m1 0h3m1 0h3m1 0h4m1 0h1M0 14h2m1 0h14m2 0h6m1 0h12M1 15h3m1 0h6m1 0h14m1 0h2m1 0h4m1 0h2M0 16h2m1 0h2m1 0h8m1 0h2m1 0h11m1 0h8M0 17h2m1 0h29m2 0h4M1 18h1m1 0h3m2 0h1m1 0h15m1 0h10m1 0h1M1 19h3m1 0h12m1 0h13m1 0h1m1 0h4M1 20h1m1 0h3m1 0h12m1 0h6m1 0h6m1 0h3M0 21h6m1 0h1m1 0h6m1 0h3m1 0h2m1 0h1m1 0h13M2 22h3m1 0h3m1 0h1m1 0h1m1 0h2m1 0h21M0 23h5m1 0h2m4 0h9m1 0h1m1 0h3m1 0h6m2 0h2M2 24h12m2 0h3m1 0h5m1 0h4m1 0h3m1 0h1m1 0h1M0 25h2m1 0h10m1 0h5m1 0h12m1 0h1m1 0h3M0 26h16m1 0h3m1 0h4m2 0h11M0 27h2m1 0h3m1 0h8m1 0h6m1 0h10m1 0h2m1 0h1M1 28h2m2 0h9m1 0h5m1 0h17M0 29h3m1 0h8m1 0h7m1 0h2m1 0h2m2 0h8M0 30h9m1 0h4m1 0h8m1 0h7m1 0h3m2 0h1M0 31h7m2 0h6m1 0h2m1 0h6m1 0h2m1 0h2m1 0h6M1 32h6m1 0h10m2 0h5m1 0h8m2 0h2M0 33h1m1 0h7m1 0h28M0 34h4m1 0h6m1 0h9m1 0h5m1 0h9M0 35h11m1 0h5m1 0h3m1 0h1m1 0h4m1 0h2m1 0h1m1 0h4M0 36h1m1 0h5m1 0h2m1 0h4m1 0h4m1 0h17M0 37h1m1 0h5m1 0h5m2 0h2m1 0h3m1 0h16"/><path stroke-width="1.01" stroke="#e8d2bc" d="M4 0h1m26 0h1M13 1h1M9 2h1M5 3h1m20 0h1m9 0h1m-6 1h1M11 5h1m7 0h1M3 6h1m18 2h1m14 1h1m-7 2h1M1 13h1m27 2h1m7 0h1M9 18h1m-6 1h1m28 0h1M6 20h1m2 2h1m-9 2h1m34 3h1M3 29h1m27 1h1m2 2h1m-4 3h1M1 37h1"/><path stroke-width="1.01" stroke="#e9c5b6" d="M11 0h1m2 0h1m7 0h1m6 0h1m4 0h1M10 1h1m5 0h1m11 0h1m-5 1h2m7 0h1M12 4h1M2 5h1m14 0h1m10 0h1m3 0h1M10 6h1m4 0h1m3 0h1m6 0h1m10 0h1M28 7h1M0 10h1m3 0h1m23 0h1m2 0h1m5 0h1M0 12h1m25 0h1m3 0h1M2 14h1m14 0h1m-7 1h1M2 17h1m29 0h1M0 20h1m5 1h1m15 0h1m1 0h1M9 23h1m1 0h1m11 0h1m11 0h1M0 24h1m33 0h1m-22 1h1m6 1h1m4 0h1M3 28h1m10 0h1m5 0h1m-9 1h1m24 0h1M7 31h1m17 0h1m5 0h1m-5 3h1m-17 1h1m3 1h1m4 0h1m-7 1h1m6 0h1"/><path stroke-width="1.01" stroke="#e5c6a7" d="M18 0h1M1 1h1m15 2h1M0 9h1M0 32h1"/><path stroke-width="1.01" stroke="#e9c4b6" d="M35 0h1m-9 2h1m0 2h1M1 5h1m33 5h1M20 29h1"/><path stroke-width="1.01" stroke="#e8c4b6" d="M2 1h1m18 1h1m-3 1h1m9 1h1m6 0h1M0 5h1m6 0h1m1 0h1m8 0h1m-5 1h1m2 0h1M3 7h1m12 0h1m3 1h2M1 9h1m15 0h1m3 0h1m14 0h1m-27 1h1m8 0h1m-8 1h1m17 0h1m-16 1h1m14 1h1m4 0h1m-11 1h1M4 15h1m29 0h1M2 16h1m14 0h1m15 1h1M6 18h2m-8 1h1m16 0h1m1 1h1M8 21h1m10 0h1M8 23h1m25 0h1m-21 1h2m3 0h1M2 25h1m29 0h1M6 27h1m-7 1h1m3 0h1m18 1h1m3 0h1m8 0h1M9 30h1m4 0h1m20 0h1M8 31h1m6 0h1m2 0h1m-1 1h1M1 33h1m19 1h1m1 1h1"/><path stroke-width="1.01" stroke="#e8c5b7" d="M7 1h3m9 1h1m6 0h1M3 3h1m7 0h1m22 0h1M5 5h1m28 0h1m-7 1h1m1 0h1m3 0h1M1 8h1m3 0h1m-4 2h1m3 1h1m12 0h1m5 0h1m9 0h1M7 12h1m12 0h1m-2 1h1m2 0h1m3 0h1m10 0h1M0 15h1m25 0h1M5 16h1m8 0h1m14 0h1M2 18h1m22 0h1M2 20h1m23 0h1m6 0h1m3 0h1m-23 1h1M1 22h1m9 0h1m1 0h1m2 0h1M5 23h1m4 0h1m10 0h1m5 0h1m-3 1h1m4 0h1m5 0h1m-18 1h1m14 0h1m-19 1h1m9 0h1M2 27h1m12 0h1m6 0h1m3 2h1m-4 1h1m12 0h1m-9 1h1M7 32h1m11 0h1m5 0h1M9 33h1m1 1h1m25 0h1m-17 1h1m6 0h1m4 0h1M1 36h1m5 0h1m5 1h1m3 0h1"/><path stroke-width="1.01" stroke="#e8d2bd" d="M22 2h1"/><path stroke-width="1.01" stroke="#e8d3bc" d="M17 4h1M7 37h1"/><path stroke-width="1.01" stroke="#e4c6a7" d="M4 7h1"/><path stroke-width="1.01" stroke="#e9c5b7" d="M12 7h1m5 7h1m17 4h1m-6 1h1M5 22h1m29 10h1m-26 4h1"/><path stroke-width="1.01" stroke="#e5c6a6" d="M0 18h1"/><path stroke-width="1.01" stroke="#e9d2bc" d="M0 22h1m3 12h1"/><path stroke-width="1.01" stroke="#e8c4b7" d="M33 27h1m-17 8h1"/></svg>