<svg xmlns="http://www.w3.org/2000/svg" shape-rendering="crispEdges" viewBox="0 -0.5 38 38"><path stroke-width="1.01" stroke="#02042b" d="M0 0h3m1 0h1m1 0h7m2 0h4m2 0h2m1 0h7m1 0h6M1 1h7m1 0h5m2 0h1m1 0h5m1 0h1m1 0h3m1 0h3m2 0h3M0 2h5m1 0h2m1 0h7m3 0h17m1 0h1M0 3h4m1 0h11m5 0h1m1 0h3m1 0h4m2 0h2m1 0h2M0 4h11m1 0h2m1 0h1m3 0h4m1 0h8m1 0h1m3 0h1M0 5h4m1 0h7m1 0h4m1 0h3m1 0h10m1 0h1m2 0h2M0 6h3m3 0h9m1 0h11m1 0h2m1 0h7M0 7h4m3 0h1m1 0h2m1 0h2m1 0h13m4 0h2m1 0h3M0 8h3m1 0h16m1 0h4m1 0h2m4 0h1m1 0h4M0 9h5m1 0h9m1 0h5m1 0h4m1 0h3m2 0h3m1 0h2M0 10h13m1 0h4m1 0h7m1 0h3m1 0h3m1 0h3M0 11h4m2 0h9m1 0h14m1 0h4m1 0h2M0 12h6m1 0h5m2 0h14m1 0h4m1 0h3M0 13h2m1 0h14m1 0h5m1 0h6m1 0h4m1 0h2M0 14h1m3 0h2m2 0h1m3 0h1m1 0h14m1 0h9M0 15h1m3 0h4m1 0h9m1 0h5m1 0h13M0 16h1m3 0h11m2 0h6m2 0h1m1 0h3m1 0h7M0 17h2m1 0h1m1 0h6m1 0h1m3 0h3m1 0h17M0 18h9m3 0h4m1 0h5m1 0h1m1 0h2m1 0h10M0 19h3m1 0h4m3 0h4m1 0h3m1 0h1m1 0h7m1 0h4m1 0h3M0 20h4m1 0h4m1 0h9m1 0h8m1 0h4m3 0h2M0 21h3m1 0h1m1 0h1m1 0h7m1 0h11m3 0h4m1 0h3M0 22h1m4 0h5m1 0h2m2 0h5m1 0h3m1 0h5m1 0h1m2 0h2m1 0h1M0 23h2m2 0h6m1 0h5m1 0h4m1 0h2m1 0h2m1 0h1m1 0h5m1 0h2M0 24h5m1 0h12m1 0h9m4 0h2m1 0h1m1 0h1M0 25h6m2 0h6m1 0h10m2 0h1m3 0h2m2 0h3M0 26h3m1 0h1m1 0h18m2 0h2m1 0h1m1 0h4m1 0h2M0 27h4m1 0h23m1 0h2m1 0h1m1 0h3M0 28h1m1 0h9m1 0h1m1 0h2m1 0h2m1 0h3m1 0h3m1 0h7m1 0h2M4 29h18m1 0h3m1 0h1m1 0h9M0 30h1m1 0h1m1 0h8m1 0h2m1 0h2m1 0h1m1 0h6m1 0h7m2 0h1M0 31h2m1 0h5m1 0h7m1 0h1m1 0h3m1 0h9m1 0h5M0 32h1m1 0h4m1 0h5m1 0h4m1 0h10m2 0h1m2 0h5M0 33h5m2 0h1m2 0h1m1 0h16m1 0h6m1 0h2M0 34h4m5 0h6m2 0h3m1 0h6m1 0h1m1 0h5m1 0h2M0 35h3m1 0h2m2 0h19m5 0h1m1 0h2M0 36h6m3 0h1m1 0h10m1 0h7m1 0h2m1 0h1m3 0h1M0 37h3m1 0h6m1 0h1m1 0h8m1 0h1m2 0h2m1 0h2m1 0h7"/><path stroke-width="1.01" stroke="#02052b" d="M3 0h1m16 0h1m10 0h1m-3 1h1m3 0h1m-8 2h1m4 0h1m2 2h1M15 6h1M5 7h1m2 0h1m19 0h1m5 0h1m-2 1h1M21 9h1m4 1h1m-14 2h1m23 0h1M6 14h2m1 0h1m18 0h1m-6 2h2M4 17h1m5 1h1m5 0h1M3 19h1m17 0h1m-3 1h1m9 1h1m-20 1h1m2 0h2m5 0h1m-5 1h1M5 24h1m25 0h1m-7 1h1m2 0h1M5 26h1m19 0h1m4 0h1m4 0h1m-5 1h1m1 0h1m3 0h1m-27 1h1m7 0h1m6 1h1m1 0h1M3 30h1m8 0h1m5 0h1m16 0h1m-7 2h1m2 0h1m-18 2h1m11 0h1m5 1h1m3 0h1M8 36h1m1 1h1m12 0h2"/><path stroke-width="1.01" stroke="#07264d" d="M5 0h1"/><path stroke-width="1.01" stroke="#02042a" d="M13 0h1m1 1h1m7 0h1m12 1h1M4 3h1m15 0h1M11 4h1m20 0h1m-1 1h1M11 7h1m2 0h1m16 0h1m-4 1h1M5 9h1m20 0h1m8 0h1M5 11h1m24 0h1M6 12h1m16 1h1m11 0h1m-23 1h1m-6 1h1m6 1h2M2 17h1m10 0h1m1 0h1m3 0h1m-9 1h1m10 0h1m1 0h1m2 0h1m-13 1h1m12 1h1M5 21h1m1 0h1m20 0h1m-5 1h1m7 0h2m2 0h1m-27 1h1m16 0h1m-10 1h1m15 0h1m-9 1h1m3 0h1m2 0h1m-10 1h1M4 27h1m23 0h1m-13 1h1m6 0h1m3 0h1m-1 2h1M8 31h1m7 0h1m15 0h1m-16 1h1m10 0h1m2 0h1m-4 1h1m6 0h1m-20 1h1M3 35h1m23 0h1m3 0h1m0 1h1"/><path stroke-width="1.01" stroke="#03042b" d="M14 0h1m4 0h1m3 0h1M0 1h1m13 0h1m10 0h1M8 2h1m10 1h1m2 0h1m9 0h1M12 5h1m8 0h1m5 1h1M6 7h1M3 8h1m21 0h1M15 9h1m-3 1h1m4 0h1m15 0h1M4 11h1m10 0h1m-4 1h1m15 0h1M2 13h1m14 0h1m12 0h1m-20 1h1m12 1h1m1 1h1m-13 1h1m22 0h1m-19 2h1m9 0h1M4 20h1m10 1h1m11 0h1m2 1h1M2 23h1m18 0h1m2 0h1m11 1h1M6 25h2m6 0h1m19 0h1M3 26h1m9 2h1M3 29h1m11 1h1m20 0h1M2 31h1m15 0h1m3 0h1M1 32h1m10 0h1m-5 1h2m1 0h1m8 1h1M7 36h1m2 0h1m1 1h1m14 0h1m2 0h1"/><path stroke-width="1.01" stroke="#03052b" d="M8 1h1m25 0h1M20 8h1m14 3h1m-18 4h1m2 21h1m-1 1h1"/><path stroke-width="1.01" stroke="#244d61" d="M17 1h1m-2 2h1m0 2h1m12 11h1m3 3h1m-1 2h1"/><path stroke-width="1.01" stroke="#02052a" d="M5 2h1m29 21h1"/><path stroke-width="1.01" stroke="#041a40" d="M16 2h1m1 0h1m-3 2h1m1 0h1M4 5h1m0 1h1M4 7h1m28 13h1m1 0h1m-1 14h1M7 35h1m28 0h1m-3 1h3"/><path stroke-width="1.01" stroke="#377572" d="M17 2h1m-1 1h1m-1 1h1"/><path stroke-width="1.01" stroke="#244c61" d="M18 3h1"/><path stroke-width="1.01" stroke="#05274d" d="M35 3h1M23 4h1m10 0h1m1 0h1m-2 1h1M11 17h1m-3 1h1m0 1h1m-2 1h1m-7 1h1m0 1h1m-2 1h1M3 37h1"/><path stroke-width="1.01" stroke="#4d357b" d="M14 4h1"/><path stroke-width="1.01" stroke="#4e4796" d="M35 4h1m-1 24h1"/><path stroke-width="1.01" stroke="#041b40" d="M3 6h1"/><path stroke-width="1.01" stroke="#312e6d" d="M4 6h1"/><path stroke-width="1.01" stroke="#061940" d="M30 6h1m-2 1h1m1 2h1m-2 1h1M6 32h1m-2 1h1m2 1h1m-3 2h1"/><path stroke-width="1.01" stroke="#374e61" d="M30 7h1m-2 1h1m1 0h1m-2 1h1m-2 14h1m-2 1h1m1 0h1m-2 1h1M5 34h1m0 1h1"/><path stroke-width="1.01" stroke="#686a67" d="M30 8h1"/><path stroke-width="1.01" stroke="#26256d" d="M33 12h1"/><path stroke-width="1.01" stroke="#051e34" d="M1 14h1"/><path stroke-width="1.01" stroke="#332e33" d="M2 14h1"/><path stroke-width="1.01" stroke="#041531" d="M3 14h1m-3 2h1m1 0h1"/><path stroke-width="1.01" stroke="#03042a" d="M10 14h1M1 22h1m26 4h1m-7 3h1m-3 1h1"/><path stroke-width="1.01" stroke="#2b2b2f" d="M1 15h1m1 0h1"/><path stroke-width="1.01" stroke="#57544a" d="M2 15h1"/><path stroke-width="1.01" stroke="#332f33" d="M2 16h1"/><path stroke-width="1.01" stroke="#05274c" d="M8 19h1m-7 3h1"/><path stroke-width="1.01" stroke="#475296" d="M9 19h1"/><path stroke-width="1.01" stroke="#497b65" d="M34 20h1"/><path stroke-width="1.01" stroke="#397a82" d="M3 22h1"/><path stroke-width="1.01" stroke="#546774" d="M29 24h1M6 34h1"/><path stroke-width="1.01" stroke="#1b043e" d="M1 28h1m-2 1h3m-2 1h1"/><path stroke-width="1.01" stroke="#374f61" d="M6 33h1m0 1h1"/><path stroke-width="1.01" stroke="#061840" d="M4 34h1"/><path stroke-width="1.01" stroke="#1c063e" d="M29 34h1m-2 1h3m-2 1h1"/></svg>