<svg
   shape-rendering="crispEdges"
   viewBox="0 -0.5 9 14"
   version="1.1"
   id="svg16"
   sodipodi:docname="accessory_right_star_wand.svg"
   width="9"
   height="14"
   xmlns="http://www.w3.org/2000/svg"
   xmlns:svg="http://www.w3.org/2000/svg">
  <defs
     id="defs20" />
  <sodipodi:namedview
     id="namedview18"
     pagecolor="#505050"
     bordercolor="#eeeeee"
     borderopacity="1"
     inkscape:pageshadow="0"
     inkscape:pageopacity="0"
     inkscape:pagecheckerboard="0"
     showgrid="false"
     inkscape:zoom="17.526316"
     inkscape:cx="-9.0435435"
     inkscape:cy="4.9924925"
     inkscape:window-width="1920"
     inkscape:window-height="1009"
     inkscape:window-x="-8"
     inkscape:window-y="-8"
     inkscape:window-maximized="1"
     inkscape:current-layer="svg16" />
  <path
     stroke="#fbf336"
     d="M 4,0 H 5 M 3,4 h 1"
     id="path2" />
  <path
     stroke="#fbf236"
     d="M 3,1 H 5 M 3,2 H 5 M 1,3 H 3 M 4,3 H 5 M 6,3 H 7 M 0,4 H 2 M 5,4 H 8 M 4,5 H 5 M 2,6 H 4 M 5,6 H 6 M 2,7 h 1 m 2,0 h 1"
     id="path4" />
  <path
     stroke="#faf236"
     d="M 5,1 H 6 M 7,3 H 8 M 2,4 h 1"
     id="path6" />
  <path
     stroke="#ffd85e"
     d="M 5,2 H 6 M 3,3 H 4 M 5,3 H 6 M 4,4 H 5 M 8,4 H 9 M 1,5 H 4 M 5,5 H 8 M 4,6 H 5 M 6,6 H 7 M 3,7 H 4 M 6,7 H 7 M 2,8 h 1 m 3,0 h 1"
     id="path8" />
  <path
     stroke="#c856ad"
     d="M 4,7 H 5 M 4,13 H 5"
     id="path10" />
  <path
     stroke="#ff79df"
     d="M 4,8 H 5 M 4,9 h 1 m -1,2 h 1 m -1,1 h 1"
     id="path12" />
  <path
     stroke="#fe78df"
     d="M 4,10 H 5"
     id="path14" />
</svg>
