<svg
   shape-rendering="crispEdges"
   viewBox="0 -0.5 9 12"
   version="1.1"
   id="svg40"
   sodipodi:docname="accessory_right_judges_gavel.svg"
   width="9"
   height="12"
   xmlns="http://www.w3.org/2000/svg"
   xmlns:svg="http://www.w3.org/2000/svg">
  <defs
     id="defs44" />
  <sodipodi:namedview
     id="namedview42"
     pagecolor="#505050"
     bordercolor="#eeeeee"
     borderopacity="1"
     inkscape:pageshadow="0"
     inkscape:pageopacity="0"
     inkscape:pagecheckerboard="0"
     showgrid="false"
     inkscape:zoom="17.526316"
     inkscape:cx="-9.0435435"
     inkscape:cy="0.9984985"
     inkscape:window-width="1920"
     inkscape:window-height="1009"
     inkscape:window-x="-8"
     inkscape:window-y="-8"
     inkscape:window-maximized="1"
     inkscape:current-layer="svg40" />
  <path
     stroke="#bd5a02"
     d="M 1,0 H 2"
     id="path2" />
  <path
     stroke="#b04b00"
     d="M 2,0 H 3"
     id="path4" />
  <path
     stroke="#ffc96d"
     d="M 3,0 H 7"
     id="path6" />
  <path
     stroke="#b04a00"
     d="M 7,0 H 8"
     id="path8" />
  <path
     stroke="#bd5b02"
     d="M 8,0 H 9"
     id="path10" />
  <path
     stroke="#a24501"
     d="M 0,1 H 1"
     id="path12" />
  <path
     stroke="#a24500"
     d="M 1,1 H 2"
     id="path14" />
  <path
     stroke="#873900"
     d="M 2,1 H 3 M 2,2 H 3 M 7,2 H 9 M 4,5 h 2"
     id="path16" />
  <path
     stroke="#ffb83f"
     d="M 3,1 H 7 M 3,2 h 3"
     id="path18" />
  <path
     stroke="#843800"
     d="M 7,1 H 9 M 0,2 h 2"
     id="path20" />
  <path
     stroke="#feb83f"
     d="M 6,2 H 7"
     id="path22" />
  <path
     stroke="#6d2200"
     d="M 1,3 H 3 M 8,3 H 9 M 4,4 h 1"
     id="path24" />
  <path
     stroke="#f0a424"
     d="M 3,3 H 5"
     id="path26" />
  <path
     stroke="#f0a629"
     d="M 5,3 H 7"
     id="path28" />
  <path
     stroke="#6d2300"
     d="M 7,3 H 8"
     id="path30" />
  <path
     stroke="#6d2201"
     d="M 5,4 H 6"
     id="path32" />
  <path
     stroke="#964507"
     d="M 4,6 H 6"
     id="path34" />
  <path
     stroke="#6a2100"
     d="M 4,7 H 6 M 4,10 H 6 M 4,11 H 6"
     id="path36" />
  <path
     stroke="#813802"
     d="M 4,8 H 6 M 4,9 h 2"
     id="path38" />
</svg>
