<svg
   shape-rendering="crispEdges"
   viewBox="0 -0.5 8 9"
   version="1.1"
   id="svg16"
   sodipodi:docname="wing_left_robot.svg"
   width="8"
   height="9"
   xmlns="http://www.w3.org/2000/svg"
   xmlns:svg="http://www.w3.org/2000/svg">
  <defs
     id="defs20" />
  <sodipodi:namedview
     id="namedview18"
     pagecolor="#505050"
     bordercolor="#eeeeee"
     borderopacity="1"
     inkscape:pageshadow="0"
     inkscape:pageopacity="0"
     inkscape:pagecheckerboard="0"
     showgrid="false"
     inkscape:zoom="17"
     inkscape:cx="15.970588"
     inkscape:cy="-5.0294118"
     inkscape:window-width="1920"
     inkscape:window-height="1009"
     inkscape:window-x="-8"
     inkscape:window-y="-8"
     inkscape:window-maximized="1"
     inkscape:current-layer="svg16" />
  <path
     stroke="#858585"
     d="M 0,0 H 2 M 0,1 H 3 M 1,2 H 4 M 4,3 H 5 M 6,3 H 8 M 5,4 H 7 M 6,5 h 2"
     id="path2" />
  <path
     stroke="#a8a8a8"
     d="M 2,0 H 4 M 3,1 H 7 M 5,2 h 2"
     id="path4" />
  <path
     stroke="#848585"
     d="M 4,2 H 5 M 5,3 H 6"
     id="path6" />
  <path
     stroke="#636363"
     d="M 7,2 H 8 M 7,4 H 8 M 4,5 H 5 M 7,6 H 8 M 7,8 h 1"
     id="path8" />
  <path
     stroke="#767676"
     d="M 3,3 H 4 M 4,4 H 5 M 5,6 H 7 M 7,7 H 8"
     id="path10" />
  <path
     stroke="#777676"
     d="M 5,5 H 6"
     id="path12" />
  <path
     stroke="#626363"
     d="M 6,7 H 7"
     id="path14" />
</svg>
