<?xml version="1.0" encoding="UTF-8"?>
<svg width="9" height="22.01" shape-rendering="crispEdges" version="1.1" viewBox="0 -.5 9 22.01" xmlns="http://www.w3.org/2000/svg">
 <g stroke-width="1.01">
  <path d="m6 5e-3h1m-2 1h1m-1 1h1m-2 1h2m-1 1h1m-2 1h1m-2 1h2m-2 1h2m-2 1h1m-1 1h1m-2 1h1m-1 1h2m-2 1h1m-2 1h2m-2 1h2m-2 1h1m-2 2h2m-2 1h2m-2 1h1m-1 2h1" stroke="#f8f34e"/>
  <path d="m7 5e-3h2m-3 1h1m1 0h1m-3 1h2m-2 1h1m-2 2h1m-2 3h1m-1 1h1m-2 3h1m-2 3h1m-1 1h1m-2 3h1m-1 1h1m-1 1h1" stroke="#ffe700"/>
  <path d="m7 1.005h1" stroke="#a47a00"/>
  <path d="m8 2.005h1m-2 2h1m-2 1h1m-1 1h1m-2 1h1m-1 1h1m-1 1h1m-2 1h1m-1 2h1m-2 1h1m-1 1h1m-1 1h1m-2 2h1m-1 1h1m-1 1h1m-1 1h1m-1 1h1" stroke="#f0c012"/>
  <path d="m7 3.005h1m-4 8h1m-2 5h1" stroke="#f0c013"/>
  <path d="m4 4.005h1m-2 6h1m-3 6h1" stroke="#f9f34e"/>
  <path d="m6 4.005h1m-2 2h1" stroke="#fee700"/>
  <path d="m0 20.005h1" stroke="#f8f24e"/>
 </g>
</svg>
