<?xml version="1.0" encoding="UTF-8"?>
<svg width="9" height="14.01" shape-rendering="crispEdges" version="1.1" viewBox="0 -.5 9 14.01" xmlns="http://www.w3.org/2000/svg">
 <g stroke-width="1.01">
  <path d="m4 5e-3h1m-4 3h1m0 3h1" stroke="#fef41c"/>
  <path d="m3 1.005h3m-3 1h2m-3 1h1m1 0h1m1 0h2m-7 1h3m1 0h3m-4 1h1m-2 1h1m-3 1h1m3 0h1" stroke="#fff41c"/>
  <path d="m5 2.005h1" stroke="#fed13b"/>
  <path d="m3 3.005h1m0 1h1m3 0h1m-8 1h3m1 0h1m1 0h1m-4 1h1m1 0h1m-4 1h1m2 0h2m-6 1h1m3 0h2" stroke="#ffd13b"/>
  <path d="m5 3.005h1m0 2h1" stroke="#ffd13a"/>
  <path d="m0 4.005h1" stroke="#fff41d"/>
  <path d="m5 6.005h1m-4 1h1m-2 1h1" stroke="#fff51c"/>
  <path d="m4 7.005h1m-1 6h1" stroke="#c634a5"/>
  <path d="m4 8.005h1m-1 1h1m-1 1h1m-1 1h1" stroke="#ff58d8"/>
  <path d="m4 12.005h1" stroke="#ff58d9"/>
 </g>
</svg>
