<?xml version="1.0" encoding="UTF-8"?>
<svg width="16" height="27.01" shape-rendering="crispEdges" version="1.1" viewBox="0 -.5 16 27.01" xmlns="http://www.w3.org/2000/svg">
 <g stroke-width="1.01">
  <path d="m6 5e-3h1m-2 1h1m5 0h1m1 0h1m-12 4h1m-1 5h1m0 2h1m10 3h1m-5 1h1m-2 1h1m4 0h1" stroke="#130c05"/>
  <path d="m7 5e-3h1m2 0h3m-7 1h5m1 0h1m1 0h2m-11 1h2m7 0h2m-12 1h2m9 0h1m-13 1h2m-2 1h1m-3 1h2m-2 1h2m-3 1h2m-2 1h2m-1 1h1m-1 1h3m-1 2h2m-1 1h1m10 0h1m-11 1h2m8 0h1m-10 1h4m1 0h1m1 0h2m-9 1h3m1 0h4" stroke="#120c05"/>
  <path d="m8 5e-3h1m4 0h2m-12 6h1m-2 6h1m2 4h1" stroke="#120d05"/>
  <path d="m9 5e-3h1m-5 14h1m6 2h1" stroke="#120c04"/>
  <path d="m4 2.005h1m-1 13h1" stroke="rgba(19,12,5,0.807843137254902)"/>
  <path d="m7 2.005h1m-4 4h1m-1 5h1m2 4h1" stroke="#d3d3d3"/>
  <path d="m8 2.005h2m1 0h2m-6 1h6m1 0h1m-9 1h5m2 0h1m1 0h1m-11 1h3m1 0h1m2 0h2m1 0h1m-11 1h1m1 0h2m2 0h5m-12 1h4m6 0h1m-12 1h1m1 0h3m5 0h3m-13 1h2m1 0h3m6 0h1m-12 1h5m6 0h1m-11 1h7m3 0h1m-11 1h1m1 0h1m1 0h2m4 0h1m-10 1h2m6 0h2m-9 1h1m5 0h1m-5 1h5" stroke="#f1f2ec"/>
  <path d="m10 2.005h1m2 0h1m-1 1h1m1 4h1m-11 2h1m2 6h1" stroke="#f0f2ec"/>
  <path d="m3 3.005h1" stroke="rgba(19,13,4,0.4823529411764706)"/>
  <path d="m6 3.005h1m-1 11h1" stroke="#b4b4b4"/>
  <path d="m5 4.005h1m6 0h1m-10 3h1m9 0h1m0 2h1m-12 1h1m5 0h1m-5 3h1m2 1h1" stroke="#707070"/>
  <path d="m11 4.005h1" stroke="#3c3d3d"/>
  <path d="m14 4.005h1m-6 5h1m-4 3h1m1 0h1" stroke="#f1f2ed"/>
  <path d="m4 5.005h1m6 0h1m-2 1h1m1 1h1m-11 1h1m9 0h1m-11 1h1m7 0h1m2 0h1m-4 1h1m3 0h1m-3 1h1m-9 1h1m6 0h1m-3 2h1" stroke="#3d3d3d"/>
  <path d="m8 5.005h1" stroke="#f0f2ed"/>
  <path d="m10 5.005h1m-2 1h1m-2 1h4m-4 1h3m1 1h1m-2 1h2m0 1h1m-2 1h3m-7 1h6m-4 1h3" stroke="#150e05"/>
  <path d="m14 5.005h1m-9 1h1m-3 2h1m9 6h1" stroke="#f1f3ec"/>
  <path d="m11 8.005h1m1 2h1" stroke="#140e05"/>
  <path d="m11 9.005h1m2 2h1" stroke="#150e04"/>
  <path d="m3 14.005h1" stroke="rgba(19,12,4,0.4823529411764706)"/>
  <path d="m15 16.005h1" stroke="#120d04"/>
  <path d="m9 18.005h1m-1 8h1" stroke="#826243"/>
  <path d="m9 19.005h1m-1 1h1m-1 2h1m-1 1h1m-1 1h1m-1 1h1" stroke="#a17549"/>
  <path d="m9 21.005h1" stroke="#a17449"/>
 </g>
</svg>
