<?xml version="1.0" encoding="UTF-8"?>
<svg width="13" height="15.01" shape-rendering="crispEdges" version="1.1" viewBox="0 -.5 13 15.01" xmlns="http://www.w3.org/2000/svg">
 <g stroke-width="1.01">
  <path d="m10 5e-3h2m-4 1h2m-4 1h3m-4 1h1m1 0h1m3 0h2m-8 1h1m2 0h2m2 0h1m-9 1h2m1 0h1m2 0h1m-11 1h1m3 0h2m5 0h1m-12 1h1m3 0h2m5 0h2m-12 1h1m3 0h1m5 0h2m-11 1h3m2 0h2m2 0h2m-10 1h5m2 0h1m-5 1h2m2 0h3m-4 1h3m-3 1h1m-4 1h2" stroke="#79fda7"/>
  <path d="m9 2.005h1m2 0h1m-10 3h1m4 0h2m2 0h1m-10 1h1m2 0h1m3 0h1m1 0h1m-7 1h1m3 0h1m-7 1h1m1 0h1m3 0h1m-3 2h2m-5 2h1" stroke="#3bc396"/>
  <path d="m10 2.005h2m-4 1h1m1 0h1m-2 3h1m-8 1h2m-1 1h1m4 3h2m-3 1h2" stroke="#2da584"/>
  <path d="m6 3.005h1" stroke="#78fda7"/>
  <path d="m9 3.005h1" stroke="#2ca584"/>
  <path d="m4 4.005h1m6 6h1" stroke="#79fca7"/>
  <path d="m6 4.005h2m3 0h1m-6 1h1m4 0h1m-3 4h2" stroke="#48df87"/>
  <path d="m10 4.005h1m-10 5h1m4 0h1m5 1h1m-8 1h1m2 2h1" stroke="#79fda6"/>
  <path d="m7 6.005h2m0 1h1" stroke="#26987b"/>
  <path d="m7 7.005h2m-2 1h1m1 0h1" stroke="#047861"/>
  <path d="m8 8.005h1" stroke="#004d4e"/>
  <path d="m5 9.005h1" stroke="#49df87"/>
  <path d="m4 11.005h1m1 1h1" stroke="#3bc296"/>
 </g>
</svg>
