<?xml version="1.0" encoding="UTF-8" standalone="no"?>
<svg
   shape-rendering="crispEdges"
   viewBox="0 -0.5 9 17.01"
   version="1.1"
   id="svg46"
   width="9"
   height="17.01"
   xmlns="http://www.w3.org/2000/svg"
   xmlns:svg="http://www.w3.org/2000/svg">
  <defs
     id="defs50" />
  <path
     stroke="#a8b8ce"
     stroke-width="1.01"
     d="m 3,0.005 h 1 m -2,1 h 1 m -2,1 h 1 m 5,0 h 1 m -8,1 h 1 m 5,0 h 3 m -4,1 h 3 m -1,1 h 1 m -4,2 h 2 m -5,1 h 1 m 2,0 h 1 m -4,2 h 1 m -1,1 h 1"
     id="path2" />
  <path
     stroke="#c7defc"
     stroke-width="1.01"
     d="m 4,0.005 h 3 m -4,1 h 1 m 2,0 h 2 m -6,1 h 1 m 3,0 h 1 m 1,0 h 1 m -8,1 h 1 m 2,0 h 2 m -6,1 h 1 m 3,0 h 1 m -5,1 h 1 m -1,1 h 2 m -2,1 h 2 m -2,1 h 1"
     id="path4" />
  <path
     stroke="#f8f7f6"
     stroke-width="1.01"
     d="M 4,1.005 H 5"
     id="path6" />
  <path
     stroke="#f8f6f7"
     stroke-width="1.01"
     d="m 5,1.005 h 1 m -3,1 h 2 m -4,2 h 1 m -1,1 h 1"
     id="path8" />
  <path
     stroke="#a9b8ce"
     stroke-width="1.01"
     d="M 0,2.005 H 1"
     id="path10" />
  <path
     stroke="#c7dffc"
     stroke-width="1.01"
     d="M 5,2.005 H 6"
     id="path12" />
  <path
     stroke="#4972ff"
     stroke-width="1.01"
     d="m 2,3.005 h 2 m -2,7 h 1"
     id="path14" />
  <path
     stroke="#2b59f7"
     stroke-width="1.01"
     d="M 2,4.005 H 4"
     id="path16" />
  <path
     stroke="#92a6cd"
     stroke-width="1.01"
     d="m 8,4.005 h 1 m -1,1 h 1 m -1,1 h 1 m -1,1 h 1 m -9,2 h 1 m 1,2 h 1 m 0,1 h 2"
     id="path18" />
  <path
     stroke="#2151f5"
     stroke-width="1.01"
     d="m 2,5.005 h 2 m -2,1 h 2 m -2,1 h 1 m -1,1 h 2 m -1,1 h 1 m -1,1 h 1"
     id="path20" />
  <path
     stroke="#1835e8"
     stroke-width="1.01"
     d="m 4,5.005 h 2 m -2,1 h 1 m 1,0 h 2 m -2,1 h 2 m -1,1 h 1 m -4,1 h 4 m -4,1 h 3"
     id="path22" />
  <path
     stroke="#1935e8"
     stroke-width="1.01"
     d="M 6,5.005 H 7"
     id="path24" />
  <path
     stroke="#1834e8"
     stroke-width="1.01"
     d="M 5,6.005 H 6"
     id="path26" />
  <path
     stroke="#2150f5"
     stroke-width="1.01"
     d="M 3,7.005 H 4"
     id="path28" />
  <path
     stroke="#7a8ab9"
     stroke-width="1.01"
     d="m 5,8.005 h 1 m 2,0 h 1 m -1,1 h 1 m -9,1 h 1 m 6,0 h 2 m -3,1 h 3 m -7,1 h 1 m 2,0 h 3 m -6,1 h 5 m -5,1 h 5 m -4,1 h 3 m -2,1 h 1"
     id="path30" />
  <path
     stroke="#1835e9"
     stroke-width="1.01"
     d="M 6,8.005 H 7"
     id="path32" />
  <path
     stroke="#a8b8cf"
     stroke-width="1.01"
     d="M 1,9.005 H 2"
     id="path34" />
  <path
     stroke="#2151f4"
     stroke-width="1.01"
     d="M 2,9.005 H 3"
     id="path36" />
  <path
     stroke="#93a7cd"
     stroke-width="1.01"
     d="M 3,11.005 H 4"
     id="path38" />
  <path
     stroke="#92a6cc"
     stroke-width="1.01"
     d="M 4,11.005 H 5"
     id="path40" />
  <path
     stroke="#93a6cd"
     stroke-width="1.01"
     d="M 5,11.005 H 6"
     id="path42" />
  <path
     stroke="#7a8bb9"
     stroke-width="1.01"
     d="M 1,12.005 H 2"
     id="path44" />
</svg>
