<?xml version="1.0" encoding="UTF-8"?>
<svg width="9" height="22.01" shape-rendering="crispEdges" version="1.1" viewBox="0 -.5 9 22.01" xmlns="http://www.w3.org/2000/svg">
 <g stroke-width="1.01">
  <path d="m6 5e-3h1m-2 1h1m-1 1h1m-2 1h2m-1 1h1m-2 1h1m-2 1h2m-2 1h2m-2 1h1m-1 1h1m-2 1h1m-1 1h2m-2 1h1m-2 1h2m-2 1h2m-2 1h1m-1 1h1m-2 1h2m-2 1h2m-2 1h1m-1 1h1m-1 1h1" stroke="#fca4b0"/>
  <path d="m7 5e-3h2m-3 1h1m1 0h1m-3 1h2m-2 1h1m-1 1h1m-2 1h1m-1 1h1m-2 3h1m-2 3h1m-2 3h1m-1 1h1m-2 3h1m-1 1h1m-1 1h1" stroke="#ef8393"/>
  <path d="m7 1.005h1" stroke="#a84660"/>
  <path d="m8 2.005h1m-2 1h1m-1 1h1m-2 1h1m-1 1h1m-2 1h1m-1 1h1m-1 1h1m-2 1h1m-1 1h1m-2 2h1m-1 2h1m-1 1h1m-2 1h1m-1 1h1m-1 1h1m-1 1h1m-1 1h1" stroke="#e0658a"/>
  <path d="m4 4.005h1m-2 6h1" stroke="#fca4b1"/>
  <path d="m4 8.005h1" stroke="#ee8393"/>
  <path d="m4 12.005h1m-2 2h1" stroke="#e0658b"/>
 </g>
</svg>
