<?xml version="1.0" encoding="UTF-8"?>
<svg width="4" height="10.505" shape-rendering="crispEdges" version="1.1" viewBox="0 -.5 4 10.505" xmlns="http://www.w3.org/2000/svg">
 <g stroke-width="1.01">
  <path d="m1 5e-3h2" stroke="#eff2f4"/>
  <path d="m1 1.005h1" stroke="rgba(211,227,244,0.6392156862745098)"/>
  <path d="m2 1.005h1m-1 1h1" stroke="rgba(132,135,135,0.40784313725490196)"/>
  <path d="m1 2.005h1" stroke="rgba(210,226,244,0.6392156862745098)"/>
  <path d="m0 3.005h1" stroke="rgba(255,255,255,0.6392156862745098)"/>
  <path d="m1 3.005h1m-1 1h1m-1 1h1m-1 1h1" stroke="rgba(226,239,243,0.8823529411764706)"/>
  <path d="m2 3.005h1m-1 1h1" stroke="rgba(210,227,244,0.6392156862745098)"/>
  <path d="m3 3.005h1m-1 1h1" stroke="rgba(125,128,130,0.40784313725490196)"/>
  <path d="m0 4.005h1" stroke="rgba(197,219,241,0.6392156862745098)"/>
  <path d="m0 5.005h1m2 0h1m-4 1h1m2 0h1m-4 1h1m2 0h1m-1 1h1m-4 1h1m2 0h1m-4 1h4" stroke="rgba(79,114,189,0.8784313725490196)"/>
  <path d="m2 5.005h1" stroke="rgba(108,146,204,0.9019607843137255)"/>
  <path d="m2 6.005h1m-2 1h2m-2 1h2m-2 1h2" stroke="rgba(108,147,204,0.9019607843137255)"/>
  <path d="m0 8.005h1" stroke="rgba(79,115,189,0.8784313725490196)"/>
 </g>
</svg>
