<svg
   shape-rendering="crispEdges"
   viewBox="0 -0.5 11 8"
   version="1.1"
   id="svg26"
   sodipodi:docname="accessory_face_love_letter.svg"
   width="11"
   height="8"
   xmlns="http://www.w3.org/2000/svg"
   xmlns:svg="http://www.w3.org/2000/svg">
  <defs
     id="defs30" />
  <sodipodi:namedview
     id="namedview28"
     pagecolor="#505050"
     bordercolor="#eeeeee"
     borderopacity="1"
     inkscape:pageshadow="0"
     inkscape:pageopacity="0"
     inkscape:pagecheckerboard="0"
     showgrid="false"
     inkscape:zoom="17.526316"
     inkscape:cx="-5.0495495"
     inkscape:cy="-1.0555556"
     inkscape:window-width="1920"
     inkscape:window-height="1009"
     inkscape:window-x="-8"
     inkscape:window-y="-8"
     inkscape:window-maximized="1"
     inkscape:current-layer="svg26" />
  <path
     stroke="#fcfaf6"
     d="m 0,0 h 4 m 1,0 h 1 m 1,0 h 4 M 5,1 h 1 m 2,0 h 2 M 9,2 h 2 M 1,3 h 1 m 7,0 h 2 M 0,4 h 1 m 1,0 h 1 m 5,0 h 2 M 1,5 h 3 m 3,0 h 4 M 2,6 h 3 m 1,0 h 5 M 0,7 h 3 m 1,0 h 4 m 1,0 h 1"
     id="path2" />
  <path
     stroke="#fcfaf7"
     d="M 4,0 H 5 M 2,1 h 1 m 7,3 h 1 M 0,5 h 1"
     id="path4" />
  <path
     stroke="#fcfbf6"
     d="M 6,0 H 7 M 1,4 h 1 m 6,3 h 1"
     id="path6" />
  <path
     stroke="#f3e9e1"
     d="M 1,1 H 2 M 1,2 H 2 M 0,3 h 1"
     id="path8" />
  <path
     stroke="#e6001a"
     d="M 3,1 H 5 M 7,1 H 8 M 2,2 H 3 M 4,2 H 8 M 3,3 H 5 M 3,4 h 1 m 1,2 h 1"
     id="path10" />
  <path
     stroke="#e6001b"
     d="M 6,1 H 7 M 2,3 h 1"
     id="path12" />
  <path
     stroke="#fdfaf6"
     d="m 10,1 h 1 M 0,6 h 2 m 1,1 h 1 m 6,0 h 1"
     id="path14" />
  <path
     stroke="#ff3d3d"
     d="M 3,2 H 4"
     id="path16" />
  <path
     stroke="#d40017"
     d="M 8,2 H 9 M 4,4 H 8 M 4,5 h 3"
     id="path18" />
  <path
     stroke="#e6011a"
     d="M 5,3 H 6"
     id="path20" />
  <path
     stroke="#d40116"
     d="M 6,3 H 7"
     id="path22" />
  <path
     stroke="#d50017"
     d="M 7,3 H 9"
     id="path24" />
</svg>
