<?xml version="1.0" encoding="UTF-8"?>
<svg width="21" height="17.01" shape-rendering="crispEdges" version="1.1" viewBox="0 -.5 21 17.01" xmlns="http://www.w3.org/2000/svg">
 <g stroke-width="1.01">
  <path d="m9 5e-3h6m1 0h1m-12 1h4m1 0h1m1 0h7m-18 1h1m1 0h2m1 0h12m-15 1h16m-16 1h2m7 0h3m4 0h1m-14 1h1m5 0h3m-9 1h2m4 0h2m5 0h1m-8 1h3m-9 1h2m4 0h3m-9 1h2m4 0h2m5 0h1m-14 1h10m1 0h1m1 0h1m-14 1h3m1 0h1m7 0h2" stroke="#7124ee"/>
  <path d="m15 5e-3h1" stroke="#7125ef"/>
  <path d="m4 1.005h1m14 0h1m-15 1h1m-4 1h1m16 0h1m-19 1h1m3 0h1m-6 1h1m7 4h2m5 0h4m-8 4h1m0 1h2m5 0h1" stroke="#6514dd"/>
  <path d="m9 1.005h1m1 0h1m-10 1h1m4 3h1m11 0h1m-11 6h1" stroke="#7024ee"/>
  <path d="m18 2.005h2m-13 2h1m11 3h1m-2 3h1" stroke="#7125ee"/>
  <path d="m2 4.005h1m17 0h1m-20 1h5m14 0h1m-17 1h2m-1 1h1m14 0h1m-16 1h1m14 0h1m-1 1h1m-16 1h1m14 0h1m-1 1h1m-16 1h1m14 0h1" stroke="#5519ae"/>
  <path d="m6 4.005h1m-1 3h1m12 1h1m-6 1h1m1 1h1" stroke="#7124ef"/>
  <path d="m8 4.005h3m4 0h3m-7 1h1m3 0h1m2 0h1m-11 1h1m2 0h1m3 0h1m2 0h1m-11 1h1m2 0h1m3 0h1m-8 1h4m3 0h4" stroke="#522400"/>
  <path d="m11 4.005h1m-4 1h1m9 2h1" stroke="#522401"/>
  <path d="m18 4.005h1" stroke="#532400"/>
  <path d="m9 5.005h2m5 0h2m-9 1h2m5 0h2m-9 1h2m6 0h1" stroke="#1f1106"/>
  <path d="m14 6.005h1" stroke="#7024ef"/>
  <path d="m20 6.005h1m-16 3h1" stroke="#5519af"/>
  <path d="m7 7.005h1" stroke="#7025ee"/>
  <path d="m16 7.005h1" stroke="#1f1107"/>
  <path d="m10 9.005h2" stroke="#6514dc"/>
  <path d="m5 11.005h1" stroke="#5419ae"/>
  <path d="m11 11.005h5m1 1h1m-4 1h5m-3 1h3" stroke="#ff7f08"/>
  <path d="m16 11.005h2" stroke="#ff9112"/>
  <path d="m6 12.005h1m1 0h3m7 0h2m-13 1h4m-1 1h2" stroke="#6037db"/>
  <path d="m7 12.005h1" stroke="#6136db"/>
  <path d="m11 12.005h1m0 1h2m0 1h1" stroke="#f26d00"/>
  <path d="m12 12.005h1" stroke="#ff7e08"/>
  <path d="m13 12.005h1m1 0h1" stroke="#ff7f09"/>
  <path d="m14 12.005h1m1 0h1" stroke="#a7431c"/>
  <path d="m6 13.005h1m-1 1h3m1 1h9" stroke="#5d24ee"/>
  <path d="m19 13.005h1" stroke="#6414dd"/>
  <path d="m9 14.005h1" stroke="#5c24ef"/>
  <path d="m15 14.005h1" stroke="#f36d00"/>
  <path d="m6 15.005h1" stroke="#3a24b6"/>
  <path d="m7 15.005h2m1 1h1m1 0h7" stroke="#3a24b7"/>
  <path d="m9 15.005h1m1 1h1" stroke="#3a25b7"/>
  <path d="m19 15.005h1" stroke="#5c24ee"/>
  <path d="m8 16.005h1" stroke="#1d36aa"/>
  <path d="m9 16.005h1" stroke="#1d37ab"/>
 </g>
</svg>
