<?xml version="1.0" encoding="UTF-8"?>
<svg width="22" height="19.01" shape-rendering="crispEdges" version="1.1" viewBox="0 -.5 22 19.01" xmlns="http://www.w3.org/2000/svg">
 <g stroke-width="1.01">
  <path d="m2 5e-3h1m0 1h1m0 1h8m1 0h1m2 0h2m-17 1h1m4 0h1m1 0h2m1 0h9m-18 1h3m1 0h4m1 0h4m1 0h4m-20 1h1m4 0h4m1 0h2m1 0h6m1 0h1m-20 1h7m6 0h1m-10 1h3m6 0h1m-1 2h1m-8 1h1m6 0h1m-8 1h1m6 0h1m-8 1h8m1 0h3m1 0h1m-14 1h4m8 0h1m-13 1h5m7 0h2m-13 1h4m8 0h1m-13 1h2m1 0h4m5 0h1" stroke="#7124ee"/>
  <path d="m3 2.005h1m13 15h1" stroke="#651ecc"/>
  <path d="m12 2.005h1m-3 2h1m4 0h1m-7 1h1m9 0h1m-17 2h2" stroke="#7024ee"/>
  <path d="m14 2.005h1m-8 1h1m12 0h1m-16 1h1m14 0h1m-9 1h1" stroke="#7124ef"/>
  <path d="m15 2.005h1m-6 1h1m-4 6h1m7 3h1m3 0h1m-9 1h1m8 0h1m-11 3h1" stroke="#7125ee"/>
  <path d="m4 3.005h1m-2 2h1m17 1h1m-1 1h1m-19 1h3m15 0h1m-1 1h1m-16 2h1m14 0h1m-16 1h1m14 0h1m-16 1h1m14 0h1m-16 1h1m14 0h1m-13 4h7m1 0h2" stroke="#5519ae"/>
  <path d="m5 3.005h1m-2 2h1m-3 2h1m4 8h1m-1 1h1m-1 1h10m1 0h3" stroke="#641ecc"/>
  <path d="m8 6.005h4m4 0h5m-13 1h1m4 0h1m1 0h1m4 0h1m-15 1h3m4 0h3m4 0h1m-13 1h1m4 0h1m1 0h1m-10 1h1m1 0h1m4 0h1m6 0h1m-13 1h3m1 0h2m1 0h1m1 0h1m1 0h2" stroke="#ff0c27"/>
  <path d="m12 6.005h1m7 3h1m-5 2h1" stroke="#ff0c26"/>
  <path d="m13 6.005h1m1 4h1" stroke="#ff0d27"/>
  <path d="m15 6.005h1" stroke="#ff0d26"/>
  <path d="m9 7.005h2m5 0h2m-9 1h1m6 0h1m-8 1h1" stroke="#def0fb"/>
  <path d="m11 7.005h2m5 0h1m-8 1h1m6 0h2m-8 1h1m4 0h3m-11 1h4m3 0h4" stroke="#000049"/>
  <path d="m19 7.005h1" stroke="#010049"/>
  <path d="m10 8.005h1" stroke="#def1fb"/>
  <path d="m12 8.005h1" stroke="#000149"/>
  <path d="m17 8.005h1m-8 1h1" stroke="#c4e5f8"/>
  <path d="m6 9.005h1m11 2h1" stroke="#fe0c27"/>
  <path d="m11 9.005h1" stroke="#000048"/>
  <path d="m16 9.005h1" stroke="#dff0fb"/>
  <path d="m21 10.005h1" stroke="#5419ae"/>
  <path d="m11 11.005h1" stroke="#fe0c26"/>
  <path d="m12 13.005h1m1 0h2m-3 1h2m1 0h1m1 0h1m-4 1h1m1 0h3m-3 1h2" stroke="#ff7f08"/>
  <path d="m13 13.005h1" stroke="#ff7e08"/>
  <path d="m16 13.005h1" stroke="#ff7f09"/>
  <path d="m17 13.005h1" stroke="#ff9012"/>
  <path d="m18 13.005h1" stroke="#ff9112"/>
  <path d="m12 14.005h1m0 1h2m0 1h2" stroke="#f26d00"/>
  <path d="m15 14.005h1" stroke="#a7431c"/>
  <path d="m17 14.005h1" stroke="#a7421c"/>
  <path d="m12 15.005h1" stroke="#641fcc"/>
  <path d="m16 15.005h1m2 1h1" stroke="#fe7f08"/>
  <path d="m16 18.005h1" stroke="#5519af"/>
 </g>
</svg>
