<?xml version="1.0" encoding="UTF-8"?>
<svg width="22" height="19.01" shape-rendering="crispEdges" version="1.1" viewBox="0 -.5 22 19.01" xmlns="http://www.w3.org/2000/svg">
 <g stroke-width="1.01">
  <path d="m2 5e-3h1m0 1h1m0 1h7m1 0h6m-17 1h1m4 0h2m1 0h4m1 0h3m1 0h3m-19 1h19m-21 1h1m6 0h7m1 0h3m1 0h2m-20 1h2m4 3h1m6 0h1m6 0h1m-8 1h2m5 0h1m-15 1h2m5 0h2m4 0h1m-14 1h14m-14 1h5m7 0h2m-14 1h5m7 0h2m-12 1h3m8 0h1m-13 1h7m5 0h1" stroke="#7124ee"/>
  <path d="m3 2.005h1m1 1h1m-3 4h3m0 1h2m6 0h1m6 0h1m-14 2h1m4 0h1m6 0h1m-12 1h3m4 0h4m-13 4h1m4 0h1m-6 1h1m2 1h4" stroke="#6514dd"/>
  <path d="m11 2.005h1m-4 1h1m8 0h1" stroke="#7125ee"/>
  <path d="m4 3.005h1" stroke="#5518ae"/>
  <path d="m13 3.005h1m-7 7h1m0 5h1" stroke="#7024ee"/>
  <path d="m3 5.005h3m-3 1h1m2 0h5m3 0h4m2 0h1m-15 1h4m2 0h5m2 0h2m-13 1h1m2 0h3m1 0h1m2 0h2m-11 1h3m5 0h2m-10 1h2m5 0h2" stroke="#03102a"/>
  <path d="m6 5.005h1m7 0h1m3 0h1m-6 6h1" stroke="#7124ef"/>
  <path d="m4 6.005h2" stroke="#00102f"/>
  <path d="m11 6.005h2m5 0h2m-10 1h2m5 0h2m-10 1h2m5 0h2m-3 1h1" stroke="#29447a"/>
  <path d="m13 6.005h1" stroke="#03102b"/>
  <path d="m21 6.005h1m-2 2h1m-5 1h1" stroke="#02102a"/>
  <path d="m2 7.005h1" stroke="#6515dd"/>
  <path d="m21 7.005h1" stroke="#03112a"/>
  <path d="m3 8.005h3m0 2h1m-1 1h1m14 0h1m-16 1h1m14 0h1m-16 1h1m14 1h1m-13 4h6m1 0h3" stroke="#5519ae"/>
  <path d="m6 9.005h1" stroke="#5518af"/>
  <path d="m8 9.005h1" stroke="#29457a"/>
  <path d="m12 9.005h1" stroke="#081630"/>
  <path d="m13 9.005h1m6 0h1m-10 1h2m5 0h2" stroke="#091630"/>
  <path d="m19 9.005h1" stroke="#091730"/>
  <path d="m12 11.005h1" stroke="#6415dc"/>
  <path d="m12 13.005h1m1 0h3m-4 1h1m2 0h1m1 0h1m-4 1h5m-3 1h3" stroke="#ff7f08"/>
  <path d="m13 13.005h1" stroke="#fe7f08"/>
  <path d="m17 13.005h2" stroke="#ff9112"/>
  <path d="m21 13.005h1m-16 1h1m8 4h1" stroke="#5419ae"/>
  <path d="m12 14.005h1m0 1h2m0 1h2" stroke="#f26d00"/>
  <path d="m14 14.005h1" stroke="#ff7f09"/>
  <path d="m15 14.005h1" stroke="#a7431d"/>
  <path d="m17 14.005h1" stroke="#a7431c"/>
  <path d="m7 17.005h3m4 0h7" stroke="#641ecc"/>
 </g>
</svg>
