<?xml version="1.0" encoding="UTF-8"?>
<svg width="22" height="19.01" shape-rendering="crispEdges" version="1.1" viewBox="0 -.5 22 19.01" xmlns="http://www.w3.org/2000/svg">
 <g stroke-width="1.01">
  <path d="m2 5e-3h1m0 1h1m0 1h1m2 0h9m1 0h1m-17 1h1m6 0h8m1 0h4m-19 1h3m7 0h1m2 0h3m1 0h2m-21 1h1m4 0h3m8 0h4m-19 1h7m-5 1h3m1 0h2m4 0h1m-6 1h1m4 0h2m-8 1h2m4 0h2m-7 1h1m4 0h3m-9 1h1m5 0h1m1 0h1m4 0h1m-14 1h12m1 0h1m-14 1h5m7 0h2m-14 1h5m7 0h2m-13 1h3m9 0h1m-13 1h5m7 0h1" stroke="#7124ee"/>
  <path d="m3 2.005h1m1 2h3m0 1h4m-10 2h1m3 1h1m2 3h3m5 0h2m-12 4h1m-1 1h1m0 1h7m1 0h2m1 0h2" stroke="#6514dd"/>
  <path d="m5 2.005h1m10 0h1m-10 8h1m11 2h1" stroke="#7024ee"/>
  <path d="m6 2.005h1m9 1h1m-4 1h2m3 0h1m-13 3h1m0 1h1m0 3h1m4 5h1" stroke="#7124ef"/>
  <path d="m5 3.005h1m15 1h1m-9 2h1m7 0h1m-8 1h1m5 0h2m-3 1h2m-6 1h3m1 0h2m-3 1h1" stroke="#f6001b"/>
  <path d="m6 3.005h1m1 1h4m0 1h3m0 1h6m-5 1h1m1 0h2m-5 1h4" stroke="#ff0c27"/>
  <path d="m7 3.005h1m12 2h1" stroke="#ff0c26"/>
  <path d="m3 5.005h1m-1 3h3m15 0h1m-16 1h1m14 0h1m-16 1h1m14 0h1m-16 1h1m14 0h1m-16 1h1m14 0h1m-16 1h1m14 0h1m-16 1h1m14 0h1m-13 4h10" stroke="#5519ae"/>
  <path d="m4 5.005h1m11 6h1m-10 6h1m7 0h1" stroke="#6515dd"/>
  <path d="m15 5.005h1" stroke="#ff0d27"/>
  <path d="m21 5.005h1m-4 4h1" stroke="#f6001a"/>
  <path d="m8 6.005h1m5 10h1" stroke="#7025ee"/>
  <path d="m9 6.005h1" stroke="#c4e5f8"/>
  <path d="m10 6.005h1" stroke="#c4e5f9"/>
  <path d="m11 6.005h2m-1 1h1m-4 1h1m1 0h1m-3 1h4m-4 1h4" stroke="#000049"/>
  <path d="m14 6.005h1" stroke="#f7001b"/>
  <path d="m9 7.005h2" stroke="#def0fb"/>
  <path d="m11 7.005h1m0 1h1" stroke="#000149"/>
  <path d="m15 7.005h1m1 0h1" stroke="#fe0c27"/>
  <path d="m10 8.005h1" stroke="#000048"/>
  <path d="m16 10.005h2m1 0h1" stroke="#f6011b"/>
  <path d="m20 10.005h1m-9 5h1" stroke="#6414dd"/>
  <path d="m12 11.005h1" stroke="#6515dc"/>
  <path d="m14 11.005h1" stroke="#7125ee"/>
  <path d="m19 11.005h1m-2 6h1" stroke="#6514dc"/>
  <path d="m12 13.005h5m-4 1h2m1 0h1m1 0h1m-4 1h5m-3 1h3" stroke="#ff7f08"/>
  <path d="m17 13.005h2" stroke="#ff9112"/>
  <path d="m12 14.005h1" stroke="#f36d00"/>
  <path d="m15 14.005h1m1 0h1" stroke="#a7431c"/>
  <path d="m11 15.005h1" stroke="#7125ef"/>
  <path d="m13 15.005h2m0 1h2" stroke="#f26d00"/>
 </g>
</svg>
