<?xml version="1.0" encoding="UTF-8"?>
<svg width="22" height="19.01" shape-rendering="crispEdges" version="1.1" viewBox="0 -.5 22 19.01" xmlns="http://www.w3.org/2000/svg">
 <g stroke-width="1.01">
  <path d="m2 5e-3h1m0 1h1m0 1h2m1 0h11m-17 1h1m4 0h13m1 0h1m-19 1h7m1 0h3m1 0h5m1 0h1m-16 1h1m1 0h14m-20 1h6m1 0h1m4 0h3m-13 1h4m7 0h2m4 0h1m-14 1h1m7 0h1m4 0h1m-8 1h3m4 0h1m-14 1h2m4 0h3m4 0h1m-14 1h2m4 0h3m4 0h1m-14 1h7m2 0h5m-13 1h4m7 0h2m-14 1h1m1 0h1m1 0h1m7 0h2m-13 1h1m1 0h2m8 0h1m-13 1h7m5 0h1" stroke="#7124ee"/>
  <path d="m3 2.005h1m0 3h1m-3 2h1m3 1h1m2 3h4m3 0h3m-12 4h1m4 0h1m-6 1h1m2 1h1m1 0h2" stroke="#6514dd"/>
  <path d="m6 2.005h1m0 5h1" stroke="#7024ee"/>
  <path d="m4 3.005h1m-2 2h1m17 1h1m-1 1h1m-19 1h1m1 0h1m15 0h1m-16 1h1m14 0h1m-16 1h1m14 0h1m-16 1h1m14 1h1m-16 1h1m14 0h1m-16 1h1m14 0h1m-13 4h9" stroke="#5519ae"/>
  <path d="m5 3.005h1" stroke="#6414dc"/>
  <path d="m19 3.005h1" stroke="#7025ef"/>
  <path d="m9 4.005h1m9 0h1m-14 1h1m13 1h1m-8 2h1m1 4h1m-6 2h1" stroke="#7125ee"/>
  <path d="m13 4.005h1m-14 1h1m6 1h1m0 1h1m4 0h1m-6 1h1m5 0h1m-8 1h2m-2 4h1" stroke="#7124ef"/>
  <path d="m9 6.005h2m5 0h2m-9 1h1m6 0h2m-9 1h2m5 0h1" stroke="#fff"/>
  <path d="m11 6.005h1m6 0h1m-8 1h1m6 0h1m-8 1h1m5 0h2m-10 1h1m1 0h1m4 0h3" stroke="#ff0c27"/>
  <path d="m12 6.005h1m6 0h1m-8 2h1m6 0h1m-8 1h1m6 0h1m-11 1h4m3 0h1m1 0h2" stroke="#f6001b"/>
  <path d="m10 7.005h1" stroke="#fffeff"/>
  <path d="m12 7.005h1m4 3h1" stroke="#f7001b"/>
  <path d="m19 7.005h1" stroke="#f6001a"/>
  <path d="m4 8.005h1m16 3h1" stroke="#5519af"/>
  <path d="m10 9.005h1" stroke="#ff0c26"/>
  <path d="m19 11.005h1" stroke="#6414dd"/>
  <path d="m6 12.005h1" stroke="#5419ae"/>
  <path d="m14 12.005h1m-6 3h1" stroke="#7024ef"/>
  <path d="m12 13.005h1m1 0h2m-3 1h2m2 1h3m-3 1h3" stroke="#ff7f08"/>
  <path d="m13 13.005h1m4 1h1" stroke="#fe7f08"/>
  <path d="m16 13.005h1m-1 2h1" stroke="#ff7e08"/>
  <path d="m17 13.005h2" stroke="#ff9112"/>
  <path d="m8 14.005h1" stroke="#7025ee"/>
  <path d="m12 14.005h1m0 1h2m0 1h2" stroke="#f26d00"/>
  <path d="m15 14.005h1m1 0h1" stroke="#a7431c"/>
  <path d="m16 14.005h1" stroke="#ff7e09"/>
  <path d="m15 15.005h1" stroke="#ff7f09"/>
  <path d="m7 17.005h3m4 0h7" stroke="#641ecc"/>
  <path d="m11 17.005h1" stroke="#6515dd"/>
  <path d="m18 18.005h1" stroke="#5518ae"/>
 </g>
</svg>
