<?xml version="1.0" encoding="UTF-8" standalone="no"?>
<svg
   viewBox="0 -0.5 22 19.01"
   shape-rendering="crispEdges"
   version="1.1"
   id="svg58"
   width="22"
   height="19.01"
   xmlns="http://www.w3.org/2000/svg"
   xmlns:svg="http://www.w3.org/2000/svg">
  <defs
     id="defs62" />
  <metadata
     id="metadata2">Made with Pixels to Svg https://codepen.io/shshaw/pen/XbxvNj</metadata>
  <path
     stroke-width="1.01"
     stroke="#7124ee"
     d="m 2,0.005 h 1 m 0,1 h 1 m 0,1 h 5 m 1,0 h 1 m 1,0 h 1 m 2,0 h 3 m -17,1 h 1 m 4,0 h 3 m 1,0 h 9 m 1,0 h 1 m -19,1 h 7 m 1,0 h 1 m 1,0 h 1 m 1,0 h 2 m 1,0 h 1 m 1,0 h 1 m -20,1 h 1 m 4,0 h 16 m -20,1 h 7 m 5,0 h 1 m 1,0 h 1 m 4,0 h 1 m -18,1 h 6 m 4,0 h 2 m -8,1 h 2 m 4,0 h 1 m 1,0 h 1 m 4,0 h 1 m -14,1 h 2 m 5,0 h 2 m 4,0 h 1 m -14,1 h 2 m 4,0 h 1 m 1,0 h 1 m 4,0 h 1 m -14,1 h 1 m 5,0 h 1 m 1,0 h 1 m 4,0 h 1 m -14,1 h 4 m 1,0 h 5 m 1,0 h 3 m -14,1 h 5 m 7,0 h 1 m -13,1 h 5 m 7,0 h 2 m -13,1 h 1 m 1,0 h 2 m -3,1 h 3 m 2,0 h 1 m 5,0 h 1"
     id="path4" />
  <path
     stroke-width="1.01"
     stroke="#6514dd"
     d="m 3,2.005 h 1 m 1,1 h 1 m -4,4 h 1 m 6,4 h 2 m 1,0 h 1 m 3,0 h 4 m -13,5 h 1 m -1,1 h 5 m 1,0 h 8"
     id="path6" />
  <path
     stroke-width="1.01"
     stroke="#7124ef"
     d="m 9,2.005 h 1 m 4,0 h 1 m 4,1 h 1 m -9,1 h 1 m 8,0 h 1 m -7,2 h 1 m -2,3 h 1 m 0,1 h 1 m 5,3 h 1 m -8,3 h 1"
     id="path8" />
  <path
     stroke-width="1.01"
     stroke="#7125ee"
     d="m 11,2.005 h 1 m -3,1 h 1 m -1,1 h 1 m 3,0 h 1 m 2,0 h 1 m -9,2 h 1 m 11,1 h 1 m -13,4 h 1 m 5,0 h 1 m -4,1 h 1 m 5,0 h 1 m -9,3 h 1 m 10,0 h 1"
     id="path10" />
  <path
     stroke-width="1.01"
     stroke="#7024ee"
     d="m 13,2.005 h 1 m 4,2 h 1 m -4,3 h 1 m -2,1 h 1 m -7,8 h 1 m 3,0 h 1"
     id="path12" />
  <path
     stroke-width="1.01"
     stroke="#5519ae"
     d="m 4,3.005 h 1 m -2,2 h 1 m -1,3 h 2 m 16,0 h 1 m -16,1 h 1 m -1,1 h 1 m 14,0 h 1 m -16,1 h 1 m 14,0 h 1 m -16,1 h 1 m 14,0 h 1 m -1,1 h 1 m -16,1 h 1 m 14,0 h 1 m -13,4 h 10"
     id="path14" />
  <path
     stroke-width="1.01"
     stroke="#6515dd"
     d="M 4,5.005 H 5"
     id="path16" />
  <path
     stroke-width="1.01"
     stroke="#c0dcff"
     d="m 9,6.005 h 1 m -1,1 h 1 m -1,2 h 1 m 6,0 h 1 m -8,1 h 1 m 6,0 h 1"
     id="path18" />
  <path
     stroke-width="1.01"
     stroke="#082dad"
     d="m 10,6.005 h 3 m 4,0 h 2 m -9,1 h 3 m 5,0 h 2 m -3,1 h 1 m -8,1 h 2 m 6,0 h 2 m -10,1 h 3 m 4,0 h 3"
     id="path20" />
  <path
     stroke-width="1.01"
     stroke="#d5f1ff"
     d="m 16,6.005 h 1 m -1,1 h 1 m -8,1 h 1"
     id="path22" />
  <path
     stroke-width="1.01"
     stroke="#082dac"
     d="m 19,6.005 h 1 m -3,1 h 1 m -8,1 h 1 m 1,1 h 1"
     id="path24" />
  <path
     stroke-width="1.01"
     stroke="#5419ae"
     d="m 21,6.005 h 1"
     id="path26" />
  <path
     stroke-width="1.01"
     stroke="#5519af"
     d="m 21,7.005 h 1 m -17,1 h 1"
     id="path28" />
  <path
     stroke-width="1.01"
     stroke="#6414dd"
     d="m 6,8.005 h 1 m 4,3 h 1 m 0,4 h 1 m -1,2 h 1"
     id="path30" />
  <path
     stroke-width="1.01"
     stroke="#2151f5"
     d="m 11,8.005 h 2 m 5,0 h 1"
     id="path32" />
  <path
     stroke-width="1.01"
     stroke="#d5f1fe"
     d="m 16,8.005 h 1"
     id="path34" />
  <path
     stroke-width="1.01"
     stroke="#2051f5"
     d="m 19,8.005 h 1"
     id="path36" />
  <path
     stroke-width="1.01"
     stroke="#082cad"
     d="m 17,9.005 h 1"
     id="path38" />
  <path
     stroke-width="1.01"
     stroke="#5518ae"
     d="m 21,9.005 h 1 m -16,4 h 1"
     id="path40" />
  <path
     stroke-width="1.01"
     stroke="#ff7f08"
     d="m 12,13.005 h 3 m 1,0 h 1 m -4,1 h 2 m 3,0 h 1 m -4,1 h 5 m -3,1 h 3"
     id="path42" />
  <path
     stroke-width="1.01"
     stroke="#fe7f08"
     d="m 15,13.005 h 1"
     id="path44" />
  <path
     stroke-width="1.01"
     stroke="#ff9112"
     d="m 17,13.005 h 2"
     id="path46" />
  <path
     stroke-width="1.01"
     stroke="#f26d00"
     d="m 12,14.005 h 1 m 0,1 h 2 m 0,1 h 2"
     id="path48" />
  <path
     stroke-width="1.01"
     stroke="#a7431c"
     d="m 15,14.005 h 1"
     id="path50" />
  <path
     stroke-width="1.01"
     stroke="#ff7e09"
     d="m 16,14.005 h 1"
     id="path52" />
  <path
     stroke-width="1.01"
     stroke="#a7421d"
     d="m 17,14.005 h 1"
     id="path54" />
  <path
     stroke-width="1.01"
     stroke="#6514dc"
     d="M 7,15.005 H 8"
     id="path56" />
</svg>
