<?xml version="1.0" encoding="UTF-8"?>
<svg width="27" height="22.01" shape-rendering="crispEdges" version="1.1" viewBox="0 -.5 27 22.01" xmlns="http://www.w3.org/2000/svg">
 <g stroke-width="1.01">
  <path d="m9 5e-3h1m-4 1h1m1 0h2m9 0h1m-15 1h1m2 0h2m4 0h2m-11 1h2m1 0h3m7 0h1m-13 1h1m3 0h3m5 0h1m-17 1h1m3 0h4m2 0h5m3 0h1m2 0h1m-22 1h3m2 0h12m-16 1h4m2 0h6m1 0h2m1 0h2m-15 1h6m1 0h1m1 0h7m4 0h1m-25 1h2m4 0h2m4 0h3m4 0h1m3 0h1m-22 1h1m3 0h2m4 0h1m1 0h1m4 0h1m1 0h2m-18 1h3m4 0h2m5 0h1m-20 1h4m2 0h2m4 0h3m4 0h1m-22 1h1m4 0h2m1 0h2m4 0h3m4 0h1m-14 1h2m4 0h3m4 0h1m-14 1h2m1 0h2m1 0h7m-13 1h4m8 0h2m-14 1h1m1 0h3m7 0h2m-13 1h3m9 0h1m-13 1h6m6 0h1" stroke="#7124ee"/>
  <path d="m14 1.005h1m8 3h1m-17 5h1m-3 1h1m9 0h1m-12 1h1m-4 1h1m11 3h1m-2 1h1m2 3h1" stroke="#7125ee"/>
  <path d="m19 2.005h1m1 3h2m-20 5h1m2 0h1m14 5h1m-13 2h1m2 1h1" stroke="#7124ef"/>
  <path d="m15 3.005h1m-7 1h1m4 0h2m1 0h1m-8 1h2m5 0h2m-13 1h1m12 0h4m-16 1h2m12 0h1m-17 1h1m19 2h1m-21 1h2m0 1h1m-5 1h2m5 1h1m6 0h4m-13 4h1m4 0h1m-6 1h1m-1 1h14" stroke="#641ecc"/>
  <path d="m19 3.005h1m-8 5h1" stroke="#7024ef"/>
  <path d="m5 4.005h1m9 3h1m2 0h1m-5 1h1m-8 2h1m8 1h1m-11 1h1m3 3h1" stroke="#7024ee"/>
  <path d="m4 8.005h1m1 1h1m15 0h1m-1 1h1m-1 1h2m-17 2h1m-3 1h3m14 0h1m-16 1h1m14 0h1m-16 1h1m14 0h1m-16 1h1m14 0h1m-13 4h4m1 0h5" stroke="#5519ae"/>
  <path d="m4 9.005h1m6 5h3" stroke="#651ecc"/>
  <path d="m5 9.005h1m18 2h1m-3 2h1m-9 8h1" stroke="#5419ae"/>
  <path d="m10 9.005h2m5 0h1" stroke="#c4e5f8"/>
  <path d="m12 9.005h1" stroke="#010149"/>
  <path d="m13 9.005h1m5 0h2m-8 1h1m5 0h1m-10 1h3m4 0h4m-11 1h4m3 0h4m-11 1h4m3 0h4" stroke="#000049"/>
  <path d="m18 9.005h1" stroke="#c5e5f9"/>
  <path d="m10 10.005h2m5 0h2" stroke="#def0fb"/>
  <path d="m12 10.005h1m0 1h1" stroke="#000048"/>
  <path d="m20 10.005h1" stroke="#010049"/>
  <path d="m22 12.005h1" stroke="#5518ae"/>
  <path d="m1 13.005h1" stroke="#7125ef"/>
  <path d="m13 16.005h5m-4 1h2m1 0h1m1 0h1m-4 1h2m1 0h2m-3 1h1m1 0h1" stroke="#ff7f08"/>
  <path d="m18 16.005h1" stroke="#ff9112"/>
  <path d="m19 16.005h1" stroke="#ff9012"/>
  <path d="m13 17.005h1m0 1h2m0 1h2" stroke="#f26d00"/>
  <path d="m16 17.005h1m1 0h1" stroke="#a7431c"/>
  <path d="m18 18.005h1" stroke="#ff7f09"/>
  <path d="m19 19.005h1" stroke="#ff7e08"/>
 </g>
</svg>
