<svg xmlns="http://www.w3.org/2000/svg" shape-rendering="crispEdges" viewBox="0 -0.5 38 38"><path stroke="#fc9ca9" stroke-width="1.01" d="M7 16h1m-2 1h1m-1 1h1m-2 1h2m-2 1h1m-1 1h1m-2 1h2m-2 1h1m-1 1h1m-1 1h1m-2 1h2m-2 1h1m-2 2h2m-2 1h2m-2 1h1m-1 1h1m-1 1h1m-2 1h2m-2 1h1m-1 1h1m-1 1h1"/><path stroke="#ea7a8d" stroke-width="1.01" d="M8 16h2m-3 1h1m1 0h1m-3 1h2m-2 1h1m-2 2h1m-2 3h1m-2 4h1m-2 3h1m-1 1h1m-2 3h1m-1 1h1m-1 1h1"/><path stroke="#a4445e" stroke-width="1.01" d="M8 17h1"/><path stroke="#df6086" stroke-width="1.01" d="M9 18h1m-2 1h1m-1 1h1m-2 1h1m-1 1h1m-2 1h1m-1 1h1m-1 1h1m-2 1h1m-1 2h1m-2 1h1m-1 1h1m-1 1h1m-1 1h1m-2 1h1m-1 1h1m-1 1h1m-1 1h1"/><path stroke="#fd9ca9" stroke-width="1.01" d="M6 20h1"/><path stroke="#eb7a8d" stroke-width="1.01" d="M7 20h1m-3 5h1"/><path stroke="#eb7a8c" stroke-width="1.01" d="M6 22h1"/><path stroke="#fc9ca8" stroke-width="1.01" d="M5 23h1m-3 5h1m-3 5h1"/><path stroke="#fc9da8" stroke-width="1.01" d="M4 27h1"/><path stroke="#df6186" stroke-width="1.01" d="M5 27h1"/><path stroke="#de6086" stroke-width="1.01" d="M3 37h1"/></svg>