<svg xmlns="http://www.w3.org/2000/svg" shape-rendering="crispEdges" viewBox="0 -0.5 38 38"><path stroke="#000" stroke-width="1.01" d="M6 23h2m-3 1h1m2 0h1m-4 1h1m-1 1h1m-1 1h1m-1 1h1"/><path stroke="#ff9da6" stroke-width="1.01" d="M4 28h1m-2 1h1"/><path stroke="#e66185" stroke-width="1.01" d="M6 28h1m0 2h1m-2 1h2m-2 1h2m-2 1h1m0 1h1m-2 1h1m-2 1h2m-2 1h1"/><path stroke="#ee8393" stroke-width="1.01" d="M4 29h1"/><path stroke="#ef8393" stroke-width="1.01" d="M5 29h3m-4 1h2m-3 1h3m-3 1h3m-2 1h2m-3 1h3m-2 1h1m-1 1h1m-1 1h1"/><path stroke="#ef8392" stroke-width="1.01" d="M3 30h1"/><path stroke="#e66085" stroke-width="1.01" d="M6 30h1"/><path stroke="#ef8293" stroke-width="1.01" d="M3 33h1"/><path stroke="#e66184" stroke-width="1.01" d="M7 33h1m-2 1h1m-2 1h1m0 2h1"/></svg>