<svg xmlns="http://www.w3.org/2000/svg" shape-rendering="crispEdges" viewBox="0 -0.5 38 38"><path stroke="#512f1a" stroke-width="1.01" d="M1 24h1m-2 2h1m9 8h1m-2 1h1m-2 1h1"/><path stroke="#5f361e" stroke-width="1.01" d="M2 24h2m-3 1h1m3 1h1m-6 1h2m4 0h1m-7 1h3m4 0h1m-8 1h2m2 0h1m3 0h1m-6 1h3m4 1h1m-6 1h2m4 0h1M1 33h1m5 0h1m3 0h1M0 34h1m7 0h1m-9 1h3m4 0h2m-9 1h3m4 0h1m-2 1h1"/><path stroke="#43251f" stroke-width="1.01" d="M0 25h1m10 9h1m-2 1h1"/><path stroke="#875436" stroke-width="1.01" d="M2 25h1m1 1h1m-1 1h2m-1 1h1m0 1h2m-1 1h2m-1 1h1m0 1h2m-1 1h1"/><path stroke="#bf7514" stroke-width="1.01" d="M3 25h1m5 6h1"/><path stroke="#fcb944" stroke-width="1.01" d="M4 25h1"/><path stroke="#251519" stroke-width="1.01" d="M5 25h1"/><path stroke="#241519" stroke-width="1.01" d="M6 25h2m0 1h1m0 1h1m-1 1h1m-1 1h1"/><path stroke="#5f371e" stroke-width="1.01" d="M1 26h1"/><path stroke="#6b3e22" stroke-width="1.01" d="M2 26h1m0 1h1m0 1h1m0 1h1m0 2h2m-1 1h2m-1 1h2"/><path stroke="#875536" stroke-width="1.01" d="M3 26h1"/><path stroke="rgba(0,0,0,0.4196078431372549)" stroke-width="1.01" d="M7 26h1m0 1h1"/><path stroke="#5e361e" stroke-width="1.01" d="M2 27h1m0 2h1m-4 1h1m-1 3h1m6 1h1"/><path stroke="#41251a" stroke-width="1.01" d="M3 28h1m-2 2h1m2 1h1m0 2h1m-6 1h1"/><path stroke="#875437" stroke-width="1.01" d="M6 28h1"/><path stroke="#331e17" stroke-width="1.01" d="M2 29h1m-3 2h5m-5 1h5m-3 1h4m-4 1h3m-1 1h3m-4 1h4m-7 1h6"/><path stroke="#331f17" stroke-width="1.01" d="M1 30h1"/><path stroke="#6b3f22" stroke-width="1.01" d="M6 30h1"/><path stroke="#fdb944" stroke-width="1.01" d="M9 30h1"/><path stroke="#321e17" stroke-width="1.01" d="M5 34h2"/><path stroke="#5f361f" stroke-width="1.01" d="M9 34h1m-7 1h1"/><path stroke="#341d18" stroke-width="1.01" d="M9 36h1"/><path stroke="#43241f" stroke-width="1.01" d="M7 37h1"/><path stroke="#26161a" stroke-width="1.01" d="M8 37h1"/></svg>