<svg xmlns="http://www.w3.org/2000/svg" shape-rendering="crispEdges" viewBox="0 -0.5 38 38"><path stroke="#000" stroke-width="1.01" d="M6 23h2m-3 1h1m2 0h1m-4 1h1m-1 1h1m-1 1h1m-1 1h1"/><path stroke="#6bf53d" stroke-width="1.01" d="M4 28h1"/><path stroke="#1eba64" stroke-width="1.01" d="M6 28h1m-1 2h2m-2 1h2m-2 1h1m-1 2h2m-3 1h2m-2 1h2m-2 1h1"/><path stroke="#6bf53c" stroke-width="1.01" d="M3 29h1"/><path stroke="#28d940" stroke-width="1.01" d="M4 29h3m-4 1h3m-3 1h3m-3 1h3m-3 1h3m-3 1h3m-2 1h1m-1 1h1m-1 1h1"/><path stroke="#28d941" stroke-width="1.01" d="M7 29h1"/><path stroke="#1fba64" stroke-width="1.01" d="M7 32h1m-1 1h1"/><path stroke="#1ebb64" stroke-width="1.01" d="M6 33h1"/><path stroke="#1eba65" stroke-width="1.01" d="M6 37h1"/></svg>