<svg xmlns="http://www.w3.org/2000/svg" shape-rendering="crispEdges" viewBox="0 -0.5 38 38"><path stroke="#83ff59" stroke-width="1.01" d="M7 16h1m-2 1h1m-1 1h1m-1 1h1m-2 1h2m-2 1h1m-2 1h2m-2 2h1m-1 1h1m-2 1h2m-1 1h1m-2 1h1m-2 1h2m-1 1h1m-2 1h1m-1 1h1m-1 2h1m-2 2h1m-1 1h1"/><path stroke="#5ee439" stroke-width="1.01" d="M8 16h2m-3 1h1m1 0h1m-3 1h2m-2 1h1m-1 1h1m-2 1h1m-1 1h1m-2 2h1m-1 1h1m-3 6h1m-2 4h1m-1 1h1m-1 1h1"/><path stroke="#178463" stroke-width="1.01" d="M8 17h1"/><path stroke="#1eba64" stroke-width="1.01" d="M9 18h1m-2 1h1m-1 1h1m-2 1h1m-1 1h1m-2 1h1m-1 2h1m-2 1h1m-1 1h1m-2 2h1m-1 1h1m-1 1h1m-1 1h1m-2 1h1m-1 1h1m-1 1h1m-1 1h1m-1 1h1"/><path stroke="#83ff58" stroke-width="1.01" d="M5 19h1m-3 8h1m-3 7h1m-1 1h1"/><path stroke="#82ff59" stroke-width="1.01" d="M4 23h2M1 33h1"/><path stroke="#1fba64" stroke-width="1.01" d="M6 24h1"/><path stroke="#5fe439" stroke-width="1.01" d="M4 28h1"/><path stroke="#1ebb64" stroke-width="1.01" d="M5 28h1"/><path stroke="#83fe59" stroke-width="1.01" d="M2 30h1"/><path stroke="#5ee438" stroke-width="1.01" d="M3 32h1"/><path stroke="#82ff58" stroke-width="1.01" d="M2 33h1"/></svg>