<svg xmlns="http://www.w3.org/2000/svg" shape-rendering="crispEdges" viewBox="0 -0.5 38 38"><path stroke="#120c05" stroke-width="1.01" d="M0 2h7M0 3h2m1 0h6M8 4h1M8 5h2M9 6h1m0 1h2m-2 1h3m-2 1h1m0 1h1m-1 1h2m-3 1h2m-3 1h3m-3 1h2m-3 1h2m-3 1h2m-3 1h2m-9 1h2m1 0h6m-9 1h8"/><path stroke="#120d05" stroke-width="1.01" d="M7 2h1M2 18h1"/><path stroke="#130c05" stroke-width="1.01" d="M2 3h1m9 6h1m0 1h1"/><path stroke="#d3d3d3" stroke-width="1.01" d="M0 4h1m5 0h1m2 4h1m-1 5h1m-4 4h1"/><path stroke="#f1f2ec" stroke-width="1.01" d="M1 4h4M0 5h7M0 6h4m2 0h2M0 7h2m3 0h4M0 8h2m2 0h5M0 9h1m6 0h3M0 10h1m5 0h5M0 11h3m5 0h3M0 12h2m6 0h2M0 13h5m3 0h1m-9 1h1m1 0h2m4 0h1m-9 1h1m6 0h1m-8 1h1m5 0h1m-6 1h5"/><path stroke="#f1f2ed" stroke-width="1.01" d="M5 4h1M2 7h1m-2 7h1"/><path stroke="#120c04" stroke-width="1.01" d="M7 4h1m2 2h1"/><path stroke="rgba(19,12,5,0.807843137254902)" stroke-width="1.01" d="M9 4h1M9 17h1"/><path stroke="#b4b4b4" stroke-width="1.01" d="M7 5h1M7 16h1"/><path stroke="rgba(19,12,4,0.4823529411764706)" stroke-width="1.01" d="M10 5h1m-1 11h1"/><path stroke="#3d3d3d" stroke-width="1.01" d="M4 6h1M4 7h1m4 0h1M3 8h1m1 1h1m5 1h1m-9 1h1m7 0h1m-9 1h1m3 0h1m-3 1h1m-2 1h1m4 0h1m-8 2h1"/><path stroke="#707070" stroke-width="1.01" d="M5 6h1m2 0h1M6 9h1m3 0h1m-4 2h1m-6 1h1m5 3h1m-8 1h1"/><path stroke="#150e05" stroke-width="1.01" d="M3 7h1M2 8h1M1 9h2m1 0h1m-4 1h2m1 0h1m-1 1h1m-1 1h3m0 1h1m-2 1h2m-7 1h2m1 0h1m-2 1h2"/><path stroke="#140e05" stroke-width="1.01" d="M3 9h1m-1 1h1m1 5h1"/><path stroke="#3c3d3d" stroke-width="1.01" d="M5 10h1m0 1h1"/><path stroke="#150e04" stroke-width="1.01" d="M5 11h1m-1 3h1m0 1h1"/><path stroke="#717070" stroke-width="1.01" d="M10 12h1"/><path stroke="#150f05" stroke-width="1.01" d="M6 13h1m-4 2h1m1 1h1"/><path stroke="#d3d2d3" stroke-width="1.01" d="M0 17h1"/><path stroke="#836243" stroke-width="1.01" d="M4 20h1"/><path stroke="#a17548" stroke-width="1.01" d="M4 21h1"/><path stroke="#a17549" stroke-width="1.01" d="M4 22h1m-1 1h1m-1 1h1m-1 1h1m-1 1h1m-1 1h1"/><path stroke="#826243" stroke-width="1.01" d="M4 28h1"/></svg>