<svg xmlns="http://www.w3.org/2000/svg" shape-rendering="crispEdges" viewBox="0 -0.5 38 38"><path stroke="#79fda7" stroke-width="1.01" d="M5 17h2m-4 1h2m-4 1h3m-4 1h3m3 0h2m-8 1h3m1 0h1m1 0h3m1 0h1M0 22h2m1 0h1m2 0h1m3 0h2M0 23h2m10 0h1M1 24h1m5 0h2m3 0h1M2 25h1m4 0h3m-9 1h2m2 0h1m1 0h1m1 0h1m-9 1h4m1 0h3m-6 1h1m4 0h1m-4 1h1m1 0h1m-4 1h2m-4 1h2"/><path stroke="#3bc396" stroke-width="1.01" d="M4 19h1m2 0h1m0 1h1m-6 1h1m-2 1h1m2 0h1m2 0h1m-7 1h1m3 0h1m1 0h1m-9 1h1m1 0h1m3 0h1m-4 2h1m6 0h1M0 27h1m8 0h2m-9 1h1"/><path stroke="#2da484" stroke-width="1.01" d="M5 19h1m-1 9h1"/><path stroke="#2ca584" stroke-width="1.01" d="M6 19h1"/><path stroke="#2da584" stroke-width="1.01" d="M3 20h3m3 2h1m-5 1h1m3 0h1m-1 1h2m-1 1h1m-7 3h1m-2 1h2"/><path stroke="#78fda7" stroke-width="1.01" d="M5 21h1m3 0h1m-4 7h1m-1 1h1"/><path stroke="#3bc296" stroke-width="1.01" d="M4 22h1m1 3h1m-3 1h1m0 1h1"/><path stroke="#48df86" stroke-width="1.01" d="M7 22h1"/><path stroke="#26987b" stroke-width="1.01" d="M3 23h2m0 1h1"/><path stroke="#78fca7" stroke-width="1.01" d="M7 23h1"/><path stroke="#047861" stroke-width="1.01" d="M3 24h2m-2 1h1m1 0h1"/><path stroke="#3ac396" stroke-width="1.01" d="M0 25h1"/><path stroke="#48df87" stroke-width="1.01" d="M1 25h1m4 1h1"/><path stroke="#004c4e" stroke-width="1.01" d="M4 25h1"/><path stroke="#79fca7" stroke-width="1.01" d="M0 26h1"/><path stroke="#79fda6" stroke-width="1.01" d="M8 26h1m-2 2h1"/><path stroke="#3ac397" stroke-width="1.01" d="M1 28h1"/></svg>