<svg xmlns="http://www.w3.org/2000/svg" shape-rendering="crispEdges" viewBox="0 -0.5 38 38"><path stroke="#000" stroke-width="1.01" d="M6 23h2m-3 1h1m2 0h1m-4 2h1m-1 1h1m-1 1h1"/><path stroke="#000001" stroke-width="1.01" d="M5 25h1"/><path stroke="#003ef2" stroke-width="1.01" d="M4 28h1m-2 1h1"/><path stroke="#0b15c9" stroke-width="1.01" d="M6 28h1m0 2h1m-2 1h1m-1 1h2m-2 1h2m-2 1h2m-3 1h1m-1 1h2m-1 1h1"/><path stroke="#1823e1" stroke-width="1.01" d="M4 29h1m2 0h1m-5 1h3m-3 1h3m-3 1h2m-2 1h1m1 0h1m-2 1h2m-2 1h1m-1 1h1m-1 1h1"/><path stroke="#1923e1" stroke-width="1.01" d="M5 29h1"/><path stroke="#1823e0" stroke-width="1.01" d="M6 29h1m-3 4h1m-2 1h1"/><path stroke="#0b14c9" stroke-width="1.01" d="M6 30h1"/><path stroke="#0b15c8" stroke-width="1.01" d="M7 31h1m-2 4h1m-2 2h1"/><path stroke="#1822e1" stroke-width="1.01" d="M5 32h1"/></svg>