<svg xmlns="http://www.w3.org/2000/svg" shape-rendering="crispEdges" viewBox="0 -0.5 38 38"><path stroke="#f8f34e" stroke-width="1.01" d="M7 16h1m-2 1h1m-1 1h1m-2 1h1m-1 1h2m-2 1h1m-2 1h2m-2 1h2m-2 1h1m-2 2h2m-1 1h1m-2 1h1m-2 1h2m-2 1h2m-2 1h1m-1 1h1m-2 1h2m-2 1h1m-1 1h1m-1 1h1m-1 1h1"/><path stroke="#ffe700" stroke-width="1.01" d="M8 16h1m0 1h1m-3 1h2m-2 1h1m-2 2h1m-1 1h1m-2 2h1m-1 1h1m-2 3h1m-2 3h1m-1 1h1m-2 3h1m-1 1h1m-1 1h1"/><path stroke="#fee600" stroke-width="1.01" d="M9 16h1"/><path stroke="#ffe601" stroke-width="1.01" d="M7 17h1"/><path stroke="#a47a00" stroke-width="1.01" d="M8 17h1"/><path stroke="#f0c012" stroke-width="1.01" d="M9 18h1m-2 1h1m-1 1h1m-2 1h1m-1 1h1m-2 1h1m-1 1h1m-1 1h1m-2 1h1m-1 1h1m-2 2h1m-1 2h1m-1 1h1m-2 1h1m-1 2h1m-1 1h1m-1 1h1"/><path stroke="#f9f34e" stroke-width="1.01" d="M6 19h1M2 34h1"/><path stroke="#ffe600" stroke-width="1.01" d="M7 20h1"/><path stroke="#f8f34f" stroke-width="1.01" d="M4 25h1m-2 2h1"/><path stroke="#f0c112" stroke-width="1.01" d="M5 28h1"/><path stroke="#f1c112" stroke-width="1.01" d="M4 30h1"/><path stroke="#f1c012" stroke-width="1.01" d="M3 34h1"/></svg>