<svg xmlns="http://www.w3.org/2000/svg" shape-rendering="crispEdges" viewBox="0 -0.5 38 38"><path stroke="#fff529" stroke-width="1.01" d="M5 14h1m-2 1h1m1 0h1m-3 1h2m-4 1h1m2 0h1m1 0h2m-8 1h3m4 0h1m-4 1h1m-3 1h2m1 0h1m-5 1h2m2 0h1m-5 1h1"/><path stroke="#fef529" stroke-width="1.01" d="M5 15h1m1 3h1"/><path stroke="#ffd554" stroke-width="1.01" d="M6 16h1m-3 1h1m1 0h1m2 1h1m-8 1h3m1 0h3m-2 1h1m-4 1h1m2 0h2m-6 1h1m3 0h1"/><path stroke="#fff429" stroke-width="1.01" d="M3 17h1m0 1h1m1 0h1"/><path stroke="#fed555" stroke-width="1.01" d="M5 18h1"/><path stroke="#ffd454" stroke-width="1.01" d="M5 20h1"/><path stroke="#cb4aad" stroke-width="1.01" d="M5 21h1m-1 6h1"/><path stroke="#ff6edc" stroke-width="1.01" d="M5 22h1m-1 1h1m-1 1h1m-1 1h1m-1 1h1"/><path stroke="#ffd555" stroke-width="1.01" d="M8 22h1"/></svg>