<svg xmlns="http://www.w3.org/2000/svg" shape-rendering="crispEdges" viewBox="0 -0.5 38 38"><path stroke="#bd5b02" stroke-width="1.01" d="M2 18h1m6 0h1"/><path stroke="#b04b00" stroke-width="1.01" d="M3 18h1m4 0h1"/><path stroke="#ffc96d" stroke-width="1.01" d="M4 18h4"/><path stroke="#a24500" stroke-width="1.01" d="M1 19h2"/><path stroke="#873900" stroke-width="1.01" d="M3 19h1m-1 1h1m4 0h2m-4 3h1"/><path stroke="#ffb83f" stroke-width="1.01" d="M4 19h2m1 0h1m-4 1h4"/><path stroke="#ffb83e" stroke-width="1.01" d="M6 19h1"/><path stroke="#843800" stroke-width="1.01" d="M8 19h1m-8 1h2"/><path stroke="#843900" stroke-width="1.01" d="M9 19h1"/><path stroke="#6d2200" stroke-width="1.01" d="M2 21h2m4 0h1m-4 1h2"/><path stroke="#f0a424" stroke-width="1.01" d="M4 21h2"/><path stroke="#f0a629" stroke-width="1.01" d="M6 21h1"/><path stroke="#f0a729" stroke-width="1.01" d="M7 21h1"/><path stroke="#6d2300" stroke-width="1.01" d="M9 21h1"/><path stroke="#873800" stroke-width="1.01" d="M5 23h1"/><path stroke="#964407" stroke-width="1.01" d="M5 24h2"/><path stroke="#6b2100" stroke-width="1.01" d="M5 25h1"/><path stroke="#6a2100" stroke-width="1.01" d="M6 25h1m-2 3h2m-2 1h2"/><path stroke="#813802" stroke-width="1.01" d="M5 26h2m-2 1h2"/></svg>