<svg xmlns="http://www.w3.org/2000/svg" shape-rendering="crispEdges" viewBox="0 -0.5 38 38"><path stroke="#0783fe" stroke-width="1.01" d="M7 16h1m-3 3h1m-1 2h1"/><path stroke="#0064fe" stroke-width="1.01" d="M8 16h1"/><path stroke="#0065fe" stroke-width="1.01" d="M9 16h1m-3 1h1m1 0h1m-3 1h2m-2 1h1m-1 1h1m-2 1h1m-1 1h1m-2 2h1m-1 1h1m-2 3h1m-2 3h1m-1 1h1m-2 3h1m-1 1h1m-1 1h1"/><path stroke="#0783ff" stroke-width="1.01" d="M6 17h1m-1 1h1m-1 1h1m-2 1h2m-3 2h2m-2 1h2m-2 1h1m-1 1h1m-2 1h2m-2 1h2m-2 1h1m-1 1h1m-2 1h2m-2 1h1m-2 2h2m-2 1h2m-2 1h1m-1 1h1m-1 1h1"/><path stroke="#072fc0" stroke-width="1.01" d="M8 17h1"/><path stroke="#0056e8" stroke-width="1.01" d="M9 18h1m-2 1h1m-1 1h1m-2 1h1m-2 2h1m-1 1h1m-1 1h1m-2 1h1m-1 2h1m-2 1h1m-1 1h1m-1 1h1m-1 1h1m-2 1h1m-1 2h1m-1 1h1m-1 1h1"/><path stroke="#0056e9" stroke-width="1.01" d="M7 22h1"/><path stroke="#0156e8" stroke-width="1.01" d="M5 27h1"/><path stroke="#0683ff" stroke-width="1.01" d="M2 29h1"/><path stroke="#0782ff" stroke-width="1.01" d="M2 32h1"/><path stroke="#0057e8" stroke-width="1.01" d="M3 34h1"/></svg>