<svg xmlns="http://www.w3.org/2000/svg" shape-rendering="crispEdges" viewBox="0 -0.5 38 38"><path stroke="#ff006b" stroke-width="1.01" d="M3 18h2m-3 2h1"/><path stroke="#1eba65" stroke-width="1.01" d="M9 18h1"/><path stroke="#ff016b" stroke-width="1.01" d="M2 19h1"/><path stroke="#d00057" stroke-width="1.01" d="M3 19h1"/><path stroke="#1ebb64" stroke-width="1.01" d="M9 19h1m-2 1h1"/><path stroke="#7e2f0b" stroke-width="1.01" d="M4 20h1"/><path stroke="rgba(255,255,255,0.9333333333333333)" stroke-width="1.01" d="M4 21h1m-2 1h1m-1 1h1m-2 1h1m-1 1h1m-1 1h1m-1 1h1m-1 1h1m2 3h1m-1 1h1m-1 1h1m-2 1h1"/><path stroke="#fff6db" stroke-width="1.01" d="M5 21h2m-3 1h1m-2 4h1"/><path stroke="rgba(254,255,255,0.6431372549019608)" stroke-width="1.01" d="M7 21h1m1 3h1"/><path stroke="#1eba64" stroke-width="1.01" d="M8 21h1m-2 1h1"/><path stroke="#bc874c" stroke-width="1.01" d="M5 22h2"/><path stroke="rgba(255,255,255,0.6431372549019608)" stroke-width="1.01" d="M8 22h1m-1 1h1m0 2h1m-1 1h1m-1 1h1m-1 1h1m-7 1h1m4 0h1m-3 1h2m-2 1h1m-1 1h1m-1 1h1m-2 1h4"/><path stroke="#fcefc7" stroke-width="1.01" d="M4 23h2m-3 1h3m1 0h1m-4 1h1m1 0h2m-4 1h1m-2 1h4m-4 1h1m0 1h1"/><path stroke="#c4e170" stroke-width="1.01" d="M6 23h1m-1 1h1"/><path stroke="#ebd1b1" stroke-width="1.01" d="M7 23h1m0 2h1m-2 1h2m-1 1h1m-4 1h2m1 0h1m-4 1h3"/><path stroke="#ebd0b1" stroke-width="1.01" d="M8 24h1m-2 4h1"/><path stroke="#fff7db" stroke-width="1.01" d="M3 25h1"/><path stroke="#e6e9a4" stroke-width="1.01" d="M5 25h1m-1 1h1"/><path stroke="#fceec7" stroke-width="1.01" d="M6 26h1"/><path stroke="#ebd1b0" stroke-width="1.01" d="M7 27h1"/><path stroke="#fcefc6" stroke-width="1.01" d="M4 28h1"/><path stroke="rgba(254,255,255,0.9333333333333333)" stroke-width="1.01" d="M4 30h1"/><path stroke="rgba(255,254,255,0.6431372549019608)" stroke-width="1.01" d="M5 30h1"/><path stroke="rgba(255,254,255,0.9333333333333333)" stroke-width="1.01" d="M3 34h1"/></svg>