<svg xmlns="http://www.w3.org/2000/svg" shape-rendering="crispEdges" viewBox="0 -0.5 38 38"><path stroke="#969696" stroke-width="1.01" d="M4 20h1m-2 1h1m-3 1h1m1 10h1m-1 1h2m1 0h1m1 0h1m-2 1h1"/><path stroke="#a6a6a6" stroke-width="1.01" d="M5 20h1m-4 2h1m-2 1h1m-1 1h1"/><path stroke="#dfdfdf" stroke-width="1.01" d="M6 20h1m-2 1h1m-2 1h3m-5 2h1"/><path stroke="#d6d7d7" stroke-width="1.01" d="M7 20h1"/><path stroke="#c7c7c7" stroke-width="1.01" d="M4 21h1"/><path stroke="#dedede" stroke-width="1.01" d="M6 21h1"/><path stroke="#dfdfde" stroke-width="1.01" d="M7 21h1"/><path stroke="#bcbcbc" stroke-width="1.01" d="M8 21h1"/><path stroke="#c5c5c5" stroke-width="1.01" d="M3 22h1"/><path stroke="#dbdbdb" stroke-width="1.01" d="M7 22h1m-7 4h2m-1 1h1"/><path stroke="#c2c2c2" stroke-width="1.01" d="M8 22h2m-3 1h4m-3 1h2m-5 1h1m2 0h1m-4 1h1m-1 1h1m-4 1h1m-1 1h1m0 1h1"/><path stroke="#b8b8b8" stroke-width="1.01" d="M10 22h1m-5 2h1m-1 1h1m-1 1h1m-1 1h1m-5 3h1m-1 1h1"/><path stroke="#c6c7c7" stroke-width="1.01" d="M2 23h1"/><path stroke="#d7d7d7" stroke-width="1.01" d="M3 23h1"/><path stroke="#809cb3" stroke-width="1.01" d="M4 23h2"/><path stroke="#829bb0" stroke-width="1.01" d="M6 23h1m-3 1h1m-1 1h1"/><path stroke="#c6c6c6" stroke-width="1.01" d="M3 24h1"/><path stroke="#dbdadb" stroke-width="1.01" d="M5 24h1"/><path stroke="#4d6a85" stroke-width="1.01" d="M7 24h1"/><path stroke="#a0a0a0" stroke-width="1.01" d="M10 24h1m-2 1h1m-2 2h3m-3 1h2m-3 1h3m-6 1h5m-6 1h5m-3 1h2m0 3h1"/><path stroke="#dfdedf" stroke-width="1.01" d="M1 25h2"/><path stroke="#c4c4c4" stroke-width="1.01" d="M3 25h1m-1 1h1"/><path stroke="#4d6a84" stroke-width="1.01" d="M7 25h1m-1 1h1"/><path stroke="#a0a1a0" stroke-width="1.01" d="M10 25h1m-2 1h1"/><path stroke="#446079" stroke-width="1.01" d="M4 26h1m-1 2h1m-1 1h1"/><path stroke="#a0a0a1" stroke-width="1.01" d="M8 26h1m1 0h1"/><path stroke="#d4d4d4" stroke-width="1.01" d="M1 27h1m-1 1h1"/><path stroke="#a1a1a1" stroke-width="1.01" d="M3 27h1m-3 2h1m1 0h1"/><path stroke="#446179" stroke-width="1.01" d="M4 27h1"/><path stroke="#022b50" stroke-width="1.01" d="M7 27h1m-1 1h1"/><path stroke="#a0a1a1" stroke-width="1.01" d="M3 28h1"/><path stroke="#b8b8b9" stroke-width="1.01" d="M5 28h1"/><path stroke="#919191" stroke-width="1.01" d="M6 28h1m3 0h1m-2 2h1m-2 1h2m-2 1h1m-5 2h3m-3 1h3"/><path stroke="#021c41" stroke-width="1.01" d="M5 29h1"/><path stroke="#021d40" stroke-width="1.01" d="M6 29h1"/><path stroke="#727273" stroke-width="1.01" d="M10 29h1"/><path stroke="#a4a5a5" stroke-width="1.01" d="M2 32h1"/><path stroke="#a1a1a0" stroke-width="1.01" d="M4 32h1"/><path stroke="#909191" stroke-width="1.01" d="M7 32h1"/><path stroke="#727272" stroke-width="1.01" d="M9 32h1m-5 4h2"/><path stroke="#929292" stroke-width="1.01" d="M5 33h1m1 0h1"/><path stroke="#767676" stroke-width="1.01" d="M3 34h1m4 0h1"/></svg>