<?xml version="1.0" encoding="UTF-8"?>
<svg width="7" height="9.01" shape-rendering="crispEdges" version="1.1" viewBox="0 -.5 7 9.01" xmlns="http://www.w3.org/2000/svg">
 <g stroke-width="1.01">
  <path d="m5 5e-3h1m-4 1h2m-3 1h1" stroke="#a8a8a8"/>
  <path d="m6 5e-3h1m-1 1h1m-5 1h3m-5 1h4m-3 1h2m-2 1h1" stroke="#858585"/>
  <path d="m4 1.005h1" stroke="#848585"/>
  <path d="m5 1.005h1" stroke="#858584"/>
  <path d="m0 2.005h1" stroke="#a8a9a8"/>
  <path d="m5 2.005h1" stroke="#858485"/>
  <path d="m4 3.005h1" stroke="#767776"/>
  <path d="m0 4.005h1m2 1h1m-4 1h1m1 0h1m-2 1h1m-2 1h1" stroke="#636363"/>
  <path d="m3 4.005h1m-4 1h1m1 0h1m-2 1h1m-2 1h1" stroke="#767676"/>
 </g>
</svg>
