<svg
   shape-rendering="crispEdges"
   viewBox="0 -0.5 12 22.5"
   version="1.1"
   id="svg52"
   sodipodi:docname="accessory_face_smokes.svg"
   width="12"
   height="22.5"
   xmlns="http://www.w3.org/2000/svg"
   xmlns:svg="http://www.w3.org/2000/svg">
  <defs
     id="defs56" />
  <sodipodi:namedview
     id="namedview54"
     pagecolor="#505050"
     bordercolor="#eeeeee"
     borderopacity="1"
     inkscape:pageshadow="0"
     inkscape:pageopacity="0"
     inkscape:pagecheckerboard="0"
     showgrid="false"
     inkscape:zoom="17.526316"
     inkscape:cx="-6.0195195"
     inkscape:cy="18.457958"
     inkscape:window-width="1920"
     inkscape:window-height="1009"
     inkscape:window-x="-8"
     inkscape:window-y="-8"
     inkscape:window-maximized="1"
     inkscape:current-layer="svg52" />
  <path
     stroke="rgba(188,172,158,0.13333333333333333)"
     d="m 6,-0.5 h 2 m 1,0 h 3 m -7,1 h 7 m -7,1 h 1 m 1,0 h 3 m -4,1 h 2 m 1,0 h 1 m -7,1 h 1 m 2,0 h 4 m -4,1 h 2 m 2,0 h 2"
     id="path2" />
  <path
     stroke="rgba(188,173,158,0.13333333333333333)"
     d="m 8,-0.5 h 1 m -6,5 h 1"
     id="path4" />
  <path
     stroke="rgba(188,172,159,0.13333333333333333)"
     d="m 6,1.5 h 1 m 3,0 h 1 m -3,1 h 1 m -1,2 h 1"
     id="path6" />
  <path
     stroke="rgba(189,172,158,0.13333333333333333)"
     d="m 11,3.5 h 1"
     id="path8" />
  <path
     stroke="rgba(191,175,154,0.18823529411764706)"
     d="m 3,5.5 h 1 m 2,0 h 3 m -3,1 h 1 m 1,0 h 1 m -2,1 h 2 m 1,0 h 1 m -2,1 h 1 m 0,1 h 1 m -3,1 h 2"
     id="path10" />
  <path
     stroke="rgba(191,175,155,0.18823529411764706)"
     d="m 4,6.5 h 1 m 2,0 h 1 m 1,3 h 1"
     id="path12" />
  <path
     stroke="rgba(191,174,155,0.18823529411764706)"
     d="m 9,6.5 h 1"
     id="path14" />
  <path
     stroke="rgba(190,175,154,0.18823529411764706)"
     d="m 9,7.5 h 1 m -5,1 h 1"
     id="path16" />
  <path
     stroke="rgba(191,174,154,0.18823529411764706)"
     d="m 10,8.5 h 1 m -1,2 h 1"
     id="path18" />
  <path
     stroke="rgba(189,174,155,0.25882352941176473)"
     d="m 7,11.5 h 3 m -3,1 h 1 m -1,1 h 2"
     id="path20" />
  <path
     stroke="rgba(188,174,155,0.25882352941176473)"
     d="M 8,12.5 H 9"
     id="path22" />
  <path
     stroke="rgba(189,175,154,0.25882352941176473)"
     d="m 11,13.5 h 1"
     id="path24" />
  <path
     stroke="rgba(188,175,154,0.3568627450980392)"
     d="m 7,14.5 h 1 m 0,1 h 1"
     id="path26" />
  <path
     stroke="rgba(189,174,154,0.3568627450980392)"
     d="m 8,14.5 h 1 m -1,3 h 1"
     id="path28" />
  <path
     stroke="rgba(188,174,154,0.3568627450980392)"
     d="m 9,14.5 h 1 m -1,1 h 1 m -2,1 h 1"
     id="path30" />
  <path
     stroke="#596a59"
     d="m 6,17.5 h 1 m -3,1 h 2 m -3,1 h 3 m -6,1 h 4"
     id="path32" />
  <path
     stroke="#ffc82d"
     d="M 7,17.5 H 8"
     id="path34" />
  <path
     stroke="#8c4734"
     d="M 6,18.5 H 7"
     id="path36" />
  <path
     stroke="#ff8600"
     d="M 7,18.5 H 8"
     id="path38" />
  <path
     stroke="#8d4734"
     d="m 8,18.5 h 1 m -3,1 h 1 m 0,1 h 1"
     id="path40" />
  <path
     stroke="#596a58"
     d="M 2,19.5 H 3"
     id="path42" />
  <path
     stroke="#c42f07"
     d="M 7,19.5 H 8"
     id="path44" />
  <path
     stroke="#8d4634"
     d="M 8,19.5 H 9"
     id="path46" />
  <path
     stroke="#4f564f"
     d="m 4,20.5 h 2 m -6,1 h 5"
     id="path48" />
  <path
     stroke="#4f564e"
     d="M 6,20.5 H 7"
     id="path50" />
</svg>
