<svg
   shape-rendering="crispEdges"
   viewBox="0 -0.5 8 12"
   version="1.1"
   id="svg18"
   sodipodi:docname="accessory_face_monocle.svg"
   width="8"
   height="12"
   xmlns="http://www.w3.org/2000/svg"
   xmlns:svg="http://www.w3.org/2000/svg">
  <defs
     id="defs22" />
  <sodipodi:namedview
     id="namedview20"
     pagecolor="#505050"
     bordercolor="#eeeeee"
     borderopacity="1"
     inkscape:pageshadow="0"
     inkscape:pageopacity="0"
     inkscape:pagecheckerboard="0"
     showgrid="false"
     inkscape:zoom="17.526316"
     inkscape:cx="-2.0255255"
     inkscape:cy="6.9894895"
     inkscape:window-width="1920"
     inkscape:window-height="1009"
     inkscape:window-x="-8"
     inkscape:window-y="-8"
     inkscape:window-maximized="1"
     inkscape:current-layer="svg18" />
  <path
     stroke="#fddc24"
     d="M 0,0 H 5 M 0,1 H 1 M 0,2 H 1 M 0,3 H 1 M 0,4 h 1 m 5,1 h 1 m 0,1 h 1"
     id="path2" />
  <path
     stroke="rgba(166,217,236,0.47058823529411764)"
     d="M 1,1 H 4 M 1,2 H 4 M 1,3 h 3"
     id="path4" />
  <path
     stroke="#f0bf0f"
     d="M 4,1 H 5 M 4,2 H 5 M 4,3 H 5 M 3,4 h 1 m 1,1 h 1"
     id="path6" />
  <path
     stroke="#f0bf0e"
     d="M 1,4 H 3"
     id="path8" />
  <path
     stroke="#da9f22"
     d="M 4,4 H 5"
     id="path10" />
  <path
     stroke="#fddd24"
     d="M 7,7 H 8"
     id="path12" />
  <path
     stroke="#f1bf0f"
     d="M 7,8 H 8 M 7,9 h 1"
     id="path14" />
  <path
     stroke="#db9f22"
     d="M 6,10 H 7 M 5,11 H 6"
     id="path16" />
</svg>
