<svg
   shape-rendering="crispEdges"
   viewBox="0 -0.5 10 16"
   version="1.1"
   id="svg38"
   sodipodi:docname="accessory_face_bubble_pipe.svg"
   width="10"
   height="16"
   xmlns="http://www.w3.org/2000/svg"
   xmlns:svg="http://www.w3.org/2000/svg">
  <defs
     id="defs42" />
  <sodipodi:namedview
     id="namedview40"
     pagecolor="#505050"
     bordercolor="#eeeeee"
     borderopacity="1"
     inkscape:pageshadow="0"
     inkscape:pageopacity="0"
     inkscape:pagecheckerboard="0"
     showgrid="false"
     inkscape:zoom="17.526316"
     inkscape:cx="-6.0195195"
     inkscape:cy="10.983483"
     inkscape:window-width="1920"
     inkscape:window-height="1009"
     inkscape:window-x="-8"
     inkscape:window-y="-8"
     inkscape:window-maximized="1"
     inkscape:current-layer="svg38" />
  <path
     stroke="#feffff"
     d="M 7,0 H 8"
     id="path2" />
  <path
     stroke="#ffffea"
     d="M 8,0 H 9"
     id="path4" />
  <path
     stroke="#fffeea"
     d="m 9,0 h 1 M 6,4 h 1 m 0,4 h 1"
     id="path6" />
  <path
     stroke="#eafffe"
     d="M 7,1 H 8 M 4,5 h 1"
     id="path8" />
  <path
     stroke="#feeaff"
     d="m 9,1 h 1 M 9,2 h 1 M 6,6 h 1 m 0,3 h 1"
     id="path10" />
  <path
     stroke="#eaffec"
     d="M 7,2 H 9 M 4,6 h 2 m 0,3 h 1"
     id="path12" />
  <path
     stroke="#ffffff"
     d="m 4,4 h 2 m 0,4 h 1 m 0,3 h 1"
     id="path14" />
  <path
     stroke="#ffeaff"
     d="M 6,5 H 7"
     id="path16" />
  <path
     stroke="#eafeff"
     d="M 5,10 H 6"
     id="path18" />
  <path
     stroke="#64403e"
     d="m 5,12 h 1 m 2,0 h 1 m -3,1 h 2 m -6,1 h 4"
     id="path20" />
  <path
     stroke="#7e4e4b"
     d="M 6,12 H 8"
     id="path22" />
  <path
     stroke="#64413e"
     d="M 0,13 H 2"
     id="path24" />
  <path
     stroke="#64403f"
     d="M 2,13 H 3"
     id="path26" />
  <path
     stroke="#50343d"
     d="M 5,13 H 6"
     id="path28" />
  <path
     stroke="#50353d"
     d="m 8,13 h 1 m -9,1 h 2 m 0,1 h 1 m 1,0 h 1"
     id="path30" />
  <path
     stroke="#50343c"
     d="M 6,14 H 7"
     id="path32" />
  <path
     stroke="#3b242b"
     d="M 7,14 H 8"
     id="path34" />
  <path
     stroke="#51353d"
     d="M 3,15 H 4"
     id="path36" />
</svg>
