<?xml version="1.0" encoding="UTF-8"?>
<svg width="12" height="22.505" shape-rendering="crispEdges" version="1.1" viewBox="0 -.5 12 22.505" xmlns="http://www.w3.org/2000/svg">
 <metadata>Made with Pixels to Svg https://codepen.io/shshaw/pen/XbxvNj</metadata>
 <g stroke-width="1.01">
  <path d="m6-0.5h2m1 0h3m-7 1h7m-7 1h4m1 0h1m-5 1h1m1 0h2m-7 1h1m2 0h4m1 0h1m-9 1h1m2 0h1m1 0h1m1 0h1" stroke="rgba(188,173,158,0.13333333333333333)"/>
  <path d="m8-0.5h1" stroke="rgba(189,173,158,0.13333333333333333)"/>
  <path d="m9 1.5h1m1 3h1" stroke="rgba(189,173,159,0.13333333333333333)"/>
  <path d="m7 2.5h1" stroke="rgba(189,172,158,0.13333333333333333)"/>
  <path d="m7 4.5h1" stroke="rgba(188,172,158,0.13333333333333333)"/>
  <path d="m3 5.5h1m2 0h1m1 0h1m-5 1h1m1 0h2m1 0h1m-3 1h4m-6 1h1m4 0h1m-2 2h2" stroke="rgba(191,175,154,0.18823529411764706)"/>
  <path d="m7 5.5h1" stroke="rgba(190,175,155,0.18823529411764706)"/>
  <path d="m8 6.5h1m-1 4h1" stroke="rgba(190,175,154,0.18823529411764706)"/>
  <path d="m9 8.5h1m0 1h1" stroke="rgba(191,174,154,0.18823529411764706)"/>
  <path d="m9 9.5h1" stroke="rgba(190,174,154,0.18823529411764706)"/>
  <path d="m7 11.5h3m-3 1h2m-2 1h2m2 0h1" stroke="rgba(189,174,155,0.25882352941176473)"/>
  <path d="m7 14.5h3m-2 1h2m-2 1h1" stroke="rgba(188,174,154,0.3568627450980392)"/>
  <path d="m6 17.5h1m-3 1h2m-4 1h4m-6 1h4" stroke="#5d6e5d"/>
  <path d="m7 17.5h1" stroke="#ffc82d"/>
  <path d="m8 17.5h1m-2 1h1" stroke="#ff8600"/>
  <path d="m6 18.5h1m1 0h1m-3 1h1m1 0h1" stroke="#8d4734"/>
  <path d="m7 19.5h1" stroke="#c42f07"/>
  <path d="m4 20.5h3m-7 1h4" stroke="#555d5a"/>
  <path d="m7 20.5h1" stroke="#8d4735"/>
  <path d="m4 21.5h1" stroke="#555d5b"/>
 </g>
</svg>
