<?xml version="1.0" encoding="UTF-8"?>
<svg width="10" height="16.01" shape-rendering="crispEdges" version="1.1" viewBox="0 -.5 10 16.01" xmlns="http://www.w3.org/2000/svg">
 <g stroke-width="1.01">
  <path d="m7 5e-3h1" stroke="#feffff"/>
  <path d="m8 5e-3h1" stroke="#ffffea"/>
  <path d="m9 5e-3h1m-4 4h1m0 4h1" stroke="#fffeea"/>
  <path d="m7 1.005h1m-4 4h1" stroke="#eafffe"/>
  <path d="m9 1.005h1m-1 1h1m-4 4h1m0 3h1" stroke="#feeaff"/>
  <path d="m7 2.005h2m-5 4h2m0 3h1" stroke="#eaffec"/>
  <path d="m4 4.005h2m0 4h1m0 3h1" stroke="#fff"/>
  <path d="m6 5.005h1" stroke="#ffeaff"/>
  <path d="m5 10.005h1" stroke="#eafeff"/>
  <path d="m5 12.005h1m2 0h1m-3 1h2m-6 1h4" stroke="#64403e"/>
  <path d="m6 12.005h2" stroke="#7e4e4b"/>
  <path d="m0 13.005h2" stroke="#64413e"/>
  <path d="m2 13.005h1" stroke="#64403f"/>
  <path d="m5 13.005h1" stroke="#50343d"/>
  <path d="m8 13.005h1m-9 1h2m0 1h1m1 0h1" stroke="#50353d"/>
  <path d="m6 14.005h1" stroke="#50343c"/>
  <path d="m7 14.005h1" stroke="#3b242b"/>
  <path d="m3 15.005h1" stroke="#51353d"/>
 </g>
</svg>
