<?xml version="1.0" encoding="UTF-8"?>
<svg width="6" height="15.01" shape-rendering="crispEdges" version="1.1" viewBox="0 -.5 6 15.01" xmlns="http://www.w3.org/2000/svg">
 <g stroke-width="1.01">
  <path d="m3 5e-3h2m-3 1h1m2 0h1m-4 2h1m-1 1h1m-1 1h1" stroke="#000"/>
  <path d="m2 2.005h1" stroke="#000001"/>
  <path d="m1 5.005h1m-2 1h1" stroke="#003ef2"/>
  <path d="m3 5.005h1m0 2h1m-2 1h1m-1 1h2m-2 1h2m-2 1h2m-3 1h1m-1 1h2m-1 1h1" stroke="#0b15c9"/>
  <path d="m1 6.005h1m2 0h1m-5 1h3m-3 1h3m-3 1h2m-2 1h1m1 0h1m-2 1h2m-2 1h1m-1 1h1m-1 1h1" stroke="#1823e1"/>
  <path d="m2 6.005h1" stroke="#1923e1"/>
  <path d="m3 6.005h1m-3 4h1m-2 1h1" stroke="#1823e0"/>
  <path d="m3 7.005h1" stroke="#0b14c9"/>
  <path d="m4 8.005h1m-2 4h1m-2 2h1" stroke="#0b15c8"/>
  <path d="m2 9.005h1" stroke="#1822e1"/>
 </g>
</svg>
