<?xml version="1.0" encoding="UTF-8"?>
<svg width="9" height="22.01" shape-rendering="crispEdges" version="1.1" viewBox="0 -.5 9 22.01" xmlns="http://www.w3.org/2000/svg">
 <g stroke-width="1.01">
  <path d="m6 5e-3h1m-2 1h1m-1 1h1m-2 1h2m-2 1h1m-1 1h1m-2 1h2m-2 1h1m-1 1h1m-1 1h1m-2 1h2m-2 1h1m-2 2h2m-2 1h2m-2 1h1m-1 1h1m-1 1h1m-2 1h2m-2 1h1m-1 1h1m-1 1h1" stroke="#fc9ca9"/>
  <path d="m7 5e-3h2m-3 1h1m1 0h1m-3 1h2m-2 1h1m-2 2h1m-2 3h1m-2 4h1m-2 3h1m-1 1h1m-2 3h1m-1 1h1m-1 1h1" stroke="#ea7a8d"/>
  <path d="m7 1.005h1" stroke="#a4445e"/>
  <path d="m8 2.005h1m-2 1h1m-1 1h1m-2 1h1m-1 1h1m-2 1h1m-1 1h1m-1 1h1m-2 1h1m-1 2h1m-2 1h1m-1 1h1m-1 1h1m-1 1h1m-2 1h1m-1 1h1m-1 1h1m-1 1h1" stroke="#df6086"/>
  <path d="m5 4.005h1" stroke="#fd9ca9"/>
  <path d="m6 4.005h1m-3 5h1" stroke="#eb7a8d"/>
  <path d="m5 6.005h1" stroke="#eb7a8c"/>
  <path d="m4 7.005h1m-3 5h1m-3 5h1" stroke="#fc9ca8"/>
  <path d="m3 11.005h1" stroke="#fc9da8"/>
  <path d="m4 11.005h1" stroke="#df6186"/>
  <path d="m2 21.005h1" stroke="#de6086"/>
 </g>
</svg>
