<?xml version="1.0" encoding="UTF-8"?>
<svg width="9" height="22.01" shape-rendering="crispEdges" version="1.1" viewBox="0 -.5 9 22.01" xmlns="http://www.w3.org/2000/svg">
 <g stroke-width="1.01">
  <path d="m6 5e-3h1m-2 1h1m-1 1h1m-1 1h1m-2 1h2m-2 1h1m-2 1h2m-2 2h1m-1 1h1m-2 1h2m-1 1h1m-2 1h1m-2 1h2m-1 1h1m-2 1h1m-1 1h1m-1 2h1m-2 2h1m-1 1h1" stroke="#83ff59"/>
  <path d="m7 5e-3h2m-3 1h1m1 0h1m-3 1h2m-2 1h1m-1 1h1m-2 1h1m-1 1h1m-2 2h1m-1 1h1m-3 6h1m-2 4h1m-1 1h1m-1 1h1" stroke="#5ee439"/>
  <path d="m7 1.005h1" stroke="#178463"/>
  <path d="m8 2.005h1m-2 1h1m-1 1h1m-2 1h1m-1 1h1m-2 1h1m-1 2h1m-2 1h1m-1 1h1m-2 2h1m-1 1h1m-1 1h1m-1 1h1m-2 1h1m-1 1h1m-1 1h1m-1 1h1m-1 1h1" stroke="#1eba64"/>
  <path d="m4 3.005h1m-3 8h1m-3 7h1m-1 1h1" stroke="#83ff58"/>
  <path d="m3 7.005h2m-5 10h1" stroke="#82ff59"/>
  <path d="m5 8.005h1" stroke="#1fba64"/>
  <path d="m3 12.005h1" stroke="#5fe439"/>
  <path d="m4 12.005h1" stroke="#1ebb64"/>
  <path d="m1 14.005h1" stroke="#83fe59"/>
  <path d="m2 16.005h1" stroke="#5ee438"/>
  <path d="m1 17.005h1" stroke="#82ff58"/>
 </g>
</svg>
