<?xml version="1.0" encoding="UTF-8"?>
<svg width="10" height="17.01" shape-rendering="crispEdges" version="1.1" viewBox="0 -.5 10 17.01" xmlns="http://www.w3.org/2000/svg">
 <g stroke-width="1.01">
  <path d="m3 5e-3h1m-2 1h1m-3 1h1m1 10h1m-1 1h2m1 0h1m1 0h1m-2 1h1" stroke="#969696"/>
  <path d="m4 5e-3h1m-4 2h1m-2 1h1m-1 1h1" stroke="#a6a6a6"/>
  <path d="m5 5e-3h1m-2 1h1m-2 1h3m-5 2h1" stroke="#dfdfdf"/>
  <path d="m6 5e-3h1" stroke="#d6d7d7"/>
  <path d="m3 1.005h1" stroke="#c7c7c7"/>
  <path d="m5 1.005h1" stroke="#dedede"/>
  <path d="m6 1.005h1" stroke="#dfdfde"/>
  <path d="m7 1.005h1" stroke="#bcbcbc"/>
  <path d="m2 2.005h1" stroke="#c5c5c5"/>
  <path d="m6 2.005h1m-7 4h2m-1 1h1" stroke="#dbdbdb"/>
  <path d="m7 2.005h2m-3 1h4m-3 1h2m-5 1h1m2 0h1m-4 1h1m-1 1h1m-4 1h1m-1 1h1m0 1h1" stroke="#c2c2c2"/>
  <path d="m9 2.005h1m-5 2h1m-1 1h1m-1 1h1m-1 1h1m-5 3h1m-1 1h1" stroke="#b8b8b8"/>
  <path d="m1 3.005h1" stroke="#c6c7c7"/>
  <path d="m2 3.005h1" stroke="#d7d7d7"/>
  <path d="m3 3.005h2" stroke="#809cb3"/>
  <path d="m5 3.005h1m-3 1h1m-1 1h1" stroke="#829bb0"/>
  <path d="m2 4.005h1" stroke="#c6c6c6"/>
  <path d="m4 4.005h1" stroke="#dbdadb"/>
  <path d="m6 4.005h1" stroke="#4d6a85"/>
  <path d="m9 4.005h1m-2 1h1m-2 2h3m-3 1h2m-3 1h3m-6 1h5m-6 1h5m-3 1h2m0 3h1" stroke="#a0a0a0"/>
  <path d="m0 5.005h2" stroke="#dfdedf"/>
  <path d="m2 5.005h1m-1 1h1" stroke="#c4c4c4"/>
  <path d="m6 5.005h1m-1 1h1" stroke="#4d6a84"/>
  <path d="m9 5.005h1m-2 1h1" stroke="#a0a1a0"/>
  <path d="m3 6.005h1m-1 2h1m-1 1h1" stroke="#446079"/>
  <path d="m7 6.005h1m1 0h1" stroke="#a0a0a1"/>
  <path d="m0 7.005h1m-1 1h1" stroke="#d4d4d4"/>
  <path d="m2 7.005h1m-3 2h1m1 0h1" stroke="#a1a1a1"/>
  <path d="m3 7.005h1" stroke="#446179"/>
  <path d="m6 7.005h1m-1 1h1" stroke="#022b50"/>
  <path d="m2 8.005h1" stroke="#a0a1a1"/>
  <path d="m4 8.005h1" stroke="#b8b8b9"/>
  <path d="m5 8.005h1m3 0h1m-2 2h1m-2 1h2m-2 1h1m-5 2h3m-3 1h3" stroke="#919191"/>
  <path d="m4 9.005h1" stroke="#021c41"/>
  <path d="m5 9.005h1" stroke="#021d40"/>
  <path d="m9 9.005h1" stroke="#727273"/>
  <path d="m1 12.005h1" stroke="#a4a5a5"/>
  <path d="m3 12.005h1" stroke="#a1a1a0"/>
  <path d="m6 12.005h1" stroke="#909191"/>
  <path d="m8 12.005h1m-5 4h2" stroke="#727272"/>
  <path d="m4 13.005h1m1 0h1" stroke="#929292"/>
  <path d="m2 14.005h1m4 0h1" stroke="#767676"/>
 </g>
</svg>
