<svg xmlns="http://www.w3.org/2000/svg" shape-rendering="crispEdges" viewBox="0 -0.5 38 38"><path stroke="#fdb944" stroke-width="1.01" d="M0 25h1m4 5h1"/><path stroke="#241519" stroke-width="1.01" d="M1 25h3m0 1h1m0 1h1m-1 1h1m-1 1h1"/><path stroke="#637df2" stroke-width="1.01" d="M0 26h1m-1 1h2m0 1h1m0 1h1"/><path stroke="#253fb4" stroke-width="1.01" d="M1 26h1m0 1h1m-3 2h1m3 0h1m-5 1h2m-2 1h2m4 0h1m-7 1h3m4 0h1m-8 1h1m1 0h2m3 0h1m-8 1h6m-6 1h5m-5 1h3m-3 1h1m1 0h1"/><path stroke="rgba(0,0,0,0.4196078431372549)" stroke-width="1.01" d="M3 26h1m0 1h1"/><path stroke="#2841c1" stroke-width="1.01" d="M0 28h1m0 1h1m0 1h1m-1 1h2m-1 1h2"/><path stroke="#4b63ce" stroke-width="1.01" d="M1 28h1m0 1h1m1 2h1m0 1h2m-1 1h1"/><path stroke="#253fb5" stroke-width="1.01" d="M3 28h1"/><path stroke="#4a63ce" stroke-width="1.01" d="M3 30h2"/><path stroke="#bf7514" stroke-width="1.01" d="M5 31h1"/><path stroke="#253eb4" stroke-width="1.01" d="M1 33h1m-1 4h1"/><path stroke="#2840c1" stroke-width="1.01" d="M4 33h1"/><path stroke="#2941c1" stroke-width="1.01" d="M5 33h1"/><path stroke="#2238a4" stroke-width="1.01" d="M6 34h1m-2 1h1m-2 1h1"/><path stroke="#262d99" stroke-width="1.01" d="M7 34h1"/><path stroke="#262c98" stroke-width="1.01" d="M6 35h1m-4 2h1"/><path stroke="#243fb4" stroke-width="1.01" d="M3 36h1"/><path stroke="#212587" stroke-width="1.01" d="M5 36h1m-2 1h1"/></svg>