<?xml version="1.0" encoding="UTF-8"?>
<svg width="14" height="27.01" shape-rendering="crispEdges" version="1.1" viewBox="0 -.5 14 27.01" xmlns="http://www.w3.org/2000/svg">
 <g stroke-width="1.01">
  <path d="m0 5e-3h7m-7 1h2m1 0h6m-1 1h1m-1 1h2m-1 1h1m0 1h2m-2 1h3m-2 1h1m0 1h1m-1 1h2m-3 1h2m-3 1h3m-3 1h2m-3 1h2m-3 1h2m-3 1h2m-9 1h2m1 0h6m-9 1h8" stroke="#120c05"/>
  <path d="m7 5e-3h1m-6 16h1" stroke="#120d05"/>
  <path d="m2 1.005h1m9 6h1m0 1h1" stroke="#130c05"/>
  <path d="m0 2.005h1m5 0h1m2 4h1m-1 5h1m-4 4h1" stroke="#d3d3d3"/>
  <path d="m1 2.005h4m-5 1h7m-7 1h4m2 0h2m-8 1h2m3 0h4m-9 1h2m2 0h5m-9 1h1m6 0h3m-10 1h1m5 0h5m-11 1h3m5 0h3m-11 1h2m6 0h2m-10 1h5m3 0h1m-9 1h1m1 0h2m4 0h1m-9 1h1m6 0h1m-8 1h1m5 0h1m-6 1h5" stroke="#f1f2ec"/>
  <path d="m5 2.005h1m-4 3h1m-2 7h1" stroke="#f1f2ed"/>
  <path d="m7 2.005h1m2 2h1" stroke="#120c04"/>
  <path d="m9 2.005h1m-1 13h1" stroke="rgba(19,12,5,0.807843137254902)"/>
  <path d="m7 3.005h1m-1 11h1" stroke="#b4b4b4"/>
  <path d="m10 3.005h1m-1 11h1" stroke="rgba(19,12,4,0.4823529411764706)"/>
  <path d="m4 4.005h1m-1 1h1m4 0h1m-7 1h1m1 1h1m5 1h1m-9 1h1m7 0h1m-9 1h1m3 0h1m-3 1h1m-2 1h1m4 0h1m-8 2h1" stroke="#3d3d3d"/>
  <path d="m5 4.005h1m2 0h1m-3 3h1m3 0h1m-4 2h1m-6 1h1m5 3h1m-8 1h1" stroke="#707070"/>
  <path d="m3 5.005h1m-2 1h1m-2 1h2m1 0h1m-4 1h2m1 0h1m-1 1h1m-1 1h3m0 1h1m-2 1h2m-7 1h2m1 0h1m-2 1h2" stroke="#150e05"/>
  <path d="m3 7.005h1m-1 1h1m1 5h1" stroke="#140e05"/>
  <path d="m5 8.005h1m0 1h1" stroke="#3c3d3d"/>
  <path d="m5 9.005h1m-1 3h1m0 1h1" stroke="#150e04"/>
  <path d="m10 10.005h1" stroke="#717070"/>
  <path d="m6 11.005h1m-4 2h1m1 1h1" stroke="#150f05"/>
  <path d="m0 15.005h1" stroke="#d3d2d3"/>
  <path d="m4 18.005h1" stroke="#836243"/>
  <path d="m4 19.005h1" stroke="#a17548"/>
  <path d="m4 20.005h1m-1 1h1m-1 1h1m-1 1h1m-1 1h1m-1 1h1" stroke="#a17549"/>
  <path d="m4 26.005h1" stroke="#826243"/>
 </g>
</svg>
