<?xml version="1.0" encoding="UTF-8"?>
<svg width="9" height="22.01" shape-rendering="crispEdges" version="1.1" viewBox="0 -.5 9 22.01" xmlns="http://www.w3.org/2000/svg">
 <g stroke-width="1.01">
  <path d="m6 5e-3h1m-2 1h1m-1 1h1m-2 1h1m-1 1h2m-2 1h1m-2 1h2m-2 1h2m-2 1h1m-2 2h2m-1 1h1m-2 1h1m-2 1h2m-2 1h2m-2 1h1m-1 1h1m-2 1h2m-2 1h1m-1 1h1m-1 1h1m-1 1h1" stroke="#f8f34e"/>
  <path d="m7 5e-3h1m0 1h1m-3 1h2m-2 1h1m-2 2h1m-1 1h1m-2 2h1m-1 1h1m-2 3h1m-2 3h1m-1 1h1m-2 3h1m-1 1h1m-1 1h1" stroke="#ffe700"/>
  <path d="m8 5e-3h1" stroke="#fee600"/>
  <path d="m6 1.005h1" stroke="#ffe601"/>
  <path d="m7 1.005h1" stroke="#a47a00"/>
  <path d="m8 2.005h1m-2 1h1m-1 1h1m-2 1h1m-1 1h1m-2 1h1m-1 1h1m-1 1h1m-2 1h1m-1 1h1m-2 2h1m-1 2h1m-1 1h1m-2 1h1m-1 2h1m-1 1h1m-1 1h1" stroke="#f0c012"/>
  <path d="m5 3.005h1m-5 15h1" stroke="#f9f34e"/>
  <path d="m6 4.005h1" stroke="#ffe600"/>
  <path d="m3 9.005h1m-2 2h1" stroke="#f8f34f"/>
  <path d="m4 12.005h1" stroke="#f0c112"/>
  <path d="m3 14.005h1" stroke="#f1c112"/>
  <path d="m2 18.005h1" stroke="#f1c012"/>
 </g>
</svg>
