<?xml version="1.0" encoding="UTF-8"?>
<svg width="9" height="14.01" shape-rendering="crispEdges" version="1.1" viewBox="0 -.5 9 14.01" xmlns="http://www.w3.org/2000/svg">
 <g stroke-width="1.01">
  <path d="m4 5e-3h1m-2 1h1m1 0h1m-3 1h2m-4 1h1m2 0h1m1 0h2m-8 1h3m4 0h1m-4 1h1m-3 1h2m1 0h1m-5 1h2m2 0h1m-5 1h1" stroke="#fff529"/>
  <path d="m4 1.005h1m1 3h1" stroke="#fef529"/>
  <path d="m5 2.005h1m-3 1h1m1 0h1m2 1h1m-8 1h3m1 0h3m-2 1h1m-4 1h1m2 0h2m-6 1h1m3 0h1" stroke="#ffd554"/>
  <path d="m2 3.005h1m0 1h1m1 0h1" stroke="#fff429"/>
  <path d="m4 4.005h1" stroke="#fed555"/>
  <path d="m4 6.005h1" stroke="#ffd454"/>
  <path d="m4 7.005h1m-1 6h1" stroke="#cb4aad"/>
  <path d="m4 8.005h1m-1 1h1m-1 1h1m-1 1h1m-1 1h1" stroke="#ff6edc"/>
  <path d="m7 8.005h1" stroke="#ffd555"/>
 </g>
</svg>
