<svg xmlns="http://www.w3.org/2000/svg" shape-rendering="crispEdges" viewBox="0 -0.5 38 38"><path stroke="#a8b8ce" stroke-width="1.01" d="M2 20h1m-2 1h1m-2 1h1m5 0h1m-2 1h3m-2 1h1m-1 1h1m-4 2h2m-5 1h1m2 0h1m-4 1h1m-1 1h1m-1 1h1"/><path stroke="#c7defc" stroke-width="1.01" d="M3 20h1m-2 1h1m3 0h1m-6 1h1m3 0h1m1 0h2m-9 1h1m2 0h2m-2 1h1m-4 3h1"/><path stroke="#f9f6f7" stroke-width="1.01" d="M4 20h1m-1 1h1"/><path stroke="#f8f6f7" stroke-width="1.01" d="M5 20h1m-3 1h1m1 0h1m-4 1h3m-5 2h1m-1 1h1"/><path stroke="#4972ff" stroke-width="1.01" d="M1 23h1"/><path stroke="#4973ff" stroke-width="1.01" d="M2 23h1"/><path stroke="#92a6cd" stroke-width="1.01" d="M8 23h1m-2 1h1m-1 1h1m-1 1h1m-1 1h1m-6 5h1"/><path stroke="#2b59f7" stroke-width="1.01" d="M1 24h2"/><path stroke="#a8b9ce" stroke-width="1.01" d="M4 24h1"/><path stroke="#a8b8cf" stroke-width="1.01" d="M5 24h1"/><path stroke="#7a8ab9" stroke-width="1.01" d="M8 24h1m-1 1h1m-1 1h1m-1 1h1m-5 1h1m2 1h2m-3 1h2m-3 1h3m-8 1h2m2 0h2m-5 1h1m1 0h3m-5 1h5m-4 1h3m-2 1h1"/><path stroke="#2151f5" stroke-width="1.01" d="M1 25h2m-2 1h2m-1 1h1m-2 1h2m-2 1h2m-1 1h1"/><path stroke="#1835e8" stroke-width="1.01" d="M3 25h3m-3 1h4m-2 1h2m-1 1h1m-4 1h4m-4 1h1m1 0h1"/><path stroke="#c6defc" stroke-width="1.01" d="M0 26h1"/><path stroke="#2051f5" stroke-width="1.01" d="M1 27h1"/><path stroke="#1935e8" stroke-width="1.01" d="M5 28h1m-2 2h1"/><path stroke="#7b8ab9" stroke-width="1.01" d="M7 28h1"/><path stroke="#7a8bb8" stroke-width="1.01" d="M8 28h1"/><path stroke="#6789fc" stroke-width="1.01" d="M1 30h1"/><path stroke="#93a6cd" stroke-width="1.01" d="M1 31h1m1 1h1"/><path stroke="#93a6cc" stroke-width="1.01" d="M2 31h1"/><path stroke="#92a7cd" stroke-width="1.01" d="M3 31h2"/><path stroke="#7a8ab8" stroke-width="1.01" d="M6 32h1"/><path stroke="#7a8bb9" stroke-width="1.01" d="M2 33h1"/></svg>