<svg
   shape-rendering="crispEdges"
   viewBox="0 -0.5 15 13"
   version="1.1"
   id="svg46"
   sodipodi:docname="body_ethereum.svg"
   width="15"
   height="13"
   xmlns="http://www.w3.org/2000/svg"
   xmlns:svg="http://www.w3.org/2000/svg">
  <defs
     id="defs50" />
  <sodipodi:namedview
     id="namedview48"
     pagecolor="#505050"
     bordercolor="#eeeeee"
     borderopacity="1"
     inkscape:pageshadow="0"
     inkscape:pageopacity="0"
     inkscape:pagecheckerboard="0"
     showgrid="false"
     inkscape:zoom="17"
     inkscape:cx="6.5882353"
     inkscape:cy="-6.0294118"
     inkscape:window-width="1920"
     inkscape:window-height="1009"
     inkscape:window-x="-8"
     inkscape:window-y="-8"
     inkscape:window-maximized="1"
     inkscape:current-layer="svg46" />
  <path
     stroke="#c8c8c9"
     d="M 1,0 H 2 M 0,4 h 1"
     id="path2" />
  <path
     stroke="#ebebeb"
     d="M 2,0 H 13 M 2,1 h 4 m 1,0 h 1 m 2,0 h 5 M 3,2 h 1 m 1,0 h 2 m 5,0 h 3 M 2,3 h 4 m 6,0 h 1 m 1,0 h 1 M 2,4 h 1 m 1,0 h 2 m 6,0 h 3 M 2,5 h 3 m 9,0 h 1 M 3,6 h 2 m 9,0 h 1 M 3,7 h 3 m 6,0 h 1 m 1,0 h 1 M 2,8 h 2 m 1,0 h 2 m 4,0 h 2 m 1,0 h 1 M 2,9 h 3 m 2,0 h 1 m 2,0 h 1 m 2,0 h 2 M 2,10 h 3 m 3,0 h 2 m 3,0 h 2 M 2,11 h 4 m 6,0 h 3 M 2,12 h 3 m 1,0 h 1 m 4,0 h 4"
     id="path4" />
  <path
     stroke="#ffffff"
     d="m 13,0 h 2"
     id="path6" />
  <path
     stroke="#c8c8c8"
     d="M 0,1 H 1 M 0,2 H 2 M 0,3 H 2 M 1,4 H 2 M 0,5 H 2 M 1,6 H 2 M 0,7 H 2 M 0,8 H 2 M 0,9 h 2 m -2,1 h 2 m -2,1 h 2 m -2,1 h 2"
     id="path8" />
  <path
     stroke="#c8c9c8"
     d="M 1,1 H 2"
     id="path10" />
  <path
     stroke="#ebeaeb"
     d="M 6,1 H 7 M 2,2 h 1 m 10,1 h 1 M 2,6 h 1 m 10,0 h 1 M 2,7 h 1"
     id="path12" />
  <path
     stroke="#906ef9"
     d="m 8,1 h 1 m 0,5 h 1 m 0,5 h 1"
     id="path14" />
  <path
     stroke="#37f6e7"
     d="m 9,1 h 1 M 9,2 h 2 M 9,3 h 3 M 9,4 h 3 m 0,1 h 1"
     id="path16" />
  <path
     stroke="#eaeaeb"
     d="M 4,2 H 5"
     id="path18" />
  <path
     stroke="#906ff9"
     d="M 7,2 H 8 M 6,3 H 9 M 6,4 H 8 M 5,5 h 2 m 2,0 h 2 m -1,1 h 3 M 9,7 h 3 m -2,1 h 1 M 9,9 h 1 m 2,0 h 1 m -3,1 h 2 m -3,1 h 1 m 1,0 h 1 m -3,1 h 2"
     id="path20" />
  <path
     stroke="#906ff8"
     d="M 8,2 H 9 M 8,4 h 1 m 2,5 h 1"
     id="path22" />
  <path
     stroke="#eaebeb"
     d="m 11,2 h 1 M 3,4 h 1 m 9,1 h 1"
     id="path24" />
  <path
     stroke="#3965ee"
     d="M 7,5 H 9 M 5,6 H 8 M 6,7 H 9 M 7,8 H 9 M 5,9 h 2 m 1,0 h 1 m -3,1 h 1 m -1,1 h 3 m -2,1 h 2"
     id="path26" />
  <path
     stroke="#36f6e7"
     d="m 11,5 h 1"
     id="path28" />
  <path
     stroke="#c9c8c8"
     d="M 0,6 H 1"
     id="path30" />
  <path
     stroke="#3965ef"
     d="M 8,6 H 9 M 7,10 H 8"
     id="path32" />
  <path
     stroke="#ebebea"
     d="m 13,7 h 1 m -9,5 h 1"
     id="path34" />
  <path
     stroke="#7995ed"
     d="M 4,8 H 5"
     id="path36" />
  <path
     stroke="#906ef8"
     d="m 9,8 h 1"
     id="path38" />
  <path
     stroke="#b19cf4"
     d="m 13,8 h 1"
     id="path40" />
  <path
     stroke="#acbced"
     d="M 5,10 H 6"
     id="path42" />
  <path
     stroke="#cbbff0"
     d="m 12,10 h 1"
     id="path44" />
</svg>
