<svg
   shape-rendering="crispEdges"
   viewBox="0 -0.5 15 13"
   version="1.1"
   id="svg68"
   sodipodi:docname="body_fop_black.svg"
   width="15"
   height="13"
   xmlns="http://www.w3.org/2000/svg"
   xmlns:svg="http://www.w3.org/2000/svg">
  <defs
     id="defs72" />
  <sodipodi:namedview
     id="namedview70"
     pagecolor="#505050"
     bordercolor="#eeeeee"
     borderopacity="1"
     inkscape:pageshadow="0"
     inkscape:pageopacity="0"
     inkscape:pagecheckerboard="0"
     showgrid="false"
     inkscape:zoom="17"
     inkscape:cx="7.9705882"
     inkscape:cy="-6.0294118"
     inkscape:window-width="1920"
     inkscape:window-height="1009"
     inkscape:window-x="-8"
     inkscape:window-y="-8"
     inkscape:window-maximized="1"
     inkscape:current-layer="svg68" />
  <path
     stroke="#1b1b1b"
     d="M 1,0 H 2 M 1,1 H 2 M 0,3 H 1 M 0,4 H 1 M 0,5 H 1 M 1,7 H 2 M 0,8 H 2 M 0,9 h 1 m 0,1 h 1 m -2,1 h 1 m -1,1 h 1"
     id="path2" />
  <path
     stroke="#262626"
     d="m 2,0 h 6 m 1,0 h 4 M 2,1 h 1 m 11,0 h 1 m -1,6 h 1 m -2,1 h 1 M 3,9 h 1 m -2,1 h 3 m 6,0 h 4 M 2,11 h 5 m 3,0 h 5 M 2,12 h 2 m 1,0 h 7 m 1,0 h 1"
     id="path4" />
  <path
     stroke="#262627"
     d="M 8,0 H 9 M 2,8 H 3 M 2,9 h 1 m 9,0 h 1 m -1,3 h 1"
     id="path6" />
  <path
     stroke="#3d3d3c"
     d="m 13,0 h 1"
     id="path8" />
  <path
     stroke="#3c3c3c"
     d="m 14,0 h 1"
     id="path10" />
  <path
     stroke="#1b1a1b"
     d="M 0,1 H 1 M 0,6 H 1 M 0,7 h 1 m -1,3 h 1 m 0,2 h 1"
     id="path12" />
  <path
     stroke="#808080"
     d="m 3,1 h 1 m 2,0 h 1 m 2,0 h 1 m 2,0 h 1 M 1,2 h 1 m 12,0 h 1 m -3,6 h 1 m -8,2 h 1 m 4,0 h 1 m -4,1 h 2"
     id="path14" />
  <path
     stroke="#a8a8a9"
     d="M 4,1 H 5"
     id="path16" />
  <path
     stroke="#a9a8a8"
     d="M 5,1 H 6"
     id="path18" />
  <path
     stroke="#bfbfbf"
     d="M 7,1 H 8 M 6,3 H 7 M 4,4 h 2 m 6,0 h 1 m 1,0 h 1 M 2,5 h 1 m 7,0 h 1 M 2,6 h 1 m 7,0 h 1"
     id="path20" />
  <path
     stroke="#d1d1d1"
     d="m 8,1 h 1 m 1,0 h 2 M 6,2 H 8 M 5,7 H 6 M 7,7 H 9 M 6,8 H 7 M 4,9 h 1"
     id="path22" />
  <path
     stroke="#272626"
     d="m 13,1 h 1 m 0,7 h 1 m -6,3 h 1"
     id="path24" />
  <path
     stroke="#1a1b1b"
     d="M 0,2 H 1 M 1,9 H 2"
     id="path26" />
  <path
     stroke="#a8a8a8"
     d="M 2,2 H 4 M 1,3 H 3 M 2,4 h 1 m 11,1 h 1 m -3,2 h 2 m -4,1 h 2 M 7,9 h 5 m -6,1 h 4"
     id="path28" />
  <path
     stroke="#c0c0c0"
     d="M 4,2 H 6 M 1,4 H 2 M 1,5 h 1 m 10,1 h 2 M 9,7 h 1 m 1,0 h 1 M 7,8 h 3 M 6,9 h 1"
     id="path30" />
  <path
     stroke="#d0d1d1"
     d="M 8,2 H 9 M 6,7 H 7 M 5,8 h 1"
     id="path32" />
  <path
     stroke="#dddddd"
     d="m 9,2 h 5 M 5,5 H 6 M 4,6 H 6 M 2,7 h 3"
     id="path34" />
  <path
     stroke="#0c3356"
     d="m 3,3 h 2 m 2,0 h 3 m 1,0 h 2 M 3,4 h 1 m 7,0 h 1 M 3,5 h 1 m 3,0 h 1 m 3,0 h 1 M 3,6 h 1 m 3,0 h 1 m 3,0 h 1"
     id="path36" />
  <path
     stroke="#012547"
     d="M 5,3 H 6"
     id="path38" />
  <path
     stroke="#d0d0d0"
     d="m 10,3 h 1 m 3,0 h 1 M 6,4 h 1 m 1,0 h 1 m 1,0 h 1 M 6,5 H 7 M 3,8 h 1"
     id="path40" />
  <path
     stroke="#002447"
     d="m 13,3 h 1 m -1,1 h 1"
     id="path42" />
  <path
     stroke="#0c3256"
     d="M 7,4 H 8"
     id="path44" />
  <path
     stroke="#002547"
     d="m 9,4 h 1 M 4,5 h 1 m 4,0 h 1 m 2,0 h 2 M 8,6 h 2"
     id="path46" />
  <path
     stroke="#d0d0d1"
     d="M 8,5 H 9"
     id="path48" />
  <path
     stroke="#808180"
     d="M 1,6 H 2"
     id="path50" />
  <path
     stroke="#d0d1d0"
     d="M 6,6 H 7"
     id="path52" />
  <path
     stroke="#767676"
     d="m 14,6 h 1"
     id="path54" />
  <path
     stroke="#c1c0c0"
     d="m 10,7 h 1"
     id="path56" />
  <path
     stroke="#d1d1d0"
     d="M 4,8 H 5"
     id="path58" />
  <path
     stroke="#d1d0d1"
     d="M 5,9 H 6"
     id="path60" />
  <path
     stroke="#272627"
     d="m 13,9 h 1 m 0,3 h 1"
     id="path62" />
  <path
     stroke="#262726"
     d="m 14,9 h 1 M 4,12 h 1"
     id="path64" />
  <path
     stroke="#1a1a1b"
     d="M 1,11 H 2"
     id="path66" />
</svg>
