<svg
   shape-rendering="crispEdges"
   viewBox="0 -0.5 15 13"
   version="1.1"
   id="svg42"
   sodipodi:docname="body_op.svg"
   width="15"
   height="13"
   xmlns="http://www.w3.org/2000/svg"
   xmlns:svg="http://www.w3.org/2000/svg">
  <defs
     id="defs46" />
  <sodipodi:namedview
     id="namedview44"
     pagecolor="#505050"
     bordercolor="#eeeeee"
     borderopacity="1"
     inkscape:pageshadow="0"
     inkscape:pageopacity="0"
     inkscape:pagecheckerboard="0"
     showgrid="false"
     inkscape:zoom="17"
     inkscape:cx="7.9705882"
     inkscape:cy="-6.0294118"
     inkscape:window-width="1920"
     inkscape:window-height="1009"
     inkscape:window-x="-8"
     inkscape:window-y="-8"
     inkscape:window-maximized="1"
     inkscape:current-layer="svg42" />
  <path
     stroke="#e00018"
     d="M 1,0 H 2 M 0,1 H 2 M 1,2 H 2 M 0,3 H 3 M 8,3 H 9 M 0,4 H 3 M 8,4 H 9 M 0,5 h 4 m 4,0 h 1 m 5,0 h 1 M 0,6 h 4 m 4,0 h 1 m 1,0 h 1 m 1,0 h 2 M 0,7 h 5 m 3,0 h 1 m 3,0 h 1 M 0,8 H 2 M 3,8 H 6 M 7,8 H 9 M 1,9 h 5 m 2,0 h 1 m -9,1 h 7 m 1,0 h 1 m 1,0 h 1 M 0,11 h 5 m 3,0 h 1 m 2,0 h 1 M 0,12 h 1 m 1,0 h 10"
     id="path2" />
  <path
     stroke="#ff364c"
     d="m 2,0 h 2 m 9,0 h 2 M 5,2 h 1 m 4,0 h 2 m 1,0 h 2 M 5,3 h 2 m 7,0 h 1 M 7,7 h 1 m 2,0 h 2 M 7,9 h 1 m 2,0 h 1"
     id="path4" />
  <path
     stroke="#ff0420"
     d="m 4,0 h 1 m 1,0 h 7 M 2,1 h 2 m 4,0 h 1 m 5,0 h 1 M 2,2 H 3 M 8,2 H 9 M 3,3 h 1 m 6,0 h 2 m 1,0 h 1 M 3,4 h 1 m 2,0 h 1 m 7,0 h 1 M 5,5 h 2 m 3,0 h 2 m 1,0 h 1 m 0,1 h 1 M 5,7 h 1 m 3,0 h 1 m 4,0 h 1 m -5,1 h 3 m 1,0 h 1 M 6,9 h 1 m 2,0 h 1 m 1,0 h 2 m 1,0 h 1 m -4,1 h 4 m -9,1 h 2 m 1,0 h 1 m 2,0 h 3 m -3,1 h 3"
     id="path6" />
  <path
     stroke="#ff0520"
     d="m 5,0 h 1 m 7,4 h 1 m -1,3 h 1 m -4,4 h 1"
     id="path8" />
  <path
     stroke="#ffffff"
     d="m 4,1 h 3 m 3,0 h 1 m 1,0 h 1 M 7,2 h 1 m 4,0 h 1 M 7,3 h 1 m 4,0 h 1"
     id="path10" />
  <path
     stroke="#fffeff"
     d="m 7,1 h 1 m 1,1 h 1"
     id="path12" />
  <path
     stroke="#fffffe"
     d="m 9,1 h 1 M 4,2 h 1"
     id="path14" />
  <path
     stroke="#feffff"
     d="m 11,1 h 1"
     id="path16" />
  <path
     stroke="#fe0420"
     d="m 13,1 h 1 M 5,4 h 1"
     id="path18" />
  <path
     stroke="#e10018"
     d="m 0,2 h 1 m 1,6 h 1 m 2,3 h 1 m -5,1 h 1"
     id="path20" />
  <path
     stroke="#ff364d"
     d="M 3,2 H 4 M 6,7 H 7"
     id="path22" />
  <path
     stroke="#fe364c"
     d="M 6,2 H 7"
     id="path24" />
  <path
     stroke="#efefef"
     d="m 4,3 h 1 m 4,0 h 1 M 4,4 h 1 m 5,0 h 3 M 7,5 h 1"
     id="path26" />
  <path
     stroke="#eeefef"
     d="m 7,4 h 1 m 1,0 h 1 M 9,5 h 1"
     id="path28" />
  <path
     stroke="#d0d5e0"
     d="M 4,5 H 5 M 4,6 h 4"
     id="path30" />
  <path
     stroke="#ff0421"
     d="m 12,5 h 1 m 0,3 h 1 m -1,1 h 1"
     id="path32" />
  <path
     stroke="#d0d5e1"
     d="m 9,6 h 1"
     id="path34" />
  <path
     stroke="#e00019"
     d="m 11,6 h 1 M 0,9 h 1 m 8,1 h 1"
     id="path36" />
  <path
     stroke="#e00118"
     d="m 6,8 h 1 m 0,2 h 1"
     id="path38" />
  <path
     stroke="#e10118"
     d="m 9,8 h 1"
     id="path40" />
</svg>
