<svg xmlns="http://www.w3.org/2000/svg" shape-rendering="crispEdges" viewBox="0 -0.5 38 38"><path stroke="#fc9ca9" stroke-width="1.01" d="M9 24h1m1 0h1m14 0h2M8 25h2m17 0h3M7 26h1m21 0h1M7 27h2m-2 1h2m-2 1h2m-2 1h2m-2 1h2"/><path stroke="#fc9da9" stroke-width="1.01" d="M10 24h1m-3 2h1"/><path stroke="#ea7a8d" stroke-width="1.01" d="M12 24h1m-3 1h1m15 0h1m0 1h2m-1 1h2M9 28h1m18 0h2M9 29h1m18 0h2m-2 1h2M9 31h1m-2 1h1m0 1h1"/><path stroke="#fd9ca9" stroke-width="1.01" d="M28 24h1"/><path stroke="#df6086" stroke-width="1.01" d="M11 25h1m13 0h1m-16 1h1m19 0h1m-1 2h1m-1 1h1m-4 1h1m2 0h1m-21 1h1m15 0h2m1 0h1m-20 1h1m16 0h2m-19 1h1"/><path stroke="#eb7a8d" stroke-width="1.01" d="M9 26h1m-1 4h1m-1 2h1"/><path stroke="#ea7a8c" stroke-width="1.01" d="M9 27h1"/><path stroke="#df6087" stroke-width="1.01" d="M30 27h1m-3 4h1"/><path stroke="#de6086" stroke-width="1.01" d="M26 32h1"/></svg>