<?xml version="1.0" encoding="UTF-8"?>
<svg width="15" height="13.01" shape-rendering="crispEdges" version="1.1" viewBox="0 -.5 15 13.01" xmlns="http://www.w3.org/2000/svg">
 <g stroke-width="1.01">
  <path d="m1 5e-3h1m12 0h1m-15 1h2m3 0h1m-5 1h1m4 0h1m-7 1h2m-2 1h1m11 0h1m-13 1h2m-2 1h2m-2 1h2m-2 1h1m-1 1h2m-1 1h1m-2 1h2m-2 1h2" stroke="#e4d1b6"/>
  <path d="m2 5e-3h2m-1 1h1m10 0h1m-13 1h4m7 0h2m-13 1h1m2 0h2m6 0h2m-12 1h5m5 0h2m-13 1h3m1 0h2m4 0h1m1 0h1m-13 1h1m1 0h5m4 0h2m-13 1h3m1 0h4m1 0h2m-11 1h1m1 0h6m1 0h3m-12 1h3m1 0h9m-13 1h6m3 0h3m-12 1h2m1 0h4m2 0h4m-13 1h1m1 0h2m1 0h8" stroke="#f2e7ce"/>
  <path d="m8 5e-3h2m1 0h1m-1 1h1m-2 1h1m0 1h1m-2 1h2m-2 1h2m-2 1h2m-2 1h1" stroke="#22232c"/>
  <path d="m10 5e-3h1" stroke="#23232d"/>
  <path d="m2 1.005h1m1 2h1m-2 5h1m4 2h1" stroke="#f2e6ce"/>
  <path d="m4 1.005h1m9 6h1m-5 1h1m-6 1h1m-3 3h1" stroke="#f3e7ce"/>
  <path d="m8 1.005h2m-1 1h1m-2 1h2m-2 1h2m-2 1h2m-1 1h1" stroke="#2f2f3c"/>
  <path d="m10 1.005h1m-1 2h1" stroke="#22222c"/>
  <path d="m13 1.005h1m-6 1h1m2 0h2m-1 1h1" stroke="rgba(24,24,34,0.20784313725490197)"/>
  <path d="m0 2.005h1m6 1h1m-7 1h1" stroke="#e5d1b6"/>
  <path d="m7 2.005h1" stroke="rgba(25,24,34,0.20784313725490197)"/>
  <path d="m3 3.005h1m-2 1h1m2 1h1m7 0h1m-11 1h1m8 0h1m-8 1h1m7 0h1m0 3h1m-11 1h1m1 1h1" stroke="#f2e7cf"/>
  <path d="m1 8.005h1m-2 2h1" stroke="#e4d0b6"/>
  <path d="m14 8.005h1" stroke="#f3e7cf"/>
  <path d="m9 10.005h2" stroke="#ffb83f"/>
  <path d="m9 11.005h2" stroke="#d49730"/>
 </g>
</svg>
