<svg xmlns="http://www.w3.org/2000/svg" shape-rendering="crispEdges" viewBox="0 -0.5 38 38"><path stroke="#0783ff" stroke-width="1.01" d="M9 24h3m14 0h3M8 25h1m18 0h3M7 26h2m20 0h1M7 27h2m-2 1h2m-2 1h2m-1 1h1m-1 1h1"/><path stroke="#0065fe" stroke-width="1.01" d="M12 24h1m-3 1h1m15 0h1M9 26h1m17 0h2M9 27h1m19 0h1M9 28h1m18 0h2M9 29h1m18 0h2M9 30h1m18 0h2M9 31h1m-2 1h2m-1 1h1"/><path stroke="#0782ff" stroke-width="1.01" d="M9 25h1"/><path stroke="#0056e8" stroke-width="1.01" d="M11 25h1m13 0h1m4 2h1m-1 1h1m-1 1h1m-4 1h1m-18 1h1m15 0h4m-4 1h3m-19 1h1"/><path stroke="#0057e8" stroke-width="1.01" d="M10 26h1"/><path stroke="#0156e8" stroke-width="1.01" d="M30 26h1m-1 4h1m-21 2h1"/><path stroke="#0165fe" stroke-width="1.01" d="M28 27h1"/><path stroke="#0783fe" stroke-width="1.01" d="M7 30h1"/><path stroke="#0683ff" stroke-width="1.01" d="M7 31h1"/></svg>