<svg xmlns="http://www.w3.org/2000/svg" shape-rendering="crispEdges" viewBox="0 -0.5 38 38"><path stroke="#8e7566" stroke-width="1.01" d="M12 25h1m-2 1h2"/><path stroke="#ac8966" stroke-width="1.01" d="M13 25h1"/><path stroke="#987d77" stroke-width="1.01" d="M14 25h1m1 2h1m7 0h1m-11 2h1m9 2h1m-11 2h1m3 0h1m3 0h1m-7 2h1m7 0h1"/><path stroke="#dfb594" stroke-width="1.01" d="M24 25h2"/><path stroke="#b79076" stroke-width="1.01" d="M13 26h1"/><path stroke="#a0867b" stroke-width="1.01" d="M14 26h1m-1 2h1m-1 2h1m3 0h1m3 0h1m-9 2h1m3 0h1m3 0h1m-9 2h1m3 0h1m3 0h1m-9 2h1m3 0h1m3 0h1"/><path stroke="#b69076" stroke-width="1.01" d="M15 26h1"/><path stroke="#ac8a6b" stroke-width="1.01" d="M16 26h1m-1 2h1"/><path stroke="rgba(24,24,34,0.20784313725490197)" stroke-width="1.01" d="M17 26h1m2 0h2"/><path stroke="#00c383" stroke-width="1.01" d="M18 26h2m2 0h1m-5 1h1m2 0h1"/><path stroke="#01c383" stroke-width="1.01" d="M23 26h1"/><path stroke="#ac8b6a" stroke-width="1.01" d="M24 26h1m-1 2h1m-9 2h1"/><path stroke="#b58f70" stroke-width="1.01" d="M25 26h1m-13 2h1m1 0h1m9 0h1m-13 2h1m1 0h1m1 0h1m1 0h1m3 0h1m-11 2h1m1 0h1m1 0h1m1 0h1m1 0h1m1 0h1m1 0h1m-13 2h1m1 0h1m1 0h1m1 0h1m3 0h1m1 0h1m-13 2h1m1 0h1m1 0h1m3 0h1m1 0h1"/><path stroke="#8f7066" stroke-width="1.01" d="M11 27h2m-1 4h1m-2 4h2"/><path stroke="#9d817b" stroke-width="1.01" d="M13 27h3m-3 4h3m1 0h3m2 0h2m-10 4h2m2 0h2m3 0h1m-10 2h1m3 0h1m3 0h1"/><path stroke="#008181" stroke-width="1.01" d="M17 27h1m-1 1h1m3 0h1m-4 1h2m2 0h2"/><path stroke="#00a389" stroke-width="1.01" d="M19 27h2m1 0h2m-6 1h2m2 0h1"/><path stroke="#9c817b" stroke-width="1.01" d="M25 27h1"/><path stroke="#947862" stroke-width="1.01" d="M11 28h1m-1 2h2m-2 2h2m-2 2h1m-1 2h2"/><path stroke="#947863" stroke-width="1.01" d="M12 28h1"/><path stroke="#008081" stroke-width="1.01" d="M20 28h1"/><path stroke="#008180" stroke-width="1.01" d="M23 28h1"/><path stroke="#8a7162" stroke-width="1.01" d="M11 29h1m0 4h1"/><path stroke="#8b7162" stroke-width="1.01" d="M12 29h1m-2 4h1m-1 4h2"/><path stroke="#ac8967" stroke-width="1.01" d="M13 29h1m1 0h3m3 0h1m3 0h1m-13 4h1m1 0h3m1 0h3m1 0h3m-13 4h1m1 0h3m1 0h1m1 0h1m1 0h3"/><path stroke="#ad8967" stroke-width="1.01" d="M20 29h1m3 0h1m-5 8h1"/><path stroke="#c5cacc" stroke-width="1.01" d="M20 30h2m-2 4h2"/><path stroke="#ac8b6b" stroke-width="1.01" d="M24 30h1m-9 2h1m3 0h1m3 0h1m-9 2h1m7 0h1m-9 2h1m3 0h1m3 0h1"/><path stroke="#b48e70" stroke-width="1.01" d="M25 30h1"/><path stroke="#8f7166" stroke-width="1.01" d="M11 31h1"/><path stroke="#997d77" stroke-width="1.01" d="M16 31h1"/><path stroke="#aaafb1" stroke-width="1.01" d="M20 31h2m-2 4h2"/><path stroke="#9d817a" stroke-width="1.01" d="M25 31h1m-13 4h1m3 0h1m4 0h1"/><path stroke="#957862" stroke-width="1.01" d="M12 34h1"/><path stroke="#9d807b" stroke-width="1.01" d="M25 35h1"/><path stroke="#b58e70" stroke-width="1.01" d="M19 36h1m5 0h1"/></svg>