<svg xmlns="http://www.w3.org/2000/svg" shape-rendering="crispEdges" viewBox="0 -0.5 38 38"><path stroke="#22222f" stroke-width="1.01" d="M12 25h1m-2 1h2m-2 1h2m-2 2h1m-1 1h2m-2 1h1m-1 1h2m-2 1h1m-1 1h1m0 1h1m-2 1h2m-2 1h2"/><path stroke="#2f2f3e" stroke-width="1.01" d="M13 25h1m11 2h1m-2 2h1m-8 1h1m0 1h1m-3 2h1m7 2h1m-1 2h1"/><path stroke="#2f2f3f" stroke-width="1.01" d="M14 25h1m-2 1h2m10 0h1m-13 1h4m7 0h1m-12 1h5m6 0h2m-13 1h6m6 0h1m-13 1h4m1 0h1m4 0h3m-13 1h2m1 0h2m1 0h1m3 0h3m-13 1h1m1 0h1m1 0h1m2 0h1m1 0h4m-13 1h3m2 0h1m1 0h6m-12 1h1m3 0h8m-13 1h3m1 0h3m2 0h2m1 0h1m-13 1h7m2 0h4m-13 1h7m1 0h3m1 0h1"/><path stroke="#c52133" stroke-width="1.01" d="M19 25h1m1 0h2m-1 1h1m-2 2h2m-2 1h2m-1 1h1m-1 1h1m-2 1h1"/><path stroke="#c52132" stroke-width="1.01" d="M20 25h1m0 5h1m-1 1h1"/><path stroke="#363643" stroke-width="1.01" d="M25 25h1m-10 1h1m0 1h1m0 1h1m4 1h1"/><path stroke="#2e2f3f" stroke-width="1.01" d="M15 26h1m-1 5h1m2 1h1m1 5h1"/><path stroke="#fc4559" stroke-width="1.01" d="M19 26h1"/><path stroke="#fb0620" stroke-width="1.01" d="M20 26h1"/><path stroke="#fb0621" stroke-width="1.01" d="M21 26h1m-2 1h1m-2 1h2m-2 1h2m-2 1h2m-1 1h1"/><path stroke="rgba(24,24,34,0.20784313725490197)" stroke-width="1.01" d="M24 26h1m-7 1h2m2 0h2m-1 1h1"/><path stroke="#c42133" stroke-width="1.01" d="M21 27h1"/><path stroke="#22232f" stroke-width="1.01" d="M11 28h2"/><path stroke="#23222f" stroke-width="1.01" d="M12 29h1m-1 2h1m-1 2h1m-1 1h1m-2 1h1"/><path stroke="#2f2e3f" stroke-width="1.01" d="M14 32h1m1 0h1m2 0h1m-3 1h1m1 0h1m-5 1h3m-2 1h1"/><path stroke="#2e2f3e" stroke-width="1.01" d="M13 34h1"/><path stroke="#ffb83f" stroke-width="1.01" d="M20 35h2"/><path stroke="#d49730" stroke-width="1.01" d="M20 36h2"/></svg>