<?xml version="1.0" encoding="UTF-8"?>
<svg width="30" height="15.01" shape-rendering="crispEdges" version="1.1" viewBox="0 -.5 30 15.01" xmlns="http://www.w3.org/2000/svg">
 <g stroke-width="1.01">
  <path d="m22 5e-3h2m-3 1h1m5 0h1m-8 1h1m5 0h1m-26 7h2m-1 1h2m1 0h3" stroke="#ffb7be"/>
  <path d="m24 5e-3h2m-3 1h1m1 0h1m-5 1h5m-6 1h1m1 0h1m-2 1h1m-1 1h2m-1 1h1m0 1h1m-2 1h1m-3 1h2m1 0h1m-24 1h2m6 0h1m6 0h2m1 0h1m3 0h1m-21 1h6m1 0h1m1 0h7m1 0h2m-18 1h1m1 0h1m1 0h8m1 0h1" stroke="#f685a0"/>
  <path d="m22 1.005h1m-2 2h1m1 3h1m-1 2h1m-7 2h1m1 0h1m1 0h1m-22 1h2m8 0h1m4 1h1" stroke="#f785a0"/>
  <path d="m24 1.005h1" stroke="#08061c"/>
  <path d="m26 1.005h1" stroke="#feb7be"/>
  <path d="m27 2.005h2m-3 1h1m1 0h2m-3 1h3m-2 1h2" stroke="#9e505f"/>
  <path d="m23 3.005h1m1 0h1m-4 1h1m1 2h1m-1 1h1m-23 1h1m21 0h2m-23 1h2m19 0h2m-3 1h3m-5 1h4m-24 1h2m14 0h4m1 0h2m-21 1h1m1 0h5m1 0h5m1 0h5m-17 1h14" stroke="#eb5e86"/>
  <path d="m24 3.005h1" stroke="#eb5f86"/>
  <path d="m27 3.005h1" stroke="#9e515f"/>
  <path d="m23 5.005h1m-2 4h1m-3 1h1m-3 1h1" stroke="#f684a0"/>
  <path d="m22 7.005h1m-15 4h1m-5 1h1m1 0h1" stroke="#f685a1"/>
  <path d="m25 7.005h1m-23 1h1m0 5h1m5 0h1" stroke="#eb5e87"/>
  <path d="m4 10.005h1" stroke="#ffb7bf"/>
  <path d="m21 12.005h1m-6 1h1" stroke="#ea5e86"/>
 </g>
</svg>
