<svg xmlns="http://www.w3.org/2000/svg" shape-rendering="crispEdges" viewBox="0 -0.5 38 38"><path stroke="#e4d1b6" stroke-width="1.01" d="M12 25h1m12 0h1m-15 1h2m3 0h1m-5 1h1m4 0h1m-7 1h2m5 0h1m-8 1h2m10 0h1m-12 1h1m-2 1h2m-2 1h2m-2 1h2m-2 1h2m-2 1h2m-2 1h2m-2 1h2"/><path stroke="#f2e7ce" stroke-width="1.01" d="M13 25h1m-1 1h3m9 0h1m-13 1h4m7 0h2m-12 1h4m6 0h2m-13 1h3m2 0h1m5 0h2m-13 1h6m4 0h3m-13 1h1m1 0h3m1 0h1m3 0h3m-13 1h2m1 0h5m1 0h3m-12 1h13m-13 1h1m1 0h2m2 0h7m-13 1h3m1 0h3m2 0h4m-12 1h6m3 0h2m-12 1h3m1 0h7m1 0h1"/><path stroke="#f3e7ce" stroke-width="1.01" d="M14 25h1m1 4h1m-3 2h1m-1 3h1m1 1h1"/><path stroke="#c18a2d" stroke-width="1.01" d="M19 25h2m1 0h1m-1 1h1"/><path stroke="#c08a2d" stroke-width="1.01" d="M21 25h1"/><path stroke="#ffc84b" stroke-width="1.01" d="M19 26h1"/><path stroke="#feb83f" stroke-width="1.01" d="M20 26h1m-1 1h1"/><path stroke="#ffb83f" stroke-width="1.01" d="M21 26h1m-3 2h2m-2 1h2m-1 1h1m-1 1h1m-1 4h2"/><path stroke="rgba(24,24,34,0.20784313725490197)" stroke-width="1.01" d="M24 26h1m-6 1h1m2 0h2m-1 1h1"/><path stroke="#e5d1b6" stroke-width="1.01" d="M11 27h1"/><path stroke="rgba(24,24,35,0.20784313725490197)" stroke-width="1.01" d="M18 27h1"/><path stroke="#d49730" stroke-width="1.01" d="M21 27h1m-1 1h2m-2 1h2m-2 1h2m-2 2h1m-2 4h2"/><path stroke="#f2e6ce" stroke-width="1.01" d="M13 28h1m4 6h1m-6 2h1m8 0h1m2 0h1"/><path stroke="#f2e7cf" stroke-width="1.01" d="M17 29h1m-3 3h1m9 0h1m-9 2h1m-2 3h1m7 0h1"/><path stroke="#e4d1b7" stroke-width="1.01" d="M11 30h1"/><path stroke="#ffb93f" stroke-width="1.01" d="M19 30h1"/><path stroke="#f3e7cf" stroke-width="1.01" d="M18 31h1"/><path stroke="#d49631" stroke-width="1.01" d="M21 31h1"/><path stroke="#d49630" stroke-width="1.01" d="M22 31h1"/></svg>