<svg xmlns="http://www.w3.org/2000/svg" shape-rendering="crispEdges" viewBox="0 -0.5 38 38"><path stroke="#22222f" stroke-width="1.01" d="M12 25h1m-2 1h2m-2 2h2m-2 1h2m-2 1h2m-1 1h1m-2 1h2m-2 1h1m0 1h1m-2 1h1m-1 1h2m-2 1h2"/><path stroke="#2f2f3f" stroke-width="1.01" d="M13 25h2m-2 1h3m9 0h1m-13 1h2m1 0h1m7 0h2m-13 1h5m6 0h2m-13 1h2m1 0h3m5 0h2m-13 1h1m2 0h3m5 0h2m-13 1h7m3 0h3m-13 1h4m1 0h3m1 0h2m1 0h1m-13 1h2m1 0h10m-13 1h8m1 0h4m-13 1h1m1 0h3m4 0h4m-12 1h1m1 0h1m5 0h2m1 0h1m-13 1h13"/><path stroke="#202ca9" stroke-width="1.01" d="M19 25h4m-1 1h1"/><path stroke="#373742" stroke-width="1.01" d="M25 25h1"/><path stroke="#363643" stroke-width="1.01" d="M16 26h1m0 1h1m0 1h1m4 1h1"/><path stroke="#4f5dfa" stroke-width="1.01" d="M19 26h1"/><path stroke="#3745d3" stroke-width="1.01" d="M20 26h2m-2 1h1m-2 1h2m-2 1h2m-2 1h2m-1 1h1"/><path stroke="rgba(24,24,34,0.20784313725490197)" stroke-width="1.01" d="M24 26h1m-6 1h1m2 0h2m-1 1h1"/><path stroke="#23222f" stroke-width="1.01" d="M11 27h2m-2 4h1m0 4h1"/><path stroke="#2e2f3e" stroke-width="1.01" d="M15 27h1"/><path stroke="rgba(25,24,34,0.20784313725490197)" stroke-width="1.01" d="M18 27h1"/><path stroke="#212fc5" stroke-width="1.01" d="M21 27h1m-1 1h2m-2 1h1m-1 1h2m-2 1h2m-2 1h1"/><path stroke="#2f2f3e" stroke-width="1.01" d="M15 29h1m7 1h1m-5 5h1m-3 1h2"/><path stroke="#212fc4" stroke-width="1.01" d="M22 29h1"/><path stroke="#2e2f3f" stroke-width="1.01" d="M14 30h1m2 2h1m-3 1h1m2 2h1m-4 1h1m3 0h1m4 0h1"/><path stroke="#2f2e3f" stroke-width="1.01" d="M15 30h1m8 2h1m-11 3h1m-2 1h1"/><path stroke="#22232e" stroke-width="1.01" d="M12 33h1"/><path stroke="#22222e" stroke-width="1.01" d="M11 34h1"/><path stroke="#2e2e3e" stroke-width="1.01" d="M21 34h1"/><path stroke="#ffb83f" stroke-width="1.01" d="M20 35h2"/><path stroke="#d59730" stroke-width="1.01" d="M20 36h1"/><path stroke="#d49730" stroke-width="1.01" d="M21 36h1"/></svg>