<svg xmlns="http://www.w3.org/2000/svg" shape-rendering="crispEdges" viewBox="0 -0.5 38 38"><path stroke="#e4d1b6" stroke-width="1.01" d="M12 25h1m-1 1h1m-1 1h1m4 0h1m-7 1h2m5 0h1m-7 1h1m10 0h1m-13 1h2m-2 1h2m-1 1h1m-2 1h2m-2 1h2m-2 1h2m-1 1h1m-2 1h2"/><path stroke="#f3e7ce" stroke-width="1.01" d="M13 25h1m10 2h1m-12 2h1m4 1h1m0 1h1m4 1h1m-11 1h1m5 4h2m3 0h1"/><path stroke="#f2e7ce" stroke-width="1.01" d="M14 25h1m-2 1h3m9 0h1m-13 1h2m1 0h1m8 0h1m-13 1h5m6 0h2m-12 1h5m6 0h1m-13 1h4m6 0h3m-13 1h2m1 0h3m4 0h3m-13 1h8m1 0h2m1 0h1m-13 1h1m1 0h10m-12 1h3m1 0h3m1 0h2m1 0h2m-13 1h4m1 0h2m2 0h4m-13 1h1m1 0h5m2 0h3m-12 1h7m2 0h3"/><path stroke="#a5002f" stroke-width="1.01" d="M19 25h1m1 0h2"/><path stroke="#a4002f" stroke-width="1.01" d="M20 25h1m1 1h1"/><path stroke="#e4d1b7" stroke-width="1.01" d="M25 25h1m-15 1h1m4 0h1"/><path stroke="#fb0099" stroke-width="1.01" d="M19 26h2"/><path stroke="#d1005c" stroke-width="1.01" d="M21 26h1m-1 1h1m-1 1h2m-2 1h2m-1 1h1m-2 1h2m-2 1h1"/><path stroke="rgba(24,24,34,0.20784313725490197)" stroke-width="1.01" d="M24 26h1m-7 1h2m2 0h2m-1 1h1"/><path stroke="#e4d0b6" stroke-width="1.01" d="M11 27h1m-1 2h1"/><path stroke="#f2e6ce" stroke-width="1.01" d="M15 27h1m9 6h1m-10 1h1m3 0h1m2 0h1m-7 1h1"/><path stroke="#fa0099" stroke-width="1.01" d="M20 27h1m-1 1h1m-2 1h2m-2 1h1m0 1h1"/><path stroke="#fa0098" stroke-width="1.01" d="M19 28h1"/><path stroke="#f2e7cf" stroke-width="1.01" d="M24 29h1m-8 1h1m-4 6h1"/><path stroke="#fa0199" stroke-width="1.01" d="M20 30h1"/><path stroke="#d1005d" stroke-width="1.01" d="M21 30h1"/><path stroke="#f3e6ce" stroke-width="1.01" d="M15 31h1"/><path stroke="#e5d1b6" stroke-width="1.01" d="M11 32h1m-1 4h1"/><path stroke="#ae6667" stroke-width="1.01" d="M20 35h1"/><path stroke="#ae6666" stroke-width="1.01" d="M21 35h1"/><path stroke="#8c5656" stroke-width="1.01" d="M20 36h2"/><path stroke="#f3e7cf" stroke-width="1.01" d="M25 36h1"/></svg>