<?xml version="1.0" encoding="UTF-8"?>
<svg width="15" height="13.01" shape-rendering="crispEdges" version="1.1" viewBox="0 -.5 15 13.01" xmlns="http://www.w3.org/2000/svg">
 <g stroke-width="1.01">
  <path d="m1 5e-3h1m-1 1h1m-1 1h1m4 0h1m-7 1h2m5 0h1m-7 1h1m10 0h1m-13 1h2m-2 1h2m-1 1h1m-2 1h2m-2 1h2m-2 1h2m-1 1h1m-2 1h2" stroke="#e4d1b6"/>
  <path d="m2 5e-3h1m10 2h1m-12 2h1m4 1h1m0 1h1m4 1h1m-11 1h1m5 4h2m3 0h1" stroke="#f3e7ce"/>
  <path d="m3 5e-3h1m-2 1h3m9 0h1m-13 1h2m1 0h1m8 0h1m-13 1h5m6 0h2m-12 1h5m6 0h1m-13 1h4m6 0h3m-13 1h2m1 0h3m4 0h3m-13 1h8m1 0h2m1 0h1m-13 1h1m1 0h10m-12 1h3m1 0h3m1 0h2m1 0h2m-13 1h4m1 0h2m2 0h4m-13 1h1m1 0h5m2 0h3m-12 1h7m2 0h3" stroke="#f2e7ce"/>
  <path d="m8 5e-3h1m1 0h2" stroke="#a5002f"/>
  <path d="m9 5e-3h1m1 1h1" stroke="#a4002f"/>
  <path d="m14 5e-3h1m-15 1h1m4 0h1" stroke="#e4d1b7"/>
  <path d="m8 1.005h2" stroke="#fb0099"/>
  <path d="m10 1.005h1m-1 1h1m-1 1h2m-2 1h2m-1 1h1m-2 1h2m-2 1h1" stroke="#d1005c"/>
  <path d="m13 1.005h1m-7 1h2m2 0h2m-1 1h1" stroke="rgba(24,24,34,0.20784313725490197)"/>
  <path d="m0 2.005h1m-1 2h1" stroke="#e4d0b6"/>
  <path d="m4 2.005h1m9 6h1m-10 1h1m3 0h1m2 0h1m-7 1h1" stroke="#f2e6ce"/>
  <path d="m9 2.005h1m-1 1h1m-2 1h2m-2 1h1m0 1h1" stroke="#fa0099"/>
  <path d="m8 3.005h1" stroke="#fa0098"/>
  <path d="m13 4.005h1m-8 1h1m-4 6h1" stroke="#f2e7cf"/>
  <path d="m9 5.005h1" stroke="#fa0199"/>
  <path d="m10 5.005h1" stroke="#d1005d"/>
  <path d="m4 6.005h1" stroke="#f3e6ce"/>
  <path d="m0 7.005h1m-1 4h1" stroke="#e5d1b6"/>
  <path d="m9 10.005h1" stroke="#ae6667"/>
  <path d="m10 10.005h1" stroke="#ae6666"/>
  <path d="m9 11.005h2" stroke="#8c5656"/>
  <path d="m14 11.005h1" stroke="#f3e7cf"/>
 </g>
</svg>
