<svg xmlns="http://www.w3.org/2000/svg" shape-rendering="crispEdges" viewBox="0 -0.5 38 38"><path stroke="#e4d1b6" stroke-width="1.01" d="M12 25h1m12 0h1m-15 1h2m3 0h1m-5 1h1m4 0h1m-7 1h2m-2 1h1m11 0h1m-13 1h2m-2 1h2m-2 1h2m-2 1h1m-1 1h2m-1 1h1m-2 1h2m-2 1h2"/><path stroke="#f2e7ce" stroke-width="1.01" d="M13 25h2m-1 1h1m10 0h1m-13 1h4m7 0h2m-13 1h1m2 0h2m6 0h2m-12 1h5m5 0h2m-13 1h3m1 0h2m4 0h1m1 0h1m-13 1h1m1 0h5m4 0h2m-13 1h3m1 0h4m1 0h2m-11 1h1m1 0h6m1 0h3m-12 1h3m1 0h9m-13 1h6m3 0h3m-12 1h2m1 0h4m2 0h4m-13 1h1m1 0h2m1 0h8"/><path stroke="#22232c" stroke-width="1.01" d="M19 25h2m1 0h1m-1 1h1m-2 1h1m0 1h1m-2 1h2m-2 1h2m-2 1h2m-2 1h1"/><path stroke="#23232d" stroke-width="1.01" d="M21 25h1"/><path stroke="#f2e6ce" stroke-width="1.01" d="M13 26h1m1 2h1m-2 5h1m4 2h1"/><path stroke="#f3e7ce" stroke-width="1.01" d="M15 26h1m9 6h1m-5 1h1m-6 1h1m-3 3h1"/><path stroke="#2f2f3c" stroke-width="1.01" d="M19 26h2m-1 1h1m-2 1h2m-2 1h2m-2 1h2m-1 1h1"/><path stroke="#22222c" stroke-width="1.01" d="M21 26h1m-1 2h1"/><path stroke="rgba(24,24,34,0.20784313725490197)" stroke-width="1.01" d="M24 26h1m-6 1h1m2 0h2m-1 1h1"/><path stroke="#e5d1b6" stroke-width="1.01" d="M11 27h1m6 1h1m-7 1h1"/><path stroke="rgba(25,24,34,0.20784313725490197)" stroke-width="1.01" d="M18 27h1"/><path stroke="#f2e7cf" stroke-width="1.01" d="M14 28h1m-2 1h1m2 1h1m7 0h1m-11 1h1m8 0h1m-8 1h1m7 0h1m0 3h1m-11 1h1m1 1h1"/><path stroke="#e4d0b6" stroke-width="1.01" d="M12 33h1m-2 2h1"/><path stroke="#f3e7cf" stroke-width="1.01" d="M25 33h1"/><path stroke="#ffb83f" stroke-width="1.01" d="M20 35h2"/><path stroke="#d49730" stroke-width="1.01" d="M20 36h2"/></svg>