<?xml version="1.0" encoding="UTF-8"?>
<svg width="24" height="10.01" shape-rendering="crispEdges" version="1.1" viewBox="0 -.5 24 10.01" xmlns="http://www.w3.org/2000/svg">
 <g stroke-width="1.01">
  <path d="m2 5e-3h1m1 0h1m14 0h2m-20 1h2m17 0h3m-23 1h1m21 0h1m-23 1h2m-2 1h2m-2 1h2m-2 1h2m-2 1h2" stroke="#fc9ca9"/>
  <path d="m3 5e-3h1m-3 2h1" stroke="#fc9da9"/>
  <path d="m5 5e-3h1m-3 1h1m15 0h1m0 1h2m-1 1h2m-21 1h1m18 0h2m-21 1h1m18 0h2m-2 1h2m-21 1h1m-2 1h1m0 1h1" stroke="#ea7a8d"/>
  <path d="m21 5e-3h1" stroke="#fd9ca9"/>
  <path d="m4 1.005h1m13 0h1m-16 1h1m19 0h1m-1 2h1m-1 1h1m-4 1h1m2 0h1m-21 1h1m15 0h2m1 0h1m-20 1h1m16 0h2m-19 1h1" stroke="#df6086"/>
  <path d="m2 2.005h1m-1 4h1m-1 2h1" stroke="#eb7a8d"/>
  <path d="m2 3.005h1" stroke="#ea7a8c"/>
  <path d="m23 3.005h1m-3 4h1" stroke="#df6087"/>
  <path d="m19 8.005h1" stroke="#de6086"/>
 </g>
</svg>
