<svg xmlns="http://www.w3.org/2000/svg" shape-rendering="crispEdges" viewBox="0 -0.5 38 38"><path stroke="#23222f" stroke-width="1.01" d="M12 25h1"/><path stroke="#2f2f3f" stroke-width="1.01" d="M13 25h2m-2 1h1m1 0h2m8 0h1m-13 1h4m7 0h2m-13 1h3m8 0h2m-13 1h3m1 0h1m2 0h2m2 0h2m-13 1h7m2 0h4m-13 1h7m3 0h1m1 0h1m-13 1h9m1 0h3m-13 1h2m1 0h5m3 0h2m-13 1h5m1 0h1m2 0h4m-13 1h4m1 0h2m3 0h3m-12 1h3m1 0h8m-13 1h5m1 0h7"/><path stroke="#40404e" stroke-width="1.01" d="M24 25h2"/><path stroke="#22222f" stroke-width="1.01" d="M11 26h2m-2 1h2m-2 1h2m-2 1h2m-1 1h1m-2 1h2m-1 1h1m-2 1h2m-2 1h2m-2 1h2m-2 1h2m-2 1h2"/><path stroke="#2f2f3e" stroke-width="1.01" d="M14 26h1m9 0h1m-9 3h1m4 4h1m-9 3h1"/><path stroke="rgba(24,25,34,0.20784313725490197)" stroke-width="1.01" d="M17 26h1"/><path stroke="#fc4559" stroke-width="1.01" d="M18 26h2m2 0h1m-5 1h1m2 0h1"/><path stroke="rgba(24,24,34,0.20784313725490197)" stroke-width="1.01" d="M20 26h2"/><path stroke="#fc4558" stroke-width="1.01" d="M23 26h1"/><path stroke="#c52133" stroke-width="1.01" d="M17 27h1m-1 1h1m2 0h2m1 0h1m-6 1h1m3 0h2"/><path stroke="#fb0621" stroke-width="1.01" d="M19 27h2m1 0h2m-6 1h1"/><path stroke="#2e2f3f" stroke-width="1.01" d="M16 28h1m5 3h1m1 0h1m-3 1h1m-8 1h1"/><path stroke="#fb0721" stroke-width="1.01" d="M19 28h1"/><path stroke="#fa0621" stroke-width="1.01" d="M22 28h1"/><path stroke="#c52033" stroke-width="1.01" d="M19 29h1"/><path stroke="#22222e" stroke-width="1.01" d="M11 30h1m-1 2h1"/><path stroke="#ffb83f" stroke-width="1.01" d="M20 30h1m0 4h1"/><path stroke="#feb83f" stroke-width="1.01" d="M21 30h1"/><path stroke="#d49730" stroke-width="1.01" d="M20 31h1m-1 4h1"/><path stroke="#d49630" stroke-width="1.01" d="M21 31h1"/><path stroke="#2f2e3f" stroke-width="1.01" d="M22 33h2m-6 1h1m-2 1h1m4 0h1m-5 2h1"/><path stroke="#ffb83e" stroke-width="1.01" d="M20 34h1"/><path stroke="#d59730" stroke-width="1.01" d="M21 35h1"/><path stroke="#2e2e3f" stroke-width="1.01" d="M17 36h1"/></svg>