<svg
   shape-rendering="crispEdges"
   viewBox="0 -0.5 7 9"
   version="1.1"
   id="svg20"
   sodipodi:docname="wing_right_robot.svg"
   width="7"
   height="9"
   xmlns="http://www.w3.org/2000/svg"
   xmlns:svg="http://www.w3.org/2000/svg">
  <defs
     id="defs24" />
  <sodipodi:namedview
     id="namedview22"
     pagecolor="#505050"
     bordercolor="#eeeeee"
     borderopacity="1"
     inkscape:pageshadow="0"
     inkscape:pageopacity="0"
     inkscape:pagecheckerboard="0"
     showgrid="false"
     inkscape:zoom="17"
     inkscape:cx="-7.0294118"
     inkscape:cy="-5.0294118"
     inkscape:window-width="1920"
     inkscape:window-height="1009"
     inkscape:window-x="-8"
     inkscape:window-y="-8"
     inkscape:window-maximized="1"
     inkscape:current-layer="svg20" />
  <path
     stroke="#a8a8a8"
     d="M 5,0 H 6 M 2,1 H 4 M 1,2 h 1"
     id="path2" />
  <path
     stroke="#858585"
     d="M 6,0 H 7 M 6,1 H 7 M 2,2 H 5 M 0,3 H 4 M 1,4 H 3 M 1,5 h 1"
     id="path4" />
  <path
     stroke="#848585"
     d="M 4,1 H 5"
     id="path6" />
  <path
     stroke="#858584"
     d="M 5,1 H 6"
     id="path8" />
  <path
     stroke="#a8a9a8"
     d="M 0,2 H 1"
     id="path10" />
  <path
     stroke="#858485"
     d="M 5,2 H 6"
     id="path12" />
  <path
     stroke="#767776"
     d="M 4,3 H 5"
     id="path14" />
  <path
     stroke="#636363"
     d="M 0,4 H 1 M 3,5 H 4 M 0,6 H 1 M 2,6 H 3 M 1,7 H 2 M 0,8 h 1"
     id="path16" />
  <path
     stroke="#767676"
     d="M 3,4 H 4 M 0,5 H 1 M 2,5 H 3 M 1,6 H 2 M 0,7 h 1"
     id="path18" />
</svg>
