<svg
   shape-rendering="crispEdges"
   viewBox="0 -0.5 21 9"
   version="1.1"
   id="svg40"
   sodipodi:docname="head_accessory_cap_retro.svg"
   width="21"
   height="9"
   xmlns="http://www.w3.org/2000/svg"
   xmlns:svg="http://www.w3.org/2000/svg">
  <defs
     id="defs44" />
  <sodipodi:namedview
     id="namedview42"
     pagecolor="#505050"
     bordercolor="#eeeeee"
     borderopacity="1"
     inkscape:pageshadow="0"
     inkscape:pageopacity="0"
     inkscape:pagecheckerboard="0"
     showgrid="false"
     inkscape:zoom="17"
     inkscape:cx="8.9705882"
     inkscape:cy="16.970588"
     inkscape:window-width="1920"
     inkscape:window-height="1009"
     inkscape:window-x="-8"
     inkscape:window-y="-8"
     inkscape:window-maximized="1"
     inkscape:current-layer="svg40" />
  <path
     stroke="#f2ea61"
     d="M 4,0 H 7 M 2,1 H 5 M 1,2 H 4 M 1,3 h 1"
     id="path2" />
  <path
     stroke="#2b92d1"
     d="M 7,0 H 9 M 7,1 h 4 M 5,2 h 1 m 1,0 h 2 m 1,0 h 2 M 3,3 h 3 m 1,0 h 5 M 3,4 h 7 m 1,0 h 2 M 3,5 h 1 m 1,0 h 5"
     id="path4" />
  <path
     stroke="#da9aa3"
     d="m 9,0 h 5 m -3,1 h 3 m -1,1 h 3 m -4,1 h 4 m -3,1 h 1 m 1,0 h 2 m -4,1 h 4"
     id="path6" />
  <path
     stroke="#2b93d1"
     d="M 5,1 H 6 M 4,5 h 1 m 7,0 h 1"
     id="path8" />
  <path
     stroke="#2a93d1"
     d="M 6,1 H 7"
     id="path10" />
  <path
     stroke="#db9aa2"
     d="m 14,1 h 1"
     id="path12" />
  <path
     stroke="#2b92d0"
     d="M 4,2 H 5 M 6,3 H 7"
     id="path14" />
  <path
     stroke="#2a92d1"
     d="m 6,2 h 1 m 2,0 h 1 m 0,2 h 1 m -1,1 h 2"
     id="path16" />
  <path
     stroke="#da9ba3"
     d="m 12,2 h 1 m 1,2 h 1"
     id="path18" />
  <path
     stroke="#f3eb61"
     d="M 0,3 H 1"
     id="path20" />
  <path
     stroke="#e1d949"
     d="M 2,3 H 3 M 1,4 H 3 M 0,5 h 3"
     id="path22" />
  <path
     stroke="#f2ea60"
     d="M 0,4 H 1"
     id="path24" />
  <path
     stroke="#008574"
     d="m 0,6 h 8 m 1,0 h 8 m 1,0 h 1 M 2,7 h 1 m 1,0 h 7 m 1,0 h 3 m 1,0 h 5"
     id="path26" />
  <path
     stroke="#008575"
     d="m 8,6 h 1 m 8,0 h 1 M 1,7 h 1 m 9,0 h 1"
     id="path28" />
  <path
     stroke="#018574"
     d="m 3,7 h 1 m 11,0 h 1"
     id="path30" />
  <path
     stroke="#00b982"
     d="m 2,8 h 6 m 1,0 h 2 m 2,0 h 2 m 1,0 h 5"
     id="path32" />
  <path
     stroke="#00b983"
     d="M 8,8 H 9"
     id="path34" />
  <path
     stroke="#00b882"
     d="m 11,8 h 1 m 3,0 h 1"
     id="path36" />
  <path
     stroke="#01b982"
     d="m 12,8 h 1"
     id="path38" />
</svg>
