<svg
   shape-rendering="crispEdges"
   viewBox="0 -0.5 20 11"
   version="1.1"
   id="svg26"
   sodipodi:docname="head_accessory_giga_brain.svg"
   width="20"
   height="11"
   xmlns="http://www.w3.org/2000/svg"
   xmlns:svg="http://www.w3.org/2000/svg">
  <defs
     id="defs30" />
  <sodipodi:namedview
     id="namedview28"
     pagecolor="#505050"
     bordercolor="#eeeeee"
     borderopacity="1"
     inkscape:pageshadow="0"
     inkscape:pageopacity="0"
     inkscape:pagecheckerboard="0"
     showgrid="false"
     inkscape:zoom="17"
     inkscape:cx="13.970588"
     inkscape:cy="15.970588"
     inkscape:window-width="1920"
     inkscape:window-height="1009"
     inkscape:window-x="-8"
     inkscape:window-y="-8"
     inkscape:window-maximized="1"
     inkscape:current-layer="svg26" />
  <path
     stroke="#7124ee"
     d="m 5,0 h 3 m 3,0 h 1 M 4,1 h 3 m 5,0 h 1 m 1,0 h 1 M 5,2 h 2 m 1,0 h 3 m 4,0 h 2 M 2,3 h 3 m 2,0 h 2 m 2,0 h 1 m 2,0 h 2 M 9,4 h 4 m 4,0 h 2 M 1,5 h 1 m 3,0 h 4 m 1,0 h 2 m 4,0 h 3 M 0,6 H 1 M 2,6 H 5 M 2,7 h 2"
     id="path2" />
  <path
     stroke="#6514dd"
     d="m 8,0 h 1 m 1,0 h 1 m 3,0 h 1 M 7,1 h 1 m 1,0 h 1 m 5,0 h 2 M 4,2 H 5 M 1,3 h 1 m 10,0 h 1 M 1,4 H 6 M 2,5 H 5 M 1,7 H 2 M 0,8 H 4 M 1,9 h 2"
     id="path4" />
  <path
     stroke="#5611bc"
     d="m 9,0 h 1 m 0,1 h 1 m 0,1 h 1 M 0,9 h 1 m 0,1 h 2"
     id="path6" />
  <path
     stroke="#7024ee"
     d="m 12,0 h 1 M 3,1 h 1 m 3,1 h 1 m 5,0 h 1 m 5,3 h 1 M 1,6 h 1"
     id="path8" />
  <path
     stroke="#7124ef"
     d="m 13,0 h 1"
     id="path10" />
  <path
     stroke="#6314d9"
     d="m 8,1 h 1 m 2,0 h 1 m 0,1 h 1 m 4,0 h 1 M 9,3 h 1 m 3,0 h 1 m 2,0 h 1 m 1,0 h 2 M 6,4 h 3 m 4,0 h 3 m 3,0 h 1 M 9,5 h 1 m 2,0 h 4"
     id="path12" />
  <path
     stroke="#7125ee"
     d="m 13,1 h 1 M 2,2 h 2 m 10,0 h 1"
     id="path14" />
  <path
     stroke="#6315d9"
     d="m 18,2 h 1 m -2,1 h 1 m -2,1 h 1"
     id="path16" />
  <path
     stroke="#6515dd"
     d="M 5,3 H 6"
     id="path18" />
  <path
     stroke="#7025ee"
     d="M 6,3 H 7"
     id="path20" />
  <path
     stroke="#6214d9"
     d="m 10,3 h 1"
     id="path22" />
  <path
     stroke="#6514dc"
     d="M 0,7 H 1"
     id="path24" />
</svg>
