<svg
   shape-rendering="crispEdges"
   viewBox="0 -0.5 24 9"
   version="1.1"
   id="svg34"
   sodipodi:docname="head_accessory_cowboy_hat_tan.svg"
   width="24"
   height="9"
   xmlns="http://www.w3.org/2000/svg"
   xmlns:svg="http://www.w3.org/2000/svg">
  <defs
     id="defs38" />
  <sodipodi:namedview
     id="namedview36"
     pagecolor="#505050"
     bordercolor="#eeeeee"
     borderopacity="1"
     inkscape:pageshadow="0"
     inkscape:pageopacity="0"
     inkscape:pagecheckerboard="0"
     showgrid="false"
     inkscape:zoom="17"
     inkscape:cx="12.970588"
     inkscape:cy="16.970588"
     inkscape:window-width="1920"
     inkscape:window-height="1009"
     inkscape:window-x="-8"
     inkscape:window-y="-8"
     inkscape:window-maximized="1"
     inkscape:current-layer="svg34" />
  <path
     stroke="#dfab88"
     d="m 7,0 h 1 m 1,0 h 2 M 6,1 h 1 m 4,0 h 3 M 7,2 h 1 m 6,0 h 1 m 7,0 h 1 M 1,3 h 1 m 4,0 h 4 m 7,0 h 2 m 3,0 h 1 M 1,4 h 1 m 4,0 h 7 m 3,0 h 3 m 2,0 h 3 M 0,5 h 4 m 2,0 h 11 m 1,0 h 1 m 1,0 h 2 M 1,6 h 4 m 3,0 h 4 m 1,0 h 5"
     id="path2" />
  <path
     stroke="#dfaa88"
     d="m 8,0 h 1 m 3,6 h 1"
     id="path4" />
  <path
     stroke="#cc9d76"
     d="m 11,0 h 2 m 1,0 h 1 m -1,1 h 2 m -1,1 h 2 M 2,4 h 1 m 2,1 h 1 m 13,0 h 1 m 2,0 h 2 M 5,6 h 3 m 10,0 h 1 m 1,0 h 3 M 2,7 h 5 m 1,0 h 9 m 1,0 h 3 M 7,8 h 11"
     id="path6" />
  <path
     stroke="#cc9c76"
     d="m 13,0 h 1 m 5,6 h 1"
     id="path8" />
  <path
     stroke="#efc1a1"
     d="m 15,0 h 2 M 8,1 h 3 m 5,0 h 2 M 8,2 h 6 m 3,0 h 1 m 5,0 h 1 M 0,3 h 1 m 9,0 h 1 m 1,0 h 5 m -4,1 h 2"
     id="path10" />
  <path
     stroke="#eec1a1"
     d="m 7,1 h 1 m 3,2 h 1"
     id="path12" />
  <path
     stroke="#deab88"
     d="M 6,2 H 7"
     id="path14" />
  <path
     stroke="#ab8570"
     d="m 18,2 h 1 m 0,1 h 1 M 5,4 h 1 m 13,0 h 1"
     id="path16" />
  <path
     stroke="#c4876c"
     d="m 4,3 h 1 m 15,0 h 1 M 4,4 h 1 m 15,0 h 1 M 4,5 h 1"
     id="path18" />
  <path
     stroke="#ab8571"
     d="M 5,3 H 6"
     id="path20" />
  <path
     stroke="#cd9d76"
     d="m 21,3 h 1 M 7,7 h 1 m 9,0 h 1"
     id="path22" />
  <path
     stroke="#efc0a1"
     d="m 23,3 h 1"
     id="path24" />
  <path
     stroke="#efc0a0"
     d="M 0,4 H 1"
     id="path26" />
  <path
     stroke="#c4866c"
     d="M 3,4 H 4"
     id="path28" />
  <path
     stroke="#efc1a0"
     d="m 15,4 h 1"
     id="path30" />
  <path
     stroke="#dfab89"
     d="m 17,5 h 1"
     id="path32" />
</svg>
