<svg
   shape-rendering="crispEdges"
   viewBox="0 -0.5 24 10"
   version="1.1"
   id="svg28"
   sodipodi:docname="body_accessory_floatie_pink.svg"
   width="24"
   height="10"
   xmlns="http://www.w3.org/2000/svg"
   xmlns:svg="http://www.w3.org/2000/svg">
  <defs
     id="defs32" />
  <sodipodi:namedview
     id="namedview30"
     pagecolor="#505050"
     bordercolor="#eeeeee"
     borderopacity="1"
     inkscape:pageshadow="0"
     inkscape:pageopacity="0"
     inkscape:pagecheckerboard="0"
     showgrid="false"
     inkscape:zoom="17"
     inkscape:cx="11.970588"
     inkscape:cy="-5.0294118"
     inkscape:window-width="1920"
     inkscape:window-height="1009"
     inkscape:window-x="-8"
     inkscape:window-y="-8"
     inkscape:window-maximized="1"
     inkscape:current-layer="svg28" />
  <path
     stroke="#ffb7be"
     d="m 2,0 h 3 m 14,0 h 3 M 1,1 h 2 m 17,0 h 2 M 0,2 h 1 m 21,0 h 1 M 1,3 H 2 M 0,4 H 2 M 0,5 H 1 M 0,6 H 2 M 0,7 h 2"
     id="path2" />
  <path
     stroke="#e78290"
     d="M 5,0 H 6 M 3,1 h 1 m 15,0 h 1 M 2,2 h 1 m 17,0 h 2 M 2,3 h 1 m 18,0 h 2 M 2,4 h 1 m 18,0 h 2 m -2,1 h 2 M 2,6 h 1 m 18,0 h 2 M 2,7 H 3 M 2,8 h 1"
     id="path4" />
  <path
     stroke="#e56582"
     d="M 4,1 H 5"
     id="path6" />
  <path
     stroke="#e56482"
     d="m 18,1 h 1 M 3,2 h 1 m 19,2 h 1 m -1,1 h 1 M 3,7 h 1 m 15,0 h 4 M 3,8 h 1 m 15,0 h 3"
     id="path8" />
  <path
     stroke="#feb6be"
     d="m 22,1 h 1"
     id="path10" />
  <path
     stroke="#ffb6be"
     d="M 1,2 H 2 M 1,5 h 1"
     id="path12" />
  <path
     stroke="#e46482"
     d="m 23,2 h 1 m -1,4 h 1 M 3,9 h 1"
     id="path14" />
  <path
     stroke="#ffb7bf"
     d="M 0,3 H 1"
     id="path16" />
  <path
     stroke="#e56483"
     d="m 23,3 h 1"
     id="path18" />
  <path
     stroke="#e68290"
     d="M 2,5 H 3"
     id="path20" />
  <path
     stroke="#e46582"
     d="m 20,6 h 1"
     id="path22" />
  <path
     stroke="#e78390"
     d="M 1,8 H 2"
     id="path24" />
  <path
     stroke="#e78291"
     d="M 2,9 H 3"
     id="path26" />
</svg>
