<svg
   shape-rendering="crispEdges"
   viewBox="0 -0.5 12 12"
   version="1.1"
   id="svg28"
   sodipodi:docname="body_accessory_medal.svg"
   width="12"
   height="12"
   xmlns="http://www.w3.org/2000/svg"
   xmlns:svg="http://www.w3.org/2000/svg">
  <defs
     id="defs32" />
  <sodipodi:namedview
     id="namedview30"
     pagecolor="#505050"
     bordercolor="#eeeeee"
     borderopacity="1"
     inkscape:pageshadow="0"
     inkscape:pageopacity="0"
     inkscape:pagecheckerboard="0"
     showgrid="false"
     inkscape:zoom="17"
     inkscape:cx="5.9705882"
     inkscape:cy="-4.0294118"
     inkscape:window-width="1920"
     inkscape:window-height="1009"
     inkscape:window-x="-8"
     inkscape:window-y="-8"
     inkscape:window-maximized="1"
     inkscape:current-layer="svg28" />
  <path
     stroke="#db9f22"
     d="m 0,0 h 1 m 10,0 h 1 M 0,1 h 1 m 10,0 h 1 M 6,6 h 1 m 2,2 h 1 M 9,9 h 1 m -2,1 h 2 m -5,1 h 1 m 2,0 h 1"
     id="path2" />
  <path
     stroke="#fddc24"
     d="m 0,2 h 2 m 0,1 h 2 m 5,0 h 1 M 4,4 h 2 m 1,0 h 3 M 5,7 H 7 M 8,7 H 9 M 4,8 H 6 M 4,9 h 2 m -2,1 h 2"
     id="path4" />
  <path
     stroke="#f0bf0e"
     d="m 10,2 h 1"
     id="path6" />
  <path
     stroke="#f0bf0f"
     d="m 11,2 h 1 M 1,3 h 1 m 8,0 h 1 M 3,4 H 4 M 6,5 H 8 M 8,8 H 9 M 8,9 h 1 m -2,1 h 1"
     id="path8" />
  <path
     stroke="#fddc25"
     d="M 6,4 H 7"
     id="path10" />
  <path
     stroke="#f0be0f"
     d="M 5,5 H 6"
     id="path12" />
  <path
     stroke="#fcdc24"
     d="M 7,7 H 8"
     id="path14" />
  <path
     stroke="#fef5d7"
     d="M 6,8 H 7"
     id="path16" />
  <path
     stroke="#fff5d6"
     d="M 7,8 H 8"
     id="path18" />
  <path
     stroke="#fff4d7"
     d="M 6,9 H 7"
     id="path20" />
  <path
     stroke="#fff5d7"
     d="M 7,9 H 8 M 6,10 H 7"
     id="path22" />
  <path
     stroke="#db9e22"
     d="M 6,11 H 7"
     id="path24" />
  <path
     stroke="#da9f22"
     d="M 7,11 H 8"
     id="path26" />
</svg>
